<svg width="315" height="217" viewBox="0 0 315 217" fill="none" xmlns="http://www.w3.org/2000/svg">
<g clip-path="url(#clip0_1_693)">
<rect width="315" height="216" transform="translate(0 0.111328)" fill="white"/>
<path d="M0 33.1113L315 33.1113" stroke="#CACACA" stroke-width="0.783582"/>
<path d="M16 33.1113L16 216.111" stroke="#CACACA" stroke-width="0.5"/>
<path d="M289.926 33.1113L289.926 216.47" stroke="#CACACA" stroke-width="0.783582"/>
<path d="M28.6477 16.4011H26.5568C26.5568 16.0526 26.5 15.7439 26.3864 15.475C26.2727 15.2022 26.1136 14.9712 25.9091 14.7818C25.7045 14.5924 25.4621 14.4503 25.1818 14.3556C24.9015 14.2572 24.5909 14.2079 24.25 14.2079C23.5985 14.2079 22.9924 14.3727 22.4318 14.7022C21.8712 15.0318 21.3958 15.5109 21.0057 16.1397C20.6155 16.7647 20.3447 17.5242 20.1932 18.4181C20.053 19.2894 20.0663 20.0185 20.233 20.6056C20.4034 21.1928 20.6989 21.6359 21.1193 21.9352C21.5398 22.2306 22.0511 22.3784 22.6534 22.3784C23.0208 22.3784 23.3731 22.3329 23.7102 22.242C24.0473 22.1473 24.358 22.0091 24.642 21.8272C24.9299 21.6416 25.1818 21.4163 25.3977 21.1511C25.6174 20.8859 25.7879 20.5848 25.9091 20.2477H28.0284C27.8542 20.8007 27.5985 21.3216 27.2614 21.8102C26.9242 22.295 26.5189 22.7231 26.0455 23.0943C25.572 23.4617 25.0417 23.7496 24.4545 23.9579C23.8674 24.1663 23.2348 24.2704 22.5568 24.2704C21.5152 24.2704 20.6231 24.028 19.8807 23.5431C19.142 23.0545 18.6117 22.3556 18.2898 21.4466C17.9678 20.5337 17.911 19.4409 18.1193 18.1681C18.3277 16.9295 18.7292 15.8746 19.3239 15.0034C19.9223 14.1322 20.6515 13.4674 21.5114 13.0091C22.375 12.5469 23.3049 12.3159 24.3011 12.3159C24.9602 12.3159 25.5587 12.4068 26.0966 12.5886C26.6383 12.7704 27.1023 13.0375 27.4886 13.3897C27.875 13.7382 28.1686 14.1663 28.3693 14.6738C28.5739 15.1776 28.6667 15.7534 28.6477 16.4011ZM33.0497 24.2818C32.1899 24.2818 31.474 24.0924 30.902 23.7136C30.3338 23.3348 29.9342 22.8026 29.7031 22.117C29.4721 21.4314 29.4304 20.6359 29.5781 19.7306C29.7259 18.8367 30.0213 18.0545 30.4645 17.3841C30.9115 16.7136 31.474 16.1947 32.152 15.8272C32.8338 15.456 33.5971 15.2704 34.4418 15.2704C35.3016 15.2704 36.0156 15.4617 36.5838 15.8443C37.152 16.2231 37.5516 16.7553 37.7827 17.4409C38.0175 18.1265 38.0611 18.9257 37.9134 19.8386C37.7694 20.7288 37.4721 21.5072 37.0213 22.1738C36.5743 22.8405 36.0118 23.3594 35.3338 23.7306C34.6558 24.0981 33.8944 24.2818 33.0497 24.2818ZM33.2202 22.6341C33.6974 22.6341 34.116 22.5053 34.4759 22.2477C34.8395 21.9863 35.1368 21.6359 35.3679 21.1966C35.6027 20.7534 35.7656 20.2609 35.8565 19.7193C35.9399 19.1966 35.9418 18.7231 35.8622 18.2988C35.7827 17.8708 35.6122 17.5318 35.3509 17.2818C35.0933 17.028 34.7353 16.9011 34.277 16.9011C33.7997 16.9011 33.3774 17.0337 33.0099 17.2988C32.6463 17.5602 32.349 17.9125 32.1179 18.3556C31.8868 18.795 31.7277 19.2856 31.6406 19.8272C31.5535 20.35 31.5497 20.8234 31.6293 21.2477C31.7088 21.6719 31.8793 22.0091 32.1406 22.2591C32.402 22.5091 32.7618 22.6341 33.2202 22.6341ZM45.125 20.4409L45.9716 15.3841H48.0284L46.5739 24.1113H44.5795L44.8409 22.5602H44.75C44.4773 23.0488 44.0871 23.4484 43.5795 23.7591C43.0758 24.0697 42.4962 24.225 41.8409 24.225C41.2689 24.225 40.786 24.0981 40.392 23.8443C39.9981 23.5867 39.7178 23.2136 39.5511 22.725C39.3883 22.2325 39.3636 21.6378 39.4773 20.9409L40.4091 15.3841H42.4659L41.5909 20.6227C41.5038 21.1757 41.5833 21.6151 41.8295 21.9409C42.0795 22.2666 42.4508 22.4295 42.9432 22.4295C43.2462 22.4295 43.5511 22.3556 43.858 22.2079C44.1686 22.0602 44.4394 21.8405 44.6705 21.5488C44.9015 21.2534 45.053 20.8841 45.125 20.4409ZM48.1491 27.3841L50.1605 15.3841H52.1832L51.9503 16.8272H52.0696C52.206 16.6151 52.3897 16.3897 52.6207 16.1511C52.8556 15.9087 53.1529 15.7022 53.5128 15.5318C53.8726 15.3575 54.3101 15.2704 54.8253 15.2704C55.4957 15.2704 56.0734 15.4428 56.5582 15.7875C57.0431 16.1284 57.3897 16.6341 57.598 17.3045C57.8101 17.9712 57.8366 18.7894 57.6776 19.7591C57.5185 20.7174 57.2249 21.5318 56.7969 22.2022C56.3688 22.8727 55.8556 23.3841 55.2571 23.7363C54.6586 24.0886 54.0166 24.2647 53.331 24.2647C52.831 24.2647 52.4276 24.1814 52.1207 24.0147C51.8177 23.8481 51.5885 23.6473 51.4332 23.4125C51.2779 23.1738 51.1624 22.9484 51.0866 22.7363H50.9957L50.223 27.3841H48.1491ZM51.4503 19.7477C51.3594 20.3121 51.3575 20.8064 51.4446 21.2306C51.5355 21.6549 51.7154 21.9863 51.9844 22.225C52.2533 22.4598 52.6056 22.5772 53.0412 22.5772C53.4957 22.5772 53.8935 22.456 54.2344 22.2136C54.5791 21.9674 54.8651 21.6322 55.0923 21.2079C55.3234 20.7799 55.4863 20.2931 55.581 19.7477C55.6681 19.206 55.6681 18.725 55.581 18.3045C55.4938 17.8841 55.3177 17.5545 55.0526 17.3159C54.7874 17.0772 54.4276 16.9579 53.973 16.9579C53.5298 16.9579 53.134 17.0734 52.7855 17.3045C52.4408 17.5356 52.1548 17.8594 51.9276 18.2761C51.7003 18.6928 51.5412 19.1833 51.4503 19.7477ZM62.5341 24.2818C61.6742 24.2818 60.9583 24.0924 60.3864 23.7136C59.8182 23.3348 59.4186 22.8026 59.1875 22.117C58.9564 21.4314 58.9148 20.6359 59.0625 19.7306C59.2102 18.8367 59.5057 18.0545 59.9489 17.3841C60.3958 16.7136 60.9583 16.1947 61.6364 15.8272C62.3182 15.456 63.0814 15.2704 63.9261 15.2704C64.786 15.2704 65.5 15.4617 66.0682 15.8443C66.6364 16.2231 67.036 16.7553 67.267 17.4409C67.5019 18.1265 67.5455 18.9257 67.3977 19.8386C67.2538 20.7288 66.9564 21.5072 66.5057 22.1738C66.0587 22.8405 65.4962 23.3594 64.8182 23.7306C64.1402 24.0981 63.3788 24.2818 62.5341 24.2818ZM62.7045 22.6341C63.1818 22.6341 63.6004 22.5053 63.9602 22.2477C64.3239 21.9863 64.6212 21.6359 64.8523 21.1966C65.0871 20.7534 65.25 20.2609 65.3409 19.7193C65.4242 19.1966 65.4261 18.7231 65.3466 18.2988C65.267 17.8708 65.0966 17.5318 64.8352 17.2818C64.5777 17.028 64.2197 16.9011 63.7614 16.9011C63.2841 16.9011 62.8617 17.0337 62.4943 17.2988C62.1307 17.5602 61.8333 17.9125 61.6023 18.3556C61.3712 18.795 61.2121 19.2856 61.125 19.8272C61.0379 20.35 61.0341 20.8234 61.1136 21.2477C61.1932 21.6719 61.3636 22.0091 61.625 22.2591C61.8864 22.5091 62.2462 22.6341 62.7045 22.6341ZM71.348 18.9977L70.5071 24.1113H68.4446L69.8991 15.3841H71.8707L71.6207 16.867H71.7287C72.0014 16.3784 72.384 15.9901 72.8764 15.7022C73.3688 15.4144 73.9427 15.2704 74.598 15.2704C75.1927 15.2704 75.6927 15.3992 76.098 15.6568C76.5033 15.9106 76.7912 16.2837 76.9616 16.7761C77.1321 17.2647 77.1586 17.8575 77.0412 18.5545L76.1094 24.1113H74.0526L74.9219 18.8727C75.0204 18.2931 74.9465 17.8386 74.7003 17.5091C74.4579 17.1757 74.0677 17.0091 73.5298 17.0091C73.17 17.0091 72.8385 17.0886 72.5355 17.2477C72.2325 17.403 71.9768 17.6284 71.7685 17.9238C71.5639 18.2193 71.4238 18.5772 71.348 18.9977Z" fill="black"/>
<path d="M47.01 142.111L75.9532 84.8386V84.3613H42.2373V72.2931H91.2259V84.5318L62.2486 142.111H47.01ZM119.185 143.066C114.367 143.066 110.071 142.18 106.299 140.407C102.549 138.634 99.5712 136.191 97.3667 133.077C95.1621 129.964 94.0144 126.395 93.9235 122.373H108.242C108.401 125.077 109.537 127.27 111.651 128.952C113.764 130.634 116.276 131.475 119.185 131.475C121.503 131.475 123.549 130.964 125.321 129.941C127.117 128.895 128.514 127.452 129.514 125.611C130.537 123.748 131.049 121.611 131.049 119.202C131.049 116.748 130.526 114.589 129.48 112.725C128.458 110.861 127.037 109.407 125.219 108.361C123.401 107.316 121.321 106.782 118.98 106.759C116.935 106.759 114.946 107.18 113.014 108.02C111.105 108.861 109.617 110.009 108.549 111.464L95.4235 109.111L98.7303 72.2931H141.412V84.3613H110.901L109.094 101.85H109.503C110.73 100.123 112.583 98.6909 115.06 97.5545C117.537 96.4181 120.31 95.85 123.378 95.85C127.583 95.85 131.333 96.8386 134.628 98.8159C137.924 100.793 140.526 103.509 142.435 106.964C144.344 110.395 145.287 114.35 145.264 118.827C145.287 123.532 144.196 127.714 141.992 131.373C139.81 135.009 136.753 137.873 132.821 139.964C128.912 142.032 124.367 143.066 119.185 143.066ZM187.056 129.02V125.339C187.056 122.543 187.647 119.975 188.829 117.634C190.033 115.27 191.772 113.384 194.044 111.975C196.34 110.543 199.135 109.827 202.431 109.827C205.772 109.827 208.579 110.532 210.851 111.941C213.147 113.35 214.874 115.236 216.033 117.6C217.215 119.941 217.806 122.52 217.806 125.339V129.02C217.806 131.816 217.215 134.395 216.033 136.759C214.851 139.1 213.113 140.975 210.817 142.384C208.522 143.816 205.726 144.532 202.431 144.532C199.09 144.532 196.283 143.816 194.01 142.384C191.738 140.975 190.01 139.1 188.829 136.759C187.647 134.395 187.056 131.816 187.056 129.02ZM196.976 125.339V129.02C196.976 130.634 197.363 132.157 198.135 133.589C198.931 135.02 200.363 135.736 202.431 135.736C204.499 135.736 205.908 135.032 206.658 133.623C207.431 132.214 207.817 130.68 207.817 129.02V125.339C207.817 123.68 207.454 122.134 206.726 120.702C205.999 119.27 204.567 118.555 202.431 118.555C200.385 118.555 198.965 119.27 198.169 120.702C197.374 122.134 196.976 123.68 196.976 125.339ZM151.226 89.0659V85.3841C151.226 82.5659 151.829 79.9863 153.033 77.6454C154.238 75.2818 155.976 73.3954 158.249 71.9863C160.544 70.5772 163.317 69.8727 166.567 69.8727C169.931 69.8727 172.749 70.5772 175.022 71.9863C177.294 73.3954 179.022 75.2818 180.204 77.6454C181.385 79.9863 181.976 82.5659 181.976 85.3841V89.0659C181.976 91.8841 181.374 94.4636 180.169 96.8045C178.988 99.1454 177.249 101.02 174.954 102.43C172.681 103.816 169.885 104.509 166.567 104.509C163.249 104.509 160.442 103.805 158.147 102.395C155.874 100.964 154.147 99.0886 152.965 96.7704C151.806 94.4295 151.226 91.8613 151.226 89.0659ZM161.215 85.3841V89.0659C161.215 90.725 161.601 92.2591 162.374 93.6681C163.169 95.0772 164.567 95.7818 166.567 95.7818C168.658 95.7818 170.079 95.0772 170.829 93.6681C171.601 92.2591 171.988 90.725 171.988 89.0659V85.3841C171.988 83.725 171.624 82.1795 170.897 80.7477C170.169 79.3159 168.726 78.6 166.567 78.6C164.544 78.6 163.147 79.3272 162.374 80.7818C161.601 82.2363 161.215 83.7704 161.215 85.3841ZM155.726 142.111L203.726 72.2931H212.658L164.658 142.111H155.726ZM242.734 134.839C242.734 136.373 242.457 137.698 241.903 138.816C241.349 139.933 240.589 140.795 239.623 141.401C238.657 142.007 237.554 142.31 236.313 142.31C235.073 142.31 233.969 142.007 233.004 141.401C232.038 140.795 231.278 139.933 230.724 138.816C230.17 137.698 229.893 136.373 229.893 134.839C229.893 133.305 230.17 131.979 230.724 130.861C231.278 129.744 232.038 128.882 233.004 128.276C233.969 127.67 235.073 127.367 236.313 127.367C237.554 127.367 238.657 127.67 239.623 128.276C240.589 128.882 241.349 129.744 241.903 130.861C242.457 131.979 242.734 133.305 242.734 134.839ZM241.029 134.839C241.029 133.579 240.818 132.516 240.397 131.65C239.98 130.783 239.414 130.127 238.7 129.682C237.989 129.237 237.194 129.015 236.313 129.015C235.432 129.015 234.635 129.237 233.92 129.682C233.209 130.127 232.644 130.783 232.222 131.65C231.806 132.516 231.597 133.579 231.597 134.839C231.597 136.098 231.806 137.161 232.222 138.028C232.644 138.894 233.209 139.55 233.92 139.995C234.635 140.44 235.432 140.662 236.313 140.662C237.194 140.662 237.989 140.44 238.7 139.995C239.414 139.55 239.98 138.894 240.397 138.028C240.818 137.161 241.029 136.098 241.029 134.839ZM245.695 142.111V127.566H254.417V129.128H247.457V134.043H253.763V135.606H247.457V142.111H245.695ZM257.434 142.111V127.566H266.155V129.128H259.195V134.043H265.502V135.606H259.195V142.111H257.434Z" fill="url(#paint0_linear_1_693)"/>
<path d="M53.8153 173.111V161.475H60.7926V162.725H55.2244V166.657H60.2699V167.907H55.2244V173.111H53.8153ZM62.9304 173.111V164.384H64.2259V165.702H64.3168C64.4759 165.27 64.7637 164.92 65.1804 164.651C65.5971 164.382 66.0668 164.248 66.5895 164.248C66.688 164.248 66.8111 164.25 66.9588 164.253C67.1065 164.257 67.2183 164.263 67.294 164.27V165.634C67.2486 165.623 67.1444 165.606 66.9815 165.583C66.8224 165.556 66.6539 165.543 66.4759 165.543C66.0516 165.543 65.6728 165.632 65.3395 165.81C65.0099 165.984 64.7486 166.227 64.5554 166.537C64.366 166.844 64.2713 167.195 64.2713 167.589V173.111H62.9304ZM68.8835 173.111V164.384H70.2244V173.111H68.8835ZM69.5653 162.93C69.304 162.93 69.0786 162.84 68.8892 162.662C68.7036 162.484 68.6108 162.27 68.6108 162.02C68.6108 161.77 68.7036 161.556 68.8892 161.378C69.0786 161.2 69.304 161.111 69.5653 161.111C69.8267 161.111 70.0502 161.2 70.2358 161.378C70.4252 161.556 70.5199 161.77 70.5199 162.02C70.5199 162.27 70.4252 162.484 70.2358 162.662C70.0502 162.84 69.8267 162.93 69.5653 162.93ZM78.8622 166.339L77.6577 166.68C77.5819 166.479 77.4702 166.284 77.3224 166.094C77.1785 165.901 76.9815 165.742 76.7315 165.617C76.4815 165.492 76.1615 165.43 75.7713 165.43C75.2372 165.43 74.7921 165.553 74.4361 165.799C74.0838 166.041 73.9077 166.35 73.9077 166.725C73.9077 167.058 74.0289 167.322 74.2713 167.515C74.5137 167.708 74.8925 167.869 75.4077 167.998L76.7031 168.316C77.4834 168.505 78.0649 168.795 78.4474 169.185C78.83 169.572 79.0213 170.07 79.0213 170.68C79.0213 171.18 78.8774 171.626 78.5895 172.02C78.3054 172.414 77.9077 172.725 77.3963 172.952C76.8849 173.18 76.2902 173.293 75.6122 173.293C74.7221 173.293 73.9853 173.1 73.402 172.714C72.8187 172.327 72.4493 171.763 72.294 171.02L73.5668 170.702C73.688 171.172 73.9171 171.524 74.2543 171.759C74.5952 171.994 75.0402 172.111 75.5895 172.111C76.2145 172.111 76.7107 171.979 77.0781 171.714C77.4493 171.445 77.6349 171.123 77.6349 170.748C77.6349 170.445 77.5289 170.191 77.3168 169.986C77.1046 169.778 76.7789 169.623 76.3395 169.52L74.8849 169.18C74.0857 168.99 73.4986 168.697 73.1236 168.299C72.7524 167.897 72.5668 167.395 72.5668 166.793C72.5668 166.301 72.705 165.865 72.9815 165.486C73.2618 165.108 73.6425 164.81 74.1236 164.594C74.6084 164.378 75.1577 164.27 75.7713 164.27C76.6349 164.27 77.313 164.46 77.8054 164.839C78.3016 165.217 78.6539 165.717 78.8622 166.339ZM84.8352 164.384V165.52H80.3125V164.384H84.8352ZM81.6307 162.293H82.9716V170.611C82.9716 170.99 83.0265 171.274 83.1364 171.464C83.25 171.649 83.3939 171.774 83.5682 171.839C83.7462 171.899 83.9337 171.93 84.1307 171.93C84.2784 171.93 84.3996 171.922 84.4943 171.907C84.589 171.888 84.6648 171.873 84.7216 171.861L84.9943 173.066C84.9034 173.1 84.7765 173.134 84.6136 173.168C84.4508 173.206 84.2443 173.225 83.9943 173.225C83.6155 173.225 83.2443 173.144 82.8807 172.981C82.5208 172.818 82.2216 172.57 81.983 172.236C81.7481 171.903 81.6307 171.483 81.6307 170.975V162.293ZM91.5398 167.498V168.748H86.4489V167.498H91.5398ZM92.2571 162.725V161.475H100.984V162.725H97.3253V173.111H95.9162V162.725H92.2571ZM102.977 173.111V164.384H104.318V173.111H102.977ZM103.659 162.93C103.398 162.93 103.172 162.84 102.983 162.662C102.797 162.484 102.705 162.27 102.705 162.02C102.705 161.77 102.797 161.556 102.983 161.378C103.172 161.2 103.398 161.111 103.659 161.111C103.92 161.111 104.144 161.2 104.33 161.378C104.519 161.556 104.614 161.77 104.614 162.02C104.614 162.27 104.519 162.484 104.33 162.662C104.144 162.84 103.92 162.93 103.659 162.93ZM106.774 173.111V164.384H108.07V165.748H108.183C108.365 165.282 108.659 164.92 109.064 164.662C109.469 164.401 109.956 164.27 110.524 164.27C111.1 164.27 111.579 164.401 111.962 164.662C112.348 164.92 112.649 165.282 112.865 165.748H112.956C113.179 165.297 113.515 164.939 113.962 164.674C114.409 164.405 114.945 164.27 115.57 164.27C116.35 164.27 116.988 164.515 117.484 165.003C117.981 165.488 118.229 166.244 118.229 167.27V173.111H116.888V167.27C116.888 166.626 116.712 166.166 116.359 165.89C116.007 165.613 115.592 165.475 115.115 165.475C114.501 165.475 114.026 165.661 113.689 166.032C113.352 166.399 113.183 166.865 113.183 167.43V173.111H111.82V167.134C111.82 166.638 111.659 166.238 111.337 165.935C111.015 165.628 110.6 165.475 110.092 165.475C109.744 165.475 109.418 165.568 109.115 165.753C108.816 165.939 108.573 166.197 108.388 166.526C108.206 166.852 108.115 167.229 108.115 167.657V173.111H106.774ZM124.339 173.293C123.499 173.293 122.773 173.108 122.163 172.736C121.557 172.361 121.089 171.839 120.76 171.168C120.434 170.494 120.271 169.71 120.271 168.816C120.271 167.922 120.434 167.134 120.76 166.452C121.089 165.767 121.548 165.233 122.135 164.85C122.726 164.464 123.415 164.27 124.203 164.27C124.658 164.27 125.107 164.346 125.55 164.498C125.993 164.649 126.396 164.895 126.76 165.236C127.124 165.573 127.413 166.02 127.629 166.577C127.845 167.134 127.953 167.82 127.953 168.634V169.202H121.226V168.043H126.589C126.589 167.551 126.491 167.111 126.294 166.725C126.101 166.339 125.824 166.034 125.464 165.81C125.108 165.587 124.688 165.475 124.203 165.475C123.669 165.475 123.207 165.608 122.817 165.873C122.43 166.134 122.133 166.475 121.925 166.895C121.716 167.316 121.612 167.767 121.612 168.248V169.02C121.612 169.68 121.726 170.238 121.953 170.697C122.184 171.151 122.504 171.498 122.913 171.736C123.322 171.971 123.798 172.089 124.339 172.089C124.692 172.089 125.01 172.039 125.294 171.941C125.582 171.839 125.83 171.687 126.038 171.486C126.247 171.282 126.408 171.028 126.521 170.725L127.817 171.089C127.68 171.528 127.451 171.914 127.129 172.248C126.807 172.577 126.41 172.835 125.936 173.02C125.463 173.202 124.93 173.293 124.339 173.293ZM138.038 173.293C137.22 173.293 136.516 173.1 135.925 172.714C135.334 172.327 134.879 171.795 134.561 171.117C134.243 170.439 134.084 169.664 134.084 168.793C134.084 167.907 134.247 167.125 134.572 166.447C134.902 165.765 135.36 165.233 135.947 164.85C136.538 164.464 137.228 164.27 138.016 164.27C138.629 164.27 139.182 164.384 139.675 164.611C140.167 164.839 140.571 165.157 140.885 165.566C141.199 165.975 141.394 166.452 141.47 166.998H140.129C140.027 166.6 139.8 166.248 139.447 165.941C139.099 165.63 138.629 165.475 138.038 165.475C137.516 165.475 137.057 165.611 136.663 165.884C136.273 166.153 135.968 166.534 135.749 167.026C135.533 167.515 135.425 168.089 135.425 168.748C135.425 169.422 135.531 170.009 135.743 170.509C135.959 171.009 136.262 171.397 136.652 171.674C137.046 171.95 137.508 172.089 138.038 172.089C138.387 172.089 138.703 172.028 138.987 171.907C139.271 171.786 139.512 171.611 139.709 171.384C139.906 171.157 140.046 170.884 140.129 170.566H141.47C141.394 171.081 141.207 171.545 140.908 171.958C140.612 172.367 140.22 172.693 139.732 172.935C139.247 173.174 138.682 173.293 138.038 173.293ZM144.771 161.475V173.111H143.43V161.475H144.771ZM147.227 173.111V164.384H148.568V173.111H147.227ZM147.909 162.93C147.648 162.93 147.422 162.84 147.233 162.662C147.047 162.484 146.955 162.27 146.955 162.02C146.955 161.77 147.047 161.556 147.233 161.378C147.422 161.2 147.648 161.111 147.909 161.111C148.17 161.111 148.394 161.2 148.58 161.378C148.769 161.556 148.864 161.77 148.864 162.02C148.864 162.27 148.769 162.484 148.58 162.662C148.394 162.84 148.17 162.93 147.909 162.93ZM154.683 173.293C153.842 173.293 153.117 173.108 152.507 172.736C151.901 172.361 151.433 171.839 151.104 171.168C150.778 170.494 150.615 169.71 150.615 168.816C150.615 167.922 150.778 167.134 151.104 166.452C151.433 165.767 151.892 165.233 152.479 164.85C153.07 164.464 153.759 164.27 154.547 164.27C155.001 164.27 155.45 164.346 155.893 164.498C156.337 164.649 156.74 164.895 157.104 165.236C157.467 165.573 157.757 166.02 157.973 166.577C158.189 167.134 158.297 167.82 158.297 168.634V169.202H151.57V168.043H156.933C156.933 167.551 156.835 167.111 156.638 166.725C156.445 166.339 156.168 166.034 155.808 165.81C155.452 165.587 155.032 165.475 154.547 165.475C154.013 165.475 153.551 165.608 153.161 165.873C152.774 166.134 152.477 166.475 152.268 166.895C152.06 167.316 151.956 167.767 151.956 168.248V169.02C151.956 169.68 152.07 170.238 152.297 170.697C152.528 171.151 152.848 171.498 153.257 171.736C153.666 171.971 154.142 172.089 154.683 172.089C155.036 172.089 155.354 172.039 155.638 171.941C155.926 171.839 156.174 171.687 156.382 171.486C156.59 171.282 156.751 171.028 156.865 170.725L158.161 171.089C158.024 171.528 157.795 171.914 157.473 172.248C157.151 172.577 156.753 172.835 156.28 173.02C155.806 173.202 155.274 173.293 154.683 173.293ZM161.678 167.861V173.111H160.337V164.384H161.632V165.748H161.746C161.95 165.305 162.261 164.948 162.678 164.68C163.094 164.407 163.632 164.27 164.291 164.27C164.882 164.27 165.399 164.392 165.842 164.634C166.286 164.873 166.63 165.236 166.876 165.725C167.123 166.21 167.246 166.823 167.246 167.566V173.111H165.905V167.657C165.905 166.971 165.727 166.437 165.371 166.055C165.015 165.668 164.526 165.475 163.905 165.475C163.477 165.475 163.094 165.568 162.757 165.753C162.424 165.939 162.161 166.21 161.967 166.566C161.774 166.922 161.678 167.354 161.678 167.861ZM173.491 164.384V165.52H168.969V164.384H173.491ZM170.287 162.293H171.628V170.611C171.628 170.99 171.683 171.274 171.793 171.464C171.906 171.649 172.05 171.774 172.224 171.839C172.402 171.899 172.59 171.93 172.787 171.93C172.935 171.93 173.056 171.922 173.151 171.907C173.245 171.888 173.321 171.873 173.378 171.861L173.651 173.066C173.56 173.1 173.433 173.134 173.27 173.168C173.107 173.206 172.901 173.225 172.651 173.225C172.272 173.225 171.901 173.144 171.537 172.981C171.177 172.818 170.878 172.57 170.639 172.236C170.404 171.903 170.287 171.483 170.287 170.975V162.293ZM181.534 166.339L180.33 166.68C180.254 166.479 180.142 166.284 179.994 166.094C179.85 165.901 179.653 165.742 179.403 165.617C179.153 165.492 178.833 165.43 178.443 165.43C177.909 165.43 177.464 165.553 177.108 165.799C176.756 166.041 176.58 166.35 176.58 166.725C176.58 167.058 176.701 167.322 176.943 167.515C177.186 167.708 177.564 167.869 178.08 167.998L179.375 168.316C180.155 168.505 180.737 168.795 181.119 169.185C181.502 169.572 181.693 170.07 181.693 170.68C181.693 171.18 181.549 171.626 181.261 172.02C180.977 172.414 180.58 172.725 180.068 172.952C179.557 173.18 178.962 173.293 178.284 173.293C177.394 173.293 176.657 173.1 176.074 172.714C175.491 172.327 175.121 171.763 174.966 171.02L176.239 170.702C176.36 171.172 176.589 171.524 176.926 171.759C177.267 171.994 177.712 172.111 178.261 172.111C178.886 172.111 179.383 171.979 179.75 171.714C180.121 171.445 180.307 171.123 180.307 170.748C180.307 170.445 180.201 170.191 179.989 169.986C179.777 169.778 179.451 169.623 179.011 169.52L177.557 169.18C176.758 168.99 176.17 168.697 175.795 168.299C175.424 167.897 175.239 167.395 175.239 166.793C175.239 166.301 175.377 165.865 175.653 165.486C175.934 165.108 176.314 164.81 176.795 164.594C177.28 164.378 177.83 164.27 178.443 164.27C179.307 164.27 179.985 164.46 180.477 164.839C180.973 165.217 181.326 165.717 181.534 166.339ZM191.984 173.111H188.393V161.475H192.143C193.272 161.475 194.238 161.708 195.041 162.174C195.844 162.636 196.46 163.301 196.888 164.168C197.316 165.032 197.53 166.066 197.53 167.27C197.53 168.483 197.314 169.526 196.882 170.401C196.45 171.272 195.821 171.943 194.996 172.412C194.17 172.878 193.166 173.111 191.984 173.111ZM189.803 171.861H191.893C192.856 171.861 193.653 171.676 194.286 171.305C194.918 170.933 195.39 170.405 195.7 169.719C196.011 169.034 196.166 168.217 196.166 167.27C196.166 166.331 196.013 165.522 195.706 164.844C195.399 164.162 194.941 163.64 194.331 163.276C193.721 162.909 192.962 162.725 192.053 162.725H189.803V171.861ZM199.712 173.111V164.384H201.053V173.111H199.712ZM200.393 162.93C200.132 162.93 199.907 162.84 199.717 162.662C199.532 162.484 199.439 162.27 199.439 162.02C199.439 161.77 199.532 161.556 199.717 161.378C199.907 161.2 200.132 161.111 200.393 161.111C200.655 161.111 200.878 161.2 201.064 161.378C201.253 161.556 201.348 161.77 201.348 162.02C201.348 162.27 201.253 162.484 201.064 162.662C200.878 162.84 200.655 162.93 200.393 162.93ZM209.69 166.339L208.486 166.68C208.41 166.479 208.298 166.284 208.151 166.094C208.007 165.901 207.81 165.742 207.56 165.617C207.31 165.492 206.99 165.43 206.599 165.43C206.065 165.43 205.62 165.553 205.264 165.799C204.912 166.041 204.736 166.35 204.736 166.725C204.736 167.058 204.857 167.322 205.099 167.515C205.342 167.708 205.721 167.869 206.236 167.998L207.531 168.316C208.312 168.505 208.893 168.795 209.276 169.185C209.658 169.572 209.849 170.07 209.849 170.68C209.849 171.18 209.705 171.626 209.418 172.02C209.134 172.414 208.736 172.725 208.224 172.952C207.713 173.18 207.118 173.293 206.44 173.293C205.55 173.293 204.813 173.1 204.23 172.714C203.647 172.327 203.277 171.763 203.122 171.02L204.395 170.702C204.516 171.172 204.745 171.524 205.082 171.759C205.423 171.994 205.868 172.111 206.418 172.111C207.043 172.111 207.539 171.979 207.906 171.714C208.277 171.445 208.463 171.123 208.463 170.748C208.463 170.445 208.357 170.191 208.145 169.986C207.933 169.778 207.607 169.623 207.168 169.52L205.713 169.18C204.914 168.99 204.327 168.697 203.952 168.299C203.58 167.897 203.395 167.395 203.395 166.793C203.395 166.301 203.533 165.865 203.81 165.486C204.09 165.108 204.471 164.81 204.952 164.594C205.437 164.378 205.986 164.27 206.599 164.27C207.463 164.27 208.141 164.46 208.634 164.839C209.13 165.217 209.482 165.717 209.69 166.339ZM215.413 173.293C214.595 173.293 213.891 173.1 213.3 172.714C212.709 172.327 212.254 171.795 211.936 171.117C211.618 170.439 211.459 169.664 211.459 168.793C211.459 167.907 211.622 167.125 211.947 166.447C212.277 165.765 212.735 165.233 213.322 164.85C213.913 164.464 214.603 164.27 215.391 164.27C216.004 164.27 216.557 164.384 217.05 164.611C217.542 164.839 217.946 165.157 218.26 165.566C218.574 165.975 218.769 166.452 218.845 166.998H217.504C217.402 166.6 217.175 166.248 216.822 165.941C216.474 165.63 216.004 165.475 215.413 165.475C214.891 165.475 214.432 165.611 214.038 165.884C213.648 166.153 213.343 166.534 213.124 167.026C212.908 167.515 212.8 168.089 212.8 168.748C212.8 169.422 212.906 170.009 213.118 170.509C213.334 171.009 213.637 171.397 214.027 171.674C214.421 171.95 214.883 172.089 215.413 172.089C215.762 172.089 216.078 172.028 216.362 171.907C216.646 171.786 216.887 171.611 217.084 171.384C217.281 171.157 217.421 170.884 217.504 170.566H218.845C218.769 171.081 218.582 171.545 218.283 171.958C217.987 172.367 217.595 172.693 217.107 172.935C216.622 173.174 216.057 173.293 215.413 173.293ZM224.351 173.293C223.563 173.293 222.872 173.106 222.277 172.731C221.686 172.356 221.224 171.831 220.891 171.157C220.561 170.483 220.396 169.695 220.396 168.793C220.396 167.884 220.561 167.09 220.891 166.412C221.224 165.734 221.686 165.208 222.277 164.833C222.872 164.458 223.563 164.27 224.351 164.27C225.139 164.27 225.828 164.458 226.419 164.833C227.014 165.208 227.476 165.734 227.805 166.412C228.139 167.09 228.305 167.884 228.305 168.793C228.305 169.695 228.139 170.483 227.805 171.157C227.476 171.831 227.014 172.356 226.419 172.731C225.828 173.106 225.139 173.293 224.351 173.293ZM224.351 172.089C224.949 172.089 225.442 171.935 225.828 171.628C226.214 171.322 226.5 170.918 226.686 170.418C226.872 169.918 226.964 169.376 226.964 168.793C226.964 168.21 226.872 167.666 226.686 167.162C226.5 166.659 226.214 166.251 225.828 165.941C225.442 165.63 224.949 165.475 224.351 165.475C223.752 165.475 223.26 165.63 222.874 165.941C222.487 166.251 222.201 166.659 222.016 167.162C221.83 167.666 221.737 168.21 221.737 168.793C221.737 169.376 221.83 169.918 222.016 170.418C222.201 170.918 222.487 171.322 222.874 171.628C223.26 171.935 223.752 172.089 224.351 172.089ZM235.852 169.543V164.384H237.193V173.111H235.852V171.634H235.761C235.557 172.077 235.239 172.454 234.807 172.765C234.375 173.072 233.83 173.225 233.17 173.225C232.625 173.225 232.14 173.106 231.716 172.867C231.292 172.625 230.958 172.261 230.716 171.776C230.473 171.287 230.352 170.672 230.352 169.93V164.384H231.693V169.839C231.693 170.475 231.871 170.983 232.227 171.361C232.587 171.74 233.045 171.93 233.602 171.93C233.936 171.93 234.275 171.844 234.619 171.674C234.968 171.503 235.259 171.242 235.494 170.89C235.733 170.537 235.852 170.089 235.852 169.543ZM240.99 167.861V173.111H239.649V164.384H240.945V165.748H241.058C241.263 165.305 241.573 164.948 241.99 164.68C242.407 164.407 242.945 164.27 243.604 164.27C244.195 164.27 244.712 164.392 245.155 164.634C245.598 164.873 245.943 165.236 246.189 165.725C246.435 166.21 246.558 166.823 246.558 167.566V173.111H245.217V167.657C245.217 166.971 245.039 166.437 244.683 166.055C244.327 165.668 243.839 165.475 243.217 165.475C242.789 165.475 242.407 165.568 242.07 165.753C241.736 165.939 241.473 166.21 241.28 166.566C241.087 166.922 240.99 167.354 240.99 167.861ZM252.804 164.384V165.52H248.281V164.384H252.804ZM249.599 162.293H250.94V170.611C250.94 170.99 250.995 171.274 251.105 171.464C251.219 171.649 251.363 171.774 251.537 171.839C251.715 171.899 251.902 171.93 252.099 171.93C252.247 171.93 252.368 171.922 252.463 171.907C252.558 171.888 252.634 171.873 252.69 171.861L252.963 173.066C252.872 173.1 252.745 173.134 252.582 173.168C252.42 173.206 252.213 173.225 251.963 173.225C251.584 173.225 251.213 173.144 250.849 172.981C250.49 172.818 250.19 172.57 249.952 172.236C249.717 171.903 249.599 171.483 249.599 170.975V162.293Z" fill="black"/>
<path fill-rule="evenodd" clip-rule="evenodd" d="M283.036 12.4448H281.964V19.0653L277.576 14.3839L276.818 15.192L281.207 19.8734H275V21.0163H281.207L276.818 25.6976L277.576 26.5057L281.964 21.8243V28.4448H283.036V21.8243L287.425 26.5057L288.182 25.6976L283.793 21.0163H290V19.8734H283.793L288.182 15.192L287.425 14.3839L283.036 19.0653V12.4448Z" fill="#C1554E"/>
</g>
<defs>
<linearGradient id="paint0_linear_1_693" x1="135.548" y1="72.1113" x2="140.961" y2="151.259" gradientUnits="userSpaceOnUse">
<stop offset="0.630979" stop-color="#C1554E"/>
<stop offset="1" stop-color="#F4C5C1"/>
</linearGradient>
<clipPath id="clip0_1_693">
<rect width="315" height="216" fill="white" transform="translate(0 0.111328)"/>
</clipPath>
</defs>
</svg>
