<svg width="315" height="217" viewBox="0 0 315 217" fill="none" xmlns="http://www.w3.org/2000/svg">
<g clip-path="url(#clip0_1_738)">
<rect width="315" height="216" transform="translate(0 0.222168)" fill="white"/>
<path d="M0 33.2222L315 33.2222" stroke="#CACACA" stroke-width="0.783582"/>
<path d="M16 33.2222L16 216.222" stroke="#CACACA" stroke-width="0.5"/>
<path d="M289.926 33.2222L289.926 216.58" stroke="#CACACA" stroke-width="0.783582"/>
<path d="M28.6477 16.5119H26.5568C26.5568 16.1635 26.5 15.8547 26.3864 15.5858C26.2727 15.3131 26.1136 15.082 25.9091 14.8926C25.7045 14.7032 25.4621 14.5612 25.1818 14.4665C24.9015 14.368 24.5909 14.3188 24.25 14.3188C23.5985 14.3188 22.9924 14.4835 22.4318 14.8131C21.8712 15.1426 21.3958 15.6218 21.0057 16.2506C20.6155 16.8756 20.3447 17.635 20.1932 18.529C20.053 19.4002 20.0663 20.1294 20.233 20.7165C20.4034 21.3036 20.6989 21.7468 21.1193 22.046C21.5398 22.3415 22.0511 22.4892 22.6534 22.4892C23.0208 22.4892 23.3731 22.4438 23.7102 22.3528C24.0473 22.2582 24.358 22.1199 24.642 21.9381C24.9299 21.7525 25.1818 21.5271 25.3977 21.2619C25.6174 20.9968 25.7879 20.6957 25.9091 20.3585H28.0284C27.8542 20.9116 27.5985 21.4324 27.2614 21.921C26.9242 22.4059 26.5189 22.8339 26.0455 23.2051C25.572 23.5725 25.0417 23.8604 24.4545 24.0688C23.8674 24.2771 23.2348 24.3813 22.5568 24.3813C21.5152 24.3813 20.6231 24.1388 19.8807 23.654C19.142 23.1653 18.6117 22.4665 18.2898 21.5574C17.9678 20.6445 17.911 19.5517 18.1193 18.279C18.3277 17.0403 18.7292 15.9854 19.3239 15.1142C19.9223 14.243 20.6515 13.5782 21.5114 13.1199C22.375 12.6578 23.3049 12.4267 24.3011 12.4267C24.9602 12.4267 25.5587 12.5176 26.0966 12.6994C26.6383 12.8813 27.1023 13.1483 27.4886 13.5006C27.875 13.8491 28.1686 14.2771 28.3693 14.7847C28.5739 15.2885 28.6667 15.8642 28.6477 16.5119ZM33.0497 24.3926C32.1899 24.3926 31.474 24.2032 30.902 23.8244C30.3338 23.4457 29.9342 22.9135 29.7031 22.2278C29.4721 21.5422 29.4304 20.7468 29.5781 19.8415C29.7259 18.9475 30.0213 18.1653 30.4645 17.4949C30.9115 16.8244 31.474 16.3055 32.152 15.9381C32.8338 15.5669 33.5971 15.3813 34.4418 15.3813C35.3016 15.3813 36.0156 15.5725 36.5838 15.9551C37.152 16.3339 37.5516 16.8661 37.7827 17.5517C38.0175 18.2373 38.0611 19.0366 37.9134 19.9494C37.7694 20.8396 37.4721 21.618 37.0213 22.2847C36.5743 22.9513 36.0118 23.4703 35.3338 23.8415C34.6558 24.2089 33.8944 24.3926 33.0497 24.3926ZM33.2202 22.7449C33.6974 22.7449 34.116 22.6161 34.4759 22.3585C34.8395 22.0972 35.1368 21.7468 35.3679 21.3074C35.6027 20.8642 35.7656 20.3718 35.8565 19.8301C35.9399 19.3074 35.9418 18.8339 35.8622 18.4097C35.7827 17.9816 35.6122 17.6426 35.3509 17.3926C35.0933 17.1388 34.7353 17.0119 34.277 17.0119C33.7997 17.0119 33.3774 17.1445 33.0099 17.4097C32.6463 17.671 32.349 18.0233 32.1179 18.4665C31.8868 18.9059 31.7277 19.3964 31.6406 19.9381C31.5535 20.4608 31.5497 20.9343 31.6293 21.3585C31.7088 21.7828 31.8793 22.1199 32.1406 22.3699C32.402 22.6199 32.7618 22.7449 33.2202 22.7449ZM45.125 20.5517L45.9716 15.4949H48.0284L46.5739 24.2222H44.5795L44.8409 22.671H44.75C44.4773 23.1597 44.0871 23.5593 43.5795 23.8699C43.0758 24.1805 42.4962 24.3358 41.8409 24.3358C41.2689 24.3358 40.786 24.2089 40.392 23.9551C39.9981 23.6975 39.7178 23.3244 39.5511 22.8358C39.3883 22.3434 39.3636 21.7487 39.4773 21.0517L40.4091 15.4949H42.4659L41.5909 20.7335C41.5038 21.2866 41.5833 21.726 41.8295 22.0517C42.0795 22.3775 42.4508 22.5403 42.9432 22.5403C43.2462 22.5403 43.5511 22.4665 43.858 22.3188C44.1686 22.171 44.4394 21.9513 44.6705 21.6597C44.9015 21.3642 45.053 20.9949 45.125 20.5517ZM48.1491 27.4949L50.1605 15.4949H52.1832L51.9503 16.9381H52.0696C52.206 16.726 52.3897 16.5006 52.6207 16.2619C52.8556 16.0195 53.1529 15.8131 53.5128 15.6426C53.8726 15.4684 54.3101 15.3813 54.8253 15.3813C55.4957 15.3813 56.0734 15.5536 56.5582 15.8983C57.0431 16.2392 57.3897 16.7449 57.598 17.4153C57.8101 18.082 57.8366 18.9002 57.6776 19.8699C57.5185 20.8282 57.2249 21.6426 56.7969 22.3131C56.3688 22.9835 55.8556 23.4949 55.2571 23.8472C54.6586 24.1994 54.0166 24.3756 53.331 24.3756C52.831 24.3756 52.4276 24.2922 52.1207 24.1256C51.8177 23.9589 51.5885 23.7582 51.4332 23.5233C51.2779 23.2847 51.1624 23.0593 51.0866 22.8472H50.9957L50.223 27.4949H48.1491ZM51.4503 19.8585C51.3594 20.4229 51.3575 20.9172 51.4446 21.3415C51.5355 21.7657 51.7154 22.0972 51.9844 22.3358C52.2533 22.5707 52.6056 22.6881 53.0412 22.6881C53.4957 22.6881 53.8935 22.5669 54.2344 22.3244C54.5791 22.0782 54.8651 21.743 55.0923 21.3188C55.3234 20.8907 55.4863 20.404 55.581 19.8585C55.6681 19.3169 55.6681 18.8358 55.581 18.4153C55.4938 17.9949 55.3177 17.6653 55.0526 17.4267C54.7874 17.1881 54.4276 17.0688 53.973 17.0688C53.5298 17.0688 53.134 17.1843 52.7855 17.4153C52.4408 17.6464 52.1548 17.9703 51.9276 18.3869C51.7003 18.8036 51.5412 19.2941 51.4503 19.8585ZM62.5341 24.3926C61.6742 24.3926 60.9583 24.2032 60.3864 23.8244C59.8182 23.4457 59.4186 22.9135 59.1875 22.2278C58.9564 21.5422 58.9148 20.7468 59.0625 19.8415C59.2102 18.9475 59.5057 18.1653 59.9489 17.4949C60.3958 16.8244 60.9583 16.3055 61.6364 15.9381C62.3182 15.5669 63.0814 15.3813 63.9261 15.3813C64.786 15.3813 65.5 15.5725 66.0682 15.9551C66.6364 16.3339 67.036 16.8661 67.267 17.5517C67.5019 18.2373 67.5455 19.0366 67.3977 19.9494C67.2538 20.8396 66.9564 21.618 66.5057 22.2847C66.0587 22.9513 65.4962 23.4703 64.8182 23.8415C64.1402 24.2089 63.3788 24.3926 62.5341 24.3926ZM62.7045 22.7449C63.1818 22.7449 63.6004 22.6161 63.9602 22.3585C64.3239 22.0972 64.6212 21.7468 64.8523 21.3074C65.0871 20.8642 65.25 20.3718 65.3409 19.8301C65.4242 19.3074 65.4261 18.8339 65.3466 18.4097C65.267 17.9816 65.0966 17.6426 64.8352 17.3926C64.5777 17.1388 64.2197 17.0119 63.7614 17.0119C63.2841 17.0119 62.8617 17.1445 62.4943 17.4097C62.1307 17.671 61.8333 18.0233 61.6023 18.4665C61.3712 18.9059 61.2121 19.3964 61.125 19.9381C61.0379 20.4608 61.0341 20.9343 61.1136 21.3585C61.1932 21.7828 61.3636 22.1199 61.625 22.3699C61.8864 22.6199 62.2462 22.7449 62.7045 22.7449ZM71.348 19.1085L70.5071 24.2222H68.4446L69.8991 15.4949H71.8707L71.6207 16.9778H71.7287C72.0014 16.4892 72.384 16.101 72.8764 15.8131C73.3688 15.5252 73.9427 15.3813 74.598 15.3813C75.1927 15.3813 75.6927 15.51 76.098 15.7676C76.5033 16.0214 76.7912 16.3945 76.9616 16.8869C77.1321 17.3756 77.1586 17.9684 77.0412 18.6653L76.1094 24.2222H74.0526L74.9219 18.9835C75.0204 18.404 74.9465 17.9494 74.7003 17.6199C74.4579 17.2866 74.0677 17.1199 73.5298 17.1199C73.17 17.1199 72.8385 17.1994 72.5355 17.3585C72.2325 17.5138 71.9768 17.7392 71.7685 18.0347C71.5639 18.3301 71.4238 18.6881 71.348 19.1085Z" fill="black"/>
<path d="M58.9375 150.949V63.6767H64.5285V150.949H58.9375ZM73.7671 92.4835C73.4944 89.7335 72.3239 87.5972 70.2557 86.0744C68.1875 84.5517 65.3807 83.7903 61.8353 83.7903C59.4262 83.7903 57.3921 84.1313 55.733 84.8131C54.0739 85.4722 52.8012 86.3926 51.9148 87.5744C51.0512 88.7563 50.6194 90.0972 50.6194 91.5972C50.5739 92.8472 50.8353 93.9381 51.4035 94.8699C51.9944 95.8017 52.8012 96.6085 53.8239 97.2903C54.8466 97.9494 56.0285 98.529 57.3694 99.029C58.7103 99.5063 60.1421 99.9153 61.6648 100.256L67.9375 101.756C70.983 102.438 73.7785 103.347 76.3239 104.484C78.8694 105.62 81.0739 107.018 82.9375 108.677C84.8012 110.336 86.2444 112.29 87.2671 114.54C88.3125 116.79 88.8466 119.37 88.8694 122.279C88.8466 126.552 87.7557 130.256 85.5966 133.393C83.4603 136.506 80.3694 138.927 76.3239 140.654C72.3012 142.359 67.4489 143.211 61.7671 143.211C56.1307 143.211 51.2216 142.347 47.0398 140.62C42.8807 138.893 39.6307 136.336 37.2898 132.949C34.9716 129.54 33.7557 125.324 33.6421 120.302H47.9262C48.0853 122.643 48.7557 124.597 49.9375 126.165C51.1421 127.711 52.7444 128.881 54.7444 129.677C56.7671 130.449 59.0512 130.836 61.5966 130.836C64.0966 130.836 66.2671 130.472 68.108 129.745C69.9716 129.018 71.4148 128.006 72.4375 126.711C73.4603 125.415 73.9716 123.927 73.9716 122.245C73.9716 120.677 73.5057 119.359 72.5739 118.29C71.6648 117.222 70.3239 116.313 68.5512 115.563C66.8012 114.813 64.6535 114.131 62.108 113.518L54.5057 111.609C48.6194 110.177 43.9716 107.938 40.5625 104.893C37.1535 101.847 35.4603 97.7449 35.483 92.5858C35.4603 88.3585 36.5853 84.6653 38.858 81.5063C41.1535 78.3472 44.3012 75.8813 48.3012 74.1085C52.3012 72.3358 56.8466 71.4494 61.9375 71.4494C67.1194 71.4494 71.6421 72.3358 75.5057 74.1085C79.3921 75.8813 82.4148 78.3472 84.5739 81.5063C86.733 84.6653 87.8466 88.3244 87.9148 92.4835H73.7671ZM122.044 72.404V142.222H107.283V86.4153H106.874L90.8852 96.4381V83.3472L108.169 72.404H122.044ZM153.533 143.756C147.669 143.734 142.624 142.29 138.397 139.427C134.192 136.563 130.953 132.415 128.681 126.984C126.431 121.552 125.317 115.018 125.34 107.381C125.34 99.7676 126.465 93.279 128.715 87.9153C130.988 82.5517 134.226 78.4722 138.431 75.6767C142.658 72.8585 147.692 71.4494 153.533 71.4494C159.374 71.4494 164.397 72.8585 168.601 75.6767C172.828 78.4949 176.078 82.5858 178.351 87.9494C180.624 93.2903 181.749 99.7676 181.726 107.381C181.726 115.04 180.59 121.586 178.317 127.018C176.067 132.449 172.84 136.597 168.635 139.461C164.431 142.324 159.397 143.756 153.533 143.756ZM153.533 131.518C157.533 131.518 160.726 129.506 163.113 125.484C165.499 121.461 166.681 115.427 166.658 107.381C166.658 102.086 166.113 97.6767 165.022 94.154C163.953 90.6313 162.431 87.9835 160.453 86.2108C158.499 84.4381 156.192 83.5517 153.533 83.5517C149.556 83.5517 146.374 85.5403 143.988 89.5176C141.601 93.4949 140.397 99.4494 140.374 107.381C140.374 112.745 140.908 117.222 141.976 120.813C143.067 124.381 144.601 127.063 146.578 128.859C148.556 130.631 150.874 131.518 153.533 131.518ZM207.147 143.756C201.283 143.734 196.238 142.29 192.01 139.427C187.806 136.563 184.567 132.415 182.294 126.984C180.044 121.552 178.931 115.018 178.954 107.381C178.954 99.7676 180.079 93.279 182.329 87.9153C184.601 82.5517 187.84 78.4722 192.044 75.6767C196.272 72.8585 201.306 71.4494 207.147 71.4494C212.988 71.4494 218.01 72.8585 222.215 75.6767C226.442 78.4949 229.692 82.5858 231.965 87.9494C234.238 93.2903 235.363 99.7676 235.34 107.381C235.34 115.04 234.204 121.586 231.931 127.018C229.681 132.449 226.454 136.597 222.249 139.461C218.044 142.324 213.01 143.756 207.147 143.756ZM207.147 131.518C211.147 131.518 214.34 129.506 216.726 125.484C219.113 121.461 220.294 115.427 220.272 107.381C220.272 102.086 219.726 97.6767 218.635 94.154C217.567 90.6313 216.044 87.9835 214.067 86.2108C212.113 84.4381 209.806 83.5517 207.147 83.5517C203.169 83.5517 199.988 85.5403 197.601 89.5176C195.215 93.4949 194.01 99.4494 193.988 107.381C193.988 112.745 194.522 117.222 195.59 120.813C196.681 124.381 198.215 127.063 200.192 128.859C202.169 130.631 204.488 131.518 207.147 131.518ZM251.499 134.949C251.499 136.484 251.222 137.809 250.668 138.927C250.114 140.044 249.354 140.906 248.388 141.512C247.423 142.118 246.319 142.421 245.079 142.421C243.838 142.421 242.735 142.118 241.769 141.512C240.803 140.906 240.043 140.044 239.489 138.927C238.935 137.809 238.658 136.484 238.658 134.949C238.658 133.415 238.935 132.09 239.489 130.972C240.043 129.855 240.803 128.993 241.769 128.387C242.735 127.781 243.838 127.478 245.079 127.478C246.319 127.478 247.423 127.781 248.388 128.387C249.354 128.993 250.114 129.855 250.668 130.972C251.222 132.09 251.499 133.415 251.499 134.949ZM249.795 134.949C249.795 133.69 249.584 132.627 249.163 131.761C248.746 130.894 248.18 130.238 247.465 129.793C246.755 129.348 245.959 129.126 245.079 129.126C244.198 129.126 243.4 129.348 242.685 129.793C241.975 130.238 241.409 130.894 240.988 131.761C240.571 132.627 240.363 133.69 240.363 134.949C240.363 136.209 240.571 137.272 240.988 138.138C241.409 139.005 241.975 139.661 242.685 140.106C243.4 140.551 244.198 140.773 245.079 140.773C245.959 140.773 246.755 140.551 247.465 140.106C248.18 139.661 248.746 139.005 249.163 138.138C249.584 137.272 249.795 136.209 249.795 134.949ZM254.461 142.222V127.677H263.182V129.239H256.222V134.154H262.529V135.716H256.222V142.222H254.461ZM266.199 142.222V127.677H274.921V129.239H267.961V134.154H274.267V135.716H267.961V142.222H266.199Z" fill="url(#paint0_linear_1_738)"/>
<path d="M94.1669 173.222V161.586H98.0987C99.0078 161.586 99.754 161.741 100.337 162.052C100.921 162.359 101.353 162.781 101.633 163.319C101.913 163.857 102.053 164.468 102.053 165.154C102.053 165.84 101.913 166.448 101.633 166.978C101.353 167.508 100.923 167.925 100.343 168.228C99.7635 168.527 99.023 168.677 98.1214 168.677H94.9396V167.404H98.076C98.6972 167.404 99.1972 167.313 99.576 167.131C99.9586 166.949 100.235 166.692 100.406 166.359C100.58 166.021 100.667 165.62 100.667 165.154C100.667 164.688 100.58 164.281 100.406 163.932C100.231 163.584 99.9529 163.315 99.5703 163.126C99.1877 162.932 98.6821 162.836 98.0533 162.836H95.576V173.222H94.1669ZM99.6442 167.995L102.508 173.222H100.871L98.0533 167.995H99.6442ZM107.785 173.404C106.944 173.404 106.219 173.218 105.609 172.847C105.003 172.472 104.535 171.949 104.205 171.279C103.879 170.605 103.717 169.821 103.717 168.927C103.717 168.033 103.879 167.245 104.205 166.563C104.535 165.877 104.993 165.343 105.58 164.961C106.171 164.574 106.861 164.381 107.648 164.381C108.103 164.381 108.552 164.457 108.995 164.609C109.438 164.76 109.842 165.006 110.205 165.347C110.569 165.684 110.859 166.131 111.075 166.688C111.29 167.245 111.398 167.931 111.398 168.745V169.313H104.671V168.154H110.035C110.035 167.662 109.936 167.222 109.739 166.836C109.546 166.449 109.27 166.145 108.91 165.921C108.554 165.698 108.133 165.586 107.648 165.586C107.114 165.586 106.652 165.718 106.262 165.984C105.876 166.245 105.578 166.586 105.37 167.006C105.162 167.427 105.058 167.877 105.058 168.359V169.131C105.058 169.79 105.171 170.349 105.398 170.807C105.629 171.262 105.95 171.609 106.359 171.847C106.768 172.082 107.243 172.199 107.785 172.199C108.137 172.199 108.455 172.15 108.739 172.052C109.027 171.949 109.275 171.798 109.484 171.597C109.692 171.393 109.853 171.139 109.967 170.836L111.262 171.199C111.126 171.639 110.897 172.025 110.575 172.359C110.253 172.688 109.855 172.946 109.381 173.131C108.908 173.313 108.376 173.404 107.785 173.404ZM117.325 164.495V165.631H112.62V164.495H117.325ZM114.029 173.222V163.29C114.029 162.79 114.147 162.374 114.381 162.04C114.616 161.707 114.921 161.457 115.296 161.29C115.671 161.124 116.067 161.04 116.484 161.04C116.813 161.04 117.082 161.067 117.29 161.12C117.499 161.173 117.654 161.222 117.756 161.268L117.37 162.427C117.302 162.404 117.207 162.376 117.086 162.341C116.969 162.307 116.813 162.29 116.62 162.29C116.177 162.29 115.857 162.402 115.66 162.626C115.467 162.849 115.37 163.177 115.37 163.609V173.222H114.029ZM122.504 173.404C121.663 173.404 120.937 173.218 120.327 172.847C119.721 172.472 119.254 171.949 118.924 171.279C118.598 170.605 118.435 169.821 118.435 168.927C118.435 168.033 118.598 167.245 118.924 166.563C119.254 165.877 119.712 165.343 120.299 164.961C120.89 164.574 121.579 164.381 122.367 164.381C122.822 164.381 123.271 164.457 123.714 164.609C124.157 164.76 124.56 165.006 124.924 165.347C125.288 165.684 125.577 166.131 125.793 166.688C126.009 167.245 126.117 167.931 126.117 168.745V169.313H119.39V168.154H124.754C124.754 167.662 124.655 167.222 124.458 166.836C124.265 166.449 123.988 166.145 123.629 165.921C123.272 165.698 122.852 165.586 122.367 165.586C121.833 165.586 121.371 165.718 120.981 165.984C120.594 166.245 120.297 166.586 120.089 167.006C119.88 167.427 119.776 167.877 119.776 168.359V169.131C119.776 169.79 119.89 170.349 120.117 170.807C120.348 171.262 120.668 171.609 121.077 171.847C121.487 172.082 121.962 172.199 122.504 172.199C122.856 172.199 123.174 172.15 123.458 172.052C123.746 171.949 123.994 171.798 124.202 171.597C124.411 171.393 124.572 171.139 124.685 170.836L125.981 171.199C125.844 171.639 125.615 172.025 125.293 172.359C124.971 172.688 124.574 172.946 124.1 173.131C123.627 173.313 123.094 173.404 122.504 173.404ZM128.157 173.222V164.495H129.452V165.813H129.543C129.702 165.381 129.99 165.031 130.407 164.762C130.824 164.493 131.293 164.359 131.816 164.359C131.915 164.359 132.038 164.36 132.185 164.364C132.333 164.368 132.445 164.374 132.521 164.381V165.745C132.475 165.734 132.371 165.716 132.208 165.694C132.049 165.667 131.88 165.654 131.702 165.654C131.278 165.654 130.899 165.743 130.566 165.921C130.237 166.095 129.975 166.338 129.782 166.648C129.593 166.955 129.498 167.306 129.498 167.699V173.222H128.157ZM134.11 173.222V164.495H135.406V165.813H135.496C135.656 165.381 135.943 165.031 136.36 164.762C136.777 164.493 137.246 164.359 137.769 164.359C137.868 164.359 137.991 164.36 138.138 164.364C138.286 164.368 138.398 164.374 138.474 164.381V165.745C138.428 165.734 138.324 165.716 138.161 165.694C138.002 165.667 137.834 165.654 137.656 165.654C137.231 165.654 136.853 165.743 136.519 165.921C136.19 166.095 135.928 166.338 135.735 166.648C135.546 166.955 135.451 167.306 135.451 167.699V173.222H134.11ZM142.631 173.427C142.078 173.427 141.576 173.323 141.126 173.114C140.675 172.902 140.317 172.597 140.052 172.199C139.787 171.798 139.654 171.313 139.654 170.745C139.654 170.245 139.753 169.84 139.95 169.529C140.147 169.215 140.41 168.968 140.739 168.79C141.069 168.612 141.433 168.48 141.83 168.393C142.232 168.302 142.635 168.23 143.04 168.177C143.571 168.109 144.001 168.057 144.33 168.023C144.664 167.985 144.906 167.923 145.058 167.836C145.213 167.749 145.29 167.597 145.29 167.381V167.336C145.29 166.775 145.137 166.34 144.83 166.029C144.527 165.718 144.067 165.563 143.45 165.563C142.809 165.563 142.308 165.703 141.944 165.984C141.58 166.264 141.325 166.563 141.177 166.881L139.904 166.427C140.131 165.896 140.434 165.484 140.813 165.188C141.196 164.889 141.612 164.681 142.063 164.563C142.518 164.442 142.965 164.381 143.404 164.381C143.684 164.381 144.006 164.415 144.37 164.484C144.737 164.548 145.092 164.682 145.433 164.887C145.777 165.091 146.063 165.4 146.29 165.813C146.518 166.226 146.631 166.779 146.631 167.472V173.222H145.29V172.04H145.222C145.131 172.23 144.98 172.432 144.768 172.648C144.556 172.864 144.273 173.048 143.921 173.199C143.569 173.351 143.139 173.427 142.631 173.427ZM142.836 172.222C143.366 172.222 143.813 172.118 144.177 171.91C144.544 171.701 144.821 171.432 145.006 171.103C145.196 170.773 145.29 170.427 145.29 170.063V168.836C145.234 168.904 145.109 168.966 144.915 169.023C144.726 169.076 144.506 169.124 144.256 169.165C144.01 169.203 143.77 169.237 143.535 169.268C143.304 169.294 143.116 169.317 142.972 169.336C142.624 169.381 142.298 169.455 141.995 169.557C141.696 169.656 141.453 169.806 141.268 170.006C141.086 170.203 140.995 170.472 140.995 170.813C140.995 171.279 141.167 171.631 141.512 171.87C141.861 172.105 142.302 172.222 142.836 172.222ZM150.42 161.586V173.222H149.079V161.586H150.42ZM157.558 173.222V161.586H161.489C162.398 161.586 163.145 161.741 163.728 162.052C164.311 162.359 164.743 162.781 165.023 163.319C165.304 163.857 165.444 164.468 165.444 165.154C165.444 165.84 165.304 166.448 165.023 166.978C164.743 167.508 164.313 167.925 163.734 168.228C163.154 168.527 162.414 168.677 161.512 168.677H158.33V167.404H161.467C162.088 167.404 162.588 167.313 162.967 167.131C163.349 166.949 163.626 166.692 163.796 166.359C163.97 166.021 164.058 165.62 164.058 165.154C164.058 164.688 163.97 164.281 163.796 163.932C163.622 163.584 163.344 163.315 162.961 163.126C162.578 162.932 162.073 162.836 161.444 162.836H158.967V173.222H157.558ZM163.035 167.995L165.898 173.222H164.262L161.444 167.995H163.035ZM171.175 173.404C170.335 173.404 169.609 173.218 168.999 172.847C168.393 172.472 167.925 171.949 167.596 171.279C167.27 170.605 167.107 169.821 167.107 168.927C167.107 168.033 167.27 167.245 167.596 166.563C167.925 165.877 168.384 165.343 168.971 164.961C169.562 164.574 170.251 164.381 171.039 164.381C171.494 164.381 171.942 164.457 172.386 164.609C172.829 164.76 173.232 165.006 173.596 165.347C173.96 165.684 174.249 166.131 174.465 166.688C174.681 167.245 174.789 167.931 174.789 168.745V169.313H168.062V168.154H173.425C173.425 167.662 173.327 167.222 173.13 166.836C172.937 166.449 172.66 166.145 172.3 165.921C171.944 165.698 171.524 165.586 171.039 165.586C170.505 165.586 170.043 165.718 169.653 165.984C169.266 166.245 168.969 166.586 168.761 167.006C168.552 167.427 168.448 167.877 168.448 168.359V169.131C168.448 169.79 168.562 170.349 168.789 170.807C169.02 171.262 169.34 171.609 169.749 171.847C170.158 172.082 170.634 172.199 171.175 172.199C171.528 172.199 171.846 172.15 172.13 172.052C172.418 171.949 172.666 171.798 172.874 171.597C173.083 171.393 173.244 171.139 173.357 170.836L174.653 171.199C174.516 171.639 174.287 172.025 173.965 172.359C173.643 172.688 173.246 172.946 172.772 173.131C172.299 173.313 171.766 173.404 171.175 173.404ZM178.806 173.222L176.147 164.495H177.556L179.442 171.177H179.533L181.397 164.495H182.829L184.67 171.154H184.761L186.647 164.495H188.056L185.397 173.222H184.079L182.17 166.518H182.033L180.124 173.222H178.806ZM192.397 173.427C191.844 173.427 191.342 173.323 190.891 173.114C190.441 172.902 190.083 172.597 189.817 172.199C189.552 171.798 189.42 171.313 189.42 170.745C189.42 170.245 189.518 169.84 189.715 169.529C189.912 169.215 190.175 168.968 190.505 168.79C190.835 168.612 191.198 168.48 191.596 168.393C191.997 168.302 192.401 168.23 192.806 168.177C193.336 168.109 193.766 168.057 194.096 168.023C194.429 167.985 194.672 167.923 194.823 167.836C194.978 167.749 195.056 167.597 195.056 167.381V167.336C195.056 166.775 194.903 166.34 194.596 166.029C194.293 165.718 193.833 165.563 193.215 165.563C192.575 165.563 192.073 165.703 191.71 165.984C191.346 166.264 191.09 166.563 190.942 166.881L189.67 166.427C189.897 165.896 190.2 165.484 190.579 165.188C190.961 164.889 191.378 164.681 191.829 164.563C192.283 164.442 192.73 164.381 193.17 164.381C193.45 164.381 193.772 164.415 194.136 164.484C194.503 164.548 194.857 164.682 195.198 164.887C195.543 165.091 195.829 165.4 196.056 165.813C196.283 166.226 196.397 166.779 196.397 167.472V173.222H195.056V172.04H194.988C194.897 172.23 194.746 172.432 194.533 172.648C194.321 172.864 194.039 173.048 193.687 173.199C193.335 173.351 192.905 173.427 192.397 173.427ZM192.602 172.222C193.132 172.222 193.579 172.118 193.942 171.91C194.31 171.701 194.586 171.432 194.772 171.103C194.961 170.773 195.056 170.427 195.056 170.063V168.836C194.999 168.904 194.874 168.966 194.681 169.023C194.492 169.076 194.272 169.124 194.022 169.165C193.776 169.203 193.535 169.237 193.3 169.268C193.069 169.294 192.882 169.317 192.738 169.336C192.389 169.381 192.064 169.455 191.761 169.557C191.461 169.656 191.219 169.806 191.033 170.006C190.852 170.203 190.761 170.472 190.761 170.813C190.761 171.279 190.933 171.631 191.278 171.87C191.626 172.105 192.067 172.222 192.602 172.222ZM198.844 173.222V164.495H200.14V165.813H200.231C200.39 165.381 200.678 165.031 201.094 164.762C201.511 164.493 201.981 164.359 202.504 164.359C202.602 164.359 202.725 164.36 202.873 164.364C203.021 164.368 203.132 164.374 203.208 164.381V165.745C203.163 165.734 203.058 165.716 202.896 165.694C202.737 165.667 202.568 165.654 202.39 165.654C201.966 165.654 201.587 165.743 201.254 165.921C200.924 166.095 200.663 166.338 200.469 166.648C200.28 166.955 200.185 167.306 200.185 167.699V173.222H198.844ZM207.827 173.404C207.1 173.404 206.458 173.22 205.901 172.853C205.344 172.482 204.909 171.959 204.594 171.285C204.28 170.607 204.123 169.806 204.123 168.881C204.123 167.965 204.28 167.169 204.594 166.495C204.909 165.821 205.346 165.3 205.907 164.932C206.468 164.565 207.115 164.381 207.85 164.381C208.418 164.381 208.867 164.476 209.197 164.665C209.53 164.851 209.784 165.063 209.958 165.302C210.136 165.537 210.274 165.73 210.373 165.881H210.487V161.586H211.827V173.222H210.532V171.881H210.373C210.274 172.04 210.134 172.241 209.952 172.484C209.771 172.722 209.511 172.936 209.174 173.126C208.837 173.311 208.388 173.404 207.827 173.404ZM208.009 172.199C208.547 172.199 209.002 172.059 209.373 171.779C209.744 171.495 210.026 171.103 210.219 170.603C210.413 170.099 210.509 169.518 210.509 168.859C210.509 168.207 210.415 167.637 210.225 167.148C210.036 166.656 209.755 166.273 209.384 166.001C209.013 165.724 208.555 165.586 208.009 165.586C207.441 165.586 206.968 165.732 206.589 166.023C206.214 166.311 205.932 166.703 205.742 167.199C205.557 167.692 205.464 168.245 205.464 168.859C205.464 169.48 205.558 170.044 205.748 170.552C205.941 171.056 206.225 171.457 206.6 171.756C206.979 172.052 207.449 172.199 208.009 172.199Z" fill="black"/>
<path fill-rule="evenodd" clip-rule="evenodd" d="M283.036 11.8887H281.964V18.5091L277.576 13.8278L276.818 14.6359L281.207 19.3172H275V20.4601H281.207L276.818 25.1415L277.576 25.9496L281.964 21.2682V27.8887H283.036V21.2682L287.425 25.9496L288.182 25.1415L283.793 20.4601H290V19.3172H283.793L288.182 14.6359L287.425 13.8278L283.036 18.5091V11.8887Z" fill="#C1554E"/>
</g>
<defs>
<linearGradient id="paint0_linear_1_738" x1="135.548" y1="72.2222" x2="140.961" y2="151.37" gradientUnits="userSpaceOnUse">
<stop offset="0.630979" stop-color="#C1554E"/>
<stop offset="1" stop-color="#F4C5C1"/>
</linearGradient>
<clipPath id="clip0_1_738">
<rect width="315" height="216" fill="white" transform="translate(0 0.222168)"/>
</clipPath>
</defs>
</svg>
