<svg width="315" height="217" viewBox="0 0 315 217" fill="none" xmlns="http://www.w3.org/2000/svg">
<g clip-path="url(#clip0_1_702)">
<rect width="315" height="216" transform="translate(0 0.111328)" fill="white"/>
<path d="M0 33.1113L315 33.1113" stroke="#CACACA" stroke-width="0.783582"/>
<path d="M16 33.1113L16 216.111" stroke="#CACACA" stroke-width="0.5"/>
<path d="M289.926 33.1113L289.926 216.47" stroke="#CACACA" stroke-width="0.783582"/>
<path d="M28.6477 16.4011H26.5568C26.5568 16.0526 26.5 15.7439 26.3864 15.475C26.2727 15.2022 26.1136 14.9712 25.9091 14.7818C25.7045 14.5924 25.4621 14.4503 25.1818 14.3556C24.9015 14.2572 24.5909 14.2079 24.25 14.2079C23.5985 14.2079 22.9924 14.3727 22.4318 14.7022C21.8712 15.0318 21.3958 15.5109 21.0057 16.1397C20.6155 16.7647 20.3447 17.5242 20.1932 18.4181C20.053 19.2894 20.0663 20.0185 20.233 20.6056C20.4034 21.1928 20.6989 21.6359 21.1193 21.9352C21.5398 22.2306 22.0511 22.3784 22.6534 22.3784C23.0208 22.3784 23.3731 22.3329 23.7102 22.242C24.0473 22.1473 24.358 22.0091 24.642 21.8272C24.9299 21.6416 25.1818 21.4163 25.3977 21.1511C25.6174 20.8859 25.7879 20.5848 25.9091 20.2477H28.0284C27.8542 20.8007 27.5985 21.3216 27.2614 21.8102C26.9242 22.295 26.5189 22.7231 26.0455 23.0943C25.572 23.4617 25.0417 23.7496 24.4545 23.9579C23.8674 24.1663 23.2348 24.2704 22.5568 24.2704C21.5152 24.2704 20.6231 24.028 19.8807 23.5431C19.142 23.0545 18.6117 22.3556 18.2898 21.4466C17.9678 20.5337 17.911 19.4409 18.1193 18.1681C18.3277 16.9295 18.7292 15.8746 19.3239 15.0034C19.9223 14.1322 20.6515 13.4674 21.5114 13.0091C22.375 12.5469 23.3049 12.3159 24.3011 12.3159C24.9602 12.3159 25.5587 12.4068 26.0966 12.5886C26.6383 12.7704 27.1023 13.0375 27.4886 13.3897C27.875 13.7382 28.1686 14.1663 28.3693 14.6738C28.5739 15.1776 28.6667 15.7534 28.6477 16.4011ZM33.0497 24.2818C32.1899 24.2818 31.474 24.0924 30.902 23.7136C30.3338 23.3348 29.9342 22.8026 29.7031 22.117C29.4721 21.4314 29.4304 20.6359 29.5781 19.7306C29.7259 18.8367 30.0213 18.0545 30.4645 17.3841C30.9115 16.7136 31.474 16.1947 32.152 15.8272C32.8338 15.456 33.5971 15.2704 34.4418 15.2704C35.3016 15.2704 36.0156 15.4617 36.5838 15.8443C37.152 16.2231 37.5516 16.7553 37.7827 17.4409C38.0175 18.1265 38.0611 18.9257 37.9134 19.8386C37.7694 20.7288 37.4721 21.5072 37.0213 22.1738C36.5743 22.8405 36.0118 23.3594 35.3338 23.7306C34.6558 24.0981 33.8944 24.2818 33.0497 24.2818ZM33.2202 22.6341C33.6974 22.6341 34.116 22.5053 34.4759 22.2477C34.8395 21.9863 35.1368 21.6359 35.3679 21.1966C35.6027 20.7534 35.7656 20.2609 35.8565 19.7193C35.9399 19.1966 35.9418 18.7231 35.8622 18.2988C35.7827 17.8708 35.6122 17.5318 35.3509 17.2818C35.0933 17.028 34.7353 16.9011 34.277 16.9011C33.7997 16.9011 33.3774 17.0337 33.0099 17.2988C32.6463 17.5602 32.349 17.9125 32.1179 18.3556C31.8868 18.795 31.7277 19.2856 31.6406 19.8272C31.5535 20.35 31.5497 20.8234 31.6293 21.2477C31.7088 21.6719 31.8793 22.0091 32.1406 22.2591C32.402 22.5091 32.7618 22.6341 33.2202 22.6341ZM45.125 20.4409L45.9716 15.3841H48.0284L46.5739 24.1113H44.5795L44.8409 22.5602H44.75C44.4773 23.0488 44.0871 23.4484 43.5795 23.7591C43.0758 24.0697 42.4962 24.225 41.8409 24.225C41.2689 24.225 40.786 24.0981 40.392 23.8443C39.9981 23.5867 39.7178 23.2136 39.5511 22.725C39.3883 22.2325 39.3636 21.6378 39.4773 20.9409L40.4091 15.3841H42.4659L41.5909 20.6227C41.5038 21.1757 41.5833 21.6151 41.8295 21.9409C42.0795 22.2666 42.4508 22.4295 42.9432 22.4295C43.2462 22.4295 43.5511 22.3556 43.858 22.2079C44.1686 22.0602 44.4394 21.8405 44.6705 21.5488C44.9015 21.2534 45.053 20.8841 45.125 20.4409ZM48.1491 27.3841L50.1605 15.3841H52.1832L51.9503 16.8272H52.0696C52.206 16.6151 52.3897 16.3897 52.6207 16.1511C52.8556 15.9087 53.1529 15.7022 53.5128 15.5318C53.8726 15.3575 54.3101 15.2704 54.8253 15.2704C55.4957 15.2704 56.0734 15.4428 56.5582 15.7875C57.0431 16.1284 57.3897 16.6341 57.598 17.3045C57.8101 17.9712 57.8366 18.7894 57.6776 19.7591C57.5185 20.7174 57.2249 21.5318 56.7969 22.2022C56.3688 22.8727 55.8556 23.3841 55.2571 23.7363C54.6586 24.0886 54.0166 24.2647 53.331 24.2647C52.831 24.2647 52.4276 24.1814 52.1207 24.0147C51.8177 23.8481 51.5885 23.6473 51.4332 23.4125C51.2779 23.1738 51.1624 22.9484 51.0866 22.7363H50.9957L50.223 27.3841H48.1491ZM51.4503 19.7477C51.3594 20.3121 51.3575 20.8064 51.4446 21.2306C51.5355 21.6549 51.7154 21.9863 51.9844 22.225C52.2533 22.4598 52.6056 22.5772 53.0412 22.5772C53.4957 22.5772 53.8935 22.456 54.2344 22.2136C54.5791 21.9674 54.8651 21.6322 55.0923 21.2079C55.3234 20.7799 55.4863 20.2931 55.581 19.7477C55.6681 19.206 55.6681 18.725 55.581 18.3045C55.4938 17.8841 55.3177 17.5545 55.0526 17.3159C54.7874 17.0772 54.4276 16.9579 53.973 16.9579C53.5298 16.9579 53.134 17.0734 52.7855 17.3045C52.4408 17.5356 52.1548 17.8594 51.9276 18.2761C51.7003 18.6928 51.5412 19.1833 51.4503 19.7477ZM62.5341 24.2818C61.6742 24.2818 60.9583 24.0924 60.3864 23.7136C59.8182 23.3348 59.4186 22.8026 59.1875 22.117C58.9564 21.4314 58.9148 20.6359 59.0625 19.7306C59.2102 18.8367 59.5057 18.0545 59.9489 17.3841C60.3958 16.7136 60.9583 16.1947 61.6364 15.8272C62.3182 15.456 63.0814 15.2704 63.9261 15.2704C64.786 15.2704 65.5 15.4617 66.0682 15.8443C66.6364 16.2231 67.036 16.7553 67.267 17.4409C67.5019 18.1265 67.5455 18.9257 67.3977 19.8386C67.2538 20.7288 66.9564 21.5072 66.5057 22.1738C66.0587 22.8405 65.4962 23.3594 64.8182 23.7306C64.1402 24.0981 63.3788 24.2818 62.5341 24.2818ZM62.7045 22.6341C63.1818 22.6341 63.6004 22.5053 63.9602 22.2477C64.3239 21.9863 64.6212 21.6359 64.8523 21.1966C65.0871 20.7534 65.25 20.2609 65.3409 19.7193C65.4242 19.1966 65.4261 18.7231 65.3466 18.2988C65.267 17.8708 65.0966 17.5318 64.8352 17.2818C64.5777 17.028 64.2197 16.9011 63.7614 16.9011C63.2841 16.9011 62.8617 17.0337 62.4943 17.2988C62.1307 17.5602 61.8333 17.9125 61.6023 18.3556C61.3712 18.795 61.2121 19.2856 61.125 19.8272C61.0379 20.35 61.0341 20.8234 61.1136 21.2477C61.1932 21.6719 61.3636 22.0091 61.625 22.2591C61.8864 22.5091 62.2462 22.6341 62.7045 22.6341ZM71.348 18.9977L70.5071 24.1113H68.4446L69.8991 15.3841H71.8707L71.6207 16.867H71.7287C72.0014 16.3784 72.384 15.9901 72.8764 15.7022C73.3688 15.4144 73.9427 15.2704 74.598 15.2704C75.1927 15.2704 75.6927 15.3992 76.098 15.6568C76.5033 15.9106 76.7912 16.2837 76.9616 16.7761C77.1321 17.2647 77.1586 17.8575 77.0412 18.5545L76.1094 24.1113H74.0526L74.9219 18.8727C75.0204 18.2931 74.9465 17.8386 74.7003 17.5091C74.4579 17.1757 74.0677 17.0091 73.5298 17.0091C73.17 17.0091 72.8385 17.0886 72.5355 17.2477C72.2325 17.403 71.9768 17.6284 71.7685 17.9238C71.5639 18.2193 71.4238 18.5772 71.348 18.9977Z" fill="black"/>
<path d="M50.7888 142.111V72.2931H97.0161V84.4636H65.5502V101.1H93.9479V113.27H65.5502V142.111H50.7888ZM100.225 142.111V72.2931H127.771C133.043 72.2931 137.543 73.2363 141.271 75.1227C145.021 76.9863 147.873 79.6341 149.827 83.0659C151.805 86.475 152.793 90.4863 152.793 95.1C152.793 99.7363 151.793 103.725 149.793 107.066C147.793 110.384 144.896 112.93 141.1 114.702C137.327 116.475 132.759 117.361 127.396 117.361H108.952V105.498H125.009C127.827 105.498 130.168 105.111 132.032 104.339C133.896 103.566 135.282 102.407 136.191 100.861C137.123 99.3159 137.589 97.3954 137.589 95.1C137.589 92.7818 137.123 90.8272 136.191 89.2363C135.282 87.6454 133.884 86.4409 131.998 85.6227C130.134 84.7818 127.782 84.3613 124.941 84.3613H114.986V142.111H100.225ZM137.93 110.339L155.282 142.111H138.986L122.009 110.339H137.93ZM156.505 142.111V72.2931H203.551V84.4636H171.266V101.1H201.13V113.27H171.266V129.941H203.687V142.111H156.505ZM208.566 142.111V72.2931H255.612V84.4636H223.328V101.1H253.191V113.27H223.328V129.941H255.748V142.111H208.566Z" fill="url(#paint0_linear_1_702)"/>
<path d="M94.1669 173.111V161.475H98.0987C99.0078 161.475 99.754 161.63 100.337 161.941C100.921 162.248 101.353 162.67 101.633 163.208C101.913 163.746 102.053 164.358 102.053 165.043C102.053 165.729 101.913 166.337 101.633 166.867C101.353 167.397 100.923 167.814 100.343 168.117C99.7635 168.416 99.023 168.566 98.1214 168.566H94.9396V167.293H98.076C98.6972 167.293 99.1972 167.202 99.576 167.02C99.9586 166.839 100.235 166.581 100.406 166.248C100.58 165.911 100.667 165.509 100.667 165.043C100.667 164.577 100.58 164.17 100.406 163.822C100.231 163.473 99.9529 163.204 99.5703 163.015C99.1877 162.822 98.6821 162.725 98.0533 162.725H95.576V173.111H94.1669ZM99.6442 167.884L102.508 173.111H100.871L98.0533 167.884H99.6442ZM107.785 173.293C106.944 173.293 106.219 173.108 105.609 172.736C105.003 172.361 104.535 171.839 104.205 171.168C103.879 170.494 103.717 169.71 103.717 168.816C103.717 167.922 103.879 167.134 104.205 166.452C104.535 165.767 104.993 165.233 105.58 164.85C106.171 164.464 106.861 164.27 107.648 164.27C108.103 164.27 108.552 164.346 108.995 164.498C109.438 164.649 109.842 164.895 110.205 165.236C110.569 165.573 110.859 166.02 111.075 166.577C111.29 167.134 111.398 167.82 111.398 168.634V169.202H104.671V168.043H110.035C110.035 167.551 109.936 167.111 109.739 166.725C109.546 166.339 109.27 166.034 108.91 165.81C108.554 165.587 108.133 165.475 107.648 165.475C107.114 165.475 106.652 165.608 106.262 165.873C105.876 166.134 105.578 166.475 105.37 166.895C105.162 167.316 105.058 167.767 105.058 168.248V169.02C105.058 169.68 105.171 170.238 105.398 170.697C105.629 171.151 105.95 171.498 106.359 171.736C106.768 171.971 107.243 172.089 107.785 172.089C108.137 172.089 108.455 172.039 108.739 171.941C109.027 171.839 109.275 171.687 109.484 171.486C109.692 171.282 109.853 171.028 109.967 170.725L111.262 171.089C111.126 171.528 110.897 171.914 110.575 172.248C110.253 172.577 109.855 172.835 109.381 173.02C108.908 173.202 108.376 173.293 107.785 173.293ZM117.325 164.384V165.52H112.62V164.384H117.325ZM114.029 173.111V163.18C114.029 162.68 114.147 162.263 114.381 161.93C114.616 161.596 114.921 161.346 115.296 161.18C115.671 161.013 116.067 160.93 116.484 160.93C116.813 160.93 117.082 160.956 117.29 161.009C117.499 161.062 117.654 161.111 117.756 161.157L117.37 162.316C117.302 162.293 117.207 162.265 117.086 162.231C116.969 162.197 116.813 162.18 116.62 162.18C116.177 162.18 115.857 162.291 115.66 162.515C115.467 162.738 115.37 163.066 115.37 163.498V173.111H114.029ZM122.504 173.293C121.663 173.293 120.937 173.108 120.327 172.736C119.721 172.361 119.254 171.839 118.924 171.168C118.598 170.494 118.435 169.71 118.435 168.816C118.435 167.922 118.598 167.134 118.924 166.452C119.254 165.767 119.712 165.233 120.299 164.85C120.89 164.464 121.579 164.27 122.367 164.27C122.822 164.27 123.271 164.346 123.714 164.498C124.157 164.649 124.56 164.895 124.924 165.236C125.288 165.573 125.577 166.02 125.793 166.577C126.009 167.134 126.117 167.82 126.117 168.634V169.202H119.39V168.043H124.754C124.754 167.551 124.655 167.111 124.458 166.725C124.265 166.339 123.988 166.034 123.629 165.81C123.272 165.587 122.852 165.475 122.367 165.475C121.833 165.475 121.371 165.608 120.981 165.873C120.594 166.134 120.297 166.475 120.089 166.895C119.88 167.316 119.776 167.767 119.776 168.248V169.02C119.776 169.68 119.89 170.238 120.117 170.697C120.348 171.151 120.668 171.498 121.077 171.736C121.487 171.971 121.962 172.089 122.504 172.089C122.856 172.089 123.174 172.039 123.458 171.941C123.746 171.839 123.994 171.687 124.202 171.486C124.411 171.282 124.572 171.028 124.685 170.725L125.981 171.089C125.844 171.528 125.615 171.914 125.293 172.248C124.971 172.577 124.574 172.835 124.1 173.02C123.627 173.202 123.094 173.293 122.504 173.293ZM128.157 173.111V164.384H129.452V165.702H129.543C129.702 165.27 129.99 164.92 130.407 164.651C130.824 164.382 131.293 164.248 131.816 164.248C131.915 164.248 132.038 164.25 132.185 164.253C132.333 164.257 132.445 164.263 132.521 164.27V165.634C132.475 165.623 132.371 165.606 132.208 165.583C132.049 165.556 131.88 165.543 131.702 165.543C131.278 165.543 130.899 165.632 130.566 165.81C130.237 165.984 129.975 166.227 129.782 166.537C129.593 166.844 129.498 167.195 129.498 167.589V173.111H128.157ZM134.11 173.111V164.384H135.406V165.702H135.496C135.656 165.27 135.943 164.92 136.36 164.651C136.777 164.382 137.246 164.248 137.769 164.248C137.868 164.248 137.991 164.25 138.138 164.253C138.286 164.257 138.398 164.263 138.474 164.27V165.634C138.428 165.623 138.324 165.606 138.161 165.583C138.002 165.556 137.834 165.543 137.656 165.543C137.231 165.543 136.853 165.632 136.519 165.81C136.19 165.984 135.928 166.227 135.735 166.537C135.546 166.844 135.451 167.195 135.451 167.589V173.111H134.11ZM142.631 173.316C142.078 173.316 141.576 173.212 141.126 173.003C140.675 172.791 140.317 172.486 140.052 172.089C139.787 171.687 139.654 171.202 139.654 170.634C139.654 170.134 139.753 169.729 139.95 169.418C140.147 169.104 140.41 168.858 140.739 168.68C141.069 168.501 141.433 168.369 141.83 168.282C142.232 168.191 142.635 168.119 143.04 168.066C143.571 167.998 144.001 167.947 144.33 167.912C144.664 167.875 144.906 167.812 145.058 167.725C145.213 167.638 145.29 167.486 145.29 167.27V167.225C145.29 166.664 145.137 166.229 144.83 165.918C144.527 165.608 144.067 165.452 143.45 165.452C142.809 165.452 142.308 165.592 141.944 165.873C141.58 166.153 141.325 166.452 141.177 166.77L139.904 166.316C140.131 165.786 140.434 165.373 140.813 165.077C141.196 164.778 141.612 164.57 142.063 164.452C142.518 164.331 142.965 164.27 143.404 164.27C143.684 164.27 144.006 164.305 144.37 164.373C144.737 164.437 145.092 164.572 145.433 164.776C145.777 164.981 146.063 165.289 146.29 165.702C146.518 166.115 146.631 166.668 146.631 167.361V173.111H145.29V171.93H145.222C145.131 172.119 144.98 172.322 144.768 172.537C144.556 172.753 144.273 172.937 143.921 173.089C143.569 173.24 143.139 173.316 142.631 173.316ZM142.836 172.111C143.366 172.111 143.813 172.007 144.177 171.799C144.544 171.59 144.821 171.322 145.006 170.992C145.196 170.662 145.29 170.316 145.29 169.952V168.725C145.234 168.793 145.109 168.856 144.915 168.912C144.726 168.965 144.506 169.013 144.256 169.055C144.01 169.092 143.77 169.126 143.535 169.157C143.304 169.183 143.116 169.206 142.972 169.225C142.624 169.27 142.298 169.344 141.995 169.447C141.696 169.545 141.453 169.695 141.268 169.895C141.086 170.092 140.995 170.361 140.995 170.702C140.995 171.168 141.167 171.52 141.512 171.759C141.861 171.994 142.302 172.111 142.836 172.111ZM150.42 161.475V173.111H149.079V161.475H150.42ZM157.558 173.111V161.475H161.489C162.398 161.475 163.145 161.63 163.728 161.941C164.311 162.248 164.743 162.67 165.023 163.208C165.304 163.746 165.444 164.358 165.444 165.043C165.444 165.729 165.304 166.337 165.023 166.867C164.743 167.397 164.313 167.814 163.734 168.117C163.154 168.416 162.414 168.566 161.512 168.566H158.33V167.293H161.467C162.088 167.293 162.588 167.202 162.967 167.02C163.349 166.839 163.626 166.581 163.796 166.248C163.97 165.911 164.058 165.509 164.058 165.043C164.058 164.577 163.97 164.17 163.796 163.822C163.622 163.473 163.344 163.204 162.961 163.015C162.578 162.822 162.073 162.725 161.444 162.725H158.967V173.111H157.558ZM163.035 167.884L165.898 173.111H164.262L161.444 167.884H163.035ZM171.175 173.293C170.335 173.293 169.609 173.108 168.999 172.736C168.393 172.361 167.925 171.839 167.596 171.168C167.27 170.494 167.107 169.71 167.107 168.816C167.107 167.922 167.27 167.134 167.596 166.452C167.925 165.767 168.384 165.233 168.971 164.85C169.562 164.464 170.251 164.27 171.039 164.27C171.494 164.27 171.942 164.346 172.386 164.498C172.829 164.649 173.232 164.895 173.596 165.236C173.96 165.573 174.249 166.02 174.465 166.577C174.681 167.134 174.789 167.82 174.789 168.634V169.202H168.062V168.043H173.425C173.425 167.551 173.327 167.111 173.13 166.725C172.937 166.339 172.66 166.034 172.3 165.81C171.944 165.587 171.524 165.475 171.039 165.475C170.505 165.475 170.043 165.608 169.653 165.873C169.266 166.134 168.969 166.475 168.761 166.895C168.552 167.316 168.448 167.767 168.448 168.248V169.02C168.448 169.68 168.562 170.238 168.789 170.697C169.02 171.151 169.34 171.498 169.749 171.736C170.158 171.971 170.634 172.089 171.175 172.089C171.528 172.089 171.846 172.039 172.13 171.941C172.418 171.839 172.666 171.687 172.874 171.486C173.083 171.282 173.244 171.028 173.357 170.725L174.653 171.089C174.516 171.528 174.287 171.914 173.965 172.248C173.643 172.577 173.246 172.835 172.772 173.02C172.299 173.202 171.766 173.293 171.175 173.293ZM178.806 173.111L176.147 164.384H177.556L179.442 171.066H179.533L181.397 164.384H182.829L184.67 171.043H184.761L186.647 164.384H188.056L185.397 173.111H184.079L182.17 166.407H182.033L180.124 173.111H178.806ZM192.397 173.316C191.844 173.316 191.342 173.212 190.891 173.003C190.441 172.791 190.083 172.486 189.817 172.089C189.552 171.687 189.42 171.202 189.42 170.634C189.42 170.134 189.518 169.729 189.715 169.418C189.912 169.104 190.175 168.858 190.505 168.68C190.835 168.501 191.198 168.369 191.596 168.282C191.997 168.191 192.401 168.119 192.806 168.066C193.336 167.998 193.766 167.947 194.096 167.912C194.429 167.875 194.672 167.812 194.823 167.725C194.978 167.638 195.056 167.486 195.056 167.27V167.225C195.056 166.664 194.903 166.229 194.596 165.918C194.293 165.608 193.833 165.452 193.215 165.452C192.575 165.452 192.073 165.592 191.71 165.873C191.346 166.153 191.09 166.452 190.942 166.77L189.67 166.316C189.897 165.786 190.2 165.373 190.579 165.077C190.961 164.778 191.378 164.57 191.829 164.452C192.283 164.331 192.73 164.27 193.17 164.27C193.45 164.27 193.772 164.305 194.136 164.373C194.503 164.437 194.857 164.572 195.198 164.776C195.543 164.981 195.829 165.289 196.056 165.702C196.283 166.115 196.397 166.668 196.397 167.361V173.111H195.056V171.93H194.988C194.897 172.119 194.746 172.322 194.533 172.537C194.321 172.753 194.039 172.937 193.687 173.089C193.335 173.24 192.905 173.316 192.397 173.316ZM192.602 172.111C193.132 172.111 193.579 172.007 193.942 171.799C194.31 171.59 194.586 171.322 194.772 170.992C194.961 170.662 195.056 170.316 195.056 169.952V168.725C194.999 168.793 194.874 168.856 194.681 168.912C194.492 168.965 194.272 169.013 194.022 169.055C193.776 169.092 193.535 169.126 193.3 169.157C193.069 169.183 192.882 169.206 192.738 169.225C192.389 169.27 192.064 169.344 191.761 169.447C191.461 169.545 191.219 169.695 191.033 169.895C190.852 170.092 190.761 170.361 190.761 170.702C190.761 171.168 190.933 171.52 191.278 171.759C191.626 171.994 192.067 172.111 192.602 172.111ZM198.844 173.111V164.384H200.14V165.702H200.231C200.39 165.27 200.678 164.92 201.094 164.651C201.511 164.382 201.981 164.248 202.504 164.248C202.602 164.248 202.725 164.25 202.873 164.253C203.021 164.257 203.132 164.263 203.208 164.27V165.634C203.163 165.623 203.058 165.606 202.896 165.583C202.737 165.556 202.568 165.543 202.39 165.543C201.966 165.543 201.587 165.632 201.254 165.81C200.924 165.984 200.663 166.227 200.469 166.537C200.28 166.844 200.185 167.195 200.185 167.589V173.111H198.844ZM207.827 173.293C207.1 173.293 206.458 173.109 205.901 172.742C205.344 172.371 204.909 171.848 204.594 171.174C204.28 170.496 204.123 169.695 204.123 168.77C204.123 167.854 204.28 167.058 204.594 166.384C204.909 165.71 205.346 165.189 205.907 164.822C206.468 164.454 207.115 164.27 207.85 164.27C208.418 164.27 208.867 164.365 209.197 164.555C209.53 164.74 209.784 164.952 209.958 165.191C210.136 165.426 210.274 165.619 210.373 165.77H210.487V161.475H211.827V173.111H210.532V171.77H210.373C210.274 171.93 210.134 172.13 209.952 172.373C209.771 172.611 209.511 172.825 209.174 173.015C208.837 173.2 208.388 173.293 207.827 173.293ZM208.009 172.089C208.547 172.089 209.002 171.948 209.373 171.668C209.744 171.384 210.026 170.992 210.219 170.492C210.413 169.988 210.509 169.407 210.509 168.748C210.509 168.096 210.415 167.526 210.225 167.037C210.036 166.545 209.755 166.162 209.384 165.89C209.013 165.613 208.555 165.475 208.009 165.475C207.441 165.475 206.968 165.621 206.589 165.912C206.214 166.2 205.932 166.592 205.742 167.089C205.557 167.581 205.464 168.134 205.464 168.748C205.464 169.369 205.558 169.933 205.748 170.441C205.941 170.945 206.225 171.346 206.6 171.645C206.979 171.941 207.449 172.089 208.009 172.089Z" fill="black"/>
<path fill-rule="evenodd" clip-rule="evenodd" d="M283.036 12.4448H281.964V19.0653L277.576 14.3839L276.818 15.192L281.207 19.8734H275V21.0163H281.207L276.818 25.6976L277.576 26.5057L281.964 21.8243V28.4448H283.036V21.8243L287.425 26.5057L288.182 25.6976L283.793 21.0163H290V19.8734H283.793L288.182 15.192L287.425 14.3839L283.036 19.0653V12.4448Z" fill="#C1554E"/>
</g>
<defs>
<linearGradient id="paint0_linear_1_702" x1="135.548" y1="72.1113" x2="140.961" y2="151.259" gradientUnits="userSpaceOnUse">
<stop offset="0.630979" stop-color="#C1554E"/>
<stop offset="1" stop-color="#F4C5C1"/>
</linearGradient>
<clipPath id="clip0_1_702">
<rect width="315" height="216" fill="white" transform="translate(0 0.111328)"/>
</clipPath>
</defs>
</svg>
