<svg width="315" height="217" viewBox="0 0 315 217" fill="none" xmlns="http://www.w3.org/2000/svg">
<g clip-path="url(#clip0_1_729)">
<rect width="315" height="216" transform="translate(0 0.222168)" fill="white"/>
<path d="M0 33.2222L315 33.2222" stroke="#CACACA" stroke-width="0.783582"/>
<path d="M16 33.2222L16 216.222" stroke="#CACACA" stroke-width="0.5"/>
<path d="M289.926 33.2222L289.926 216.58" stroke="#CACACA" stroke-width="0.783582"/>
<path d="M28.6477 16.5119H26.5568C26.5568 16.1635 26.5 15.8547 26.3864 15.5858C26.2727 15.3131 26.1136 15.082 25.9091 14.8926C25.7045 14.7032 25.4621 14.5612 25.1818 14.4665C24.9015 14.368 24.5909 14.3188 24.25 14.3188C23.5985 14.3188 22.9924 14.4835 22.4318 14.8131C21.8712 15.1426 21.3958 15.6218 21.0057 16.2506C20.6155 16.8756 20.3447 17.635 20.1932 18.529C20.053 19.4002 20.0663 20.1294 20.233 20.7165C20.4034 21.3036 20.6989 21.7468 21.1193 22.046C21.5398 22.3415 22.0511 22.4892 22.6534 22.4892C23.0208 22.4892 23.3731 22.4438 23.7102 22.3528C24.0473 22.2582 24.358 22.1199 24.642 21.9381C24.9299 21.7525 25.1818 21.5271 25.3977 21.2619C25.6174 20.9968 25.7879 20.6957 25.9091 20.3585H28.0284C27.8542 20.9116 27.5985 21.4324 27.2614 21.921C26.9242 22.4059 26.5189 22.8339 26.0455 23.2051C25.572 23.5725 25.0417 23.8604 24.4545 24.0688C23.8674 24.2771 23.2348 24.3813 22.5568 24.3813C21.5152 24.3813 20.6231 24.1388 19.8807 23.654C19.142 23.1653 18.6117 22.4665 18.2898 21.5574C17.9678 20.6445 17.911 19.5517 18.1193 18.279C18.3277 17.0403 18.7292 15.9854 19.3239 15.1142C19.9223 14.243 20.6515 13.5782 21.5114 13.1199C22.375 12.6578 23.3049 12.4267 24.3011 12.4267C24.9602 12.4267 25.5587 12.5176 26.0966 12.6994C26.6383 12.8813 27.1023 13.1483 27.4886 13.5006C27.875 13.8491 28.1686 14.2771 28.3693 14.7847C28.5739 15.2885 28.6667 15.8642 28.6477 16.5119ZM33.0497 24.3926C32.1899 24.3926 31.474 24.2032 30.902 23.8244C30.3338 23.4457 29.9342 22.9135 29.7031 22.2278C29.4721 21.5422 29.4304 20.7468 29.5781 19.8415C29.7259 18.9475 30.0213 18.1653 30.4645 17.4949C30.9115 16.8244 31.474 16.3055 32.152 15.9381C32.8338 15.5669 33.5971 15.3813 34.4418 15.3813C35.3016 15.3813 36.0156 15.5725 36.5838 15.9551C37.152 16.3339 37.5516 16.8661 37.7827 17.5517C38.0175 18.2373 38.0611 19.0366 37.9134 19.9494C37.7694 20.8396 37.4721 21.618 37.0213 22.2847C36.5743 22.9513 36.0118 23.4703 35.3338 23.8415C34.6558 24.2089 33.8944 24.3926 33.0497 24.3926ZM33.2202 22.7449C33.6974 22.7449 34.116 22.6161 34.4759 22.3585C34.8395 22.0972 35.1368 21.7468 35.3679 21.3074C35.6027 20.8642 35.7656 20.3718 35.8565 19.8301C35.9399 19.3074 35.9418 18.8339 35.8622 18.4097C35.7827 17.9816 35.6122 17.6426 35.3509 17.3926C35.0933 17.1388 34.7353 17.0119 34.277 17.0119C33.7997 17.0119 33.3774 17.1445 33.0099 17.4097C32.6463 17.671 32.349 18.0233 32.1179 18.4665C31.8868 18.9059 31.7277 19.3964 31.6406 19.9381C31.5535 20.4608 31.5497 20.9343 31.6293 21.3585C31.7088 21.7828 31.8793 22.1199 32.1406 22.3699C32.402 22.6199 32.7618 22.7449 33.2202 22.7449ZM45.125 20.5517L45.9716 15.4949H48.0284L46.5739 24.2222H44.5795L44.8409 22.671H44.75C44.4773 23.1597 44.0871 23.5593 43.5795 23.8699C43.0758 24.1805 42.4962 24.3358 41.8409 24.3358C41.2689 24.3358 40.786 24.2089 40.392 23.9551C39.9981 23.6975 39.7178 23.3244 39.5511 22.8358C39.3883 22.3434 39.3636 21.7487 39.4773 21.0517L40.4091 15.4949H42.4659L41.5909 20.7335C41.5038 21.2866 41.5833 21.726 41.8295 22.0517C42.0795 22.3775 42.4508 22.5403 42.9432 22.5403C43.2462 22.5403 43.5511 22.4665 43.858 22.3188C44.1686 22.171 44.4394 21.9513 44.6705 21.6597C44.9015 21.3642 45.053 20.9949 45.125 20.5517ZM48.1491 27.4949L50.1605 15.4949H52.1832L51.9503 16.9381H52.0696C52.206 16.726 52.3897 16.5006 52.6207 16.2619C52.8556 16.0195 53.1529 15.8131 53.5128 15.6426C53.8726 15.4684 54.3101 15.3813 54.8253 15.3813C55.4957 15.3813 56.0734 15.5536 56.5582 15.8983C57.0431 16.2392 57.3897 16.7449 57.598 17.4153C57.8101 18.082 57.8366 18.9002 57.6776 19.8699C57.5185 20.8282 57.2249 21.6426 56.7969 22.3131C56.3688 22.9835 55.8556 23.4949 55.2571 23.8472C54.6586 24.1994 54.0166 24.3756 53.331 24.3756C52.831 24.3756 52.4276 24.2922 52.1207 24.1256C51.8177 23.9589 51.5885 23.7582 51.4332 23.5233C51.2779 23.2847 51.1624 23.0593 51.0866 22.8472H50.9957L50.223 27.4949H48.1491ZM51.4503 19.8585C51.3594 20.4229 51.3575 20.9172 51.4446 21.3415C51.5355 21.7657 51.7154 22.0972 51.9844 22.3358C52.2533 22.5707 52.6056 22.6881 53.0412 22.6881C53.4957 22.6881 53.8935 22.5669 54.2344 22.3244C54.5791 22.0782 54.8651 21.743 55.0923 21.3188C55.3234 20.8907 55.4863 20.404 55.581 19.8585C55.6681 19.3169 55.6681 18.8358 55.581 18.4153C55.4938 17.9949 55.3177 17.6653 55.0526 17.4267C54.7874 17.1881 54.4276 17.0688 53.973 17.0688C53.5298 17.0688 53.134 17.1843 52.7855 17.4153C52.4408 17.6464 52.1548 17.9703 51.9276 18.3869C51.7003 18.8036 51.5412 19.2941 51.4503 19.8585ZM62.5341 24.3926C61.6742 24.3926 60.9583 24.2032 60.3864 23.8244C59.8182 23.4457 59.4186 22.9135 59.1875 22.2278C58.9564 21.5422 58.9148 20.7468 59.0625 19.8415C59.2102 18.9475 59.5057 18.1653 59.9489 17.4949C60.3958 16.8244 60.9583 16.3055 61.6364 15.9381C62.3182 15.5669 63.0814 15.3813 63.9261 15.3813C64.786 15.3813 65.5 15.5725 66.0682 15.9551C66.6364 16.3339 67.036 16.8661 67.267 17.5517C67.5019 18.2373 67.5455 19.0366 67.3977 19.9494C67.2538 20.8396 66.9564 21.618 66.5057 22.2847C66.0587 22.9513 65.4962 23.4703 64.8182 23.8415C64.1402 24.2089 63.3788 24.3926 62.5341 24.3926ZM62.7045 22.7449C63.1818 22.7449 63.6004 22.6161 63.9602 22.3585C64.3239 22.0972 64.6212 21.7468 64.8523 21.3074C65.0871 20.8642 65.25 20.3718 65.3409 19.8301C65.4242 19.3074 65.4261 18.8339 65.3466 18.4097C65.267 17.9816 65.0966 17.6426 64.8352 17.3926C64.5777 17.1388 64.2197 17.0119 63.7614 17.0119C63.2841 17.0119 62.8617 17.1445 62.4943 17.4097C62.1307 17.671 61.8333 18.0233 61.6023 18.4665C61.3712 18.9059 61.2121 19.3964 61.125 19.9381C61.0379 20.4608 61.0341 20.9343 61.1136 21.3585C61.1932 21.7828 61.3636 22.1199 61.625 22.3699C61.8864 22.6199 62.2462 22.7449 62.7045 22.7449ZM71.348 19.1085L70.5071 24.2222H68.4446L69.8991 15.4949H71.8707L71.6207 16.9778H71.7287C72.0014 16.4892 72.384 16.101 72.8764 15.8131C73.3688 15.5252 73.9427 15.3813 74.598 15.3813C75.1927 15.3813 75.6927 15.51 76.098 15.7676C76.5033 16.0214 76.7912 16.3945 76.9616 16.8869C77.1321 17.3756 77.1586 17.9684 77.0412 18.6653L76.1094 24.2222H74.0526L74.9219 18.9835C75.0204 18.404 74.9465 17.9494 74.7003 17.6199C74.4579 17.2866 74.0677 17.1199 73.5298 17.1199C73.17 17.1199 72.8385 17.1994 72.5355 17.3585C72.2325 17.5138 71.9768 17.7392 71.7685 18.0347C71.5639 18.3301 71.4238 18.6881 71.348 19.1085Z" fill="black"/>
<path d="M47.01 142.222L75.9532 84.9494V84.4722H42.2373V72.404H91.2259V84.6426L62.2486 142.222H47.01ZM119.185 143.177C114.367 143.177 110.071 142.29 106.299 140.518C102.549 138.745 99.5712 136.302 97.3667 133.188C95.1621 130.074 94.0144 126.506 93.9235 122.484H108.242C108.401 125.188 109.537 127.381 111.651 129.063C113.764 130.745 116.276 131.586 119.185 131.586C121.503 131.586 123.549 131.074 125.321 130.052C127.117 129.006 128.514 127.563 129.514 125.722C130.537 123.859 131.049 121.722 131.049 119.313C131.049 116.859 130.526 114.699 129.48 112.836C128.458 110.972 127.037 109.518 125.219 108.472C123.401 107.427 121.321 106.893 118.98 106.87C116.935 106.87 114.946 107.29 113.014 108.131C111.105 108.972 109.617 110.12 108.549 111.574L95.4235 109.222L98.7303 72.404H141.412V84.4722H110.901L109.094 101.961H109.503C110.73 100.234 112.583 98.8017 115.06 97.6653C117.537 96.529 120.31 95.9608 123.378 95.9608C127.583 95.9608 131.333 96.9494 134.628 98.9267C137.924 100.904 140.526 103.62 142.435 107.074C144.344 110.506 145.287 114.461 145.264 118.938C145.287 123.643 144.196 127.824 141.992 131.484C139.81 135.12 136.753 137.984 132.821 140.074C128.912 142.143 124.367 143.177 119.185 143.177ZM187.056 129.131V125.449C187.056 122.654 187.647 120.086 188.829 117.745C190.033 115.381 191.772 113.495 194.044 112.086C196.34 110.654 199.135 109.938 202.431 109.938C205.772 109.938 208.579 110.643 210.851 112.052C213.147 113.461 214.874 115.347 216.033 117.711C217.215 120.052 217.806 122.631 217.806 125.449V129.131C217.806 131.927 217.215 134.506 216.033 136.87C214.851 139.211 213.113 141.086 210.817 142.495C208.522 143.927 205.726 144.643 202.431 144.643C199.09 144.643 196.283 143.927 194.01 142.495C191.738 141.086 190.01 139.211 188.829 136.87C187.647 134.506 187.056 131.927 187.056 129.131ZM196.976 125.449V129.131C196.976 130.745 197.363 132.268 198.135 133.699C198.931 135.131 200.363 135.847 202.431 135.847C204.499 135.847 205.908 135.143 206.658 133.734C207.431 132.324 207.817 130.79 207.817 129.131V125.449C207.817 123.79 207.454 122.245 206.726 120.813C205.999 119.381 204.567 118.665 202.431 118.665C200.385 118.665 198.965 119.381 198.169 120.813C197.374 122.245 196.976 123.79 196.976 125.449ZM151.226 89.1767V85.4949C151.226 82.6767 151.829 80.0972 153.033 77.7563C154.238 75.3926 155.976 73.5063 158.249 72.0972C160.544 70.6881 163.317 69.9835 166.567 69.9835C169.931 69.9835 172.749 70.6881 175.022 72.0972C177.294 73.5063 179.022 75.3926 180.204 77.7563C181.385 80.0972 181.976 82.6767 181.976 85.4949V89.1767C181.976 91.9949 181.374 94.5744 180.169 96.9153C178.988 99.2563 177.249 101.131 174.954 102.54C172.681 103.927 169.885 104.62 166.567 104.62C163.249 104.62 160.442 103.915 158.147 102.506C155.874 101.074 154.147 99.1994 152.965 96.8813C151.806 94.5403 151.226 91.9722 151.226 89.1767ZM161.215 85.4949V89.1767C161.215 90.8358 161.601 92.3699 162.374 93.779C163.169 95.1881 164.567 95.8926 166.567 95.8926C168.658 95.8926 170.079 95.1881 170.829 93.779C171.601 92.3699 171.988 90.8358 171.988 89.1767V85.4949C171.988 83.8358 171.624 82.2903 170.897 80.8585C170.169 79.4267 168.726 78.7108 166.567 78.7108C164.544 78.7108 163.147 79.4381 162.374 80.8926C161.601 82.3472 161.215 83.8813 161.215 85.4949ZM155.726 142.222L203.726 72.404H212.658L164.658 142.222H155.726ZM242.734 134.949C242.734 136.484 242.457 137.809 241.903 138.927C241.349 140.044 240.589 140.906 239.623 141.512C238.657 142.118 237.554 142.421 236.313 142.421C235.073 142.421 233.969 142.118 233.004 141.512C232.038 140.906 231.278 140.044 230.724 138.927C230.17 137.809 229.893 136.484 229.893 134.949C229.893 133.415 230.17 132.09 230.724 130.972C231.278 129.855 232.038 128.993 233.004 128.387C233.969 127.781 235.073 127.478 236.313 127.478C237.554 127.478 238.657 127.781 239.623 128.387C240.589 128.993 241.349 129.855 241.903 130.972C242.457 132.09 242.734 133.415 242.734 134.949ZM241.029 134.949C241.029 133.69 240.818 132.627 240.397 131.761C239.98 130.894 239.414 130.238 238.7 129.793C237.989 129.348 237.194 129.126 236.313 129.126C235.432 129.126 234.635 129.348 233.92 129.793C233.209 130.238 232.644 130.894 232.222 131.761C231.806 132.627 231.597 133.69 231.597 134.949C231.597 136.209 231.806 137.272 232.222 138.138C232.644 139.005 233.209 139.661 233.92 140.106C234.635 140.551 235.432 140.773 236.313 140.773C237.194 140.773 237.989 140.551 238.7 140.106C239.414 139.661 239.98 139.005 240.397 138.138C240.818 137.272 241.029 136.209 241.029 134.949ZM245.695 142.222V127.677H254.417V129.239H247.457V134.154H253.763V135.716H247.457V142.222H245.695ZM257.434 142.222V127.677H266.155V129.239H259.195V134.154H265.502V135.716H259.195V142.222H257.434Z" fill="url(#paint0_linear_1_729)"/>
<path d="M53.8153 173.222V161.586H60.7926V162.836H55.2244V166.768H60.2699V168.018H55.2244V173.222H53.8153ZM62.9304 173.222V164.495H64.2259V165.813H64.3168C64.4759 165.381 64.7637 165.031 65.1804 164.762C65.5971 164.493 66.0668 164.359 66.5895 164.359C66.688 164.359 66.8111 164.36 66.9588 164.364C67.1065 164.368 67.2183 164.374 67.294 164.381V165.745C67.2486 165.734 67.1444 165.716 66.9815 165.694C66.8224 165.667 66.6539 165.654 66.4759 165.654C66.0516 165.654 65.6728 165.743 65.3395 165.921C65.0099 166.095 64.7486 166.338 64.5554 166.648C64.366 166.955 64.2713 167.306 64.2713 167.699V173.222H62.9304ZM68.8835 173.222V164.495H70.2244V173.222H68.8835ZM69.5653 163.04C69.304 163.04 69.0786 162.951 68.8892 162.773C68.7036 162.595 68.6108 162.381 68.6108 162.131C68.6108 161.881 68.7036 161.667 68.8892 161.489C69.0786 161.311 69.304 161.222 69.5653 161.222C69.8267 161.222 70.0502 161.311 70.2358 161.489C70.4252 161.667 70.5199 161.881 70.5199 162.131C70.5199 162.381 70.4252 162.595 70.2358 162.773C70.0502 162.951 69.8267 163.04 69.5653 163.04ZM78.8622 166.449L77.6577 166.79C77.5819 166.59 77.4702 166.395 77.3224 166.205C77.1785 166.012 76.9815 165.853 76.7315 165.728C76.4815 165.603 76.1615 165.54 75.7713 165.54C75.2372 165.54 74.7921 165.663 74.4361 165.91C74.0838 166.152 73.9077 166.461 73.9077 166.836C73.9077 167.169 74.0289 167.432 74.2713 167.626C74.5137 167.819 74.8925 167.98 75.4077 168.109L76.7031 168.427C77.4834 168.616 78.0649 168.906 78.4474 169.296C78.83 169.682 79.0213 170.181 79.0213 170.79C79.0213 171.29 78.8774 171.737 78.5895 172.131C78.3054 172.525 77.9077 172.836 77.3963 173.063C76.8849 173.29 76.2902 173.404 75.6122 173.404C74.7221 173.404 73.9853 173.211 73.402 172.824C72.8187 172.438 72.4493 171.874 72.294 171.131L73.5668 170.813C73.688 171.283 73.9171 171.635 74.2543 171.87C74.5952 172.105 75.0402 172.222 75.5895 172.222C76.2145 172.222 76.7107 172.09 77.0781 171.824C77.4493 171.556 77.6349 171.234 77.6349 170.859C77.6349 170.556 77.5289 170.302 77.3168 170.097C77.1046 169.889 76.7789 169.734 76.3395 169.631L74.8849 169.29C74.0857 169.101 73.4986 168.807 73.1236 168.41C72.7524 168.008 72.5668 167.506 72.5668 166.904C72.5668 166.412 72.705 165.976 72.9815 165.597C73.2618 165.218 73.6425 164.921 74.1236 164.705C74.6084 164.489 75.1577 164.381 75.7713 164.381C76.6349 164.381 77.313 164.571 77.8054 164.949C78.3016 165.328 78.6539 165.828 78.8622 166.449ZM84.8352 164.495V165.631H80.3125V164.495H84.8352ZM81.6307 162.404H82.9716V170.722C82.9716 171.101 83.0265 171.385 83.1364 171.574C83.25 171.76 83.3939 171.885 83.5682 171.949C83.7462 172.01 83.9337 172.04 84.1307 172.04C84.2784 172.04 84.3996 172.033 84.4943 172.018C84.589 171.999 84.6648 171.984 84.7216 171.972L84.9943 173.177C84.9034 173.211 84.7765 173.245 84.6136 173.279C84.4508 173.317 84.2443 173.336 83.9943 173.336C83.6155 173.336 83.2443 173.254 82.8807 173.091C82.5208 172.929 82.2216 172.681 81.983 172.347C81.7481 172.014 81.6307 171.593 81.6307 171.086V162.404ZM91.5398 167.609V168.859H86.4489V167.609H91.5398ZM92.2571 162.836V161.586H100.984V162.836H97.3253V173.222H95.9162V162.836H92.2571ZM102.977 173.222V164.495H104.318V173.222H102.977ZM103.659 163.04C103.398 163.04 103.172 162.951 102.983 162.773C102.797 162.595 102.705 162.381 102.705 162.131C102.705 161.881 102.797 161.667 102.983 161.489C103.172 161.311 103.398 161.222 103.659 161.222C103.92 161.222 104.144 161.311 104.33 161.489C104.519 161.667 104.614 161.881 104.614 162.131C104.614 162.381 104.519 162.595 104.33 162.773C104.144 162.951 103.92 163.04 103.659 163.04ZM106.774 173.222V164.495H108.07V165.859H108.183C108.365 165.393 108.659 165.031 109.064 164.773C109.469 164.512 109.956 164.381 110.524 164.381C111.1 164.381 111.579 164.512 111.962 164.773C112.348 165.031 112.649 165.393 112.865 165.859H112.956C113.179 165.408 113.515 165.05 113.962 164.785C114.409 164.516 114.945 164.381 115.57 164.381C116.35 164.381 116.988 164.626 117.484 165.114C117.981 165.599 118.229 166.355 118.229 167.381V173.222H116.888V167.381C116.888 166.737 116.712 166.277 116.359 166.001C116.007 165.724 115.592 165.586 115.115 165.586C114.501 165.586 114.026 165.771 113.689 166.143C113.352 166.51 113.183 166.976 113.183 167.54V173.222H111.82V167.245C111.82 166.749 111.659 166.349 111.337 166.046C111.015 165.739 110.6 165.586 110.092 165.586C109.744 165.586 109.418 165.679 109.115 165.864C108.816 166.05 108.573 166.307 108.388 166.637C108.206 166.963 108.115 167.34 108.115 167.768V173.222H106.774ZM124.339 173.404C123.499 173.404 122.773 173.218 122.163 172.847C121.557 172.472 121.089 171.949 120.76 171.279C120.434 170.605 120.271 169.821 120.271 168.927C120.271 168.033 120.434 167.245 120.76 166.563C121.089 165.877 121.548 165.343 122.135 164.961C122.726 164.574 123.415 164.381 124.203 164.381C124.658 164.381 125.107 164.457 125.55 164.609C125.993 164.76 126.396 165.006 126.76 165.347C127.124 165.684 127.413 166.131 127.629 166.688C127.845 167.245 127.953 167.931 127.953 168.745V169.313H121.226V168.154H126.589C126.589 167.662 126.491 167.222 126.294 166.836C126.101 166.449 125.824 166.145 125.464 165.921C125.108 165.698 124.688 165.586 124.203 165.586C123.669 165.586 123.207 165.718 122.817 165.984C122.43 166.245 122.133 166.586 121.925 167.006C121.716 167.427 121.612 167.877 121.612 168.359V169.131C121.612 169.79 121.726 170.349 121.953 170.807C122.184 171.262 122.504 171.609 122.913 171.847C123.322 172.082 123.798 172.199 124.339 172.199C124.692 172.199 125.01 172.15 125.294 172.052C125.582 171.949 125.83 171.798 126.038 171.597C126.247 171.393 126.408 171.139 126.521 170.836L127.817 171.199C127.68 171.639 127.451 172.025 127.129 172.359C126.807 172.688 126.41 172.946 125.936 173.131C125.463 173.313 124.93 173.404 124.339 173.404ZM138.038 173.404C137.22 173.404 136.516 173.211 135.925 172.824C135.334 172.438 134.879 171.906 134.561 171.228C134.243 170.55 134.084 169.775 134.084 168.904C134.084 168.018 134.247 167.235 134.572 166.557C134.902 165.876 135.36 165.343 135.947 164.961C136.538 164.574 137.228 164.381 138.016 164.381C138.629 164.381 139.182 164.495 139.675 164.722C140.167 164.949 140.571 165.268 140.885 165.677C141.199 166.086 141.394 166.563 141.47 167.109H140.129C140.027 166.711 139.8 166.359 139.447 166.052C139.099 165.741 138.629 165.586 138.038 165.586C137.516 165.586 137.057 165.722 136.663 165.995C136.273 166.264 135.968 166.645 135.749 167.137C135.533 167.626 135.425 168.199 135.425 168.859C135.425 169.533 135.531 170.12 135.743 170.62C135.959 171.12 136.262 171.508 136.652 171.785C137.046 172.061 137.508 172.199 138.038 172.199C138.387 172.199 138.703 172.139 138.987 172.018C139.271 171.896 139.512 171.722 139.709 171.495C139.906 171.268 140.046 170.995 140.129 170.677H141.47C141.394 171.192 141.207 171.656 140.908 172.069C140.612 172.478 140.22 172.804 139.732 173.046C139.247 173.285 138.682 173.404 138.038 173.404ZM144.771 161.586V173.222H143.43V161.586H144.771ZM147.227 173.222V164.495H148.568V173.222H147.227ZM147.909 163.04C147.648 163.04 147.422 162.951 147.233 162.773C147.047 162.595 146.955 162.381 146.955 162.131C146.955 161.881 147.047 161.667 147.233 161.489C147.422 161.311 147.648 161.222 147.909 161.222C148.17 161.222 148.394 161.311 148.58 161.489C148.769 161.667 148.864 161.881 148.864 162.131C148.864 162.381 148.769 162.595 148.58 162.773C148.394 162.951 148.17 163.04 147.909 163.04ZM154.683 173.404C153.842 173.404 153.117 173.218 152.507 172.847C151.901 172.472 151.433 171.949 151.104 171.279C150.778 170.605 150.615 169.821 150.615 168.927C150.615 168.033 150.778 167.245 151.104 166.563C151.433 165.877 151.892 165.343 152.479 164.961C153.07 164.574 153.759 164.381 154.547 164.381C155.001 164.381 155.45 164.457 155.893 164.609C156.337 164.76 156.74 165.006 157.104 165.347C157.467 165.684 157.757 166.131 157.973 166.688C158.189 167.245 158.297 167.931 158.297 168.745V169.313H151.57V168.154H156.933C156.933 167.662 156.835 167.222 156.638 166.836C156.445 166.449 156.168 166.145 155.808 165.921C155.452 165.698 155.032 165.586 154.547 165.586C154.013 165.586 153.551 165.718 153.161 165.984C152.774 166.245 152.477 166.586 152.268 167.006C152.06 167.427 151.956 167.877 151.956 168.359V169.131C151.956 169.79 152.07 170.349 152.297 170.807C152.528 171.262 152.848 171.609 153.257 171.847C153.666 172.082 154.142 172.199 154.683 172.199C155.036 172.199 155.354 172.15 155.638 172.052C155.926 171.949 156.174 171.798 156.382 171.597C156.59 171.393 156.751 171.139 156.865 170.836L158.161 171.199C158.024 171.639 157.795 172.025 157.473 172.359C157.151 172.688 156.753 172.946 156.28 173.131C155.806 173.313 155.274 173.404 154.683 173.404ZM161.678 167.972V173.222H160.337V164.495H161.632V165.859H161.746C161.95 165.415 162.261 165.059 162.678 164.79C163.094 164.518 163.632 164.381 164.291 164.381C164.882 164.381 165.399 164.502 165.842 164.745C166.286 164.984 166.63 165.347 166.876 165.836C167.123 166.321 167.246 166.934 167.246 167.677V173.222H165.905V167.768C165.905 167.082 165.727 166.548 165.371 166.165C165.015 165.779 164.526 165.586 163.905 165.586C163.477 165.586 163.094 165.679 162.757 165.864C162.424 166.05 162.161 166.321 161.967 166.677C161.774 167.033 161.678 167.465 161.678 167.972ZM173.491 164.495V165.631H168.969V164.495H173.491ZM170.287 162.404H171.628V170.722C171.628 171.101 171.683 171.385 171.793 171.574C171.906 171.76 172.05 171.885 172.224 171.949C172.402 172.01 172.59 172.04 172.787 172.04C172.935 172.04 173.056 172.033 173.151 172.018C173.245 171.999 173.321 171.984 173.378 171.972L173.651 173.177C173.56 173.211 173.433 173.245 173.27 173.279C173.107 173.317 172.901 173.336 172.651 173.336C172.272 173.336 171.901 173.254 171.537 173.091C171.177 172.929 170.878 172.681 170.639 172.347C170.404 172.014 170.287 171.593 170.287 171.086V162.404ZM181.534 166.449L180.33 166.79C180.254 166.59 180.142 166.395 179.994 166.205C179.85 166.012 179.653 165.853 179.403 165.728C179.153 165.603 178.833 165.54 178.443 165.54C177.909 165.54 177.464 165.663 177.108 165.91C176.756 166.152 176.58 166.461 176.58 166.836C176.58 167.169 176.701 167.432 176.943 167.626C177.186 167.819 177.564 167.98 178.08 168.109L179.375 168.427C180.155 168.616 180.737 168.906 181.119 169.296C181.502 169.682 181.693 170.181 181.693 170.79C181.693 171.29 181.549 171.737 181.261 172.131C180.977 172.525 180.58 172.836 180.068 173.063C179.557 173.29 178.962 173.404 178.284 173.404C177.394 173.404 176.657 173.211 176.074 172.824C175.491 172.438 175.121 171.874 174.966 171.131L176.239 170.813C176.36 171.283 176.589 171.635 176.926 171.87C177.267 172.105 177.712 172.222 178.261 172.222C178.886 172.222 179.383 172.09 179.75 171.824C180.121 171.556 180.307 171.234 180.307 170.859C180.307 170.556 180.201 170.302 179.989 170.097C179.777 169.889 179.451 169.734 179.011 169.631L177.557 169.29C176.758 169.101 176.17 168.807 175.795 168.41C175.424 168.008 175.239 167.506 175.239 166.904C175.239 166.412 175.377 165.976 175.653 165.597C175.934 165.218 176.314 164.921 176.795 164.705C177.28 164.489 177.83 164.381 178.443 164.381C179.307 164.381 179.985 164.571 180.477 164.949C180.973 165.328 181.326 165.828 181.534 166.449ZM191.984 173.222H188.393V161.586H192.143C193.272 161.586 194.238 161.819 195.041 162.285C195.844 162.747 196.46 163.412 196.888 164.279C197.316 165.143 197.53 166.177 197.53 167.381C197.53 168.593 197.314 169.637 196.882 170.512C196.45 171.383 195.821 172.054 194.996 172.523C194.17 172.989 193.166 173.222 191.984 173.222ZM189.803 171.972H191.893C192.856 171.972 193.653 171.787 194.286 171.415C194.918 171.044 195.39 170.516 195.7 169.83C196.011 169.145 196.166 168.328 196.166 167.381C196.166 166.442 196.013 165.633 195.706 164.955C195.399 164.273 194.941 163.751 194.331 163.387C193.721 163.02 192.962 162.836 192.053 162.836H189.803V171.972ZM199.712 173.222V164.495H201.053V173.222H199.712ZM200.393 163.04C200.132 163.04 199.907 162.951 199.717 162.773C199.532 162.595 199.439 162.381 199.439 162.131C199.439 161.881 199.532 161.667 199.717 161.489C199.907 161.311 200.132 161.222 200.393 161.222C200.655 161.222 200.878 161.311 201.064 161.489C201.253 161.667 201.348 161.881 201.348 162.131C201.348 162.381 201.253 162.595 201.064 162.773C200.878 162.951 200.655 163.04 200.393 163.04ZM209.69 166.449L208.486 166.79C208.41 166.59 208.298 166.395 208.151 166.205C208.007 166.012 207.81 165.853 207.56 165.728C207.31 165.603 206.99 165.54 206.599 165.54C206.065 165.54 205.62 165.663 205.264 165.91C204.912 166.152 204.736 166.461 204.736 166.836C204.736 167.169 204.857 167.432 205.099 167.626C205.342 167.819 205.721 167.98 206.236 168.109L207.531 168.427C208.312 168.616 208.893 168.906 209.276 169.296C209.658 169.682 209.849 170.181 209.849 170.79C209.849 171.29 209.705 171.737 209.418 172.131C209.134 172.525 208.736 172.836 208.224 173.063C207.713 173.29 207.118 173.404 206.44 173.404C205.55 173.404 204.813 173.211 204.23 172.824C203.647 172.438 203.277 171.874 203.122 171.131L204.395 170.813C204.516 171.283 204.745 171.635 205.082 171.87C205.423 172.105 205.868 172.222 206.418 172.222C207.043 172.222 207.539 172.09 207.906 171.824C208.277 171.556 208.463 171.234 208.463 170.859C208.463 170.556 208.357 170.302 208.145 170.097C207.933 169.889 207.607 169.734 207.168 169.631L205.713 169.29C204.914 169.101 204.327 168.807 203.952 168.41C203.58 168.008 203.395 167.506 203.395 166.904C203.395 166.412 203.533 165.976 203.81 165.597C204.09 165.218 204.471 164.921 204.952 164.705C205.437 164.489 205.986 164.381 206.599 164.381C207.463 164.381 208.141 164.571 208.634 164.949C209.13 165.328 209.482 165.828 209.69 166.449ZM215.413 173.404C214.595 173.404 213.891 173.211 213.3 172.824C212.709 172.438 212.254 171.906 211.936 171.228C211.618 170.55 211.459 169.775 211.459 168.904C211.459 168.018 211.622 167.235 211.947 166.557C212.277 165.876 212.735 165.343 213.322 164.961C213.913 164.574 214.603 164.381 215.391 164.381C216.004 164.381 216.557 164.495 217.05 164.722C217.542 164.949 217.946 165.268 218.26 165.677C218.574 166.086 218.769 166.563 218.845 167.109H217.504C217.402 166.711 217.175 166.359 216.822 166.052C216.474 165.741 216.004 165.586 215.413 165.586C214.891 165.586 214.432 165.722 214.038 165.995C213.648 166.264 213.343 166.645 213.124 167.137C212.908 167.626 212.8 168.199 212.8 168.859C212.8 169.533 212.906 170.12 213.118 170.62C213.334 171.12 213.637 171.508 214.027 171.785C214.421 172.061 214.883 172.199 215.413 172.199C215.762 172.199 216.078 172.139 216.362 172.018C216.646 171.896 216.887 171.722 217.084 171.495C217.281 171.268 217.421 170.995 217.504 170.677H218.845C218.769 171.192 218.582 171.656 218.283 172.069C217.987 172.478 217.595 172.804 217.107 173.046C216.622 173.285 216.057 173.404 215.413 173.404ZM224.351 173.404C223.563 173.404 222.872 173.216 222.277 172.841C221.686 172.466 221.224 171.942 220.891 171.268C220.561 170.593 220.396 169.806 220.396 168.904C220.396 167.995 220.561 167.201 220.891 166.523C221.224 165.845 221.686 165.319 222.277 164.944C222.872 164.569 223.563 164.381 224.351 164.381C225.139 164.381 225.828 164.569 226.419 164.944C227.014 165.319 227.476 165.845 227.805 166.523C228.139 167.201 228.305 167.995 228.305 168.904C228.305 169.806 228.139 170.593 227.805 171.268C227.476 171.942 227.014 172.466 226.419 172.841C225.828 173.216 225.139 173.404 224.351 173.404ZM224.351 172.199C224.949 172.199 225.442 172.046 225.828 171.739C226.214 171.432 226.5 171.029 226.686 170.529C226.872 170.029 226.964 169.487 226.964 168.904C226.964 168.321 226.872 167.777 226.686 167.273C226.5 166.77 226.214 166.362 225.828 166.052C225.442 165.741 224.949 165.586 224.351 165.586C223.752 165.586 223.26 165.741 222.874 166.052C222.487 166.362 222.201 166.77 222.016 167.273C221.83 167.777 221.737 168.321 221.737 168.904C221.737 169.487 221.83 170.029 222.016 170.529C222.201 171.029 222.487 171.432 222.874 171.739C223.26 172.046 223.752 172.199 224.351 172.199ZM235.852 169.654V164.495H237.193V173.222H235.852V171.745H235.761C235.557 172.188 235.239 172.565 234.807 172.876C234.375 173.182 233.83 173.336 233.17 173.336C232.625 173.336 232.14 173.216 231.716 172.978C231.292 172.735 230.958 172.372 230.716 171.887C230.473 171.398 230.352 170.783 230.352 170.04V164.495H231.693V169.949C231.693 170.586 231.871 171.093 232.227 171.472C232.587 171.851 233.045 172.04 233.602 172.04C233.936 172.04 234.275 171.955 234.619 171.785C234.968 171.614 235.259 171.353 235.494 171.001C235.733 170.648 235.852 170.199 235.852 169.654ZM240.99 167.972V173.222H239.649V164.495H240.945V165.859H241.058C241.263 165.415 241.573 165.059 241.99 164.79C242.407 164.518 242.945 164.381 243.604 164.381C244.195 164.381 244.712 164.502 245.155 164.745C245.598 164.984 245.943 165.347 246.189 165.836C246.435 166.321 246.558 166.934 246.558 167.677V173.222H245.217V167.768C245.217 167.082 245.039 166.548 244.683 166.165C244.327 165.779 243.839 165.586 243.217 165.586C242.789 165.586 242.407 165.679 242.07 165.864C241.736 166.05 241.473 166.321 241.28 166.677C241.087 167.033 240.99 167.465 240.99 167.972ZM252.804 164.495V165.631H248.281V164.495H252.804ZM249.599 162.404H250.94V170.722C250.94 171.101 250.995 171.385 251.105 171.574C251.219 171.76 251.363 171.885 251.537 171.949C251.715 172.01 251.902 172.04 252.099 172.04C252.247 172.04 252.368 172.033 252.463 172.018C252.558 171.999 252.634 171.984 252.69 171.972L252.963 173.177C252.872 173.211 252.745 173.245 252.582 173.279C252.42 173.317 252.213 173.336 251.963 173.336C251.584 173.336 251.213 173.254 250.849 173.091C250.49 172.929 250.19 172.681 249.952 172.347C249.717 172.014 249.599 171.593 249.599 171.086V162.404Z" fill="black"/>
<path fill-rule="evenodd" clip-rule="evenodd" d="M283.036 11.8887H281.964V18.5091L277.576 13.8278L276.818 14.6359L281.207 19.3172H275V20.4601H281.207L276.818 25.1415L277.576 25.9496L281.964 21.2682V27.8887H283.036V21.2682L287.425 25.9496L288.182 25.1415L283.793 20.4601H290V19.3172H283.793L288.182 14.6359L287.425 13.8278L283.036 18.5091V11.8887Z" fill="#C1554E"/>
</g>
<defs>
<linearGradient id="paint0_linear_1_729" x1="135.548" y1="72.2222" x2="140.961" y2="151.37" gradientUnits="userSpaceOnUse">
<stop offset="0.630979" stop-color="#C1554E"/>
<stop offset="1" stop-color="#F4C5C1"/>
</linearGradient>
<clipPath id="clip0_1_729">
<rect width="315" height="216" fill="white" transform="translate(0 0.222168)"/>
</clipPath>
</defs>
</svg>
