<svg width="315" height="216" viewBox="0 0 315 216" fill="none" xmlns="http://www.w3.org/2000/svg">
<g clip-path="url(#clip0_1_639)">
<rect width="315" height="216" fill="#C1554E"/>
<path d="M0 33L315 33" stroke="#CE8989" stroke-width="0.783582"/>
<path d="M16 33L16 216" stroke="#CE8989" stroke-width="0.5"/>
<path d="M289.926 33L289.926 216.358" stroke="#CE8989" stroke-width="0.783582"/>
<path d="M28.6477 16.2898H26.5568C26.5568 15.9413 26.5 15.6326 26.3864 15.3636C26.2727 15.0909 26.1136 14.8598 25.9091 14.6705C25.7045 14.4811 25.4621 14.339 25.1818 14.2443C24.9015 14.1458 24.5909 14.0966 24.25 14.0966C23.5985 14.0966 22.9924 14.2614 22.4318 14.5909C21.8712 14.9205 21.3958 15.3996 21.0057 16.0284C20.6155 16.6534 20.3447 17.4129 20.1932 18.3068C20.053 19.178 20.0663 19.9072 20.233 20.4943C20.4034 21.0814 20.6989 21.5246 21.1193 21.8239C21.5398 22.1193 22.0511 22.267 22.6534 22.267C23.0208 22.267 23.3731 22.2216 23.7102 22.1307C24.0473 22.036 24.358 21.8977 24.642 21.7159C24.9299 21.5303 25.1818 21.3049 25.3977 21.0398C25.6174 20.7746 25.7879 20.4735 25.9091 20.1364H28.0284C27.8542 20.6894 27.5985 21.2102 27.2614 21.6989C26.9242 22.1837 26.5189 22.6117 26.0455 22.983C25.572 23.3504 25.0417 23.6383 24.4545 23.8466C23.8674 24.0549 23.2348 24.1591 22.5568 24.1591C21.5152 24.1591 20.6231 23.9167 19.8807 23.4318C19.142 22.9432 18.6117 22.2443 18.2898 21.3352C17.9678 20.4223 17.911 19.3295 18.1193 18.0568C18.3277 16.8182 18.7292 15.7633 19.3239 14.892C19.9223 14.0208 20.6515 13.3561 21.5114 12.8977C22.375 12.4356 23.3049 12.2045 24.3011 12.2045C24.9602 12.2045 25.5587 12.2955 26.0966 12.4773C26.6383 12.6591 27.1023 12.9261 27.4886 13.2784C27.875 13.6269 28.1686 14.0549 28.3693 14.5625C28.5739 15.0663 28.6667 15.642 28.6477 16.2898ZM33.0497 24.1705C32.1899 24.1705 31.474 23.9811 30.902 23.6023C30.3338 23.2235 29.9342 22.6913 29.7031 22.0057C29.4721 21.3201 29.4304 20.5246 29.5781 19.6193C29.7259 18.7254 30.0213 17.9432 30.4645 17.2727C30.9115 16.6023 31.474 16.0833 32.152 15.7159C32.8338 15.3447 33.5971 15.1591 34.4418 15.1591C35.3016 15.1591 36.0156 15.3504 36.5838 15.733C37.152 16.1117 37.5516 16.6439 37.7827 17.3295C38.0175 18.0152 38.0611 18.8144 37.9134 19.7273C37.7694 20.6174 37.4721 21.3958 37.0213 22.0625C36.5743 22.7292 36.0118 23.2481 35.3338 23.6193C34.6558 23.9867 33.8944 24.1705 33.0497 24.1705ZM33.2202 22.5227C33.6974 22.5227 34.116 22.3939 34.4759 22.1364C34.8395 21.875 35.1368 21.5246 35.3679 21.0852C35.6027 20.642 35.7656 20.1496 35.8565 19.608C35.9399 19.0852 35.9418 18.6117 35.8622 18.1875C35.7827 17.7595 35.6122 17.4205 35.3509 17.1705C35.0933 16.9167 34.7353 16.7898 34.277 16.7898C33.7997 16.7898 33.3774 16.9223 33.0099 17.1875C32.6463 17.4489 32.349 17.8011 32.1179 18.2443C31.8868 18.6837 31.7277 19.1742 31.6406 19.7159C31.5535 20.2386 31.5497 20.7121 31.6293 21.1364C31.7088 21.5606 31.8793 21.8977 32.1406 22.1477C32.402 22.3977 32.7618 22.5227 33.2202 22.5227ZM45.125 20.3295L45.9716 15.2727H48.0284L46.5739 24H44.5795L44.8409 22.4489H44.75C44.4773 22.9375 44.0871 23.3371 43.5795 23.6477C43.0758 23.9583 42.4962 24.1136 41.8409 24.1136C41.2689 24.1136 40.786 23.9867 40.392 23.733C39.9981 23.4754 39.7178 23.1023 39.5511 22.6136C39.3883 22.1212 39.3636 21.5265 39.4773 20.8295L40.4091 15.2727H42.4659L41.5909 20.5114C41.5038 21.0644 41.5833 21.5038 41.8295 21.8295C42.0795 22.1553 42.4508 22.3182 42.9432 22.3182C43.2462 22.3182 43.5511 22.2443 43.858 22.0966C44.1686 21.9489 44.4394 21.7292 44.6705 21.4375C44.9015 21.142 45.053 20.7727 45.125 20.3295ZM48.1491 27.2727L50.1605 15.2727H52.1832L51.9503 16.7159H52.0696C52.206 16.5038 52.3897 16.2784 52.6207 16.0398C52.8556 15.7973 53.1529 15.5909 53.5128 15.4205C53.8726 15.2462 54.3101 15.1591 54.8253 15.1591C55.4957 15.1591 56.0734 15.3314 56.5582 15.6761C57.0431 16.017 57.3897 16.5227 57.598 17.1932C57.8101 17.8598 57.8366 18.678 57.6776 19.6477C57.5185 20.6061 57.2249 21.4205 56.7969 22.0909C56.3688 22.7614 55.8556 23.2727 55.2571 23.625C54.6586 23.9773 54.0166 24.1534 53.331 24.1534C52.831 24.1534 52.4276 24.0701 52.1207 23.9034C51.8177 23.7367 51.5885 23.536 51.4332 23.3011C51.2779 23.0625 51.1624 22.8371 51.0866 22.625H50.9957L50.223 27.2727H48.1491ZM51.4503 19.6364C51.3594 20.2008 51.3575 20.6951 51.4446 21.1193C51.5355 21.5436 51.7154 21.875 51.9844 22.1136C52.2533 22.3485 52.6056 22.4659 53.0412 22.4659C53.4957 22.4659 53.8935 22.3447 54.2344 22.1023C54.5791 21.8561 54.8651 21.5208 55.0923 21.0966C55.3234 20.6686 55.4863 20.1818 55.581 19.6364C55.6681 19.0947 55.6681 18.6136 55.581 18.1932C55.4938 17.7727 55.3177 17.4432 55.0526 17.2045C54.7874 16.9659 54.4276 16.8466 53.973 16.8466C53.5298 16.8466 53.134 16.9621 52.7855 17.1932C52.4408 17.4242 52.1548 17.7481 51.9276 18.1648C51.7003 18.5814 51.5412 19.072 51.4503 19.6364ZM62.5341 24.1705C61.6742 24.1705 60.9583 23.9811 60.3864 23.6023C59.8182 23.2235 59.4186 22.6913 59.1875 22.0057C58.9564 21.3201 58.9148 20.5246 59.0625 19.6193C59.2102 18.7254 59.5057 17.9432 59.9489 17.2727C60.3958 16.6023 60.9583 16.0833 61.6364 15.7159C62.3182 15.3447 63.0814 15.1591 63.9261 15.1591C64.786 15.1591 65.5 15.3504 66.0682 15.733C66.6364 16.1117 67.036 16.6439 67.267 17.3295C67.5019 18.0152 67.5455 18.8144 67.3977 19.7273C67.2538 20.6174 66.9564 21.3958 66.5057 22.0625C66.0587 22.7292 65.4962 23.2481 64.8182 23.6193C64.1402 23.9867 63.3788 24.1705 62.5341 24.1705ZM62.7045 22.5227C63.1818 22.5227 63.6004 22.3939 63.9602 22.1364C64.3239 21.875 64.6212 21.5246 64.8523 21.0852C65.0871 20.642 65.25 20.1496 65.3409 19.608C65.4242 19.0852 65.4261 18.6117 65.3466 18.1875C65.267 17.7595 65.0966 17.4205 64.8352 17.1705C64.5777 16.9167 64.2197 16.7898 63.7614 16.7898C63.2841 16.7898 62.8617 16.9223 62.4943 17.1875C62.1307 17.4489 61.8333 17.8011 61.6023 18.2443C61.3712 18.6837 61.2121 19.1742 61.125 19.7159C61.0379 20.2386 61.0341 20.7121 61.1136 21.1364C61.1932 21.5606 61.3636 21.8977 61.625 22.1477C61.8864 22.3977 62.2462 22.5227 62.7045 22.5227ZM71.348 18.8864L70.5071 24H68.4446L69.8991 15.2727H71.8707L71.6207 16.7557H71.7287C72.0014 16.267 72.384 15.8788 72.8764 15.5909C73.3688 15.303 73.9427 15.1591 74.598 15.1591C75.1927 15.1591 75.6927 15.2879 76.098 15.5455C76.5033 15.7992 76.7912 16.1723 76.9616 16.6648C77.1321 17.1534 77.1586 17.7462 77.0412 18.4432L76.1094 24H74.0526L74.9219 18.7614C75.0204 18.1818 74.9465 17.7273 74.7003 17.3977C74.4579 17.0644 74.0677 16.8977 73.5298 16.8977C73.17 16.8977 72.8385 16.9773 72.5355 17.1364C72.2325 17.2917 71.9768 17.517 71.7685 17.8125C71.5639 18.108 71.4238 18.4659 71.348 18.8864Z" fill="white"/>
<path d="M85.748 72.1818V142H70.9866V86.1932H70.5775L54.5889 96.2159V83.125L71.873 72.1818H85.748ZM117.237 143.534C111.373 143.511 106.328 142.068 102.1 139.205C97.8958 136.341 94.6572 132.193 92.3845 126.761C90.1345 121.33 89.0208 114.795 89.0436 107.159C89.0436 99.5455 90.1686 93.0568 92.4186 87.6932C94.6913 82.3295 97.9299 78.25 102.134 75.4545C106.362 72.6364 111.396 71.2273 117.237 71.2273C123.078 71.2273 128.1 72.6364 132.305 75.4545C136.532 78.2727 139.782 82.3636 142.055 87.7273C144.328 93.0682 145.453 99.5455 145.43 107.159C145.43 114.818 144.294 121.364 142.021 126.795C139.771 132.227 136.544 136.375 132.339 139.239C128.134 142.102 123.1 143.534 117.237 143.534ZM117.237 131.295C121.237 131.295 124.43 129.284 126.816 125.261C129.203 121.239 130.384 115.205 130.362 107.159C130.362 101.864 129.816 97.4545 128.725 93.9318C127.657 90.4091 126.134 87.7614 124.157 85.9886C122.203 84.2159 119.896 83.3295 117.237 83.3295C113.259 83.3295 110.078 85.3182 107.691 89.2955C105.305 93.2727 104.1 99.2273 104.078 107.159C104.078 112.523 104.612 117 105.68 120.591C106.771 124.159 108.305 126.841 110.282 128.636C112.259 130.409 114.578 131.295 117.237 131.295ZM181.691 128.909V125.227C181.691 122.432 182.282 119.864 183.464 117.523C184.669 115.159 186.407 113.273 188.68 111.864C190.976 110.432 193.771 109.716 197.066 109.716C200.407 109.716 203.214 110.42 205.487 111.83C207.782 113.239 209.51 115.125 210.669 117.489C211.85 119.83 212.441 122.409 212.441 125.227V128.909C212.441 131.705 211.85 134.284 210.669 136.648C209.487 138.989 207.748 140.864 205.453 142.273C203.157 143.705 200.362 144.42 197.066 144.42C193.725 144.42 190.919 143.705 188.646 142.273C186.373 140.864 184.646 138.989 183.464 136.648C182.282 134.284 181.691 131.705 181.691 128.909ZM191.612 125.227V128.909C191.612 130.523 191.998 132.045 192.771 133.477C193.566 134.909 194.998 135.625 197.066 135.625C199.135 135.625 200.544 134.92 201.294 133.511C202.066 132.102 202.453 130.568 202.453 128.909V125.227C202.453 123.568 202.089 122.023 201.362 120.591C200.635 119.159 199.203 118.443 197.066 118.443C195.021 118.443 193.601 119.159 192.805 120.591C192.01 122.023 191.612 123.568 191.612 125.227ZM145.862 88.9545V85.2727C145.862 82.4545 146.464 79.875 147.669 77.5341C148.873 75.1705 150.612 73.2841 152.885 71.875C155.18 70.4659 157.953 69.7614 161.203 69.7614C164.566 69.7614 167.385 70.4659 169.657 71.875C171.93 73.2841 173.657 75.1705 174.839 77.5341C176.021 79.875 176.612 82.4545 176.612 85.2727V88.9545C176.612 91.7727 176.01 94.3523 174.805 96.6932C173.623 99.0341 171.885 100.909 169.589 102.318C167.316 103.705 164.521 104.398 161.203 104.398C157.885 104.398 155.078 103.693 152.782 102.284C150.51 100.852 148.782 98.9773 147.6 96.6591C146.441 94.3182 145.862 91.75 145.862 88.9545ZM155.85 85.2727V88.9545C155.85 90.6136 156.237 92.1477 157.01 93.5568C157.805 94.9659 159.203 95.6705 161.203 95.6705C163.294 95.6705 164.714 94.9659 165.464 93.5568C166.237 92.1477 166.623 90.6136 166.623 88.9545V85.2727C166.623 83.6136 166.26 82.0682 165.532 80.6364C164.805 79.2045 163.362 78.4886 161.203 78.4886C159.18 78.4886 157.782 79.2159 157.01 80.6705C156.237 82.125 155.85 83.6591 155.85 85.2727ZM150.362 142L198.362 72.1818H207.294L159.294 142H150.362ZM231.609 134.727C231.609 136.261 231.332 137.587 230.778 138.705C230.224 139.822 229.464 140.684 228.498 141.29C227.533 141.896 226.429 142.199 225.189 142.199C223.948 142.199 222.845 141.896 221.879 141.29C220.913 140.684 220.153 139.822 219.599 138.705C219.045 137.587 218.768 136.261 218.768 134.727C218.768 133.193 219.045 131.867 219.599 130.75C220.153 129.633 220.913 128.771 221.879 128.165C222.845 127.559 223.948 127.256 225.189 127.256C226.429 127.256 227.533 127.559 228.498 128.165C229.464 128.771 230.224 129.633 230.778 130.75C231.332 131.867 231.609 133.193 231.609 134.727ZM229.905 134.727C229.905 133.468 229.694 132.405 229.273 131.538C228.856 130.672 228.29 130.016 227.575 129.571C226.865 129.126 226.069 128.903 225.189 128.903C224.308 128.903 223.51 129.126 222.795 129.571C222.085 130.016 221.519 130.672 221.098 131.538C220.681 132.405 220.473 133.468 220.473 134.727C220.473 135.987 220.681 137.05 221.098 137.916C221.519 138.783 222.085 139.438 222.795 139.884C223.51 140.329 224.308 140.551 225.189 140.551C226.069 140.551 226.865 140.329 227.575 139.884C228.29 139.438 228.856 138.783 229.273 137.916C229.694 137.05 229.905 135.987 229.905 134.727ZM234.571 142V127.455H243.292V129.017H236.332V133.932H242.639V135.494H236.332V142H234.571ZM246.309 142V127.455H255.031V129.017H248.071V133.932H254.377V135.494H248.071V142H246.309Z" fill="url(#paint0_linear_1_639)"/>
<path d="M52.5895 161.364L56.044 171.159H56.1804L59.6349 161.364H61.1122L56.8395 173H55.3849L51.1122 161.364H52.5895ZM65.5895 173.182C64.7486 173.182 64.0232 172.996 63.4134 172.625C62.8073 172.25 62.3395 171.727 62.0099 171.057C61.6842 170.383 61.5213 169.598 61.5213 168.705C61.5213 167.811 61.6842 167.023 62.0099 166.341C62.3395 165.655 62.7978 165.121 63.3849 164.739C63.9759 164.352 64.6652 164.159 65.4531 164.159C65.9077 164.159 66.3565 164.235 66.7997 164.386C67.2429 164.538 67.6463 164.784 68.0099 165.125C68.3736 165.462 68.6634 165.909 68.8793 166.466C69.0952 167.023 69.2031 167.708 69.2031 168.523V169.091H62.4759V167.932H67.8395C67.8395 167.439 67.741 167 67.544 166.614C67.3509 166.227 67.0743 165.922 66.7145 165.699C66.3584 165.475 65.938 165.364 65.4531 165.364C64.919 165.364 64.4569 165.496 64.0668 165.761C63.6804 166.023 63.383 166.364 63.1747 166.784C62.9664 167.205 62.8622 167.655 62.8622 168.136V168.909C62.8622 169.568 62.9759 170.127 63.2031 170.585C63.4342 171.04 63.7543 171.386 64.1634 171.625C64.5724 171.86 65.0478 171.977 65.5895 171.977C65.9418 171.977 66.2599 171.928 66.544 171.83C66.8319 171.727 67.08 171.576 67.2884 171.375C67.4967 171.17 67.6577 170.917 67.7713 170.614L69.0668 170.977C68.9304 171.417 68.7012 171.803 68.3793 172.136C68.0573 172.466 67.6596 172.723 67.1861 172.909C66.7126 173.091 66.1804 173.182 65.5895 173.182ZM75.0384 164.273V165.409H70.5156V164.273H75.0384ZM71.8338 162.182H73.1747V170.5C73.1747 170.879 73.2296 171.163 73.3395 171.352C73.4531 171.538 73.5971 171.663 73.7713 171.727C73.9493 171.788 74.1368 171.818 74.3338 171.818C74.4815 171.818 74.6027 171.811 74.6974 171.795C74.7921 171.777 74.8679 171.761 74.9247 171.75L75.1974 172.955C75.1065 172.989 74.9796 173.023 74.8168 173.057C74.6539 173.095 74.4474 173.114 74.1974 173.114C73.8187 173.114 73.4474 173.032 73.0838 172.869C72.724 172.706 72.4247 172.458 72.1861 172.125C71.9512 171.792 71.8338 171.371 71.8338 170.864V162.182ZM80.6207 173.182C79.7798 173.182 79.0545 172.996 78.4446 172.625C77.8385 172.25 77.3707 171.727 77.0412 171.057C76.7154 170.383 76.5526 169.598 76.5526 168.705C76.5526 167.811 76.7154 167.023 77.0412 166.341C77.3707 165.655 77.8291 165.121 78.4162 164.739C79.0071 164.352 79.6965 164.159 80.4844 164.159C80.9389 164.159 81.3878 164.235 81.831 164.386C82.2741 164.538 82.6776 164.784 83.0412 165.125C83.4048 165.462 83.6946 165.909 83.9105 166.466C84.1264 167.023 84.2344 167.708 84.2344 168.523V169.091H77.5071V167.932H82.8707C82.8707 167.439 82.7723 167 82.5753 166.614C82.3821 166.227 82.1056 165.922 81.7457 165.699C81.3897 165.475 80.9692 165.364 80.4844 165.364C79.9503 165.364 79.4882 165.496 79.098 165.761C78.7116 166.023 78.4143 166.364 78.206 166.784C77.9976 167.205 77.8935 167.655 77.8935 168.136V168.909C77.8935 169.568 78.0071 170.127 78.2344 170.585C78.4654 171.04 78.7855 171.386 79.1946 171.625C79.6037 171.86 80.0791 171.977 80.6207 171.977C80.973 171.977 81.2912 171.928 81.5753 171.83C81.8632 171.727 82.1113 171.576 82.3196 171.375C82.5279 171.17 82.6889 170.917 82.8026 170.614L84.098 170.977C83.9616 171.417 83.7325 171.803 83.4105 172.136C83.0885 172.466 82.6908 172.723 82.2173 172.909C81.7438 173.091 81.2116 173.182 80.6207 173.182ZM86.2741 173V164.273H87.5696V165.591H87.6605C87.8196 165.159 88.1075 164.809 88.5241 164.54C88.9408 164.271 89.4105 164.136 89.9332 164.136C90.0317 164.136 90.1548 164.138 90.3026 164.142C90.4503 164.146 90.562 164.152 90.6378 164.159V165.523C90.5923 165.511 90.4882 165.494 90.3253 165.472C90.1662 165.445 89.9976 165.432 89.8196 165.432C89.3954 165.432 89.0166 165.521 88.6832 165.699C88.3537 165.873 88.0923 166.116 87.8991 166.426C87.7098 166.733 87.6151 167.083 87.6151 167.477V173H86.2741ZM94.7955 173.205C94.2424 173.205 93.7405 173.1 93.2898 172.892C92.839 172.68 92.4811 172.375 92.2159 171.977C91.9508 171.576 91.8182 171.091 91.8182 170.523C91.8182 170.023 91.9167 169.617 92.1136 169.307C92.3106 168.992 92.5739 168.746 92.9034 168.568C93.233 168.39 93.5966 168.258 93.9943 168.17C94.3958 168.08 94.7992 168.008 95.2045 167.955C95.7348 167.886 96.1648 167.835 96.4943 167.801C96.8277 167.763 97.0701 167.701 97.2216 167.614C97.3769 167.527 97.4545 167.375 97.4545 167.159V167.114C97.4545 166.553 97.3011 166.117 96.9943 165.807C96.6913 165.496 96.2311 165.341 95.6136 165.341C94.9735 165.341 94.4716 165.481 94.108 165.761C93.7443 166.042 93.4886 166.341 93.3409 166.659L92.0682 166.205C92.2955 165.674 92.5985 165.261 92.9773 164.966C93.3598 164.667 93.7765 164.458 94.2273 164.341C94.6818 164.22 95.1288 164.159 95.5682 164.159C95.8485 164.159 96.1705 164.193 96.5341 164.261C96.9015 164.326 97.2557 164.46 97.5966 164.665C97.9413 164.869 98.2273 165.178 98.4545 165.591C98.6818 166.004 98.7955 166.557 98.7955 167.25V173H97.4545V171.818H97.3864C97.2955 172.008 97.1439 172.21 96.9318 172.426C96.7197 172.642 96.4375 172.826 96.0852 172.977C95.733 173.129 95.303 173.205 94.7955 173.205ZM95 172C95.5303 172 95.9773 171.896 96.3409 171.688C96.7083 171.479 96.9848 171.21 97.1705 170.881C97.3598 170.551 97.4545 170.205 97.4545 169.841V168.614C97.3977 168.682 97.2727 168.744 97.0795 168.801C96.8902 168.854 96.6705 168.902 96.4205 168.943C96.1742 168.981 95.9337 169.015 95.6989 169.045C95.4678 169.072 95.2803 169.095 95.1364 169.114C94.7879 169.159 94.4621 169.233 94.1591 169.335C93.8598 169.434 93.6174 169.583 93.4318 169.784C93.25 169.981 93.1591 170.25 93.1591 170.591C93.1591 171.057 93.3314 171.409 93.6761 171.648C94.0246 171.883 94.4659 172 95 172ZM102.584 167.75V173H101.243V164.273H102.538V165.636H102.652C102.857 165.193 103.167 164.837 103.584 164.568C104 164.295 104.538 164.159 105.197 164.159C105.788 164.159 106.305 164.28 106.749 164.523C107.192 164.761 107.536 165.125 107.783 165.614C108.029 166.098 108.152 166.712 108.152 167.455V173H106.811V167.545C106.811 166.86 106.633 166.326 106.277 165.943C105.921 165.557 105.432 165.364 104.811 165.364C104.383 165.364 104 165.456 103.663 165.642C103.33 165.828 103.067 166.098 102.874 166.455C102.68 166.811 102.584 167.242 102.584 167.75ZM118.398 173.159C117.633 173.159 116.973 173.019 116.42 172.739C115.867 172.458 115.441 172.074 115.142 171.585C114.843 171.097 114.693 170.538 114.693 169.909C114.693 169.424 114.795 168.994 115 168.619C115.208 168.241 115.494 167.89 115.858 167.568C116.225 167.242 116.648 166.917 117.125 166.591L118.807 165.341C119.136 165.125 119.4 164.894 119.597 164.648C119.797 164.402 119.898 164.08 119.898 163.682C119.898 163.386 119.767 163.1 119.506 162.824C119.248 162.547 118.909 162.409 118.489 162.409C118.193 162.409 117.932 162.485 117.705 162.636C117.481 162.784 117.305 162.973 117.176 163.205C117.051 163.432 116.989 163.667 116.989 163.909C116.989 164.182 117.063 164.458 117.21 164.739C117.362 165.015 117.553 165.299 117.784 165.591C118.019 165.879 118.261 166.174 118.511 166.477L123.852 173H122.239L117.83 167.682C117.42 167.189 117.049 166.742 116.716 166.341C116.383 165.939 116.117 165.544 115.92 165.153C115.723 164.763 115.625 164.341 115.625 163.886C115.625 163.364 115.741 162.905 115.972 162.511C116.206 162.114 116.534 161.805 116.955 161.585C117.379 161.362 117.875 161.25 118.443 161.25C119.027 161.25 119.528 161.364 119.949 161.591C120.369 161.814 120.693 162.112 120.92 162.483C121.148 162.85 121.261 163.25 121.261 163.682C121.261 164.239 121.123 164.722 120.847 165.131C120.57 165.54 120.193 165.92 119.716 166.273L117.398 168C116.875 168.386 116.521 168.761 116.335 169.125C116.15 169.489 116.057 169.75 116.057 169.909C116.057 170.273 116.152 170.612 116.341 170.926C116.53 171.241 116.797 171.494 117.142 171.688C117.487 171.881 117.89 171.977 118.352 171.977C118.792 171.977 119.22 171.884 119.636 171.699C120.053 171.509 120.43 171.237 120.767 170.881C121.108 170.525 121.377 170.097 121.574 169.597C121.775 169.097 121.875 168.534 121.875 167.909H123.17C123.17 168.682 123.081 169.312 122.903 169.801C122.725 170.29 122.525 170.672 122.301 170.949C122.078 171.225 121.898 171.432 121.761 171.568C121.716 171.625 121.674 171.682 121.636 171.739C121.598 171.795 121.557 171.852 121.511 171.909C121.136 172.33 120.663 172.644 120.091 172.852C119.519 173.057 118.955 173.159 118.398 173.159ZM130.018 161.364H131.7L135.655 171.023H135.791L139.746 161.364H141.428V173H140.109V164.159H139.996L136.359 173H135.087L131.45 164.159H131.337V173H130.018V161.364ZM144.071 173V164.273H145.412V173H144.071ZM144.753 162.818C144.491 162.818 144.266 162.729 144.077 162.551C143.891 162.373 143.798 162.159 143.798 161.909C143.798 161.659 143.891 161.445 144.077 161.267C144.266 161.089 144.491 161 144.753 161C145.014 161 145.238 161.089 145.423 161.267C145.613 161.445 145.707 161.659 145.707 161.909C145.707 162.159 145.613 162.373 145.423 162.551C145.238 162.729 145.014 162.818 144.753 162.818ZM149.209 161.364V173H147.868V161.364H149.209ZM151.665 173V164.273H153.006V173H151.665ZM152.347 162.818C152.085 162.818 151.86 162.729 151.67 162.551C151.485 162.373 151.392 162.159 151.392 161.909C151.392 161.659 151.485 161.445 151.67 161.267C151.86 161.089 152.085 161 152.347 161C152.608 161 152.831 161.089 153.017 161.267C153.206 161.445 153.301 161.659 153.301 161.909C153.301 162.159 153.206 162.373 153.017 162.551C152.831 162.729 152.608 162.818 152.347 162.818ZM159.257 164.273V165.409H154.734V164.273H159.257ZM156.053 162.182H157.393V170.5C157.393 170.879 157.448 171.163 157.558 171.352C157.672 171.538 157.816 171.663 157.99 171.727C158.168 171.788 158.356 171.818 158.553 171.818C158.7 171.818 158.821 171.811 158.916 171.795C159.011 171.777 159.087 171.761 159.143 171.75L159.416 172.955C159.325 172.989 159.198 173.023 159.036 173.057C158.873 173.095 158.666 173.114 158.416 173.114C158.037 173.114 157.666 173.032 157.303 172.869C156.943 172.706 156.643 172.458 156.405 172.125C156.17 171.792 156.053 171.371 156.053 170.864V162.182ZM163.842 173.205C163.289 173.205 162.787 173.1 162.337 172.892C161.886 172.68 161.528 172.375 161.263 171.977C160.998 171.576 160.865 171.091 160.865 170.523C160.865 170.023 160.964 169.617 161.161 169.307C161.357 168.992 161.621 168.746 161.95 168.568C162.28 168.39 162.643 168.258 163.041 168.17C163.443 168.08 163.846 168.008 164.251 167.955C164.782 167.886 165.212 167.835 165.541 167.801C165.875 167.763 166.117 167.701 166.268 167.614C166.424 167.527 166.501 167.375 166.501 167.159V167.114C166.501 166.553 166.348 166.117 166.041 165.807C165.738 165.496 165.278 165.341 164.661 165.341C164.02 165.341 163.518 165.481 163.155 165.761C162.791 166.042 162.536 166.341 162.388 166.659L161.115 166.205C161.342 165.674 161.645 165.261 162.024 164.966C162.407 164.667 162.823 164.458 163.274 164.341C163.729 164.22 164.176 164.159 164.615 164.159C164.895 164.159 165.217 164.193 165.581 164.261C165.948 164.326 166.303 164.46 166.643 164.665C166.988 164.869 167.274 165.178 167.501 165.591C167.729 166.004 167.842 166.557 167.842 167.25V173H166.501V171.818H166.433C166.342 172.008 166.191 172.21 165.979 172.426C165.767 172.642 165.484 172.826 165.132 172.977C164.78 173.129 164.35 173.205 163.842 173.205ZM164.047 172C164.577 172 165.024 171.896 165.388 171.688C165.755 171.479 166.032 171.21 166.217 170.881C166.407 170.551 166.501 170.205 166.501 169.841V168.614C166.445 168.682 166.32 168.744 166.126 168.801C165.937 168.854 165.717 168.902 165.467 168.943C165.221 168.981 164.981 169.015 164.746 169.045C164.515 169.072 164.327 169.095 164.183 169.114C163.835 169.159 163.509 169.233 163.206 169.335C162.907 169.434 162.664 169.583 162.479 169.784C162.297 169.981 162.206 170.25 162.206 170.591C162.206 171.057 162.378 171.409 162.723 171.648C163.071 171.883 163.513 172 164.047 172ZM170.29 173V164.273H171.585V165.591H171.676C171.835 165.159 172.123 164.809 172.54 164.54C172.956 164.271 173.426 164.136 173.949 164.136C174.047 164.136 174.17 164.138 174.318 164.142C174.466 164.146 174.578 164.152 174.653 164.159V165.523C174.608 165.511 174.504 165.494 174.341 165.472C174.182 165.445 174.013 165.432 173.835 165.432C173.411 165.432 173.032 165.521 172.699 165.699C172.369 165.873 172.108 166.116 171.915 166.426C171.725 166.733 171.631 167.083 171.631 167.477V173H170.29ZM177.372 176.273C177.145 176.273 176.942 176.254 176.764 176.216C176.586 176.182 176.463 176.148 176.395 176.114L176.736 174.932C177.062 175.015 177.349 175.045 177.599 175.023C177.849 175 178.071 174.888 178.264 174.688C178.461 174.491 178.641 174.17 178.804 173.727L179.054 173.045L175.827 164.273H177.281L179.69 171.227H179.781L182.19 164.273H183.645L179.94 174.273C179.774 174.723 179.567 175.097 179.321 175.392C179.075 175.691 178.789 175.913 178.463 176.057C178.141 176.201 177.777 176.273 177.372 176.273ZM193.688 173H190.097V161.364H193.847C194.975 161.364 195.941 161.597 196.744 162.062C197.547 162.525 198.163 163.189 198.591 164.057C199.019 164.92 199.233 165.955 199.233 167.159C199.233 168.371 199.017 169.415 198.585 170.29C198.153 171.161 197.525 171.831 196.699 172.301C195.873 172.767 194.869 173 193.688 173ZM191.506 171.75H193.597C194.559 171.75 195.356 171.564 195.989 171.193C196.621 170.822 197.093 170.294 197.403 169.608C197.714 168.922 197.869 168.106 197.869 167.159C197.869 166.22 197.716 165.411 197.409 164.733C197.102 164.051 196.644 163.528 196.034 163.165C195.424 162.797 194.665 162.614 193.756 162.614H191.506V171.75ZM201.415 173V164.273H202.756V173H201.415ZM202.097 162.818C201.835 162.818 201.61 162.729 201.42 162.551C201.235 162.373 201.142 162.159 201.142 161.909C201.142 161.659 201.235 161.445 201.42 161.267C201.61 161.089 201.835 161 202.097 161C202.358 161 202.581 161.089 202.767 161.267C202.956 161.445 203.051 161.659 203.051 161.909C203.051 162.159 202.956 162.373 202.767 162.551C202.581 162.729 202.358 162.818 202.097 162.818ZM211.393 166.227L210.189 166.568C210.113 166.367 210.001 166.172 209.854 165.983C209.71 165.79 209.513 165.631 209.263 165.506C209.013 165.381 208.693 165.318 208.303 165.318C207.768 165.318 207.323 165.441 206.967 165.688C206.615 165.93 206.439 166.239 206.439 166.614C206.439 166.947 206.56 167.21 206.803 167.403C207.045 167.597 207.424 167.758 207.939 167.886L209.234 168.205C210.015 168.394 210.596 168.684 210.979 169.074C211.361 169.46 211.553 169.958 211.553 170.568C211.553 171.068 211.409 171.515 211.121 171.909C210.837 172.303 210.439 172.614 209.928 172.841C209.416 173.068 208.821 173.182 208.143 173.182C207.253 173.182 206.517 172.989 205.933 172.602C205.35 172.216 204.981 171.652 204.825 170.909L206.098 170.591C206.219 171.061 206.448 171.413 206.786 171.648C207.126 171.883 207.571 172 208.121 172C208.746 172 209.242 171.867 209.609 171.602C209.981 171.333 210.166 171.011 210.166 170.636C210.166 170.333 210.06 170.08 209.848 169.875C209.636 169.667 209.31 169.511 208.871 169.409L207.416 169.068C206.617 168.879 206.03 168.585 205.655 168.188C205.284 167.786 205.098 167.284 205.098 166.682C205.098 166.189 205.236 165.754 205.513 165.375C205.793 164.996 206.174 164.699 206.655 164.483C207.14 164.267 207.689 164.159 208.303 164.159C209.166 164.159 209.844 164.348 210.337 164.727C210.833 165.106 211.185 165.606 211.393 166.227ZM217.116 173.182C216.298 173.182 215.594 172.989 215.003 172.602C214.412 172.216 213.957 171.684 213.639 171.006C213.321 170.328 213.162 169.553 213.162 168.682C213.162 167.795 213.325 167.013 213.651 166.335C213.98 165.653 214.438 165.121 215.026 164.739C215.616 164.352 216.306 164.159 217.094 164.159C217.707 164.159 218.26 164.273 218.753 164.5C219.245 164.727 219.649 165.045 219.963 165.455C220.277 165.864 220.473 166.341 220.548 166.886H219.207C219.105 166.489 218.878 166.136 218.526 165.83C218.177 165.519 217.707 165.364 217.116 165.364C216.594 165.364 216.135 165.5 215.741 165.773C215.351 166.042 215.046 166.422 214.827 166.915C214.611 167.403 214.503 167.977 214.503 168.636C214.503 169.311 214.609 169.898 214.821 170.398C215.037 170.898 215.34 171.286 215.73 171.562C216.124 171.839 216.586 171.977 217.116 171.977C217.465 171.977 217.781 171.917 218.065 171.795C218.349 171.674 218.59 171.5 218.787 171.273C218.984 171.045 219.124 170.773 219.207 170.455H220.548C220.473 170.97 220.285 171.434 219.986 171.847C219.69 172.256 219.298 172.581 218.81 172.824C218.325 173.062 217.76 173.182 217.116 173.182ZM226.054 173.182C225.266 173.182 224.575 172.994 223.98 172.619C223.389 172.244 222.927 171.72 222.594 171.045C222.264 170.371 222.099 169.583 222.099 168.682C222.099 167.773 222.264 166.979 222.594 166.301C222.927 165.623 223.389 165.097 223.98 164.722C224.575 164.347 225.266 164.159 226.054 164.159C226.842 164.159 227.531 164.347 228.122 164.722C228.717 165.097 229.179 165.623 229.509 166.301C229.842 166.979 230.009 167.773 230.009 168.682C230.009 169.583 229.842 170.371 229.509 171.045C229.179 171.72 228.717 172.244 228.122 172.619C227.531 172.994 226.842 173.182 226.054 173.182ZM226.054 171.977C226.652 171.977 227.145 171.824 227.531 171.517C227.918 171.21 228.204 170.807 228.389 170.307C228.575 169.807 228.668 169.265 228.668 168.682C228.668 168.098 228.575 167.555 228.389 167.051C228.204 166.547 227.918 166.14 227.531 165.83C227.145 165.519 226.652 165.364 226.054 165.364C225.455 165.364 224.963 165.519 224.577 165.83C224.19 166.14 223.904 166.547 223.719 167.051C223.533 167.555 223.44 168.098 223.44 168.682C223.44 169.265 223.533 169.807 223.719 170.307C223.904 170.807 224.19 171.21 224.577 171.517C224.963 171.824 225.455 171.977 226.054 171.977ZM237.555 169.432V164.273H238.896V173H237.555V171.523H237.464C237.26 171.966 236.942 172.343 236.51 172.653C236.078 172.96 235.533 173.114 234.874 173.114C234.328 173.114 233.843 172.994 233.419 172.756C232.995 172.513 232.661 172.15 232.419 171.665C232.177 171.176 232.055 170.561 232.055 169.818V164.273H233.396V169.727C233.396 170.364 233.574 170.871 233.93 171.25C234.29 171.629 234.749 171.818 235.305 171.818C235.639 171.818 235.978 171.733 236.322 171.562C236.671 171.392 236.963 171.131 237.197 170.778C237.436 170.426 237.555 169.977 237.555 169.432ZM242.693 167.75V173H241.352V164.273H242.648V165.636H242.761C242.966 165.193 243.277 164.837 243.693 164.568C244.11 164.295 244.648 164.159 245.307 164.159C245.898 164.159 246.415 164.28 246.858 164.523C247.301 164.761 247.646 165.125 247.892 165.614C248.138 166.098 248.261 166.712 248.261 167.455V173H246.92V167.545C246.92 166.86 246.742 166.326 246.386 165.943C246.03 165.557 245.542 165.364 244.92 165.364C244.492 165.364 244.11 165.456 243.773 165.642C243.439 165.828 243.176 166.098 242.983 166.455C242.79 166.811 242.693 167.242 242.693 167.75ZM254.507 164.273V165.409H249.984V164.273H254.507ZM251.303 162.182H252.643V170.5C252.643 170.879 252.698 171.163 252.808 171.352C252.922 171.538 253.066 171.663 253.24 171.727C253.418 171.788 253.606 171.818 253.803 171.818C253.95 171.818 254.071 171.811 254.166 171.795C254.261 171.777 254.337 171.761 254.393 171.75L254.666 172.955C254.575 172.989 254.448 173.023 254.286 173.057C254.123 173.095 253.916 173.114 253.666 173.114C253.287 173.114 252.916 173.032 252.553 172.869C252.193 172.706 251.893 172.458 251.655 172.125C251.42 171.792 251.303 171.371 251.303 170.864V162.182Z" fill="white"/>
<path fill-rule="evenodd" clip-rule="evenodd" d="M283.036 12H281.964V18.6204L277.576 13.9391L276.818 14.7472L281.207 19.4286H275V20.5714H281.207L276.818 25.2528L277.576 26.0609L281.964 21.3795V28H283.036V21.3795L287.425 26.0609L288.182 25.2528L283.793 20.5714H290V19.4286H283.793L288.182 14.7472L287.425 13.9391L283.036 18.6204V12Z" fill="white"/>
</g>
<defs>
<linearGradient id="paint0_linear_1_639" x1="135.548" y1="72" x2="140.961" y2="151.148" gradientUnits="userSpaceOnUse">
<stop offset="0.630979" stop-color="white"/>
<stop offset="1" stop-color="#FBB2B2"/>
</linearGradient>
<clipPath id="clip0_1_639">
<rect width="315" height="216" fill="white"/>
</clipPath>
</defs>
</svg>
