<svg width="315" height="216" viewBox="0 0 315 216" fill="none" xmlns="http://www.w3.org/2000/svg">
<g clip-path="url(#clip0_1_666)">
<rect width="315" height="216" fill="white"/>
<path d="M0 33L315 33" stroke="#CACACA" stroke-width="0.783582"/>
<path d="M16 33L16 216" stroke="#CACACA" stroke-width="0.5"/>
<path d="M289.926 33L289.926 216.358" stroke="#CACACA" stroke-width="0.783582"/>
<path d="M28.6477 16.2898H26.5568C26.5568 15.9413 26.5 15.6326 26.3864 15.3636C26.2727 15.0909 26.1136 14.8598 25.9091 14.6705C25.7045 14.4811 25.4621 14.339 25.1818 14.2443C24.9015 14.1458 24.5909 14.0966 24.25 14.0966C23.5985 14.0966 22.9924 14.2614 22.4318 14.5909C21.8712 14.9205 21.3958 15.3996 21.0057 16.0284C20.6155 16.6534 20.3447 17.4129 20.1932 18.3068C20.053 19.178 20.0663 19.9072 20.233 20.4943C20.4034 21.0814 20.6989 21.5246 21.1193 21.8239C21.5398 22.1193 22.0511 22.267 22.6534 22.267C23.0208 22.267 23.3731 22.2216 23.7102 22.1307C24.0473 22.036 24.358 21.8977 24.642 21.7159C24.9299 21.5303 25.1818 21.3049 25.3977 21.0398C25.6174 20.7746 25.7879 20.4735 25.9091 20.1364H28.0284C27.8542 20.6894 27.5985 21.2102 27.2614 21.6989C26.9242 22.1837 26.5189 22.6117 26.0455 22.983C25.572 23.3504 25.0417 23.6383 24.4545 23.8466C23.8674 24.0549 23.2348 24.1591 22.5568 24.1591C21.5152 24.1591 20.6231 23.9167 19.8807 23.4318C19.142 22.9432 18.6117 22.2443 18.2898 21.3352C17.9678 20.4223 17.911 19.3295 18.1193 18.0568C18.3277 16.8182 18.7292 15.7633 19.3239 14.892C19.9223 14.0208 20.6515 13.3561 21.5114 12.8977C22.375 12.4356 23.3049 12.2045 24.3011 12.2045C24.9602 12.2045 25.5587 12.2955 26.0966 12.4773C26.6383 12.6591 27.1023 12.9261 27.4886 13.2784C27.875 13.6269 28.1686 14.0549 28.3693 14.5625C28.5739 15.0663 28.6667 15.642 28.6477 16.2898ZM33.0497 24.1705C32.1899 24.1705 31.474 23.9811 30.902 23.6023C30.3338 23.2235 29.9342 22.6913 29.7031 22.0057C29.4721 21.3201 29.4304 20.5246 29.5781 19.6193C29.7259 18.7254 30.0213 17.9432 30.4645 17.2727C30.9115 16.6023 31.474 16.0833 32.152 15.7159C32.8338 15.3447 33.5971 15.1591 34.4418 15.1591C35.3016 15.1591 36.0156 15.3504 36.5838 15.733C37.152 16.1117 37.5516 16.6439 37.7827 17.3295C38.0175 18.0152 38.0611 18.8144 37.9134 19.7273C37.7694 20.6174 37.4721 21.3958 37.0213 22.0625C36.5743 22.7292 36.0118 23.2481 35.3338 23.6193C34.6558 23.9867 33.8944 24.1705 33.0497 24.1705ZM33.2202 22.5227C33.6974 22.5227 34.116 22.3939 34.4759 22.1364C34.8395 21.875 35.1368 21.5246 35.3679 21.0852C35.6027 20.642 35.7656 20.1496 35.8565 19.608C35.9399 19.0852 35.9418 18.6117 35.8622 18.1875C35.7827 17.7595 35.6122 17.4205 35.3509 17.1705C35.0933 16.9167 34.7353 16.7898 34.277 16.7898C33.7997 16.7898 33.3774 16.9223 33.0099 17.1875C32.6463 17.4489 32.349 17.8011 32.1179 18.2443C31.8868 18.6837 31.7277 19.1742 31.6406 19.7159C31.5535 20.2386 31.5497 20.7121 31.6293 21.1364C31.7088 21.5606 31.8793 21.8977 32.1406 22.1477C32.402 22.3977 32.7618 22.5227 33.2202 22.5227ZM45.125 20.3295L45.9716 15.2727H48.0284L46.5739 24H44.5795L44.8409 22.4489H44.75C44.4773 22.9375 44.0871 23.3371 43.5795 23.6477C43.0758 23.9583 42.4962 24.1136 41.8409 24.1136C41.2689 24.1136 40.786 23.9867 40.392 23.733C39.9981 23.4754 39.7178 23.1023 39.5511 22.6136C39.3883 22.1212 39.3636 21.5265 39.4773 20.8295L40.4091 15.2727H42.4659L41.5909 20.5114C41.5038 21.0644 41.5833 21.5038 41.8295 21.8295C42.0795 22.1553 42.4508 22.3182 42.9432 22.3182C43.2462 22.3182 43.5511 22.2443 43.858 22.0966C44.1686 21.9489 44.4394 21.7292 44.6705 21.4375C44.9015 21.142 45.053 20.7727 45.125 20.3295ZM48.1491 27.2727L50.1605 15.2727H52.1832L51.9503 16.7159H52.0696C52.206 16.5038 52.3897 16.2784 52.6207 16.0398C52.8556 15.7973 53.1529 15.5909 53.5128 15.4205C53.8726 15.2462 54.3101 15.1591 54.8253 15.1591C55.4957 15.1591 56.0734 15.3314 56.5582 15.6761C57.0431 16.017 57.3897 16.5227 57.598 17.1932C57.8101 17.8598 57.8366 18.678 57.6776 19.6477C57.5185 20.6061 57.2249 21.4205 56.7969 22.0909C56.3688 22.7614 55.8556 23.2727 55.2571 23.625C54.6586 23.9773 54.0166 24.1534 53.331 24.1534C52.831 24.1534 52.4276 24.0701 52.1207 23.9034C51.8177 23.7367 51.5885 23.536 51.4332 23.3011C51.2779 23.0625 51.1624 22.8371 51.0866 22.625H50.9957L50.223 27.2727H48.1491ZM51.4503 19.6364C51.3594 20.2008 51.3575 20.6951 51.4446 21.1193C51.5355 21.5436 51.7154 21.875 51.9844 22.1136C52.2533 22.3485 52.6056 22.4659 53.0412 22.4659C53.4957 22.4659 53.8935 22.3447 54.2344 22.1023C54.5791 21.8561 54.8651 21.5208 55.0923 21.0966C55.3234 20.6686 55.4863 20.1818 55.581 19.6364C55.6681 19.0947 55.6681 18.6136 55.581 18.1932C55.4938 17.7727 55.3177 17.4432 55.0526 17.2045C54.7874 16.9659 54.4276 16.8466 53.973 16.8466C53.5298 16.8466 53.134 16.9621 52.7855 17.1932C52.4408 17.4242 52.1548 17.7481 51.9276 18.1648C51.7003 18.5814 51.5412 19.072 51.4503 19.6364ZM62.5341 24.1705C61.6742 24.1705 60.9583 23.9811 60.3864 23.6023C59.8182 23.2235 59.4186 22.6913 59.1875 22.0057C58.9564 21.3201 58.9148 20.5246 59.0625 19.6193C59.2102 18.7254 59.5057 17.9432 59.9489 17.2727C60.3958 16.6023 60.9583 16.0833 61.6364 15.7159C62.3182 15.3447 63.0814 15.1591 63.9261 15.1591C64.786 15.1591 65.5 15.3504 66.0682 15.733C66.6364 16.1117 67.036 16.6439 67.267 17.3295C67.5019 18.0152 67.5455 18.8144 67.3977 19.7273C67.2538 20.6174 66.9564 21.3958 66.5057 22.0625C66.0587 22.7292 65.4962 23.2481 64.8182 23.6193C64.1402 23.9867 63.3788 24.1705 62.5341 24.1705ZM62.7045 22.5227C63.1818 22.5227 63.6004 22.3939 63.9602 22.1364C64.3239 21.875 64.6212 21.5246 64.8523 21.0852C65.0871 20.642 65.25 20.1496 65.3409 19.608C65.4242 19.0852 65.4261 18.6117 65.3466 18.1875C65.267 17.7595 65.0966 17.4205 64.8352 17.1705C64.5777 16.9167 64.2197 16.7898 63.7614 16.7898C63.2841 16.7898 62.8617 16.9223 62.4943 17.1875C62.1307 17.4489 61.8333 17.8011 61.6023 18.2443C61.3712 18.6837 61.2121 19.1742 61.125 19.7159C61.0379 20.2386 61.0341 20.7121 61.1136 21.1364C61.1932 21.5606 61.3636 21.8977 61.625 22.1477C61.8864 22.3977 62.2462 22.5227 62.7045 22.5227ZM71.348 18.8864L70.5071 24H68.4446L69.8991 15.2727H71.8707L71.6207 16.7557H71.7287C72.0014 16.267 72.384 15.8788 72.8764 15.5909C73.3688 15.303 73.9427 15.1591 74.598 15.1591C75.1927 15.1591 75.6927 15.2879 76.098 15.5455C76.5033 15.7992 76.7912 16.1723 76.9616 16.6648C77.1321 17.1534 77.1586 17.7462 77.0412 18.4432L76.1094 24H74.0526L74.9219 18.7614C75.0204 18.1818 74.9465 17.7273 74.7003 17.3977C74.4579 17.0644 74.0677 16.8977 73.5298 16.8977C73.17 16.8977 72.8385 16.9773 72.5355 17.1364C72.2325 17.2917 71.9768 17.517 71.7685 17.8125C71.5639 18.108 71.4238 18.4659 71.348 18.8864Z" fill="black"/>
<path d="M58.9375 150.727V63.4545H64.5285V150.727H58.9375ZM73.7671 92.2614C73.4944 89.5114 72.3239 87.375 70.2557 85.8523C68.1875 84.3295 65.3807 83.5682 61.8353 83.5682C59.4262 83.5682 57.3921 83.9091 55.733 84.5909C54.0739 85.25 52.8012 86.1705 51.9148 87.3523C51.0512 88.5341 50.6194 89.875 50.6194 91.375C50.5739 92.625 50.8353 93.7159 51.4035 94.6477C51.9944 95.5795 52.8012 96.3864 53.8239 97.0682C54.8466 97.7273 56.0285 98.3068 57.3694 98.8068C58.7103 99.2841 60.1421 99.6932 61.6648 100.034L67.9375 101.534C70.983 102.216 73.7785 103.125 76.3239 104.261C78.8694 105.398 81.0739 106.795 82.9375 108.455C84.8012 110.114 86.2444 112.068 87.2671 114.318C88.3125 116.568 88.8466 119.148 88.8694 122.057C88.8466 126.33 87.7557 130.034 85.5966 133.17C83.4603 136.284 80.3694 138.705 76.3239 140.432C72.3012 142.136 67.4489 142.989 61.7671 142.989C56.1307 142.989 51.2216 142.125 47.0398 140.398C42.8807 138.67 39.6307 136.114 37.2898 132.727C34.9716 129.318 33.7557 125.102 33.6421 120.08H47.9262C48.0853 122.42 48.7557 124.375 49.9375 125.943C51.1421 127.489 52.7444 128.659 54.7444 129.455C56.7671 130.227 59.0512 130.614 61.5966 130.614C64.0966 130.614 66.2671 130.25 68.108 129.523C69.9716 128.795 71.4148 127.784 72.4375 126.489C73.4603 125.193 73.9716 123.705 73.9716 122.023C73.9716 120.455 73.5057 119.136 72.5739 118.068C71.6648 117 70.3239 116.091 68.5512 115.341C66.8012 114.591 64.6535 113.909 62.108 113.295L54.5057 111.386C48.6194 109.955 43.9716 107.716 40.5625 104.67C37.1535 101.625 35.4603 97.5227 35.483 92.3636C35.4603 88.1364 36.5853 84.4432 38.858 81.2841C41.1535 78.125 44.3012 75.6591 48.3012 73.8864C52.3012 72.1136 56.8466 71.2273 61.9375 71.2273C67.1194 71.2273 71.6421 72.1136 75.5057 73.8864C79.3921 75.6591 82.4148 78.125 84.5739 81.2841C86.733 84.4432 87.8466 88.1023 87.9148 92.2614H73.7671ZM122.044 72.1818V142H107.283V86.1932H106.874L90.8852 96.2159V83.125L108.169 72.1818H122.044ZM153.533 143.534C147.669 143.511 142.624 142.068 138.397 139.205C134.192 136.341 130.953 132.193 128.681 126.761C126.431 121.33 125.317 114.795 125.34 107.159C125.34 99.5455 126.465 93.0568 128.715 87.6932C130.988 82.3295 134.226 78.25 138.431 75.4545C142.658 72.6364 147.692 71.2273 153.533 71.2273C159.374 71.2273 164.397 72.6364 168.601 75.4545C172.828 78.2727 176.078 82.3636 178.351 87.7273C180.624 93.0682 181.749 99.5455 181.726 107.159C181.726 114.818 180.59 121.364 178.317 126.795C176.067 132.227 172.84 136.375 168.635 139.239C164.431 142.102 159.397 143.534 153.533 143.534ZM153.533 131.295C157.533 131.295 160.726 129.284 163.113 125.261C165.499 121.239 166.681 115.205 166.658 107.159C166.658 101.864 166.113 97.4545 165.022 93.9318C163.953 90.4091 162.431 87.7614 160.453 85.9886C158.499 84.2159 156.192 83.3295 153.533 83.3295C149.556 83.3295 146.374 85.3182 143.988 89.2955C141.601 93.2727 140.397 99.2273 140.374 107.159C140.374 112.523 140.908 117 141.976 120.591C143.067 124.159 144.601 126.841 146.578 128.636C148.556 130.409 150.874 131.295 153.533 131.295ZM207.147 143.534C201.283 143.511 196.238 142.068 192.01 139.205C187.806 136.341 184.567 132.193 182.294 126.761C180.044 121.33 178.931 114.795 178.954 107.159C178.954 99.5455 180.079 93.0568 182.329 87.6932C184.601 82.3295 187.84 78.25 192.044 75.4545C196.272 72.6364 201.306 71.2273 207.147 71.2273C212.988 71.2273 218.01 72.6364 222.215 75.4545C226.442 78.2727 229.692 82.3636 231.965 87.7273C234.238 93.0682 235.363 99.5455 235.34 107.159C235.34 114.818 234.204 121.364 231.931 126.795C229.681 132.227 226.454 136.375 222.249 139.239C218.044 142.102 213.01 143.534 207.147 143.534ZM207.147 131.295C211.147 131.295 214.34 129.284 216.726 125.261C219.113 121.239 220.294 115.205 220.272 107.159C220.272 101.864 219.726 97.4545 218.635 93.9318C217.567 90.4091 216.044 87.7614 214.067 85.9886C212.113 84.2159 209.806 83.3295 207.147 83.3295C203.169 83.3295 199.988 85.3182 197.601 89.2955C195.215 93.2727 194.01 99.2273 193.988 107.159C193.988 112.523 194.522 117 195.59 120.591C196.681 124.159 198.215 126.841 200.192 128.636C202.169 130.409 204.488 131.295 207.147 131.295ZM251.499 134.727C251.499 136.261 251.222 137.587 250.668 138.705C250.114 139.822 249.354 140.684 248.388 141.29C247.423 141.896 246.319 142.199 245.079 142.199C243.838 142.199 242.735 141.896 241.769 141.29C240.803 140.684 240.043 139.822 239.489 138.705C238.935 137.587 238.658 136.261 238.658 134.727C238.658 133.193 238.935 131.867 239.489 130.75C240.043 129.633 240.803 128.771 241.769 128.165C242.735 127.559 243.838 127.256 245.079 127.256C246.319 127.256 247.423 127.559 248.388 128.165C249.354 128.771 250.114 129.633 250.668 130.75C251.222 131.867 251.499 133.193 251.499 134.727ZM249.795 134.727C249.795 133.468 249.584 132.405 249.163 131.538C248.746 130.672 248.18 130.016 247.465 129.571C246.755 129.126 245.959 128.903 245.079 128.903C244.198 128.903 243.4 129.126 242.685 129.571C241.975 130.016 241.409 130.672 240.988 131.538C240.571 132.405 240.363 133.468 240.363 134.727C240.363 135.987 240.571 137.05 240.988 137.916C241.409 138.783 241.975 139.438 242.685 139.884C243.4 140.329 244.198 140.551 245.079 140.551C245.959 140.551 246.755 140.329 247.465 139.884C248.18 139.438 248.746 138.783 249.163 137.916C249.584 137.05 249.795 135.987 249.795 134.727ZM254.461 142V127.455H263.182V129.017H256.222V133.932H262.529V135.494H256.222V142H254.461ZM266.199 142V127.455H274.921V129.017H267.961V133.932H274.267V135.494H267.961V142H266.199Z" fill="url(#paint0_linear_1_666)"/>
<path d="M94.1669 173V161.364H98.0987C99.0078 161.364 99.754 161.519 100.337 161.83C100.921 162.136 101.353 162.559 101.633 163.097C101.913 163.634 102.053 164.246 102.053 164.932C102.053 165.617 101.913 166.225 101.633 166.756C101.353 167.286 100.923 167.703 100.343 168.006C99.7635 168.305 99.023 168.455 98.1214 168.455H94.9396V167.182H98.076C98.6972 167.182 99.1972 167.091 99.576 166.909C99.9586 166.727 100.235 166.47 100.406 166.136C100.58 165.799 100.667 165.398 100.667 164.932C100.667 164.466 100.58 164.059 100.406 163.71C100.231 163.362 99.9529 163.093 99.5703 162.903C99.1877 162.71 98.6821 162.614 98.0533 162.614H95.576V173H94.1669ZM99.6442 167.773L102.508 173H100.871L98.0533 167.773H99.6442ZM107.785 173.182C106.944 173.182 106.219 172.996 105.609 172.625C105.003 172.25 104.535 171.727 104.205 171.057C103.879 170.383 103.717 169.598 103.717 168.705C103.717 167.811 103.879 167.023 104.205 166.341C104.535 165.655 104.993 165.121 105.58 164.739C106.171 164.352 106.861 164.159 107.648 164.159C108.103 164.159 108.552 164.235 108.995 164.386C109.438 164.538 109.842 164.784 110.205 165.125C110.569 165.462 110.859 165.909 111.075 166.466C111.29 167.023 111.398 167.708 111.398 168.523V169.091H104.671V167.932H110.035C110.035 167.439 109.936 167 109.739 166.614C109.546 166.227 109.27 165.922 108.91 165.699C108.554 165.475 108.133 165.364 107.648 165.364C107.114 165.364 106.652 165.496 106.262 165.761C105.876 166.023 105.578 166.364 105.37 166.784C105.162 167.205 105.058 167.655 105.058 168.136V168.909C105.058 169.568 105.171 170.127 105.398 170.585C105.629 171.04 105.95 171.386 106.359 171.625C106.768 171.86 107.243 171.977 107.785 171.977C108.137 171.977 108.455 171.928 108.739 171.83C109.027 171.727 109.275 171.576 109.484 171.375C109.692 171.17 109.853 170.917 109.967 170.614L111.262 170.977C111.126 171.417 110.897 171.803 110.575 172.136C110.253 172.466 109.855 172.723 109.381 172.909C108.908 173.091 108.376 173.182 107.785 173.182ZM117.325 164.273V165.409H112.62V164.273H117.325ZM114.029 173V163.068C114.029 162.568 114.147 162.152 114.381 161.818C114.616 161.485 114.921 161.235 115.296 161.068C115.671 160.902 116.067 160.818 116.484 160.818C116.813 160.818 117.082 160.845 117.29 160.898C117.499 160.951 117.654 161 117.756 161.045L117.37 162.205C117.302 162.182 117.207 162.153 117.086 162.119C116.969 162.085 116.813 162.068 116.62 162.068C116.177 162.068 115.857 162.18 115.66 162.403C115.467 162.627 115.37 162.955 115.37 163.386V173H114.029ZM122.504 173.182C121.663 173.182 120.937 172.996 120.327 172.625C119.721 172.25 119.254 171.727 118.924 171.057C118.598 170.383 118.435 169.598 118.435 168.705C118.435 167.811 118.598 167.023 118.924 166.341C119.254 165.655 119.712 165.121 120.299 164.739C120.89 164.352 121.579 164.159 122.367 164.159C122.822 164.159 123.271 164.235 123.714 164.386C124.157 164.538 124.56 164.784 124.924 165.125C125.288 165.462 125.577 165.909 125.793 166.466C126.009 167.023 126.117 167.708 126.117 168.523V169.091H119.39V167.932H124.754C124.754 167.439 124.655 167 124.458 166.614C124.265 166.227 123.988 165.922 123.629 165.699C123.272 165.475 122.852 165.364 122.367 165.364C121.833 165.364 121.371 165.496 120.981 165.761C120.594 166.023 120.297 166.364 120.089 166.784C119.88 167.205 119.776 167.655 119.776 168.136V168.909C119.776 169.568 119.89 170.127 120.117 170.585C120.348 171.04 120.668 171.386 121.077 171.625C121.487 171.86 121.962 171.977 122.504 171.977C122.856 171.977 123.174 171.928 123.458 171.83C123.746 171.727 123.994 171.576 124.202 171.375C124.411 171.17 124.572 170.917 124.685 170.614L125.981 170.977C125.844 171.417 125.615 171.803 125.293 172.136C124.971 172.466 124.574 172.723 124.1 172.909C123.627 173.091 123.094 173.182 122.504 173.182ZM128.157 173V164.273H129.452V165.591H129.543C129.702 165.159 129.99 164.809 130.407 164.54C130.824 164.271 131.293 164.136 131.816 164.136C131.915 164.136 132.038 164.138 132.185 164.142C132.333 164.146 132.445 164.152 132.521 164.159V165.523C132.475 165.511 132.371 165.494 132.208 165.472C132.049 165.445 131.88 165.432 131.702 165.432C131.278 165.432 130.899 165.521 130.566 165.699C130.237 165.873 129.975 166.116 129.782 166.426C129.593 166.733 129.498 167.083 129.498 167.477V173H128.157ZM134.11 173V164.273H135.406V165.591H135.496C135.656 165.159 135.943 164.809 136.36 164.54C136.777 164.271 137.246 164.136 137.769 164.136C137.868 164.136 137.991 164.138 138.138 164.142C138.286 164.146 138.398 164.152 138.474 164.159V165.523C138.428 165.511 138.324 165.494 138.161 165.472C138.002 165.445 137.834 165.432 137.656 165.432C137.231 165.432 136.853 165.521 136.519 165.699C136.19 165.873 135.928 166.116 135.735 166.426C135.546 166.733 135.451 167.083 135.451 167.477V173H134.11ZM142.631 173.205C142.078 173.205 141.576 173.1 141.126 172.892C140.675 172.68 140.317 172.375 140.052 171.977C139.787 171.576 139.654 171.091 139.654 170.523C139.654 170.023 139.753 169.617 139.95 169.307C140.147 168.992 140.41 168.746 140.739 168.568C141.069 168.39 141.433 168.258 141.83 168.17C142.232 168.08 142.635 168.008 143.04 167.955C143.571 167.886 144.001 167.835 144.33 167.801C144.664 167.763 144.906 167.701 145.058 167.614C145.213 167.527 145.29 167.375 145.29 167.159V167.114C145.29 166.553 145.137 166.117 144.83 165.807C144.527 165.496 144.067 165.341 143.45 165.341C142.809 165.341 142.308 165.481 141.944 165.761C141.58 166.042 141.325 166.341 141.177 166.659L139.904 166.205C140.131 165.674 140.434 165.261 140.813 164.966C141.196 164.667 141.612 164.458 142.063 164.341C142.518 164.22 142.965 164.159 143.404 164.159C143.684 164.159 144.006 164.193 144.37 164.261C144.737 164.326 145.092 164.46 145.433 164.665C145.777 164.869 146.063 165.178 146.29 165.591C146.518 166.004 146.631 166.557 146.631 167.25V173H145.29V171.818H145.222C145.131 172.008 144.98 172.21 144.768 172.426C144.556 172.642 144.273 172.826 143.921 172.977C143.569 173.129 143.139 173.205 142.631 173.205ZM142.836 172C143.366 172 143.813 171.896 144.177 171.688C144.544 171.479 144.821 171.21 145.006 170.881C145.196 170.551 145.29 170.205 145.29 169.841V168.614C145.234 168.682 145.109 168.744 144.915 168.801C144.726 168.854 144.506 168.902 144.256 168.943C144.01 168.981 143.77 169.015 143.535 169.045C143.304 169.072 143.116 169.095 142.972 169.114C142.624 169.159 142.298 169.233 141.995 169.335C141.696 169.434 141.453 169.583 141.268 169.784C141.086 169.981 140.995 170.25 140.995 170.591C140.995 171.057 141.167 171.409 141.512 171.648C141.861 171.883 142.302 172 142.836 172ZM150.42 161.364V173H149.079V161.364H150.42ZM157.558 173V161.364H161.489C162.398 161.364 163.145 161.519 163.728 161.83C164.311 162.136 164.743 162.559 165.023 163.097C165.304 163.634 165.444 164.246 165.444 164.932C165.444 165.617 165.304 166.225 165.023 166.756C164.743 167.286 164.313 167.703 163.734 168.006C163.154 168.305 162.414 168.455 161.512 168.455H158.33V167.182H161.467C162.088 167.182 162.588 167.091 162.967 166.909C163.349 166.727 163.626 166.47 163.796 166.136C163.97 165.799 164.058 165.398 164.058 164.932C164.058 164.466 163.97 164.059 163.796 163.71C163.622 163.362 163.344 163.093 162.961 162.903C162.578 162.71 162.073 162.614 161.444 162.614H158.967V173H157.558ZM163.035 167.773L165.898 173H164.262L161.444 167.773H163.035ZM171.175 173.182C170.335 173.182 169.609 172.996 168.999 172.625C168.393 172.25 167.925 171.727 167.596 171.057C167.27 170.383 167.107 169.598 167.107 168.705C167.107 167.811 167.27 167.023 167.596 166.341C167.925 165.655 168.384 165.121 168.971 164.739C169.562 164.352 170.251 164.159 171.039 164.159C171.494 164.159 171.942 164.235 172.386 164.386C172.829 164.538 173.232 164.784 173.596 165.125C173.96 165.462 174.249 165.909 174.465 166.466C174.681 167.023 174.789 167.708 174.789 168.523V169.091H168.062V167.932H173.425C173.425 167.439 173.327 167 173.13 166.614C172.937 166.227 172.66 165.922 172.3 165.699C171.944 165.475 171.524 165.364 171.039 165.364C170.505 165.364 170.043 165.496 169.653 165.761C169.266 166.023 168.969 166.364 168.761 166.784C168.552 167.205 168.448 167.655 168.448 168.136V168.909C168.448 169.568 168.562 170.127 168.789 170.585C169.02 171.04 169.34 171.386 169.749 171.625C170.158 171.86 170.634 171.977 171.175 171.977C171.528 171.977 171.846 171.928 172.13 171.83C172.418 171.727 172.666 171.576 172.874 171.375C173.083 171.17 173.244 170.917 173.357 170.614L174.653 170.977C174.516 171.417 174.287 171.803 173.965 172.136C173.643 172.466 173.246 172.723 172.772 172.909C172.299 173.091 171.766 173.182 171.175 173.182ZM178.806 173L176.147 164.273H177.556L179.442 170.955H179.533L181.397 164.273H182.829L184.67 170.932H184.761L186.647 164.273H188.056L185.397 173H184.079L182.17 166.295H182.033L180.124 173H178.806ZM192.397 173.205C191.844 173.205 191.342 173.1 190.891 172.892C190.441 172.68 190.083 172.375 189.817 171.977C189.552 171.576 189.42 171.091 189.42 170.523C189.42 170.023 189.518 169.617 189.715 169.307C189.912 168.992 190.175 168.746 190.505 168.568C190.835 168.39 191.198 168.258 191.596 168.17C191.997 168.08 192.401 168.008 192.806 167.955C193.336 167.886 193.766 167.835 194.096 167.801C194.429 167.763 194.672 167.701 194.823 167.614C194.978 167.527 195.056 167.375 195.056 167.159V167.114C195.056 166.553 194.903 166.117 194.596 165.807C194.293 165.496 193.833 165.341 193.215 165.341C192.575 165.341 192.073 165.481 191.71 165.761C191.346 166.042 191.09 166.341 190.942 166.659L189.67 166.205C189.897 165.674 190.2 165.261 190.579 164.966C190.961 164.667 191.378 164.458 191.829 164.341C192.283 164.22 192.73 164.159 193.17 164.159C193.45 164.159 193.772 164.193 194.136 164.261C194.503 164.326 194.857 164.46 195.198 164.665C195.543 164.869 195.829 165.178 196.056 165.591C196.283 166.004 196.397 166.557 196.397 167.25V173H195.056V171.818H194.988C194.897 172.008 194.746 172.21 194.533 172.426C194.321 172.642 194.039 172.826 193.687 172.977C193.335 173.129 192.905 173.205 192.397 173.205ZM192.602 172C193.132 172 193.579 171.896 193.942 171.688C194.31 171.479 194.586 171.21 194.772 170.881C194.961 170.551 195.056 170.205 195.056 169.841V168.614C194.999 168.682 194.874 168.744 194.681 168.801C194.492 168.854 194.272 168.902 194.022 168.943C193.776 168.981 193.535 169.015 193.3 169.045C193.069 169.072 192.882 169.095 192.738 169.114C192.389 169.159 192.064 169.233 191.761 169.335C191.461 169.434 191.219 169.583 191.033 169.784C190.852 169.981 190.761 170.25 190.761 170.591C190.761 171.057 190.933 171.409 191.278 171.648C191.626 171.883 192.067 172 192.602 172ZM198.844 173V164.273H200.14V165.591H200.231C200.39 165.159 200.678 164.809 201.094 164.54C201.511 164.271 201.981 164.136 202.504 164.136C202.602 164.136 202.725 164.138 202.873 164.142C203.021 164.146 203.132 164.152 203.208 164.159V165.523C203.163 165.511 203.058 165.494 202.896 165.472C202.737 165.445 202.568 165.432 202.39 165.432C201.966 165.432 201.587 165.521 201.254 165.699C200.924 165.873 200.663 166.116 200.469 166.426C200.28 166.733 200.185 167.083 200.185 167.477V173H198.844ZM207.827 173.182C207.1 173.182 206.458 172.998 205.901 172.631C205.344 172.259 204.909 171.737 204.594 171.062C204.28 170.384 204.123 169.583 204.123 168.659C204.123 167.742 204.28 166.947 204.594 166.273C204.909 165.598 205.346 165.078 205.907 164.71C206.468 164.343 207.115 164.159 207.85 164.159C208.418 164.159 208.867 164.254 209.197 164.443C209.53 164.629 209.784 164.841 209.958 165.08C210.136 165.314 210.274 165.508 210.373 165.659H210.487V161.364H211.827V173H210.532V171.659H210.373C210.274 171.818 210.134 172.019 209.952 172.261C209.771 172.5 209.511 172.714 209.174 172.903C208.837 173.089 208.388 173.182 207.827 173.182ZM208.009 171.977C208.547 171.977 209.002 171.837 209.373 171.557C209.744 171.273 210.026 170.881 210.219 170.381C210.413 169.877 210.509 169.295 210.509 168.636C210.509 167.985 210.415 167.415 210.225 166.926C210.036 166.434 209.755 166.051 209.384 165.778C209.013 165.502 208.555 165.364 208.009 165.364C207.441 165.364 206.968 165.509 206.589 165.801C206.214 166.089 205.932 166.481 205.742 166.977C205.557 167.47 205.464 168.023 205.464 168.636C205.464 169.258 205.558 169.822 205.748 170.33C205.941 170.833 206.225 171.235 206.6 171.534C206.979 171.83 207.449 171.977 208.009 171.977Z" fill="black"/>
<path fill-rule="evenodd" clip-rule="evenodd" d="M283.036 12H281.964V18.6204L277.576 13.9391L276.818 14.7472L281.207 19.4286H275V20.5714H281.207L276.818 25.2528L277.576 26.0609L281.964 21.3795V28H283.036V21.3795L287.425 26.0609L288.182 25.2528L283.793 20.5714H290V19.4286H283.793L288.182 14.7472L287.425 13.9391L283.036 18.6204V12Z" fill="#C1554E"/>
</g>
<defs>
<linearGradient id="paint0_linear_1_666" x1="135.548" y1="72" x2="140.961" y2="151.148" gradientUnits="userSpaceOnUse">
<stop offset="0.630979" stop-color="#C1554E"/>
<stop offset="1" stop-color="#F4C5C1"/>
</linearGradient>
<clipPath id="clip0_1_666">
<rect width="315" height="216" fill="white"/>
</clipPath>
</defs>
</svg>
