<svg width="315" height="217" viewBox="0 0 315 217" fill="none" xmlns="http://www.w3.org/2000/svg">
<g clip-path="url(#clip0_1_675)">
<rect width="315" height="216" transform="translate(0 0.111328)" fill="white"/>
<path d="M0 33.1113L315 33.1113" stroke="#CACACA" stroke-width="0.783582"/>
<path d="M16 33.1113L16 216.111" stroke="#CACACA" stroke-width="0.5"/>
<path d="M289.926 33.1113L289.926 216.47" stroke="#CACACA" stroke-width="0.783582"/>
<path d="M28.6477 16.4011H26.5568C26.5568 16.0526 26.5 15.7439 26.3864 15.475C26.2727 15.2022 26.1136 14.9712 25.9091 14.7818C25.7045 14.5924 25.4621 14.4503 25.1818 14.3556C24.9015 14.2572 24.5909 14.2079 24.25 14.2079C23.5985 14.2079 22.9924 14.3727 22.4318 14.7022C21.8712 15.0318 21.3958 15.5109 21.0057 16.1397C20.6155 16.7647 20.3447 17.5242 20.1932 18.4181C20.053 19.2894 20.0663 20.0185 20.233 20.6056C20.4034 21.1928 20.6989 21.6359 21.1193 21.9352C21.5398 22.2306 22.0511 22.3784 22.6534 22.3784C23.0208 22.3784 23.3731 22.3329 23.7102 22.242C24.0473 22.1473 24.358 22.0091 24.642 21.8272C24.9299 21.6416 25.1818 21.4163 25.3977 21.1511C25.6174 20.8859 25.7879 20.5848 25.9091 20.2477H28.0284C27.8542 20.8007 27.5985 21.3216 27.2614 21.8102C26.9242 22.295 26.5189 22.7231 26.0455 23.0943C25.572 23.4617 25.0417 23.7496 24.4545 23.9579C23.8674 24.1663 23.2348 24.2704 22.5568 24.2704C21.5152 24.2704 20.6231 24.028 19.8807 23.5431C19.142 23.0545 18.6117 22.3556 18.2898 21.4466C17.9678 20.5337 17.911 19.4409 18.1193 18.1681C18.3277 16.9295 18.7292 15.8746 19.3239 15.0034C19.9223 14.1322 20.6515 13.4674 21.5114 13.0091C22.375 12.5469 23.3049 12.3159 24.3011 12.3159C24.9602 12.3159 25.5587 12.4068 26.0966 12.5886C26.6383 12.7704 27.1023 13.0375 27.4886 13.3897C27.875 13.7382 28.1686 14.1663 28.3693 14.6738C28.5739 15.1776 28.6667 15.7534 28.6477 16.4011ZM33.0497 24.2818C32.1899 24.2818 31.474 24.0924 30.902 23.7136C30.3338 23.3348 29.9342 22.8026 29.7031 22.117C29.4721 21.4314 29.4304 20.6359 29.5781 19.7306C29.7259 18.8367 30.0213 18.0545 30.4645 17.3841C30.9115 16.7136 31.474 16.1947 32.152 15.8272C32.8338 15.456 33.5971 15.2704 34.4418 15.2704C35.3016 15.2704 36.0156 15.4617 36.5838 15.8443C37.152 16.2231 37.5516 16.7553 37.7827 17.4409C38.0175 18.1265 38.0611 18.9257 37.9134 19.8386C37.7694 20.7288 37.4721 21.5072 37.0213 22.1738C36.5743 22.8405 36.0118 23.3594 35.3338 23.7306C34.6558 24.0981 33.8944 24.2818 33.0497 24.2818ZM33.2202 22.6341C33.6974 22.6341 34.116 22.5053 34.4759 22.2477C34.8395 21.9863 35.1368 21.6359 35.3679 21.1966C35.6027 20.7534 35.7656 20.2609 35.8565 19.7193C35.9399 19.1966 35.9418 18.7231 35.8622 18.2988C35.7827 17.8708 35.6122 17.5318 35.3509 17.2818C35.0933 17.028 34.7353 16.9011 34.277 16.9011C33.7997 16.9011 33.3774 17.0337 33.0099 17.2988C32.6463 17.5602 32.349 17.9125 32.1179 18.3556C31.8868 18.795 31.7277 19.2856 31.6406 19.8272C31.5535 20.35 31.5497 20.8234 31.6293 21.2477C31.7088 21.6719 31.8793 22.0091 32.1406 22.2591C32.402 22.5091 32.7618 22.6341 33.2202 22.6341ZM45.125 20.4409L45.9716 15.3841H48.0284L46.5739 24.1113H44.5795L44.8409 22.5602H44.75C44.4773 23.0488 44.0871 23.4484 43.5795 23.7591C43.0758 24.0697 42.4962 24.225 41.8409 24.225C41.2689 24.225 40.786 24.0981 40.392 23.8443C39.9981 23.5867 39.7178 23.2136 39.5511 22.725C39.3883 22.2325 39.3636 21.6378 39.4773 20.9409L40.4091 15.3841H42.4659L41.5909 20.6227C41.5038 21.1757 41.5833 21.6151 41.8295 21.9409C42.0795 22.2666 42.4508 22.4295 42.9432 22.4295C43.2462 22.4295 43.5511 22.3556 43.858 22.2079C44.1686 22.0602 44.4394 21.8405 44.6705 21.5488C44.9015 21.2534 45.053 20.8841 45.125 20.4409ZM48.1491 27.3841L50.1605 15.3841H52.1832L51.9503 16.8272H52.0696C52.206 16.6151 52.3897 16.3897 52.6207 16.1511C52.8556 15.9087 53.1529 15.7022 53.5128 15.5318C53.8726 15.3575 54.3101 15.2704 54.8253 15.2704C55.4957 15.2704 56.0734 15.4428 56.5582 15.7875C57.0431 16.1284 57.3897 16.6341 57.598 17.3045C57.8101 17.9712 57.8366 18.7894 57.6776 19.7591C57.5185 20.7174 57.2249 21.5318 56.7969 22.2022C56.3688 22.8727 55.8556 23.3841 55.2571 23.7363C54.6586 24.0886 54.0166 24.2647 53.331 24.2647C52.831 24.2647 52.4276 24.1814 52.1207 24.0147C51.8177 23.8481 51.5885 23.6473 51.4332 23.4125C51.2779 23.1738 51.1624 22.9484 51.0866 22.7363H50.9957L50.223 27.3841H48.1491ZM51.4503 19.7477C51.3594 20.3121 51.3575 20.8064 51.4446 21.2306C51.5355 21.6549 51.7154 21.9863 51.9844 22.225C52.2533 22.4598 52.6056 22.5772 53.0412 22.5772C53.4957 22.5772 53.8935 22.456 54.2344 22.2136C54.5791 21.9674 54.8651 21.6322 55.0923 21.2079C55.3234 20.7799 55.4863 20.2931 55.581 19.7477C55.6681 19.206 55.6681 18.725 55.581 18.3045C55.4938 17.8841 55.3177 17.5545 55.0526 17.3159C54.7874 17.0772 54.4276 16.9579 53.973 16.9579C53.5298 16.9579 53.134 17.0734 52.7855 17.3045C52.4408 17.5356 52.1548 17.8594 51.9276 18.2761C51.7003 18.6928 51.5412 19.1833 51.4503 19.7477ZM62.5341 24.2818C61.6742 24.2818 60.9583 24.0924 60.3864 23.7136C59.8182 23.3348 59.4186 22.8026 59.1875 22.117C58.9564 21.4314 58.9148 20.6359 59.0625 19.7306C59.2102 18.8367 59.5057 18.0545 59.9489 17.3841C60.3958 16.7136 60.9583 16.1947 61.6364 15.8272C62.3182 15.456 63.0814 15.2704 63.9261 15.2704C64.786 15.2704 65.5 15.4617 66.0682 15.8443C66.6364 16.2231 67.036 16.7553 67.267 17.4409C67.5019 18.1265 67.5455 18.9257 67.3977 19.8386C67.2538 20.7288 66.9564 21.5072 66.5057 22.1738C66.0587 22.8405 65.4962 23.3594 64.8182 23.7306C64.1402 24.0981 63.3788 24.2818 62.5341 24.2818ZM62.7045 22.6341C63.1818 22.6341 63.6004 22.5053 63.9602 22.2477C64.3239 21.9863 64.6212 21.6359 64.8523 21.1966C65.0871 20.7534 65.25 20.2609 65.3409 19.7193C65.4242 19.1966 65.4261 18.7231 65.3466 18.2988C65.267 17.8708 65.0966 17.5318 64.8352 17.2818C64.5777 17.028 64.2197 16.9011 63.7614 16.9011C63.2841 16.9011 62.8617 17.0337 62.4943 17.2988C62.1307 17.5602 61.8333 17.9125 61.6023 18.3556C61.3712 18.795 61.2121 19.2856 61.125 19.8272C61.0379 20.35 61.0341 20.8234 61.1136 21.2477C61.1932 21.6719 61.3636 22.0091 61.625 22.2591C61.8864 22.5091 62.2462 22.6341 62.7045 22.6341ZM71.348 18.9977L70.5071 24.1113H68.4446L69.8991 15.3841H71.8707L71.6207 16.867H71.7287C72.0014 16.3784 72.384 15.9901 72.8764 15.7022C73.3688 15.4144 73.9427 15.2704 74.598 15.2704C75.1927 15.2704 75.6927 15.3992 76.098 15.6568C76.5033 15.9106 76.7912 16.2837 76.9616 16.7761C77.1321 17.2647 77.1586 17.8575 77.0412 18.5545L76.1094 24.1113H74.0526L74.9219 18.8727C75.0204 18.2931 74.9465 17.8386 74.7003 17.5091C74.4579 17.1757 74.0677 17.0091 73.5298 17.0091C73.17 17.0091 72.8385 17.0886 72.5355 17.2477C72.2325 17.403 71.9768 17.6284 71.7685 17.9238C71.5639 18.2193 71.4238 18.5772 71.348 18.9977Z" fill="black"/>
<path d="M58.9375 150.839V63.5659H64.5285V150.839H58.9375ZM73.7671 92.3727C73.4944 89.6227 72.3239 87.4863 70.2557 85.9636C68.1875 84.4409 65.3807 83.6795 61.8353 83.6795C59.4262 83.6795 57.3921 84.0204 55.733 84.7022C54.0739 85.3613 52.8012 86.2818 51.9148 87.4636C51.0512 88.6454 50.6194 89.9863 50.6194 91.4863C50.5739 92.7363 50.8353 93.8272 51.4035 94.7591C51.9944 95.6909 52.8012 96.4977 53.8239 97.1795C54.8466 97.8386 56.0285 98.4181 57.3694 98.9181C58.7103 99.3954 60.1421 99.8045 61.6648 100.145L67.9375 101.645C70.983 102.327 73.7785 103.236 76.3239 104.373C78.8694 105.509 81.0739 106.907 82.9375 108.566C84.8012 110.225 86.2444 112.18 87.2671 114.43C88.3125 116.68 88.8466 119.259 88.8694 122.168C88.8466 126.441 87.7557 130.145 85.5966 133.282C83.4603 136.395 80.3694 138.816 76.3239 140.543C72.3012 142.248 67.4489 143.1 61.7671 143.1C56.1307 143.1 51.2216 142.236 47.0398 140.509C42.8807 138.782 39.6307 136.225 37.2898 132.839C34.9716 129.43 33.7557 125.214 33.6421 120.191H47.9262C48.0853 122.532 48.7557 124.486 49.9375 126.055C51.1421 127.6 52.7444 128.77 54.7444 129.566C56.7671 130.339 59.0512 130.725 61.5966 130.725C64.0966 130.725 66.2671 130.361 68.108 129.634C69.9716 128.907 71.4148 127.895 72.4375 126.6C73.4603 125.305 73.9716 123.816 73.9716 122.134C73.9716 120.566 73.5057 119.248 72.5739 118.18C71.6648 117.111 70.3239 116.202 68.5512 115.452C66.8012 114.702 64.6535 114.02 62.108 113.407L54.5057 111.498C48.6194 110.066 43.9716 107.827 40.5625 104.782C37.1535 101.736 35.4603 97.6341 35.483 92.475C35.4603 88.2477 36.5853 84.5545 38.858 81.3954C41.1535 78.2363 44.3012 75.7704 48.3012 73.9977C52.3012 72.225 56.8466 71.3386 61.9375 71.3386C67.1194 71.3386 71.6421 72.225 75.5057 73.9977C79.3921 75.7704 82.4148 78.2363 84.5739 81.3954C86.733 84.5545 87.8466 88.2136 87.9148 92.3727H73.7671ZM122.044 72.2931V142.111H107.283V86.3045H106.874L90.8852 96.3272V83.2363L108.169 72.2931H122.044ZM153.533 143.645C147.669 143.623 142.624 142.18 138.397 139.316C134.192 136.452 130.953 132.305 128.681 126.873C126.431 121.441 125.317 114.907 125.34 107.27C125.34 99.6568 126.465 93.1681 128.715 87.8045C130.988 82.4409 134.226 78.3613 138.431 75.5659C142.658 72.7477 147.692 71.3386 153.533 71.3386C159.374 71.3386 164.397 72.7477 168.601 75.5659C172.828 78.3841 176.078 82.475 178.351 87.8386C180.624 93.1795 181.749 99.6568 181.726 107.27C181.726 114.93 180.59 121.475 178.317 126.907C176.067 132.339 172.84 136.486 168.635 139.35C164.431 142.214 159.397 143.645 153.533 143.645ZM153.533 131.407C157.533 131.407 160.726 129.395 163.113 125.373C165.499 121.35 166.681 115.316 166.658 107.27C166.658 101.975 166.113 97.5659 165.022 94.0431C163.953 90.5204 162.431 87.8727 160.453 86.1C158.499 84.3272 156.192 83.4409 153.533 83.4409C149.556 83.4409 146.374 85.4295 143.988 89.4068C141.601 93.3841 140.397 99.3386 140.374 107.27C140.374 112.634 140.908 117.111 141.976 120.702C143.067 124.27 144.601 126.952 146.578 128.748C148.556 130.52 150.874 131.407 153.533 131.407ZM207.147 143.645C201.283 143.623 196.238 142.18 192.01 139.316C187.806 136.452 184.567 132.305 182.294 126.873C180.044 121.441 178.931 114.907 178.954 107.27C178.954 99.6568 180.079 93.1681 182.329 87.8045C184.601 82.4409 187.84 78.3613 192.044 75.5659C196.272 72.7477 201.306 71.3386 207.147 71.3386C212.988 71.3386 218.01 72.7477 222.215 75.5659C226.442 78.3841 229.692 82.475 231.965 87.8386C234.238 93.1795 235.363 99.6568 235.34 107.27C235.34 114.93 234.204 121.475 231.931 126.907C229.681 132.339 226.454 136.486 222.249 139.35C218.044 142.214 213.01 143.645 207.147 143.645ZM207.147 131.407C211.147 131.407 214.34 129.395 216.726 125.373C219.113 121.35 220.294 115.316 220.272 107.27C220.272 101.975 219.726 97.5659 218.635 94.0431C217.567 90.5204 216.044 87.8727 214.067 86.1C212.113 84.3272 209.806 83.4409 207.147 83.4409C203.169 83.4409 199.988 85.4295 197.601 89.4068C195.215 93.3841 194.01 99.3386 193.988 107.27C193.988 112.634 194.522 117.111 195.59 120.702C196.681 124.27 198.215 126.952 200.192 128.748C202.169 130.52 204.488 131.407 207.147 131.407ZM251.499 134.839C251.499 136.373 251.222 137.698 250.668 138.816C250.114 139.933 249.354 140.795 248.388 141.401C247.423 142.007 246.319 142.31 245.079 142.31C243.838 142.31 242.735 142.007 241.769 141.401C240.803 140.795 240.043 139.933 239.489 138.816C238.935 137.698 238.658 136.373 238.658 134.839C238.658 133.305 238.935 131.979 239.489 130.861C240.043 129.744 240.803 128.882 241.769 128.276C242.735 127.67 243.838 127.367 245.079 127.367C246.319 127.367 247.423 127.67 248.388 128.276C249.354 128.882 250.114 129.744 250.668 130.861C251.222 131.979 251.499 133.305 251.499 134.839ZM249.795 134.839C249.795 133.579 249.584 132.516 249.163 131.65C248.746 130.783 248.18 130.127 247.465 129.682C246.755 129.237 245.959 129.015 245.079 129.015C244.198 129.015 243.4 129.237 242.685 129.682C241.975 130.127 241.409 130.783 240.988 131.65C240.571 132.516 240.363 133.579 240.363 134.839C240.363 136.098 240.571 137.161 240.988 138.028C241.409 138.894 241.975 139.55 242.685 139.995C243.4 140.44 244.198 140.662 245.079 140.662C245.959 140.662 246.755 140.44 247.465 139.995C248.18 139.55 248.746 138.894 249.163 138.028C249.584 137.161 249.795 136.098 249.795 134.839ZM254.461 142.111V127.566H263.182V129.128H256.222V134.043H262.529V135.606H256.222V142.111H254.461ZM266.199 142.111V127.566H274.921V129.128H267.961V134.043H274.267V135.606H267.961V142.111H266.199Z" fill="url(#paint0_linear_1_675)"/>
<path d="M66.3196 164.384C66.2514 163.808 65.9749 163.361 65.4901 163.043C65.0052 162.725 64.4105 162.566 63.706 162.566C63.1908 162.566 62.7401 162.649 62.3537 162.816C61.9711 162.983 61.6719 163.212 61.456 163.503C61.2438 163.795 61.1378 164.126 61.1378 164.498C61.1378 164.808 61.2116 165.075 61.3594 165.299C61.5109 165.519 61.7041 165.702 61.9389 165.85C62.1738 165.994 62.42 166.113 62.6776 166.208C62.9351 166.299 63.1719 166.373 63.3878 166.43L64.5696 166.748C64.8726 166.827 65.2098 166.937 65.581 167.077C65.956 167.217 66.3139 167.409 66.6548 167.651C66.9995 167.89 67.2836 168.197 67.5071 168.572C67.7306 168.947 67.8423 169.407 67.8423 169.952C67.8423 170.581 67.6776 171.149 67.348 171.657C67.0223 172.164 66.545 172.568 65.9162 172.867C65.2912 173.166 64.5317 173.316 63.6378 173.316C62.8045 173.316 62.0829 173.181 61.473 172.912C60.867 172.644 60.3897 172.269 60.0412 171.787C59.6965 171.306 59.5014 170.748 59.456 170.111H60.9105C60.9484 170.551 61.0961 170.914 61.3537 171.202C61.6151 171.486 61.9446 171.698 62.3423 171.839C62.7438 171.975 63.1757 172.043 63.6378 172.043C64.1757 172.043 64.6586 171.956 65.0866 171.782C65.5147 171.604 65.8537 171.358 66.1037 171.043C66.3537 170.725 66.4787 170.354 66.4787 169.93C66.4787 169.543 66.3707 169.229 66.1548 168.986C65.9389 168.744 65.6548 168.547 65.3026 168.395C64.9503 168.244 64.5696 168.111 64.1605 167.998L62.7287 167.589C61.8196 167.327 61.0999 166.954 60.5696 166.469C60.0393 165.984 59.7741 165.35 59.7741 164.566C59.7741 163.914 59.9503 163.346 60.3026 162.861C60.6586 162.373 61.1359 161.994 61.7344 161.725C62.3366 161.452 63.009 161.316 63.7514 161.316C64.5014 161.316 65.1681 161.45 65.7514 161.719C66.3348 161.984 66.7969 162.348 67.1378 162.81C67.4825 163.272 67.6643 163.797 67.6832 164.384H66.3196ZM69.9773 176.384V164.384H71.2727V165.77H71.4318C71.5303 165.619 71.6667 165.426 71.8409 165.191C72.0189 164.952 72.2727 164.74 72.6023 164.555C72.9356 164.365 73.3864 164.27 73.9545 164.27C74.6894 164.27 75.3371 164.454 75.8977 164.822C76.4583 165.189 76.8958 165.71 77.2102 166.384C77.5246 167.058 77.6818 167.854 77.6818 168.77C77.6818 169.695 77.5246 170.496 77.2102 171.174C76.8958 171.848 76.4602 172.371 75.9034 172.742C75.3466 173.109 74.7045 173.293 73.9773 173.293C73.4167 173.293 72.9678 173.2 72.6307 173.015C72.2936 172.825 72.0341 172.611 71.8523 172.373C71.6705 172.13 71.5303 171.93 71.4318 171.77H71.3182V176.384H69.9773ZM71.2955 168.748C71.2955 169.407 71.392 169.988 71.5852 170.492C71.7784 170.992 72.0606 171.384 72.4318 171.668C72.803 171.948 73.2576 172.089 73.7955 172.089C74.3561 172.089 74.8239 171.941 75.1989 171.645C75.5777 171.346 75.8617 170.945 76.0511 170.441C76.2443 169.933 76.3409 169.369 76.3409 168.748C76.3409 168.134 76.2462 167.581 76.0568 167.089C75.8712 166.592 75.589 166.2 75.2102 165.912C74.8352 165.621 74.3636 165.475 73.7955 165.475C73.25 165.475 72.7917 165.613 72.4205 165.89C72.0492 166.162 71.7689 166.545 71.5795 167.037C71.3902 167.526 71.2955 168.096 71.2955 168.748ZM79.7273 173.111V164.384H81.0227V165.702H81.1136C81.2727 165.27 81.5606 164.92 81.9773 164.651C82.3939 164.382 82.8636 164.248 83.3864 164.248C83.4848 164.248 83.608 164.25 83.7557 164.253C83.9034 164.257 84.0152 164.263 84.0909 164.27V165.634C84.0455 165.623 83.9413 165.606 83.7784 165.583C83.6193 165.556 83.4508 165.543 83.2727 165.543C82.8485 165.543 82.4697 165.632 82.1364 165.81C81.8068 165.984 81.5455 166.227 81.3523 166.537C81.1629 166.844 81.0682 167.195 81.0682 167.589V173.111H79.7273ZM85.6804 173.111V164.384H87.0213V173.111H85.6804ZM86.3622 162.93C86.1009 162.93 85.8755 162.84 85.6861 162.662C85.5005 162.484 85.4077 162.27 85.4077 162.02C85.4077 161.77 85.5005 161.556 85.6861 161.378C85.8755 161.2 86.1009 161.111 86.3622 161.111C86.6236 161.111 86.8471 161.2 87.0327 161.378C87.2221 161.556 87.3168 161.77 87.3168 162.02C87.3168 162.27 87.2221 162.484 87.0327 162.662C86.8471 162.84 86.6236 162.93 86.3622 162.93ZM90.8182 167.861V173.111H89.4773V164.384H90.7727V165.748H90.8864C91.0909 165.305 91.4015 164.948 91.8182 164.68C92.2348 164.407 92.7727 164.27 93.4318 164.27C94.0227 164.27 94.5398 164.392 94.983 164.634C95.4261 164.873 95.7708 165.236 96.017 165.725C96.2633 166.21 96.3864 166.823 96.3864 167.566V173.111H95.0455V167.657C95.0455 166.971 94.8674 166.437 94.5114 166.055C94.1553 165.668 93.6667 165.475 93.0455 165.475C92.6174 165.475 92.2348 165.568 91.8977 165.753C91.5644 165.939 91.3011 166.21 91.108 166.566C90.9148 166.922 90.8182 167.354 90.8182 167.861ZM102.359 176.566C101.712 176.566 101.155 176.483 100.689 176.316C100.223 176.153 99.8348 175.937 99.5241 175.668C99.2173 175.403 98.973 175.119 98.7912 174.816L99.8594 174.066C99.9806 174.225 100.134 174.407 100.32 174.611C100.505 174.82 100.759 175 101.081 175.151C101.407 175.306 101.833 175.384 102.359 175.384C103.064 175.384 103.645 175.214 104.104 174.873C104.562 174.532 104.791 173.998 104.791 173.27V171.498H104.678C104.579 171.657 104.439 171.854 104.257 172.089C104.079 172.32 103.821 172.526 103.484 172.708C103.151 172.886 102.7 172.975 102.132 172.975C101.428 172.975 100.795 172.808 100.234 172.475C99.6776 172.142 99.2363 171.657 98.9105 171.02C98.5885 170.384 98.4276 169.611 98.4276 168.702C98.4276 167.808 98.5848 167.03 98.8991 166.367C99.2135 165.7 99.651 165.185 100.212 164.822C100.772 164.454 101.42 164.27 102.155 164.27C102.723 164.27 103.174 164.365 103.507 164.555C103.844 164.74 104.102 164.952 104.28 165.191C104.462 165.426 104.602 165.619 104.7 165.77H104.837V164.384H106.132V173.361C106.132 174.111 105.962 174.721 105.621 175.191C105.284 175.664 104.829 176.011 104.257 176.231C103.689 176.454 103.056 176.566 102.359 176.566ZM102.314 171.77C102.852 171.77 103.306 171.647 103.678 171.401C104.049 171.155 104.331 170.801 104.524 170.339C104.717 169.876 104.814 169.323 104.814 168.68C104.814 168.051 104.719 167.496 104.53 167.015C104.34 166.534 104.06 166.157 103.689 165.884C103.318 165.611 102.859 165.475 102.314 165.475C101.746 165.475 101.272 165.619 100.893 165.907C100.518 166.195 100.236 166.581 100.047 167.066C99.8613 167.551 99.7685 168.089 99.7685 168.68C99.7685 169.286 99.8632 169.822 100.053 170.287C100.246 170.75 100.53 171.113 100.905 171.378C101.284 171.64 101.753 171.77 102.314 171.77ZM115.655 173.316C115.102 173.316 114.6 173.212 114.149 173.003C113.698 172.791 113.34 172.486 113.075 172.089C112.81 171.687 112.678 171.202 112.678 170.634C112.678 170.134 112.776 169.729 112.973 169.418C113.17 169.104 113.433 168.858 113.763 168.68C114.092 168.501 114.456 168.369 114.854 168.282C115.255 168.191 115.659 168.119 116.064 168.066C116.594 167.998 117.024 167.947 117.354 167.912C117.687 167.875 117.929 167.812 118.081 167.725C118.236 167.638 118.314 167.486 118.314 167.27V167.225C118.314 166.664 118.161 166.229 117.854 165.918C117.551 165.608 117.09 165.452 116.473 165.452C115.833 165.452 115.331 165.592 114.967 165.873C114.604 166.153 114.348 166.452 114.2 166.77L112.928 166.316C113.155 165.786 113.458 165.373 113.837 165.077C114.219 164.778 114.636 164.57 115.087 164.452C115.541 164.331 115.988 164.27 116.428 164.27C116.708 164.27 117.03 164.305 117.393 164.373C117.761 164.437 118.115 164.572 118.456 164.776C118.801 164.981 119.087 165.289 119.314 165.702C119.541 166.115 119.655 166.668 119.655 167.361V173.111H118.314V171.93H118.246C118.155 172.119 118.003 172.322 117.791 172.537C117.579 172.753 117.297 172.937 116.945 173.089C116.592 173.24 116.162 173.316 115.655 173.316ZM115.859 172.111C116.39 172.111 116.837 172.007 117.2 171.799C117.568 171.59 117.844 171.322 118.03 170.992C118.219 170.662 118.314 170.316 118.314 169.952V168.725C118.257 168.793 118.132 168.856 117.939 168.912C117.75 168.965 117.53 169.013 117.28 169.055C117.034 169.092 116.793 169.126 116.558 169.157C116.327 169.183 116.14 169.206 115.996 169.225C115.647 169.27 115.321 169.344 115.018 169.447C114.719 169.545 114.477 169.695 114.291 169.895C114.109 170.092 114.018 170.361 114.018 170.702C114.018 171.168 114.191 171.52 114.536 171.759C114.884 171.994 115.325 172.111 115.859 172.111ZM123.443 167.861V173.111H122.102V164.384H123.398V165.748H123.511C123.716 165.305 124.027 164.948 124.443 164.68C124.86 164.407 125.398 164.27 126.057 164.27C126.648 164.27 127.165 164.392 127.608 164.634C128.051 164.873 128.396 165.236 128.642 165.725C128.888 166.21 129.011 166.823 129.011 167.566V173.111H127.67V167.657C127.67 166.971 127.492 166.437 127.136 166.055C126.78 165.668 126.292 165.475 125.67 165.475C125.242 165.475 124.86 165.568 124.523 165.753C124.189 165.939 123.926 166.21 123.733 166.566C123.54 166.922 123.443 167.354 123.443 167.861ZM134.757 173.293C134.03 173.293 133.388 173.109 132.831 172.742C132.274 172.371 131.839 171.848 131.524 171.174C131.21 170.496 131.053 169.695 131.053 168.77C131.053 167.854 131.21 167.058 131.524 166.384C131.839 165.71 132.276 165.189 132.837 164.822C133.397 164.454 134.045 164.27 134.78 164.27C135.348 164.27 135.797 164.365 136.126 164.555C136.46 164.74 136.714 164.952 136.888 165.191C137.066 165.426 137.204 165.619 137.303 165.77H137.416V161.475H138.757V173.111H137.462V171.77H137.303C137.204 171.93 137.064 172.13 136.882 172.373C136.7 172.611 136.441 172.825 136.104 173.015C135.767 173.2 135.318 173.293 134.757 173.293ZM134.939 172.089C135.477 172.089 135.931 171.948 136.303 171.668C136.674 171.384 136.956 170.992 137.149 170.492C137.342 169.988 137.439 169.407 137.439 168.748C137.439 168.096 137.344 167.526 137.155 167.037C136.965 166.545 136.685 166.162 136.314 165.89C135.943 165.613 135.484 165.475 134.939 165.475C134.371 165.475 133.897 165.621 133.518 165.912C133.143 166.2 132.861 166.592 132.672 167.089C132.486 167.581 132.393 168.134 132.393 168.748C132.393 169.369 132.488 169.933 132.678 170.441C132.871 170.945 133.155 171.346 133.53 171.645C133.909 171.941 134.378 172.089 134.939 172.089ZM155.445 165.111H154.036C153.952 164.706 153.806 164.35 153.598 164.043C153.393 163.736 153.143 163.479 152.848 163.27C152.556 163.058 152.232 162.899 151.876 162.793C151.52 162.687 151.149 162.634 150.763 162.634C150.058 162.634 149.42 162.812 148.848 163.168C148.28 163.524 147.827 164.049 147.49 164.742C147.157 165.435 146.99 166.286 146.99 167.293C146.99 168.301 147.157 169.151 147.49 169.844C147.827 170.537 148.28 171.062 148.848 171.418C149.42 171.774 150.058 171.952 150.763 171.952C151.149 171.952 151.52 171.899 151.876 171.793C152.232 171.687 152.556 171.53 152.848 171.322C153.143 171.109 153.393 170.85 153.598 170.543C153.806 170.233 153.952 169.876 154.036 169.475H155.445C155.339 170.07 155.145 170.602 154.865 171.072C154.585 171.541 154.236 171.941 153.82 172.27C153.403 172.596 152.935 172.844 152.416 173.015C151.901 173.185 151.35 173.27 150.763 173.27C149.77 173.27 148.888 173.028 148.115 172.543C147.342 172.058 146.734 171.369 146.291 170.475C145.848 169.581 145.626 168.52 145.626 167.293C145.626 166.066 145.848 165.005 146.291 164.111C146.734 163.217 147.342 162.528 148.115 162.043C148.888 161.558 149.77 161.316 150.763 161.316C151.35 161.316 151.901 161.401 152.416 161.572C152.935 161.742 153.403 161.992 153.82 162.322C154.236 162.647 154.585 163.045 154.865 163.515C155.145 163.981 155.339 164.513 155.445 165.111ZM160.108 173.316C159.555 173.316 159.053 173.212 158.602 173.003C158.152 172.791 157.794 172.486 157.528 172.089C157.263 171.687 157.131 171.202 157.131 170.634C157.131 170.134 157.229 169.729 157.426 169.418C157.623 169.104 157.886 168.858 158.216 168.68C158.545 168.501 158.909 168.369 159.307 168.282C159.708 168.191 160.112 168.119 160.517 168.066C161.047 167.998 161.477 167.947 161.807 167.912C162.14 167.875 162.383 167.812 162.534 167.725C162.689 167.638 162.767 167.486 162.767 167.27V167.225C162.767 166.664 162.614 166.229 162.307 165.918C162.004 165.608 161.544 165.452 160.926 165.452C160.286 165.452 159.784 165.592 159.42 165.873C159.057 166.153 158.801 166.452 158.653 166.77L157.381 166.316C157.608 165.786 157.911 165.373 158.29 165.077C158.672 164.778 159.089 164.57 159.54 164.452C159.994 164.331 160.441 164.27 160.881 164.27C161.161 164.27 161.483 164.305 161.847 164.373C162.214 164.437 162.568 164.572 162.909 164.776C163.254 164.981 163.54 165.289 163.767 165.702C163.994 166.115 164.108 166.668 164.108 167.361V173.111H162.767V171.93H162.699C162.608 172.119 162.456 172.322 162.244 172.537C162.032 172.753 161.75 172.937 161.398 173.089C161.045 173.24 160.616 173.316 160.108 173.316ZM160.312 172.111C160.843 172.111 161.29 172.007 161.653 171.799C162.021 171.59 162.297 171.322 162.483 170.992C162.672 170.662 162.767 170.316 162.767 169.952V168.725C162.71 168.793 162.585 168.856 162.392 168.912C162.203 168.965 161.983 169.013 161.733 169.055C161.487 169.092 161.246 169.126 161.011 169.157C160.78 169.183 160.593 169.206 160.449 169.225C160.1 169.27 159.775 169.344 159.472 169.447C159.172 169.545 158.93 169.695 158.744 169.895C158.563 170.092 158.472 170.361 158.472 170.702C158.472 171.168 158.644 171.52 158.989 171.759C159.337 171.994 159.778 172.111 160.312 172.111ZM166.737 173.111V161.475H168.078V165.77H168.192C168.29 165.619 168.427 165.426 168.601 165.191C168.779 164.952 169.033 164.74 169.362 164.555C169.696 164.365 170.146 164.27 170.714 164.27C171.449 164.27 172.097 164.454 172.658 164.822C173.218 165.189 173.656 165.71 173.97 166.384C174.285 167.058 174.442 167.854 174.442 168.77C174.442 169.695 174.285 170.496 173.97 171.174C173.656 171.848 173.22 172.371 172.663 172.742C172.107 173.109 171.464 173.293 170.737 173.293C170.177 173.293 169.728 173.2 169.391 173.015C169.054 172.825 168.794 172.611 168.612 172.373C168.43 172.13 168.29 171.93 168.192 171.77H168.033V173.111H166.737ZM168.055 168.748C168.055 169.407 168.152 169.988 168.345 170.492C168.538 170.992 168.821 171.384 169.192 171.668C169.563 171.948 170.018 172.089 170.555 172.089C171.116 172.089 171.584 171.941 171.959 171.645C172.338 171.346 172.622 170.945 172.811 170.441C173.004 169.933 173.101 169.369 173.101 168.748C173.101 168.134 173.006 167.581 172.817 167.089C172.631 166.592 172.349 166.2 171.97 165.912C171.595 165.621 171.124 165.475 170.555 165.475C170.01 165.475 169.552 165.613 169.18 165.89C168.809 166.162 168.529 166.545 168.339 167.037C168.15 167.526 168.055 168.096 168.055 168.748ZM177.834 161.475V173.111H176.493V161.475H177.834ZM183.949 173.293C183.108 173.293 182.383 173.108 181.773 172.736C181.167 172.361 180.699 171.839 180.369 171.168C180.044 170.494 179.881 169.71 179.881 168.816C179.881 167.922 180.044 167.134 180.369 166.452C180.699 165.767 181.157 165.233 181.744 164.85C182.335 164.464 183.025 164.27 183.812 164.27C184.267 164.27 184.716 164.346 185.159 164.498C185.602 164.649 186.006 164.895 186.369 165.236C186.733 165.573 187.023 166.02 187.239 166.577C187.455 167.134 187.562 167.82 187.562 168.634V169.202H180.835V168.043H186.199C186.199 167.551 186.1 167.111 185.903 166.725C185.71 166.339 185.434 166.034 185.074 165.81C184.718 165.587 184.297 165.475 183.812 165.475C183.278 165.475 182.816 165.608 182.426 165.873C182.04 166.134 181.742 166.475 181.534 166.895C181.326 167.316 181.222 167.767 181.222 168.248V169.02C181.222 169.68 181.335 170.238 181.562 170.697C181.794 171.151 182.114 171.498 182.523 171.736C182.932 171.971 183.407 172.089 183.949 172.089C184.301 172.089 184.619 172.039 184.903 171.941C185.191 171.839 185.439 171.687 185.648 171.486C185.856 171.282 186.017 171.028 186.131 170.725L187.426 171.089C187.29 171.528 187.061 171.914 186.739 172.248C186.417 172.577 186.019 172.835 185.545 173.02C185.072 173.202 184.54 173.293 183.949 173.293ZM203.648 165.111H202.239C202.155 164.706 202.009 164.35 201.801 164.043C201.597 163.736 201.347 163.479 201.051 163.27C200.759 163.058 200.436 162.899 200.08 162.793C199.723 162.687 199.352 162.634 198.966 162.634C198.261 162.634 197.623 162.812 197.051 163.168C196.483 163.524 196.03 164.049 195.693 164.742C195.36 165.435 195.193 166.286 195.193 167.293C195.193 168.301 195.36 169.151 195.693 169.844C196.03 170.537 196.483 171.062 197.051 171.418C197.623 171.774 198.261 171.952 198.966 171.952C199.352 171.952 199.723 171.899 200.08 171.793C200.436 171.687 200.759 171.53 201.051 171.322C201.347 171.109 201.597 170.85 201.801 170.543C202.009 170.233 202.155 169.876 202.239 169.475H203.648C203.542 170.07 203.348 170.602 203.068 171.072C202.788 171.541 202.439 171.941 202.023 172.27C201.606 172.596 201.138 172.844 200.619 173.015C200.104 173.185 199.553 173.27 198.966 173.27C197.973 173.27 197.091 173.028 196.318 172.543C195.545 172.058 194.938 171.369 194.494 170.475C194.051 169.581 193.83 168.52 193.83 167.293C193.83 166.066 194.051 165.005 194.494 164.111C194.938 163.217 195.545 162.528 196.318 162.043C197.091 161.558 197.973 161.316 198.966 161.316C199.553 161.316 200.104 161.401 200.619 161.572C201.138 161.742 201.606 161.992 202.023 162.322C202.439 162.647 202.788 163.045 203.068 163.515C203.348 163.981 203.542 164.513 203.648 165.111ZM209.288 173.293C208.5 173.293 207.809 173.106 207.214 172.731C206.624 172.356 206.161 171.831 205.828 171.157C205.499 170.483 205.334 169.695 205.334 168.793C205.334 167.884 205.499 167.09 205.828 166.412C206.161 165.734 206.624 165.208 207.214 164.833C207.809 164.458 208.5 164.27 209.288 164.27C210.076 164.27 210.766 164.458 211.357 164.833C211.951 165.208 212.413 165.734 212.743 166.412C213.076 167.09 213.243 167.884 213.243 168.793C213.243 169.695 213.076 170.483 212.743 171.157C212.413 171.831 211.951 172.356 211.357 172.731C210.766 173.106 210.076 173.293 209.288 173.293ZM209.288 172.089C209.887 172.089 210.379 171.935 210.766 171.628C211.152 171.322 211.438 170.918 211.624 170.418C211.809 169.918 211.902 169.376 211.902 168.793C211.902 168.21 211.809 167.666 211.624 167.162C211.438 166.659 211.152 166.251 210.766 165.941C210.379 165.63 209.887 165.475 209.288 165.475C208.69 165.475 208.197 165.63 207.811 165.941C207.425 166.251 207.139 166.659 206.953 167.162C206.768 167.666 206.675 168.21 206.675 168.793C206.675 169.376 206.768 169.918 206.953 170.418C207.139 170.918 207.425 171.322 207.811 171.628C208.197 171.935 208.69 172.089 209.288 172.089ZM215.29 173.111V164.384H216.585V165.748H216.699C216.881 165.282 217.174 164.92 217.58 164.662C217.985 164.401 218.472 164.27 219.04 164.27C219.616 164.27 220.095 164.401 220.477 164.662C220.864 164.92 221.165 165.282 221.381 165.748H221.472C221.695 165.297 222.03 164.939 222.477 164.674C222.924 164.405 223.46 164.27 224.085 164.27C224.866 164.27 225.504 164.515 226 165.003C226.496 165.488 226.744 166.244 226.744 167.27V173.111H225.403V167.27C225.403 166.626 225.227 166.166 224.875 165.89C224.523 165.613 224.108 165.475 223.631 165.475C223.017 165.475 222.542 165.661 222.205 166.032C221.867 166.399 221.699 166.865 221.699 167.43V173.111H220.335V167.134C220.335 166.638 220.174 166.238 219.852 165.935C219.53 165.628 219.116 165.475 218.608 165.475C218.259 165.475 217.934 165.568 217.631 165.753C217.331 165.939 217.089 166.197 216.903 166.526C216.722 166.852 216.631 167.229 216.631 167.657V173.111H215.29ZM229.378 173.111V161.475H230.719V165.77H230.832C230.931 165.619 231.067 165.426 231.241 165.191C231.42 164.952 231.673 164.74 232.003 164.555C232.336 164.365 232.787 164.27 233.355 164.27C234.09 164.27 234.738 164.454 235.298 164.822C235.859 165.189 236.296 165.71 236.611 166.384C236.925 167.058 237.082 167.854 237.082 168.77C237.082 169.695 236.925 170.496 236.611 171.174C236.296 171.848 235.861 172.371 235.304 172.742C234.747 173.109 234.105 173.293 233.378 173.293C232.817 173.293 232.368 173.2 232.031 173.015C231.694 172.825 231.435 172.611 231.253 172.373C231.071 172.13 230.931 171.93 230.832 171.77H230.673V173.111H229.378ZM230.696 168.748C230.696 169.407 230.793 169.988 230.986 170.492C231.179 170.992 231.461 171.384 231.832 171.668C232.204 171.948 232.658 172.089 233.196 172.089C233.757 172.089 234.224 171.941 234.599 171.645C234.978 171.346 235.262 170.945 235.452 170.441C235.645 169.933 235.741 169.369 235.741 168.748C235.741 168.134 235.647 167.581 235.457 167.089C235.272 166.592 234.99 166.2 234.611 165.912C234.236 165.621 233.764 165.475 233.196 165.475C232.651 165.475 232.192 165.613 231.821 165.89C231.45 166.162 231.17 166.545 230.98 167.037C230.791 167.526 230.696 168.096 230.696 168.748ZM242.679 173.293C241.891 173.293 241.2 173.106 240.605 172.731C240.014 172.356 239.552 171.831 239.219 171.157C238.889 170.483 238.724 169.695 238.724 168.793C238.724 167.884 238.889 167.09 239.219 166.412C239.552 165.734 240.014 165.208 240.605 164.833C241.2 164.458 241.891 164.27 242.679 164.27C243.467 164.27 244.156 164.458 244.747 164.833C245.342 165.208 245.804 165.734 246.134 166.412C246.467 167.09 246.634 167.884 246.634 168.793C246.634 169.695 246.467 170.483 246.134 171.157C245.804 171.831 245.342 172.356 244.747 172.731C244.156 173.106 243.467 173.293 242.679 173.293ZM242.679 172.089C243.277 172.089 243.77 171.935 244.156 171.628C244.543 171.322 244.829 170.918 245.014 170.418C245.2 169.918 245.293 169.376 245.293 168.793C245.293 168.21 245.2 167.666 245.014 167.162C244.829 166.659 244.543 166.251 244.156 165.941C243.77 165.63 243.277 165.475 242.679 165.475C242.08 165.475 241.588 165.63 241.202 165.941C240.815 166.251 240.529 166.659 240.344 167.162C240.158 167.666 240.065 168.21 240.065 168.793C240.065 169.376 240.158 169.918 240.344 170.418C240.529 170.918 240.815 171.322 241.202 171.628C241.588 171.935 242.08 172.089 242.679 172.089Z" fill="black"/>
<path fill-rule="evenodd" clip-rule="evenodd" d="M283.036 12.4448H281.964V19.0653L277.576 14.3839L276.818 15.192L281.207 19.8734H275V21.0163H281.207L276.818 25.6976L277.576 26.5057L281.964 21.8243V28.4448H283.036V21.8243L287.425 26.5057L288.182 25.6976L283.793 21.0163H290V19.8734H283.793L288.182 15.192L287.425 14.3839L283.036 19.0653V12.4448Z" fill="#C1554E"/>
</g>
<defs>
<linearGradient id="paint0_linear_1_675" x1="135.548" y1="72.1113" x2="140.961" y2="151.259" gradientUnits="userSpaceOnUse">
<stop offset="0.630979" stop-color="#C1554E"/>
<stop offset="1" stop-color="#F4C5C1"/>
</linearGradient>
<clipPath id="clip0_1_675">
<rect width="315" height="216" fill="white" transform="translate(0 0.111328)"/>
</clipPath>
</defs>
</svg>
