<svg width="315" height="217" viewBox="0 0 315 217" fill="none" xmlns="http://www.w3.org/2000/svg">
<g clip-path="url(#clip0_1_720)">
<rect width="315" height="216" transform="translate(0 0.222168)" fill="white"/>
<path d="M0 33.2222L315 33.2222" stroke="#CACACA" stroke-width="0.783582"/>
<path d="M16 33.2222L16 216.222" stroke="#CACACA" stroke-width="0.5"/>
<path d="M289.926 33.2222L289.926 216.58" stroke="#CACACA" stroke-width="0.783582"/>
<path d="M28.6477 16.5119H26.5568C26.5568 16.1635 26.5 15.8547 26.3864 15.5858C26.2727 15.3131 26.1136 15.082 25.9091 14.8926C25.7045 14.7032 25.4621 14.5612 25.1818 14.4665C24.9015 14.368 24.5909 14.3188 24.25 14.3188C23.5985 14.3188 22.9924 14.4835 22.4318 14.8131C21.8712 15.1426 21.3958 15.6218 21.0057 16.2506C20.6155 16.8756 20.3447 17.635 20.1932 18.529C20.053 19.4002 20.0663 20.1294 20.233 20.7165C20.4034 21.3036 20.6989 21.7468 21.1193 22.046C21.5398 22.3415 22.0511 22.4892 22.6534 22.4892C23.0208 22.4892 23.3731 22.4438 23.7102 22.3528C24.0473 22.2582 24.358 22.1199 24.642 21.9381C24.9299 21.7525 25.1818 21.5271 25.3977 21.2619C25.6174 20.9968 25.7879 20.6957 25.9091 20.3585H28.0284C27.8542 20.9116 27.5985 21.4324 27.2614 21.921C26.9242 22.4059 26.5189 22.8339 26.0455 23.2051C25.572 23.5725 25.0417 23.8604 24.4545 24.0688C23.8674 24.2771 23.2348 24.3813 22.5568 24.3813C21.5152 24.3813 20.6231 24.1388 19.8807 23.654C19.142 23.1653 18.6117 22.4665 18.2898 21.5574C17.9678 20.6445 17.911 19.5517 18.1193 18.279C18.3277 17.0403 18.7292 15.9854 19.3239 15.1142C19.9223 14.243 20.6515 13.5782 21.5114 13.1199C22.375 12.6578 23.3049 12.4267 24.3011 12.4267C24.9602 12.4267 25.5587 12.5176 26.0966 12.6994C26.6383 12.8813 27.1023 13.1483 27.4886 13.5006C27.875 13.8491 28.1686 14.2771 28.3693 14.7847C28.5739 15.2885 28.6667 15.8642 28.6477 16.5119ZM33.0497 24.3926C32.1899 24.3926 31.474 24.2032 30.902 23.8244C30.3338 23.4457 29.9342 22.9135 29.7031 22.2278C29.4721 21.5422 29.4304 20.7468 29.5781 19.8415C29.7259 18.9475 30.0213 18.1653 30.4645 17.4949C30.9115 16.8244 31.474 16.3055 32.152 15.9381C32.8338 15.5669 33.5971 15.3813 34.4418 15.3813C35.3016 15.3813 36.0156 15.5725 36.5838 15.9551C37.152 16.3339 37.5516 16.8661 37.7827 17.5517C38.0175 18.2373 38.0611 19.0366 37.9134 19.9494C37.7694 20.8396 37.4721 21.618 37.0213 22.2847C36.5743 22.9513 36.0118 23.4703 35.3338 23.8415C34.6558 24.2089 33.8944 24.3926 33.0497 24.3926ZM33.2202 22.7449C33.6974 22.7449 34.116 22.6161 34.4759 22.3585C34.8395 22.0972 35.1368 21.7468 35.3679 21.3074C35.6027 20.8642 35.7656 20.3718 35.8565 19.8301C35.9399 19.3074 35.9418 18.8339 35.8622 18.4097C35.7827 17.9816 35.6122 17.6426 35.3509 17.3926C35.0933 17.1388 34.7353 17.0119 34.277 17.0119C33.7997 17.0119 33.3774 17.1445 33.0099 17.4097C32.6463 17.671 32.349 18.0233 32.1179 18.4665C31.8868 18.9059 31.7277 19.3964 31.6406 19.9381C31.5535 20.4608 31.5497 20.9343 31.6293 21.3585C31.7088 21.7828 31.8793 22.1199 32.1406 22.3699C32.402 22.6199 32.7618 22.7449 33.2202 22.7449ZM45.125 20.5517L45.9716 15.4949H48.0284L46.5739 24.2222H44.5795L44.8409 22.671H44.75C44.4773 23.1597 44.0871 23.5593 43.5795 23.8699C43.0758 24.1805 42.4962 24.3358 41.8409 24.3358C41.2689 24.3358 40.786 24.2089 40.392 23.9551C39.9981 23.6975 39.7178 23.3244 39.5511 22.8358C39.3883 22.3434 39.3636 21.7487 39.4773 21.0517L40.4091 15.4949H42.4659L41.5909 20.7335C41.5038 21.2866 41.5833 21.726 41.8295 22.0517C42.0795 22.3775 42.4508 22.5403 42.9432 22.5403C43.2462 22.5403 43.5511 22.4665 43.858 22.3188C44.1686 22.171 44.4394 21.9513 44.6705 21.6597C44.9015 21.3642 45.053 20.9949 45.125 20.5517ZM48.1491 27.4949L50.1605 15.4949H52.1832L51.9503 16.9381H52.0696C52.206 16.726 52.3897 16.5006 52.6207 16.2619C52.8556 16.0195 53.1529 15.8131 53.5128 15.6426C53.8726 15.4684 54.3101 15.3813 54.8253 15.3813C55.4957 15.3813 56.0734 15.5536 56.5582 15.8983C57.0431 16.2392 57.3897 16.7449 57.598 17.4153C57.8101 18.082 57.8366 18.9002 57.6776 19.8699C57.5185 20.8282 57.2249 21.6426 56.7969 22.3131C56.3688 22.9835 55.8556 23.4949 55.2571 23.8472C54.6586 24.1994 54.0166 24.3756 53.331 24.3756C52.831 24.3756 52.4276 24.2922 52.1207 24.1256C51.8177 23.9589 51.5885 23.7582 51.4332 23.5233C51.2779 23.2847 51.1624 23.0593 51.0866 22.8472H50.9957L50.223 27.4949H48.1491ZM51.4503 19.8585C51.3594 20.4229 51.3575 20.9172 51.4446 21.3415C51.5355 21.7657 51.7154 22.0972 51.9844 22.3358C52.2533 22.5707 52.6056 22.6881 53.0412 22.6881C53.4957 22.6881 53.8935 22.5669 54.2344 22.3244C54.5791 22.0782 54.8651 21.743 55.0923 21.3188C55.3234 20.8907 55.4863 20.404 55.581 19.8585C55.6681 19.3169 55.6681 18.8358 55.581 18.4153C55.4938 17.9949 55.3177 17.6653 55.0526 17.4267C54.7874 17.1881 54.4276 17.0688 53.973 17.0688C53.5298 17.0688 53.134 17.1843 52.7855 17.4153C52.4408 17.6464 52.1548 17.9703 51.9276 18.3869C51.7003 18.8036 51.5412 19.2941 51.4503 19.8585ZM62.5341 24.3926C61.6742 24.3926 60.9583 24.2032 60.3864 23.8244C59.8182 23.4457 59.4186 22.9135 59.1875 22.2278C58.9564 21.5422 58.9148 20.7468 59.0625 19.8415C59.2102 18.9475 59.5057 18.1653 59.9489 17.4949C60.3958 16.8244 60.9583 16.3055 61.6364 15.9381C62.3182 15.5669 63.0814 15.3813 63.9261 15.3813C64.786 15.3813 65.5 15.5725 66.0682 15.9551C66.6364 16.3339 67.036 16.8661 67.267 17.5517C67.5019 18.2373 67.5455 19.0366 67.3977 19.9494C67.2538 20.8396 66.9564 21.618 66.5057 22.2847C66.0587 22.9513 65.4962 23.4703 64.8182 23.8415C64.1402 24.2089 63.3788 24.3926 62.5341 24.3926ZM62.7045 22.7449C63.1818 22.7449 63.6004 22.6161 63.9602 22.3585C64.3239 22.0972 64.6212 21.7468 64.8523 21.3074C65.0871 20.8642 65.25 20.3718 65.3409 19.8301C65.4242 19.3074 65.4261 18.8339 65.3466 18.4097C65.267 17.9816 65.0966 17.6426 64.8352 17.3926C64.5777 17.1388 64.2197 17.0119 63.7614 17.0119C63.2841 17.0119 62.8617 17.1445 62.4943 17.4097C62.1307 17.671 61.8333 18.0233 61.6023 18.4665C61.3712 18.9059 61.2121 19.3964 61.125 19.9381C61.0379 20.4608 61.0341 20.9343 61.1136 21.3585C61.1932 21.7828 61.3636 22.1199 61.625 22.3699C61.8864 22.6199 62.2462 22.7449 62.7045 22.7449ZM71.348 19.1085L70.5071 24.2222H68.4446L69.8991 15.4949H71.8707L71.6207 16.9778H71.7287C72.0014 16.4892 72.384 16.101 72.8764 15.8131C73.3688 15.5252 73.9427 15.3813 74.598 15.3813C75.1927 15.3813 75.6927 15.51 76.098 15.7676C76.5033 16.0214 76.7912 16.3945 76.9616 16.8869C77.1321 17.3756 77.1586 17.9684 77.0412 18.6653L76.1094 24.2222H74.0526L74.9219 18.9835C75.0204 18.404 74.9465 17.9494 74.7003 17.6199C74.4579 17.2866 74.0677 17.1199 73.5298 17.1199C73.17 17.1199 72.8385 17.1994 72.5355 17.3585C72.2325 17.5138 71.9768 17.7392 71.7685 18.0347C71.5639 18.3301 71.4238 18.6881 71.348 19.1085Z" fill="black"/>
<path d="M58.9375 150.949V63.6767H64.5285V150.949H58.9375ZM73.7671 92.4835C73.4944 89.7335 72.3239 87.5972 70.2557 86.0744C68.1875 84.5517 65.3807 83.7903 61.8353 83.7903C59.4262 83.7903 57.3921 84.1313 55.733 84.8131C54.0739 85.4722 52.8012 86.3926 51.9148 87.5744C51.0512 88.7563 50.6194 90.0972 50.6194 91.5972C50.5739 92.8472 50.8353 93.9381 51.4035 94.8699C51.9944 95.8017 52.8012 96.6085 53.8239 97.2903C54.8466 97.9494 56.0285 98.529 57.3694 99.029C58.7103 99.5063 60.1421 99.9153 61.6648 100.256L67.9375 101.756C70.983 102.438 73.7785 103.347 76.3239 104.484C78.8694 105.62 81.0739 107.018 82.9375 108.677C84.8012 110.336 86.2444 112.29 87.2671 114.54C88.3125 116.79 88.8466 119.37 88.8694 122.279C88.8466 126.552 87.7557 130.256 85.5966 133.393C83.4603 136.506 80.3694 138.927 76.3239 140.654C72.3012 142.359 67.4489 143.211 61.7671 143.211C56.1307 143.211 51.2216 142.347 47.0398 140.62C42.8807 138.893 39.6307 136.336 37.2898 132.949C34.9716 129.54 33.7557 125.324 33.6421 120.302H47.9262C48.0853 122.643 48.7557 124.597 49.9375 126.165C51.1421 127.711 52.7444 128.881 54.7444 129.677C56.7671 130.449 59.0512 130.836 61.5966 130.836C64.0966 130.836 66.2671 130.472 68.108 129.745C69.9716 129.018 71.4148 128.006 72.4375 126.711C73.4603 125.415 73.9716 123.927 73.9716 122.245C73.9716 120.677 73.5057 119.359 72.5739 118.29C71.6648 117.222 70.3239 116.313 68.5512 115.563C66.8012 114.813 64.6535 114.131 62.108 113.518L54.5057 111.609C48.6194 110.177 43.9716 107.938 40.5625 104.893C37.1535 101.847 35.4603 97.7449 35.483 92.5858C35.4603 88.3585 36.5853 84.6653 38.858 81.5063C41.1535 78.3472 44.3012 75.8813 48.3012 74.1085C52.3012 72.3358 56.8466 71.4494 61.9375 71.4494C67.1194 71.4494 71.6421 72.3358 75.5057 74.1085C79.3921 75.8813 82.4148 78.3472 84.5739 81.5063C86.733 84.6653 87.8466 88.3244 87.9148 92.4835H73.7671ZM122.044 72.404V142.222H107.283V86.4153H106.874L90.8852 96.4381V83.3472L108.169 72.404H122.044ZM153.533 143.756C147.669 143.734 142.624 142.29 138.397 139.427C134.192 136.563 130.953 132.415 128.681 126.984C126.431 121.552 125.317 115.018 125.34 107.381C125.34 99.7676 126.465 93.279 128.715 87.9153C130.988 82.5517 134.226 78.4722 138.431 75.6767C142.658 72.8585 147.692 71.4494 153.533 71.4494C159.374 71.4494 164.397 72.8585 168.601 75.6767C172.828 78.4949 176.078 82.5858 178.351 87.9494C180.624 93.2903 181.749 99.7676 181.726 107.381C181.726 115.04 180.59 121.586 178.317 127.018C176.067 132.449 172.84 136.597 168.635 139.461C164.431 142.324 159.397 143.756 153.533 143.756ZM153.533 131.518C157.533 131.518 160.726 129.506 163.113 125.484C165.499 121.461 166.681 115.427 166.658 107.381C166.658 102.086 166.113 97.6767 165.022 94.154C163.953 90.6313 162.431 87.9835 160.453 86.2108C158.499 84.4381 156.192 83.5517 153.533 83.5517C149.556 83.5517 146.374 85.5403 143.988 89.5176C141.601 93.4949 140.397 99.4494 140.374 107.381C140.374 112.745 140.908 117.222 141.976 120.813C143.067 124.381 144.601 127.063 146.578 128.859C148.556 130.631 150.874 131.518 153.533 131.518ZM207.147 143.756C201.283 143.734 196.238 142.29 192.01 139.427C187.806 136.563 184.567 132.415 182.294 126.984C180.044 121.552 178.931 115.018 178.954 107.381C178.954 99.7676 180.079 93.279 182.329 87.9153C184.601 82.5517 187.84 78.4722 192.044 75.6767C196.272 72.8585 201.306 71.4494 207.147 71.4494C212.988 71.4494 218.01 72.8585 222.215 75.6767C226.442 78.4949 229.692 82.5858 231.965 87.9494C234.238 93.2903 235.363 99.7676 235.34 107.381C235.34 115.04 234.204 121.586 231.931 127.018C229.681 132.449 226.454 136.597 222.249 139.461C218.044 142.324 213.01 143.756 207.147 143.756ZM207.147 131.518C211.147 131.518 214.34 129.506 216.726 125.484C219.113 121.461 220.294 115.427 220.272 107.381C220.272 102.086 219.726 97.6767 218.635 94.154C217.567 90.6313 216.044 87.9835 214.067 86.2108C212.113 84.4381 209.806 83.5517 207.147 83.5517C203.169 83.5517 199.988 85.5403 197.601 89.5176C195.215 93.4949 194.01 99.4494 193.988 107.381C193.988 112.745 194.522 117.222 195.59 120.813C196.681 124.381 198.215 127.063 200.192 128.859C202.169 130.631 204.488 131.518 207.147 131.518ZM251.499 134.949C251.499 136.484 251.222 137.809 250.668 138.927C250.114 140.044 249.354 140.906 248.388 141.512C247.423 142.118 246.319 142.421 245.079 142.421C243.838 142.421 242.735 142.118 241.769 141.512C240.803 140.906 240.043 140.044 239.489 138.927C238.935 137.809 238.658 136.484 238.658 134.949C238.658 133.415 238.935 132.09 239.489 130.972C240.043 129.855 240.803 128.993 241.769 128.387C242.735 127.781 243.838 127.478 245.079 127.478C246.319 127.478 247.423 127.781 248.388 128.387C249.354 128.993 250.114 129.855 250.668 130.972C251.222 132.09 251.499 133.415 251.499 134.949ZM249.795 134.949C249.795 133.69 249.584 132.627 249.163 131.761C248.746 130.894 248.18 130.238 247.465 129.793C246.755 129.348 245.959 129.126 245.079 129.126C244.198 129.126 243.4 129.348 242.685 129.793C241.975 130.238 241.409 130.894 240.988 131.761C240.571 132.627 240.363 133.69 240.363 134.949C240.363 136.209 240.571 137.272 240.988 138.138C241.409 139.005 241.975 139.661 242.685 140.106C243.4 140.551 244.198 140.773 245.079 140.773C245.959 140.773 246.755 140.551 247.465 140.106C248.18 139.661 248.746 139.005 249.163 138.138C249.584 137.272 249.795 136.209 249.795 134.949ZM254.461 142.222V127.677H263.182V129.239H256.222V134.154H262.529V135.716H256.222V142.222H254.461ZM266.199 142.222V127.677H274.921V129.239H267.961V134.154H274.267V135.716H267.961V142.222H266.199Z" fill="url(#paint0_linear_1_720)"/>
<path d="M66.3196 164.495C66.2514 163.919 65.9749 163.472 65.4901 163.154C65.0052 162.836 64.4105 162.677 63.706 162.677C63.1908 162.677 62.7401 162.76 62.3537 162.927C61.9711 163.093 61.6719 163.323 61.456 163.614C61.2438 163.906 61.1378 164.237 61.1378 164.609C61.1378 164.919 61.2116 165.186 61.3594 165.41C61.5109 165.629 61.7041 165.813 61.9389 165.961C62.1738 166.105 62.42 166.224 62.6776 166.319C62.9351 166.41 63.1719 166.484 63.3878 166.54L64.5696 166.859C64.8726 166.938 65.2098 167.048 65.581 167.188C65.956 167.328 66.3139 167.52 66.6548 167.762C66.9995 168.001 67.2836 168.307 67.5071 168.682C67.7306 169.057 67.8423 169.518 67.8423 170.063C67.8423 170.692 67.6776 171.26 67.348 171.768C67.0223 172.275 66.545 172.679 65.9162 172.978C65.2912 173.277 64.5317 173.427 63.6378 173.427C62.8045 173.427 62.0829 173.292 61.473 173.023C60.867 172.754 60.3897 172.379 60.0412 171.898C59.6965 171.417 59.5014 170.859 59.456 170.222H60.9105C60.9484 170.662 61.0961 171.025 61.3537 171.313C61.6151 171.597 61.9446 171.809 62.3423 171.949C62.7438 172.086 63.1757 172.154 63.6378 172.154C64.1757 172.154 64.6586 172.067 65.0866 171.893C65.5147 171.715 65.8537 171.468 66.1037 171.154C66.3537 170.836 66.4787 170.465 66.4787 170.04C66.4787 169.654 66.3707 169.34 66.1548 169.097C65.9389 168.855 65.6548 168.658 65.3026 168.506C64.9503 168.355 64.5696 168.222 64.1605 168.109L62.7287 167.699C61.8196 167.438 61.0999 167.065 60.5696 166.58C60.0393 166.095 59.7741 165.461 59.7741 164.677C59.7741 164.025 59.9503 163.457 60.3026 162.972C60.6586 162.484 61.1359 162.105 61.7344 161.836C62.3366 161.563 63.009 161.427 63.7514 161.427C64.5014 161.427 65.1681 161.561 65.7514 161.83C66.3348 162.095 66.7969 162.459 67.1378 162.921C67.4825 163.383 67.6643 163.908 67.6832 164.495H66.3196ZM69.9773 176.495V164.495H71.2727V165.881H71.4318C71.5303 165.73 71.6667 165.537 71.8409 165.302C72.0189 165.063 72.2727 164.851 72.6023 164.665C72.9356 164.476 73.3864 164.381 73.9545 164.381C74.6894 164.381 75.3371 164.565 75.8977 164.932C76.4583 165.3 76.8958 165.821 77.2102 166.495C77.5246 167.169 77.6818 167.965 77.6818 168.881C77.6818 169.806 77.5246 170.607 77.2102 171.285C76.8958 171.959 76.4602 172.482 75.9034 172.853C75.3466 173.22 74.7045 173.404 73.9773 173.404C73.4167 173.404 72.9678 173.311 72.6307 173.126C72.2936 172.936 72.0341 172.722 71.8523 172.484C71.6705 172.241 71.5303 172.04 71.4318 171.881H71.3182V176.495H69.9773ZM71.2955 168.859C71.2955 169.518 71.392 170.099 71.5852 170.603C71.7784 171.103 72.0606 171.495 72.4318 171.779C72.803 172.059 73.2576 172.199 73.7955 172.199C74.3561 172.199 74.8239 172.052 75.1989 171.756C75.5777 171.457 75.8617 171.056 76.0511 170.552C76.2443 170.044 76.3409 169.48 76.3409 168.859C76.3409 168.245 76.2462 167.692 76.0568 167.199C75.8712 166.703 75.589 166.311 75.2102 166.023C74.8352 165.732 74.3636 165.586 73.7955 165.586C73.25 165.586 72.7917 165.724 72.4205 166.001C72.0492 166.273 71.7689 166.656 71.5795 167.148C71.3902 167.637 71.2955 168.207 71.2955 168.859ZM79.7273 173.222V164.495H81.0227V165.813H81.1136C81.2727 165.381 81.5606 165.031 81.9773 164.762C82.3939 164.493 82.8636 164.359 83.3864 164.359C83.4848 164.359 83.608 164.36 83.7557 164.364C83.9034 164.368 84.0152 164.374 84.0909 164.381V165.745C84.0455 165.734 83.9413 165.716 83.7784 165.694C83.6193 165.667 83.4508 165.654 83.2727 165.654C82.8485 165.654 82.4697 165.743 82.1364 165.921C81.8068 166.095 81.5455 166.338 81.3523 166.648C81.1629 166.955 81.0682 167.306 81.0682 167.699V173.222H79.7273ZM85.6804 173.222V164.495H87.0213V173.222H85.6804ZM86.3622 163.04C86.1009 163.04 85.8755 162.951 85.6861 162.773C85.5005 162.595 85.4077 162.381 85.4077 162.131C85.4077 161.881 85.5005 161.667 85.6861 161.489C85.8755 161.311 86.1009 161.222 86.3622 161.222C86.6236 161.222 86.8471 161.311 87.0327 161.489C87.2221 161.667 87.3168 161.881 87.3168 162.131C87.3168 162.381 87.2221 162.595 87.0327 162.773C86.8471 162.951 86.6236 163.04 86.3622 163.04ZM90.8182 167.972V173.222H89.4773V164.495H90.7727V165.859H90.8864C91.0909 165.415 91.4015 165.059 91.8182 164.79C92.2348 164.518 92.7727 164.381 93.4318 164.381C94.0227 164.381 94.5398 164.502 94.983 164.745C95.4261 164.984 95.7708 165.347 96.017 165.836C96.2633 166.321 96.3864 166.934 96.3864 167.677V173.222H95.0455V167.768C95.0455 167.082 94.8674 166.548 94.5114 166.165C94.1553 165.779 93.6667 165.586 93.0455 165.586C92.6174 165.586 92.2348 165.679 91.8977 165.864C91.5644 166.05 91.3011 166.321 91.108 166.677C90.9148 167.033 90.8182 167.465 90.8182 167.972ZM102.359 176.677C101.712 176.677 101.155 176.593 100.689 176.427C100.223 176.264 99.8348 176.048 99.5241 175.779C99.2173 175.514 98.973 175.23 98.7912 174.927L99.8594 174.177C99.9806 174.336 100.134 174.518 100.32 174.722C100.505 174.931 100.759 175.11 101.081 175.262C101.407 175.417 101.833 175.495 102.359 175.495C103.064 175.495 103.645 175.324 104.104 174.984C104.562 174.643 104.791 174.109 104.791 173.381V171.609H104.678C104.579 171.768 104.439 171.965 104.257 172.199C104.079 172.431 103.821 172.637 103.484 172.819C103.151 172.997 102.7 173.086 102.132 173.086C101.428 173.086 100.795 172.919 100.234 172.586C99.6776 172.252 99.2363 171.768 98.9105 171.131C98.5885 170.495 98.4276 169.722 98.4276 168.813C98.4276 167.919 98.5848 167.141 98.8991 166.478C99.2135 165.811 99.651 165.296 100.212 164.932C100.772 164.565 101.42 164.381 102.155 164.381C102.723 164.381 103.174 164.476 103.507 164.665C103.844 164.851 104.102 165.063 104.28 165.302C104.462 165.537 104.602 165.73 104.7 165.881H104.837V164.495H106.132V173.472C106.132 174.222 105.962 174.832 105.621 175.302C105.284 175.775 104.829 176.122 104.257 176.341C103.689 176.565 103.056 176.677 102.359 176.677ZM102.314 171.881C102.852 171.881 103.306 171.758 103.678 171.512C104.049 171.266 104.331 170.912 104.524 170.449C104.717 169.987 104.814 169.434 104.814 168.79C104.814 168.162 104.719 167.607 104.53 167.126C104.34 166.645 104.06 166.268 103.689 165.995C103.318 165.722 102.859 165.586 102.314 165.586C101.746 165.586 101.272 165.73 100.893 166.018C100.518 166.306 100.236 166.692 100.047 167.177C99.8613 167.662 99.7685 168.199 99.7685 168.79C99.7685 169.396 99.8632 169.932 100.053 170.398C100.246 170.86 100.53 171.224 100.905 171.489C101.284 171.751 101.753 171.881 102.314 171.881ZM115.655 173.427C115.102 173.427 114.6 173.323 114.149 173.114C113.698 172.902 113.34 172.597 113.075 172.199C112.81 171.798 112.678 171.313 112.678 170.745C112.678 170.245 112.776 169.84 112.973 169.529C113.17 169.215 113.433 168.968 113.763 168.79C114.092 168.612 114.456 168.48 114.854 168.393C115.255 168.302 115.659 168.23 116.064 168.177C116.594 168.109 117.024 168.057 117.354 168.023C117.687 167.985 117.929 167.923 118.081 167.836C118.236 167.749 118.314 167.597 118.314 167.381V167.336C118.314 166.775 118.161 166.34 117.854 166.029C117.551 165.718 117.09 165.563 116.473 165.563C115.833 165.563 115.331 165.703 114.967 165.984C114.604 166.264 114.348 166.563 114.2 166.881L112.928 166.427C113.155 165.896 113.458 165.484 113.837 165.188C114.219 164.889 114.636 164.681 115.087 164.563C115.541 164.442 115.988 164.381 116.428 164.381C116.708 164.381 117.03 164.415 117.393 164.484C117.761 164.548 118.115 164.682 118.456 164.887C118.801 165.091 119.087 165.4 119.314 165.813C119.541 166.226 119.655 166.779 119.655 167.472V173.222H118.314V172.04H118.246C118.155 172.23 118.003 172.432 117.791 172.648C117.579 172.864 117.297 173.048 116.945 173.199C116.592 173.351 116.162 173.427 115.655 173.427ZM115.859 172.222C116.39 172.222 116.837 172.118 117.2 171.91C117.568 171.701 117.844 171.432 118.03 171.103C118.219 170.773 118.314 170.427 118.314 170.063V168.836C118.257 168.904 118.132 168.966 117.939 169.023C117.75 169.076 117.53 169.124 117.28 169.165C117.034 169.203 116.793 169.237 116.558 169.268C116.327 169.294 116.14 169.317 115.996 169.336C115.647 169.381 115.321 169.455 115.018 169.557C114.719 169.656 114.477 169.806 114.291 170.006C114.109 170.203 114.018 170.472 114.018 170.813C114.018 171.279 114.191 171.631 114.536 171.87C114.884 172.105 115.325 172.222 115.859 172.222ZM123.443 167.972V173.222H122.102V164.495H123.398V165.859H123.511C123.716 165.415 124.027 165.059 124.443 164.79C124.86 164.518 125.398 164.381 126.057 164.381C126.648 164.381 127.165 164.502 127.608 164.745C128.051 164.984 128.396 165.347 128.642 165.836C128.888 166.321 129.011 166.934 129.011 167.677V173.222H127.67V167.768C127.67 167.082 127.492 166.548 127.136 166.165C126.78 165.779 126.292 165.586 125.67 165.586C125.242 165.586 124.86 165.679 124.523 165.864C124.189 166.05 123.926 166.321 123.733 166.677C123.54 167.033 123.443 167.465 123.443 167.972ZM134.757 173.404C134.03 173.404 133.388 173.22 132.831 172.853C132.274 172.482 131.839 171.959 131.524 171.285C131.21 170.607 131.053 169.806 131.053 168.881C131.053 167.965 131.21 167.169 131.524 166.495C131.839 165.821 132.276 165.3 132.837 164.932C133.397 164.565 134.045 164.381 134.78 164.381C135.348 164.381 135.797 164.476 136.126 164.665C136.46 164.851 136.714 165.063 136.888 165.302C137.066 165.537 137.204 165.73 137.303 165.881H137.416V161.586H138.757V173.222H137.462V171.881H137.303C137.204 172.04 137.064 172.241 136.882 172.484C136.7 172.722 136.441 172.936 136.104 173.126C135.767 173.311 135.318 173.404 134.757 173.404ZM134.939 172.199C135.477 172.199 135.931 172.059 136.303 171.779C136.674 171.495 136.956 171.103 137.149 170.603C137.342 170.099 137.439 169.518 137.439 168.859C137.439 168.207 137.344 167.637 137.155 167.148C136.965 166.656 136.685 166.273 136.314 166.001C135.943 165.724 135.484 165.586 134.939 165.586C134.371 165.586 133.897 165.732 133.518 166.023C133.143 166.311 132.861 166.703 132.672 167.199C132.486 167.692 132.393 168.245 132.393 168.859C132.393 169.48 132.488 170.044 132.678 170.552C132.871 171.056 133.155 171.457 133.53 171.756C133.909 172.052 134.378 172.199 134.939 172.199ZM155.445 165.222H154.036C153.952 164.817 153.806 164.461 153.598 164.154C153.393 163.847 153.143 163.59 152.848 163.381C152.556 163.169 152.232 163.01 151.876 162.904C151.52 162.798 151.149 162.745 150.763 162.745C150.058 162.745 149.42 162.923 148.848 163.279C148.28 163.635 147.827 164.16 147.49 164.853C147.157 165.546 146.99 166.396 146.99 167.404C146.99 168.412 147.157 169.262 147.49 169.955C147.827 170.648 148.28 171.173 148.848 171.529C149.42 171.885 150.058 172.063 150.763 172.063C151.149 172.063 151.52 172.01 151.876 171.904C152.232 171.798 152.556 171.641 152.848 171.432C153.143 171.22 153.393 170.961 153.598 170.654C153.806 170.343 153.952 169.987 154.036 169.586H155.445C155.339 170.181 155.145 170.713 154.865 171.182C154.585 171.652 154.236 172.052 153.82 172.381C153.403 172.707 152.935 172.955 152.416 173.126C151.901 173.296 151.35 173.381 150.763 173.381C149.77 173.381 148.888 173.139 148.115 172.654C147.342 172.169 146.734 171.48 146.291 170.586C145.848 169.692 145.626 168.631 145.626 167.404C145.626 166.177 145.848 165.116 146.291 164.222C146.734 163.328 147.342 162.639 148.115 162.154C148.888 161.669 149.77 161.427 150.763 161.427C151.35 161.427 151.901 161.512 152.416 161.682C152.935 161.853 153.403 162.103 153.82 162.432C154.236 162.758 154.585 163.156 154.865 163.626C155.145 164.091 155.339 164.624 155.445 165.222ZM160.108 173.427C159.555 173.427 159.053 173.323 158.602 173.114C158.152 172.902 157.794 172.597 157.528 172.199C157.263 171.798 157.131 171.313 157.131 170.745C157.131 170.245 157.229 169.84 157.426 169.529C157.623 169.215 157.886 168.968 158.216 168.79C158.545 168.612 158.909 168.48 159.307 168.393C159.708 168.302 160.112 168.23 160.517 168.177C161.047 168.109 161.477 168.057 161.807 168.023C162.14 167.985 162.383 167.923 162.534 167.836C162.689 167.749 162.767 167.597 162.767 167.381V167.336C162.767 166.775 162.614 166.34 162.307 166.029C162.004 165.718 161.544 165.563 160.926 165.563C160.286 165.563 159.784 165.703 159.42 165.984C159.057 166.264 158.801 166.563 158.653 166.881L157.381 166.427C157.608 165.896 157.911 165.484 158.29 165.188C158.672 164.889 159.089 164.681 159.54 164.563C159.994 164.442 160.441 164.381 160.881 164.381C161.161 164.381 161.483 164.415 161.847 164.484C162.214 164.548 162.568 164.682 162.909 164.887C163.254 165.091 163.54 165.4 163.767 165.813C163.994 166.226 164.108 166.779 164.108 167.472V173.222H162.767V172.04H162.699C162.608 172.23 162.456 172.432 162.244 172.648C162.032 172.864 161.75 173.048 161.398 173.199C161.045 173.351 160.616 173.427 160.108 173.427ZM160.312 172.222C160.843 172.222 161.29 172.118 161.653 171.91C162.021 171.701 162.297 171.432 162.483 171.103C162.672 170.773 162.767 170.427 162.767 170.063V168.836C162.71 168.904 162.585 168.966 162.392 169.023C162.203 169.076 161.983 169.124 161.733 169.165C161.487 169.203 161.246 169.237 161.011 169.268C160.78 169.294 160.593 169.317 160.449 169.336C160.1 169.381 159.775 169.455 159.472 169.557C159.172 169.656 158.93 169.806 158.744 170.006C158.563 170.203 158.472 170.472 158.472 170.813C158.472 171.279 158.644 171.631 158.989 171.87C159.337 172.105 159.778 172.222 160.312 172.222ZM166.737 173.222V161.586H168.078V165.881H168.192C168.29 165.73 168.427 165.537 168.601 165.302C168.779 165.063 169.033 164.851 169.362 164.665C169.696 164.476 170.146 164.381 170.714 164.381C171.449 164.381 172.097 164.565 172.658 164.932C173.218 165.3 173.656 165.821 173.97 166.495C174.285 167.169 174.442 167.965 174.442 168.881C174.442 169.806 174.285 170.607 173.97 171.285C173.656 171.959 173.22 172.482 172.663 172.853C172.107 173.22 171.464 173.404 170.737 173.404C170.177 173.404 169.728 173.311 169.391 173.126C169.054 172.936 168.794 172.722 168.612 172.484C168.43 172.241 168.29 172.04 168.192 171.881H168.033V173.222H166.737ZM168.055 168.859C168.055 169.518 168.152 170.099 168.345 170.603C168.538 171.103 168.821 171.495 169.192 171.779C169.563 172.059 170.018 172.199 170.555 172.199C171.116 172.199 171.584 172.052 171.959 171.756C172.338 171.457 172.622 171.056 172.811 170.552C173.004 170.044 173.101 169.48 173.101 168.859C173.101 168.245 173.006 167.692 172.817 167.199C172.631 166.703 172.349 166.311 171.97 166.023C171.595 165.732 171.124 165.586 170.555 165.586C170.01 165.586 169.552 165.724 169.18 166.001C168.809 166.273 168.529 166.656 168.339 167.148C168.15 167.637 168.055 168.207 168.055 168.859ZM177.834 161.586V173.222H176.493V161.586H177.834ZM183.949 173.404C183.108 173.404 182.383 173.218 181.773 172.847C181.167 172.472 180.699 171.949 180.369 171.279C180.044 170.605 179.881 169.821 179.881 168.927C179.881 168.033 180.044 167.245 180.369 166.563C180.699 165.877 181.157 165.343 181.744 164.961C182.335 164.574 183.025 164.381 183.812 164.381C184.267 164.381 184.716 164.457 185.159 164.609C185.602 164.76 186.006 165.006 186.369 165.347C186.733 165.684 187.023 166.131 187.239 166.688C187.455 167.245 187.562 167.931 187.562 168.745V169.313H180.835V168.154H186.199C186.199 167.662 186.1 167.222 185.903 166.836C185.71 166.449 185.434 166.145 185.074 165.921C184.718 165.698 184.297 165.586 183.812 165.586C183.278 165.586 182.816 165.718 182.426 165.984C182.04 166.245 181.742 166.586 181.534 167.006C181.326 167.427 181.222 167.877 181.222 168.359V169.131C181.222 169.79 181.335 170.349 181.562 170.807C181.794 171.262 182.114 171.609 182.523 171.847C182.932 172.082 183.407 172.199 183.949 172.199C184.301 172.199 184.619 172.15 184.903 172.052C185.191 171.949 185.439 171.798 185.648 171.597C185.856 171.393 186.017 171.139 186.131 170.836L187.426 171.199C187.29 171.639 187.061 172.025 186.739 172.359C186.417 172.688 186.019 172.946 185.545 173.131C185.072 173.313 184.54 173.404 183.949 173.404ZM203.648 165.222H202.239C202.155 164.817 202.009 164.461 201.801 164.154C201.597 163.847 201.347 163.59 201.051 163.381C200.759 163.169 200.436 163.01 200.08 162.904C199.723 162.798 199.352 162.745 198.966 162.745C198.261 162.745 197.623 162.923 197.051 163.279C196.483 163.635 196.03 164.16 195.693 164.853C195.36 165.546 195.193 166.396 195.193 167.404C195.193 168.412 195.36 169.262 195.693 169.955C196.03 170.648 196.483 171.173 197.051 171.529C197.623 171.885 198.261 172.063 198.966 172.063C199.352 172.063 199.723 172.01 200.08 171.904C200.436 171.798 200.759 171.641 201.051 171.432C201.347 171.22 201.597 170.961 201.801 170.654C202.009 170.343 202.155 169.987 202.239 169.586H203.648C203.542 170.181 203.348 170.713 203.068 171.182C202.788 171.652 202.439 172.052 202.023 172.381C201.606 172.707 201.138 172.955 200.619 173.126C200.104 173.296 199.553 173.381 198.966 173.381C197.973 173.381 197.091 173.139 196.318 172.654C195.545 172.169 194.938 171.48 194.494 170.586C194.051 169.692 193.83 168.631 193.83 167.404C193.83 166.177 194.051 165.116 194.494 164.222C194.938 163.328 195.545 162.639 196.318 162.154C197.091 161.669 197.973 161.427 198.966 161.427C199.553 161.427 200.104 161.512 200.619 161.682C201.138 161.853 201.606 162.103 202.023 162.432C202.439 162.758 202.788 163.156 203.068 163.626C203.348 164.091 203.542 164.624 203.648 165.222ZM209.288 173.404C208.5 173.404 207.809 173.216 207.214 172.841C206.624 172.466 206.161 171.942 205.828 171.268C205.499 170.593 205.334 169.806 205.334 168.904C205.334 167.995 205.499 167.201 205.828 166.523C206.161 165.845 206.624 165.319 207.214 164.944C207.809 164.569 208.5 164.381 209.288 164.381C210.076 164.381 210.766 164.569 211.357 164.944C211.951 165.319 212.413 165.845 212.743 166.523C213.076 167.201 213.243 167.995 213.243 168.904C213.243 169.806 213.076 170.593 212.743 171.268C212.413 171.942 211.951 172.466 211.357 172.841C210.766 173.216 210.076 173.404 209.288 173.404ZM209.288 172.199C209.887 172.199 210.379 172.046 210.766 171.739C211.152 171.432 211.438 171.029 211.624 170.529C211.809 170.029 211.902 169.487 211.902 168.904C211.902 168.321 211.809 167.777 211.624 167.273C211.438 166.77 211.152 166.362 210.766 166.052C210.379 165.741 209.887 165.586 209.288 165.586C208.69 165.586 208.197 165.741 207.811 166.052C207.425 166.362 207.139 166.77 206.953 167.273C206.768 167.777 206.675 168.321 206.675 168.904C206.675 169.487 206.768 170.029 206.953 170.529C207.139 171.029 207.425 171.432 207.811 171.739C208.197 172.046 208.69 172.199 209.288 172.199ZM215.29 173.222V164.495H216.585V165.859H216.699C216.881 165.393 217.174 165.031 217.58 164.773C217.985 164.512 218.472 164.381 219.04 164.381C219.616 164.381 220.095 164.512 220.477 164.773C220.864 165.031 221.165 165.393 221.381 165.859H221.472C221.695 165.408 222.03 165.05 222.477 164.785C222.924 164.516 223.46 164.381 224.085 164.381C224.866 164.381 225.504 164.626 226 165.114C226.496 165.599 226.744 166.355 226.744 167.381V173.222H225.403V167.381C225.403 166.737 225.227 166.277 224.875 166.001C224.523 165.724 224.108 165.586 223.631 165.586C223.017 165.586 222.542 165.771 222.205 166.143C221.867 166.51 221.699 166.976 221.699 167.54V173.222H220.335V167.245C220.335 166.749 220.174 166.349 219.852 166.046C219.53 165.739 219.116 165.586 218.608 165.586C218.259 165.586 217.934 165.679 217.631 165.864C217.331 166.05 217.089 166.307 216.903 166.637C216.722 166.963 216.631 167.34 216.631 167.768V173.222H215.29ZM229.378 173.222V161.586H230.719V165.881H230.832C230.931 165.73 231.067 165.537 231.241 165.302C231.42 165.063 231.673 164.851 232.003 164.665C232.336 164.476 232.787 164.381 233.355 164.381C234.09 164.381 234.738 164.565 235.298 164.932C235.859 165.3 236.296 165.821 236.611 166.495C236.925 167.169 237.082 167.965 237.082 168.881C237.082 169.806 236.925 170.607 236.611 171.285C236.296 171.959 235.861 172.482 235.304 172.853C234.747 173.22 234.105 173.404 233.378 173.404C232.817 173.404 232.368 173.311 232.031 173.126C231.694 172.936 231.435 172.722 231.253 172.484C231.071 172.241 230.931 172.04 230.832 171.881H230.673V173.222H229.378ZM230.696 168.859C230.696 169.518 230.793 170.099 230.986 170.603C231.179 171.103 231.461 171.495 231.832 171.779C232.204 172.059 232.658 172.199 233.196 172.199C233.757 172.199 234.224 172.052 234.599 171.756C234.978 171.457 235.262 171.056 235.452 170.552C235.645 170.044 235.741 169.48 235.741 168.859C235.741 168.245 235.647 167.692 235.457 167.199C235.272 166.703 234.99 166.311 234.611 166.023C234.236 165.732 233.764 165.586 233.196 165.586C232.651 165.586 232.192 165.724 231.821 166.001C231.45 166.273 231.17 166.656 230.98 167.148C230.791 167.637 230.696 168.207 230.696 168.859ZM242.679 173.404C241.891 173.404 241.2 173.216 240.605 172.841C240.014 172.466 239.552 171.942 239.219 171.268C238.889 170.593 238.724 169.806 238.724 168.904C238.724 167.995 238.889 167.201 239.219 166.523C239.552 165.845 240.014 165.319 240.605 164.944C241.2 164.569 241.891 164.381 242.679 164.381C243.467 164.381 244.156 164.569 244.747 164.944C245.342 165.319 245.804 165.845 246.134 166.523C246.467 167.201 246.634 167.995 246.634 168.904C246.634 169.806 246.467 170.593 246.134 171.268C245.804 171.942 245.342 172.466 244.747 172.841C244.156 173.216 243.467 173.404 242.679 173.404ZM242.679 172.199C243.277 172.199 243.77 172.046 244.156 171.739C244.543 171.432 244.829 171.029 245.014 170.529C245.2 170.029 245.293 169.487 245.293 168.904C245.293 168.321 245.2 167.777 245.014 167.273C244.829 166.77 244.543 166.362 244.156 166.052C243.77 165.741 243.277 165.586 242.679 165.586C242.08 165.586 241.588 165.741 241.202 166.052C240.815 166.362 240.529 166.77 240.344 167.273C240.158 167.777 240.065 168.321 240.065 168.904C240.065 169.487 240.158 170.029 240.344 170.529C240.529 171.029 240.815 171.432 241.202 171.739C241.588 172.046 242.08 172.199 242.679 172.199Z" fill="black"/>
<path fill-rule="evenodd" clip-rule="evenodd" d="M283.036 11.8887H281.964V18.5091L277.576 13.8278L276.818 14.6359L281.207 19.3172H275V20.4601H281.207L276.818 25.1415L277.576 25.9496L281.964 21.2682V27.8887H283.036V21.2682L287.425 25.9496L288.182 25.1415L283.793 20.4601H290V19.3172H283.793L288.182 14.6359L287.425 13.8278L283.036 18.5091V11.8887Z" fill="#C1554E"/>
</g>
<defs>
<linearGradient id="paint0_linear_1_720" x1="135.548" y1="72.2222" x2="140.961" y2="151.37" gradientUnits="userSpaceOnUse">
<stop offset="0.630979" stop-color="#C1554E"/>
<stop offset="1" stop-color="#F4C5C1"/>
</linearGradient>
<clipPath id="clip0_1_720">
<rect width="315" height="216" fill="white" transform="translate(0 0.222168)"/>
</clipPath>
</defs>
</svg>
