<svg width="315" height="216" viewBox="0 0 315 216" fill="none" xmlns="http://www.w3.org/2000/svg">
<g clip-path="url(#clip0_1_648)">
<rect width="315" height="216" fill="white"/>
<path d="M0 33L315 33" stroke="#CACACA" stroke-width="0.783582"/>
<path d="M16 33L16 216" stroke="#CACACA" stroke-width="0.5"/>
<path d="M289.926 33L289.926 216.358" stroke="#CACACA" stroke-width="0.783582"/>
<path d="M28.6477 16.2898H26.5568C26.5568 15.9413 26.5 15.6326 26.3864 15.3636C26.2727 15.0909 26.1136 14.8598 25.9091 14.6705C25.7045 14.4811 25.4621 14.339 25.1818 14.2443C24.9015 14.1458 24.5909 14.0966 24.25 14.0966C23.5985 14.0966 22.9924 14.2614 22.4318 14.5909C21.8712 14.9205 21.3958 15.3996 21.0057 16.0284C20.6155 16.6534 20.3447 17.4129 20.1932 18.3068C20.053 19.178 20.0663 19.9072 20.233 20.4943C20.4034 21.0814 20.6989 21.5246 21.1193 21.8239C21.5398 22.1193 22.0511 22.267 22.6534 22.267C23.0208 22.267 23.3731 22.2216 23.7102 22.1307C24.0473 22.036 24.358 21.8977 24.642 21.7159C24.9299 21.5303 25.1818 21.3049 25.3977 21.0398C25.6174 20.7746 25.7879 20.4735 25.9091 20.1364H28.0284C27.8542 20.6894 27.5985 21.2102 27.2614 21.6989C26.9242 22.1837 26.5189 22.6117 26.0455 22.983C25.572 23.3504 25.0417 23.6383 24.4545 23.8466C23.8674 24.0549 23.2348 24.1591 22.5568 24.1591C21.5152 24.1591 20.6231 23.9167 19.8807 23.4318C19.142 22.9432 18.6117 22.2443 18.2898 21.3352C17.9678 20.4223 17.911 19.3295 18.1193 18.0568C18.3277 16.8182 18.7292 15.7633 19.3239 14.892C19.9223 14.0208 20.6515 13.3561 21.5114 12.8977C22.375 12.4356 23.3049 12.2045 24.3011 12.2045C24.9602 12.2045 25.5587 12.2955 26.0966 12.4773C26.6383 12.6591 27.1023 12.9261 27.4886 13.2784C27.875 13.6269 28.1686 14.0549 28.3693 14.5625C28.5739 15.0663 28.6667 15.642 28.6477 16.2898ZM33.0497 24.1705C32.1899 24.1705 31.474 23.9811 30.902 23.6023C30.3338 23.2235 29.9342 22.6913 29.7031 22.0057C29.4721 21.3201 29.4304 20.5246 29.5781 19.6193C29.7259 18.7254 30.0213 17.9432 30.4645 17.2727C30.9115 16.6023 31.474 16.0833 32.152 15.7159C32.8338 15.3447 33.5971 15.1591 34.4418 15.1591C35.3016 15.1591 36.0156 15.3504 36.5838 15.733C37.152 16.1117 37.5516 16.6439 37.7827 17.3295C38.0175 18.0152 38.0611 18.8144 37.9134 19.7273C37.7694 20.6174 37.4721 21.3958 37.0213 22.0625C36.5743 22.7292 36.0118 23.2481 35.3338 23.6193C34.6558 23.9867 33.8944 24.1705 33.0497 24.1705ZM33.2202 22.5227C33.6974 22.5227 34.116 22.3939 34.4759 22.1364C34.8395 21.875 35.1368 21.5246 35.3679 21.0852C35.6027 20.642 35.7656 20.1496 35.8565 19.608C35.9399 19.0852 35.9418 18.6117 35.8622 18.1875C35.7827 17.7595 35.6122 17.4205 35.3509 17.1705C35.0933 16.9167 34.7353 16.7898 34.277 16.7898C33.7997 16.7898 33.3774 16.9223 33.0099 17.1875C32.6463 17.4489 32.349 17.8011 32.1179 18.2443C31.8868 18.6837 31.7277 19.1742 31.6406 19.7159C31.5535 20.2386 31.5497 20.7121 31.6293 21.1364C31.7088 21.5606 31.8793 21.8977 32.1406 22.1477C32.402 22.3977 32.7618 22.5227 33.2202 22.5227ZM45.125 20.3295L45.9716 15.2727H48.0284L46.5739 24H44.5795L44.8409 22.4489H44.75C44.4773 22.9375 44.0871 23.3371 43.5795 23.6477C43.0758 23.9583 42.4962 24.1136 41.8409 24.1136C41.2689 24.1136 40.786 23.9867 40.392 23.733C39.9981 23.4754 39.7178 23.1023 39.5511 22.6136C39.3883 22.1212 39.3636 21.5265 39.4773 20.8295L40.4091 15.2727H42.4659L41.5909 20.5114C41.5038 21.0644 41.5833 21.5038 41.8295 21.8295C42.0795 22.1553 42.4508 22.3182 42.9432 22.3182C43.2462 22.3182 43.5511 22.2443 43.858 22.0966C44.1686 21.9489 44.4394 21.7292 44.6705 21.4375C44.9015 21.142 45.053 20.7727 45.125 20.3295ZM48.1491 27.2727L50.1605 15.2727H52.1832L51.9503 16.7159H52.0696C52.206 16.5038 52.3897 16.2784 52.6207 16.0398C52.8556 15.7973 53.1529 15.5909 53.5128 15.4205C53.8726 15.2462 54.3101 15.1591 54.8253 15.1591C55.4957 15.1591 56.0734 15.3314 56.5582 15.6761C57.0431 16.017 57.3897 16.5227 57.598 17.1932C57.8101 17.8598 57.8366 18.678 57.6776 19.6477C57.5185 20.6061 57.2249 21.4205 56.7969 22.0909C56.3688 22.7614 55.8556 23.2727 55.2571 23.625C54.6586 23.9773 54.0166 24.1534 53.331 24.1534C52.831 24.1534 52.4276 24.0701 52.1207 23.9034C51.8177 23.7367 51.5885 23.536 51.4332 23.3011C51.2779 23.0625 51.1624 22.8371 51.0866 22.625H50.9957L50.223 27.2727H48.1491ZM51.4503 19.6364C51.3594 20.2008 51.3575 20.6951 51.4446 21.1193C51.5355 21.5436 51.7154 21.875 51.9844 22.1136C52.2533 22.3485 52.6056 22.4659 53.0412 22.4659C53.4957 22.4659 53.8935 22.3447 54.2344 22.1023C54.5791 21.8561 54.8651 21.5208 55.0923 21.0966C55.3234 20.6686 55.4863 20.1818 55.581 19.6364C55.6681 19.0947 55.6681 18.6136 55.581 18.1932C55.4938 17.7727 55.3177 17.4432 55.0526 17.2045C54.7874 16.9659 54.4276 16.8466 53.973 16.8466C53.5298 16.8466 53.134 16.9621 52.7855 17.1932C52.4408 17.4242 52.1548 17.7481 51.9276 18.1648C51.7003 18.5814 51.5412 19.072 51.4503 19.6364ZM62.5341 24.1705C61.6742 24.1705 60.9583 23.9811 60.3864 23.6023C59.8182 23.2235 59.4186 22.6913 59.1875 22.0057C58.9564 21.3201 58.9148 20.5246 59.0625 19.6193C59.2102 18.7254 59.5057 17.9432 59.9489 17.2727C60.3958 16.6023 60.9583 16.0833 61.6364 15.7159C62.3182 15.3447 63.0814 15.1591 63.9261 15.1591C64.786 15.1591 65.5 15.3504 66.0682 15.733C66.6364 16.1117 67.036 16.6439 67.267 17.3295C67.5019 18.0152 67.5455 18.8144 67.3977 19.7273C67.2538 20.6174 66.9564 21.3958 66.5057 22.0625C66.0587 22.7292 65.4962 23.2481 64.8182 23.6193C64.1402 23.9867 63.3788 24.1705 62.5341 24.1705ZM62.7045 22.5227C63.1818 22.5227 63.6004 22.3939 63.9602 22.1364C64.3239 21.875 64.6212 21.5246 64.8523 21.0852C65.0871 20.642 65.25 20.1496 65.3409 19.608C65.4242 19.0852 65.4261 18.6117 65.3466 18.1875C65.267 17.7595 65.0966 17.4205 64.8352 17.1705C64.5777 16.9167 64.2197 16.7898 63.7614 16.7898C63.2841 16.7898 62.8617 16.9223 62.4943 17.1875C62.1307 17.4489 61.8333 17.8011 61.6023 18.2443C61.3712 18.6837 61.2121 19.1742 61.125 19.7159C61.0379 20.2386 61.0341 20.7121 61.1136 21.1364C61.1932 21.5606 61.3636 21.8977 61.625 22.1477C61.8864 22.3977 62.2462 22.5227 62.7045 22.5227ZM71.348 18.8864L70.5071 24H68.4446L69.8991 15.2727H71.8707L71.6207 16.7557H71.7287C72.0014 16.267 72.384 15.8788 72.8764 15.5909C73.3688 15.303 73.9427 15.1591 74.598 15.1591C75.1927 15.1591 75.6927 15.2879 76.098 15.5455C76.5033 15.7992 76.7912 16.1723 76.9616 16.6648C77.1321 17.1534 77.1586 17.7462 77.0412 18.4432L76.1094 24H74.0526L74.9219 18.7614C75.0204 18.1818 74.9465 17.7273 74.7003 17.3977C74.4579 17.0644 74.0677 16.8977 73.5298 16.8977C73.17 16.8977 72.8385 16.9773 72.5355 17.1364C72.2325 17.2917 71.9768 17.517 71.7685 17.8125C71.5639 18.108 71.4238 18.4659 71.348 18.8864Z" fill="black"/>
<path d="M58.9375 150.727V63.4545H64.5285V150.727H58.9375ZM73.7671 92.2614C73.4944 89.5114 72.3239 87.375 70.2557 85.8523C68.1875 84.3295 65.3807 83.5682 61.8353 83.5682C59.4262 83.5682 57.3921 83.9091 55.733 84.5909C54.0739 85.25 52.8012 86.1705 51.9148 87.3523C51.0512 88.5341 50.6194 89.875 50.6194 91.375C50.5739 92.625 50.8353 93.7159 51.4035 94.6477C51.9944 95.5795 52.8012 96.3864 53.8239 97.0682C54.8466 97.7273 56.0285 98.3068 57.3694 98.8068C58.7103 99.2841 60.1421 99.6932 61.6648 100.034L67.9375 101.534C70.983 102.216 73.7785 103.125 76.3239 104.261C78.8694 105.398 81.0739 106.795 82.9375 108.455C84.8012 110.114 86.2444 112.068 87.2671 114.318C88.3125 116.568 88.8466 119.148 88.8694 122.057C88.8466 126.33 87.7557 130.034 85.5966 133.17C83.4603 136.284 80.3694 138.705 76.3239 140.432C72.3012 142.136 67.4489 142.989 61.7671 142.989C56.1307 142.989 51.2216 142.125 47.0398 140.398C42.8807 138.67 39.6307 136.114 37.2898 132.727C34.9716 129.318 33.7557 125.102 33.6421 120.08H47.9262C48.0853 122.42 48.7557 124.375 49.9375 125.943C51.1421 127.489 52.7444 128.659 54.7444 129.455C56.7671 130.227 59.0512 130.614 61.5966 130.614C64.0966 130.614 66.2671 130.25 68.108 129.523C69.9716 128.795 71.4148 127.784 72.4375 126.489C73.4603 125.193 73.9716 123.705 73.9716 122.023C73.9716 120.455 73.5057 119.136 72.5739 118.068C71.6648 117 70.3239 116.091 68.5512 115.341C66.8012 114.591 64.6535 113.909 62.108 113.295L54.5057 111.386C48.6194 109.955 43.9716 107.716 40.5625 104.67C37.1535 101.625 35.4603 97.5227 35.483 92.3636C35.4603 88.1364 36.5853 84.4432 38.858 81.2841C41.1535 78.125 44.3012 75.6591 48.3012 73.8864C52.3012 72.1136 56.8466 71.2273 61.9375 71.2273C67.1194 71.2273 71.6421 72.1136 75.5057 73.8864C79.3921 75.6591 82.4148 78.125 84.5739 81.2841C86.733 84.4432 87.8466 88.1023 87.9148 92.2614H73.7671ZM122.044 72.1818V142H107.283V86.1932H106.874L90.8852 96.2159V83.125L108.169 72.1818H122.044ZM153.533 143.534C147.669 143.511 142.624 142.068 138.397 139.205C134.192 136.341 130.953 132.193 128.681 126.761C126.431 121.33 125.317 114.795 125.34 107.159C125.34 99.5455 126.465 93.0568 128.715 87.6932C130.988 82.3295 134.226 78.25 138.431 75.4545C142.658 72.6364 147.692 71.2273 153.533 71.2273C159.374 71.2273 164.397 72.6364 168.601 75.4545C172.828 78.2727 176.078 82.3636 178.351 87.7273C180.624 93.0682 181.749 99.5455 181.726 107.159C181.726 114.818 180.59 121.364 178.317 126.795C176.067 132.227 172.84 136.375 168.635 139.239C164.431 142.102 159.397 143.534 153.533 143.534ZM153.533 131.295C157.533 131.295 160.726 129.284 163.113 125.261C165.499 121.239 166.681 115.205 166.658 107.159C166.658 101.864 166.113 97.4545 165.022 93.9318C163.953 90.4091 162.431 87.7614 160.453 85.9886C158.499 84.2159 156.192 83.3295 153.533 83.3295C149.556 83.3295 146.374 85.3182 143.988 89.2955C141.601 93.2727 140.397 99.2273 140.374 107.159C140.374 112.523 140.908 117 141.976 120.591C143.067 124.159 144.601 126.841 146.578 128.636C148.556 130.409 150.874 131.295 153.533 131.295ZM207.147 143.534C201.283 143.511 196.238 142.068 192.01 139.205C187.806 136.341 184.567 132.193 182.294 126.761C180.044 121.33 178.931 114.795 178.954 107.159C178.954 99.5455 180.079 93.0568 182.329 87.6932C184.601 82.3295 187.84 78.25 192.044 75.4545C196.272 72.6364 201.306 71.2273 207.147 71.2273C212.988 71.2273 218.01 72.6364 222.215 75.4545C226.442 78.2727 229.692 82.3636 231.965 87.7273C234.238 93.0682 235.363 99.5455 235.34 107.159C235.34 114.818 234.204 121.364 231.931 126.795C229.681 132.227 226.454 136.375 222.249 139.239C218.044 142.102 213.01 143.534 207.147 143.534ZM207.147 131.295C211.147 131.295 214.34 129.284 216.726 125.261C219.113 121.239 220.294 115.205 220.272 107.159C220.272 101.864 219.726 97.4545 218.635 93.9318C217.567 90.4091 216.044 87.7614 214.067 85.9886C212.113 84.2159 209.806 83.3295 207.147 83.3295C203.169 83.3295 199.988 85.3182 197.601 89.2955C195.215 93.2727 194.01 99.2273 193.988 107.159C193.988 112.523 194.522 117 195.59 120.591C196.681 124.159 198.215 126.841 200.192 128.636C202.169 130.409 204.488 131.295 207.147 131.295ZM251.499 134.727C251.499 136.261 251.222 137.587 250.668 138.705C250.114 139.822 249.354 140.684 248.388 141.29C247.423 141.896 246.319 142.199 245.079 142.199C243.838 142.199 242.735 141.896 241.769 141.29C240.803 140.684 240.043 139.822 239.489 138.705C238.935 137.587 238.658 136.261 238.658 134.727C238.658 133.193 238.935 131.867 239.489 130.75C240.043 129.633 240.803 128.771 241.769 128.165C242.735 127.559 243.838 127.256 245.079 127.256C246.319 127.256 247.423 127.559 248.388 128.165C249.354 128.771 250.114 129.633 250.668 130.75C251.222 131.867 251.499 133.193 251.499 134.727ZM249.795 134.727C249.795 133.468 249.584 132.405 249.163 131.538C248.746 130.672 248.18 130.016 247.465 129.571C246.755 129.126 245.959 128.903 245.079 128.903C244.198 128.903 243.4 129.126 242.685 129.571C241.975 130.016 241.409 130.672 240.988 131.538C240.571 132.405 240.363 133.468 240.363 134.727C240.363 135.987 240.571 137.05 240.988 137.916C241.409 138.783 241.975 139.438 242.685 139.884C243.4 140.329 244.198 140.551 245.079 140.551C245.959 140.551 246.755 140.329 247.465 139.884C248.18 139.438 248.746 138.783 249.163 137.916C249.584 137.05 249.795 135.987 249.795 134.727ZM254.461 142V127.455H263.182V129.017H256.222V133.932H262.529V135.494H256.222V142H254.461ZM266.199 142V127.455H274.921V129.017H267.961V133.932H274.267V135.494H267.961V142H266.199Z" fill="url(#paint0_linear_1_648)"/>
<path d="M66.3196 164.273C66.2514 163.697 65.9749 163.25 65.4901 162.932C65.0052 162.614 64.4105 162.455 63.706 162.455C63.1908 162.455 62.7401 162.538 62.3537 162.705C61.9711 162.871 61.6719 163.1 61.456 163.392C61.2438 163.684 61.1378 164.015 61.1378 164.386C61.1378 164.697 61.2116 164.964 61.3594 165.188C61.5109 165.407 61.7041 165.591 61.9389 165.739C62.1738 165.883 62.42 166.002 62.6776 166.097C62.9351 166.187 63.1719 166.261 63.3878 166.318L64.5696 166.636C64.8726 166.716 65.2098 166.826 65.581 166.966C65.956 167.106 66.3139 167.297 66.6548 167.54C66.9995 167.778 67.2836 168.085 67.5071 168.46C67.7306 168.835 67.8423 169.295 67.8423 169.841C67.8423 170.47 67.6776 171.038 67.348 171.545C67.0223 172.053 66.545 172.456 65.9162 172.756C65.2912 173.055 64.5317 173.205 63.6378 173.205C62.8045 173.205 62.0829 173.07 61.473 172.801C60.867 172.532 60.3897 172.157 60.0412 171.676C59.6965 171.195 59.5014 170.636 59.456 170H60.9105C60.9484 170.439 61.0961 170.803 61.3537 171.091C61.6151 171.375 61.9446 171.587 62.3423 171.727C62.7438 171.864 63.1757 171.932 63.6378 171.932C64.1757 171.932 64.6586 171.845 65.0866 171.67C65.5147 171.492 65.8537 171.246 66.1037 170.932C66.3537 170.614 66.4787 170.242 66.4787 169.818C66.4787 169.432 66.3707 169.117 66.1548 168.875C65.9389 168.633 65.6548 168.436 65.3026 168.284C64.9503 168.133 64.5696 168 64.1605 167.886L62.7287 167.477C61.8196 167.216 61.0999 166.843 60.5696 166.358C60.0393 165.873 59.7741 165.239 59.7741 164.455C59.7741 163.803 59.9503 163.235 60.3026 162.75C60.6586 162.261 61.1359 161.883 61.7344 161.614C62.3366 161.341 63.009 161.205 63.7514 161.205C64.5014 161.205 65.1681 161.339 65.7514 161.608C66.3348 161.873 66.7969 162.237 67.1378 162.699C67.4825 163.161 67.6643 163.686 67.6832 164.273H66.3196ZM69.9773 176.273V164.273H71.2727V165.659H71.4318C71.5303 165.508 71.6667 165.314 71.8409 165.08C72.0189 164.841 72.2727 164.629 72.6023 164.443C72.9356 164.254 73.3864 164.159 73.9545 164.159C74.6894 164.159 75.3371 164.343 75.8977 164.71C76.4583 165.078 76.8958 165.598 77.2102 166.273C77.5246 166.947 77.6818 167.742 77.6818 168.659C77.6818 169.583 77.5246 170.384 77.2102 171.062C76.8958 171.737 76.4602 172.259 75.9034 172.631C75.3466 172.998 74.7045 173.182 73.9773 173.182C73.4167 173.182 72.9678 173.089 72.6307 172.903C72.2936 172.714 72.0341 172.5 71.8523 172.261C71.6705 172.019 71.5303 171.818 71.4318 171.659H71.3182V176.273H69.9773ZM71.2955 168.636C71.2955 169.295 71.392 169.877 71.5852 170.381C71.7784 170.881 72.0606 171.273 72.4318 171.557C72.803 171.837 73.2576 171.977 73.7955 171.977C74.3561 171.977 74.8239 171.83 75.1989 171.534C75.5777 171.235 75.8617 170.833 76.0511 170.33C76.2443 169.822 76.3409 169.258 76.3409 168.636C76.3409 168.023 76.2462 167.47 76.0568 166.977C75.8712 166.481 75.589 166.089 75.2102 165.801C74.8352 165.509 74.3636 165.364 73.7955 165.364C73.25 165.364 72.7917 165.502 72.4205 165.778C72.0492 166.051 71.7689 166.434 71.5795 166.926C71.3902 167.415 71.2955 167.985 71.2955 168.636ZM79.7273 173V164.273H81.0227V165.591H81.1136C81.2727 165.159 81.5606 164.809 81.9773 164.54C82.3939 164.271 82.8636 164.136 83.3864 164.136C83.4848 164.136 83.608 164.138 83.7557 164.142C83.9034 164.146 84.0152 164.152 84.0909 164.159V165.523C84.0455 165.511 83.9413 165.494 83.7784 165.472C83.6193 165.445 83.4508 165.432 83.2727 165.432C82.8485 165.432 82.4697 165.521 82.1364 165.699C81.8068 165.873 81.5455 166.116 81.3523 166.426C81.1629 166.733 81.0682 167.083 81.0682 167.477V173H79.7273ZM85.6804 173V164.273H87.0213V173H85.6804ZM86.3622 162.818C86.1009 162.818 85.8755 162.729 85.6861 162.551C85.5005 162.373 85.4077 162.159 85.4077 161.909C85.4077 161.659 85.5005 161.445 85.6861 161.267C85.8755 161.089 86.1009 161 86.3622 161C86.6236 161 86.8471 161.089 87.0327 161.267C87.2221 161.445 87.3168 161.659 87.3168 161.909C87.3168 162.159 87.2221 162.373 87.0327 162.551C86.8471 162.729 86.6236 162.818 86.3622 162.818ZM90.8182 167.75V173H89.4773V164.273H90.7727V165.636H90.8864C91.0909 165.193 91.4015 164.837 91.8182 164.568C92.2348 164.295 92.7727 164.159 93.4318 164.159C94.0227 164.159 94.5398 164.28 94.983 164.523C95.4261 164.761 95.7708 165.125 96.017 165.614C96.2633 166.098 96.3864 166.712 96.3864 167.455V173H95.0455V167.545C95.0455 166.86 94.8674 166.326 94.5114 165.943C94.1553 165.557 93.6667 165.364 93.0455 165.364C92.6174 165.364 92.2348 165.456 91.8977 165.642C91.5644 165.828 91.3011 166.098 91.108 166.455C90.9148 166.811 90.8182 167.242 90.8182 167.75ZM102.359 176.455C101.712 176.455 101.155 176.371 100.689 176.205C100.223 176.042 99.8348 175.826 99.5241 175.557C99.2173 175.292 98.973 175.008 98.7912 174.705L99.8594 173.955C99.9806 174.114 100.134 174.295 100.32 174.5C100.505 174.708 100.759 174.888 101.081 175.04C101.407 175.195 101.833 175.273 102.359 175.273C103.064 175.273 103.645 175.102 104.104 174.761C104.562 174.42 104.791 173.886 104.791 173.159V171.386H104.678C104.579 171.545 104.439 171.742 104.257 171.977C104.079 172.208 103.821 172.415 103.484 172.597C103.151 172.775 102.7 172.864 102.132 172.864C101.428 172.864 100.795 172.697 100.234 172.364C99.6776 172.03 99.2363 171.545 98.9105 170.909C98.5885 170.273 98.4276 169.5 98.4276 168.591C98.4276 167.697 98.5848 166.919 98.8991 166.256C99.2135 165.589 99.651 165.074 100.212 164.71C100.772 164.343 101.42 164.159 102.155 164.159C102.723 164.159 103.174 164.254 103.507 164.443C103.844 164.629 104.102 164.841 104.28 165.08C104.462 165.314 104.602 165.508 104.7 165.659H104.837V164.273H106.132V173.25C106.132 174 105.962 174.61 105.621 175.08C105.284 175.553 104.829 175.9 104.257 176.119C103.689 176.343 103.056 176.455 102.359 176.455ZM102.314 171.659C102.852 171.659 103.306 171.536 103.678 171.29C104.049 171.044 104.331 170.689 104.524 170.227C104.717 169.765 104.814 169.212 104.814 168.568C104.814 167.939 104.719 167.384 104.53 166.903C104.34 166.422 104.06 166.045 103.689 165.773C103.318 165.5 102.859 165.364 102.314 165.364C101.746 165.364 101.272 165.508 100.893 165.795C100.518 166.083 100.236 166.47 100.047 166.955C99.8613 167.439 99.7685 167.977 99.7685 168.568C99.7685 169.174 99.8632 169.71 100.053 170.176C100.246 170.638 100.53 171.002 100.905 171.267C101.284 171.528 101.753 171.659 102.314 171.659ZM115.655 173.205C115.102 173.205 114.6 173.1 114.149 172.892C113.698 172.68 113.34 172.375 113.075 171.977C112.81 171.576 112.678 171.091 112.678 170.523C112.678 170.023 112.776 169.617 112.973 169.307C113.17 168.992 113.433 168.746 113.763 168.568C114.092 168.39 114.456 168.258 114.854 168.17C115.255 168.08 115.659 168.008 116.064 167.955C116.594 167.886 117.024 167.835 117.354 167.801C117.687 167.763 117.929 167.701 118.081 167.614C118.236 167.527 118.314 167.375 118.314 167.159V167.114C118.314 166.553 118.161 166.117 117.854 165.807C117.551 165.496 117.09 165.341 116.473 165.341C115.833 165.341 115.331 165.481 114.967 165.761C114.604 166.042 114.348 166.341 114.2 166.659L112.928 166.205C113.155 165.674 113.458 165.261 113.837 164.966C114.219 164.667 114.636 164.458 115.087 164.341C115.541 164.22 115.988 164.159 116.428 164.159C116.708 164.159 117.03 164.193 117.393 164.261C117.761 164.326 118.115 164.46 118.456 164.665C118.801 164.869 119.087 165.178 119.314 165.591C119.541 166.004 119.655 166.557 119.655 167.25V173H118.314V171.818H118.246C118.155 172.008 118.003 172.21 117.791 172.426C117.579 172.642 117.297 172.826 116.945 172.977C116.592 173.129 116.162 173.205 115.655 173.205ZM115.859 172C116.39 172 116.837 171.896 117.2 171.688C117.568 171.479 117.844 171.21 118.03 170.881C118.219 170.551 118.314 170.205 118.314 169.841V168.614C118.257 168.682 118.132 168.744 117.939 168.801C117.75 168.854 117.53 168.902 117.28 168.943C117.034 168.981 116.793 169.015 116.558 169.045C116.327 169.072 116.14 169.095 115.996 169.114C115.647 169.159 115.321 169.233 115.018 169.335C114.719 169.434 114.477 169.583 114.291 169.784C114.109 169.981 114.018 170.25 114.018 170.591C114.018 171.057 114.191 171.409 114.536 171.648C114.884 171.883 115.325 172 115.859 172ZM123.443 167.75V173H122.102V164.273H123.398V165.636H123.511C123.716 165.193 124.027 164.837 124.443 164.568C124.86 164.295 125.398 164.159 126.057 164.159C126.648 164.159 127.165 164.28 127.608 164.523C128.051 164.761 128.396 165.125 128.642 165.614C128.888 166.098 129.011 166.712 129.011 167.455V173H127.67V167.545C127.67 166.86 127.492 166.326 127.136 165.943C126.78 165.557 126.292 165.364 125.67 165.364C125.242 165.364 124.86 165.456 124.523 165.642C124.189 165.828 123.926 166.098 123.733 166.455C123.54 166.811 123.443 167.242 123.443 167.75ZM134.757 173.182C134.03 173.182 133.388 172.998 132.831 172.631C132.274 172.259 131.839 171.737 131.524 171.062C131.21 170.384 131.053 169.583 131.053 168.659C131.053 167.742 131.21 166.947 131.524 166.273C131.839 165.598 132.276 165.078 132.837 164.71C133.397 164.343 134.045 164.159 134.78 164.159C135.348 164.159 135.797 164.254 136.126 164.443C136.46 164.629 136.714 164.841 136.888 165.08C137.066 165.314 137.204 165.508 137.303 165.659H137.416V161.364H138.757V173H137.462V171.659H137.303C137.204 171.818 137.064 172.019 136.882 172.261C136.7 172.5 136.441 172.714 136.104 172.903C135.767 173.089 135.318 173.182 134.757 173.182ZM134.939 171.977C135.477 171.977 135.931 171.837 136.303 171.557C136.674 171.273 136.956 170.881 137.149 170.381C137.342 169.877 137.439 169.295 137.439 168.636C137.439 167.985 137.344 167.415 137.155 166.926C136.965 166.434 136.685 166.051 136.314 165.778C135.943 165.502 135.484 165.364 134.939 165.364C134.371 165.364 133.897 165.509 133.518 165.801C133.143 166.089 132.861 166.481 132.672 166.977C132.486 167.47 132.393 168.023 132.393 168.636C132.393 169.258 132.488 169.822 132.678 170.33C132.871 170.833 133.155 171.235 133.53 171.534C133.909 171.83 134.378 171.977 134.939 171.977ZM155.445 165H154.036C153.952 164.595 153.806 164.239 153.598 163.932C153.393 163.625 153.143 163.367 152.848 163.159C152.556 162.947 152.232 162.788 151.876 162.682C151.52 162.576 151.149 162.523 150.763 162.523C150.058 162.523 149.42 162.701 148.848 163.057C148.28 163.413 147.827 163.938 147.49 164.631C147.157 165.324 146.99 166.174 146.99 167.182C146.99 168.189 147.157 169.04 147.49 169.733C147.827 170.426 148.28 170.951 148.848 171.307C149.42 171.663 150.058 171.841 150.763 171.841C151.149 171.841 151.52 171.788 151.876 171.682C152.232 171.576 152.556 171.419 152.848 171.21C153.143 170.998 153.393 170.739 153.598 170.432C153.806 170.121 153.952 169.765 154.036 169.364H155.445C155.339 169.958 155.145 170.491 154.865 170.96C154.585 171.43 154.236 171.83 153.82 172.159C153.403 172.485 152.935 172.733 152.416 172.903C151.901 173.074 151.35 173.159 150.763 173.159C149.77 173.159 148.888 172.917 148.115 172.432C147.342 171.947 146.734 171.258 146.291 170.364C145.848 169.47 145.626 168.409 145.626 167.182C145.626 165.955 145.848 164.894 146.291 164C146.734 163.106 147.342 162.417 148.115 161.932C148.888 161.447 149.77 161.205 150.763 161.205C151.35 161.205 151.901 161.29 152.416 161.46C152.935 161.631 153.403 161.881 153.82 162.21C154.236 162.536 154.585 162.934 154.865 163.403C155.145 163.869 155.339 164.402 155.445 165ZM160.108 173.205C159.555 173.205 159.053 173.1 158.602 172.892C158.152 172.68 157.794 172.375 157.528 171.977C157.263 171.576 157.131 171.091 157.131 170.523C157.131 170.023 157.229 169.617 157.426 169.307C157.623 168.992 157.886 168.746 158.216 168.568C158.545 168.39 158.909 168.258 159.307 168.17C159.708 168.08 160.112 168.008 160.517 167.955C161.047 167.886 161.477 167.835 161.807 167.801C162.14 167.763 162.383 167.701 162.534 167.614C162.689 167.527 162.767 167.375 162.767 167.159V167.114C162.767 166.553 162.614 166.117 162.307 165.807C162.004 165.496 161.544 165.341 160.926 165.341C160.286 165.341 159.784 165.481 159.42 165.761C159.057 166.042 158.801 166.341 158.653 166.659L157.381 166.205C157.608 165.674 157.911 165.261 158.29 164.966C158.672 164.667 159.089 164.458 159.54 164.341C159.994 164.22 160.441 164.159 160.881 164.159C161.161 164.159 161.483 164.193 161.847 164.261C162.214 164.326 162.568 164.46 162.909 164.665C163.254 164.869 163.54 165.178 163.767 165.591C163.994 166.004 164.108 166.557 164.108 167.25V173H162.767V171.818H162.699C162.608 172.008 162.456 172.21 162.244 172.426C162.032 172.642 161.75 172.826 161.398 172.977C161.045 173.129 160.616 173.205 160.108 173.205ZM160.312 172C160.843 172 161.29 171.896 161.653 171.688C162.021 171.479 162.297 171.21 162.483 170.881C162.672 170.551 162.767 170.205 162.767 169.841V168.614C162.71 168.682 162.585 168.744 162.392 168.801C162.203 168.854 161.983 168.902 161.733 168.943C161.487 168.981 161.246 169.015 161.011 169.045C160.78 169.072 160.593 169.095 160.449 169.114C160.1 169.159 159.775 169.233 159.472 169.335C159.172 169.434 158.93 169.583 158.744 169.784C158.563 169.981 158.472 170.25 158.472 170.591C158.472 171.057 158.644 171.409 158.989 171.648C159.337 171.883 159.778 172 160.312 172ZM166.737 173V161.364H168.078V165.659H168.192C168.29 165.508 168.427 165.314 168.601 165.08C168.779 164.841 169.033 164.629 169.362 164.443C169.696 164.254 170.146 164.159 170.714 164.159C171.449 164.159 172.097 164.343 172.658 164.71C173.218 165.078 173.656 165.598 173.97 166.273C174.285 166.947 174.442 167.742 174.442 168.659C174.442 169.583 174.285 170.384 173.97 171.062C173.656 171.737 173.22 172.259 172.663 172.631C172.107 172.998 171.464 173.182 170.737 173.182C170.177 173.182 169.728 173.089 169.391 172.903C169.054 172.714 168.794 172.5 168.612 172.261C168.43 172.019 168.29 171.818 168.192 171.659H168.033V173H166.737ZM168.055 168.636C168.055 169.295 168.152 169.877 168.345 170.381C168.538 170.881 168.821 171.273 169.192 171.557C169.563 171.837 170.018 171.977 170.555 171.977C171.116 171.977 171.584 171.83 171.959 171.534C172.338 171.235 172.622 170.833 172.811 170.33C173.004 169.822 173.101 169.258 173.101 168.636C173.101 168.023 173.006 167.47 172.817 166.977C172.631 166.481 172.349 166.089 171.97 165.801C171.595 165.509 171.124 165.364 170.555 165.364C170.01 165.364 169.552 165.502 169.18 165.778C168.809 166.051 168.529 166.434 168.339 166.926C168.15 167.415 168.055 167.985 168.055 168.636ZM177.834 161.364V173H176.493V161.364H177.834ZM183.949 173.182C183.108 173.182 182.383 172.996 181.773 172.625C181.167 172.25 180.699 171.727 180.369 171.057C180.044 170.383 179.881 169.598 179.881 168.705C179.881 167.811 180.044 167.023 180.369 166.341C180.699 165.655 181.157 165.121 181.744 164.739C182.335 164.352 183.025 164.159 183.812 164.159C184.267 164.159 184.716 164.235 185.159 164.386C185.602 164.538 186.006 164.784 186.369 165.125C186.733 165.462 187.023 165.909 187.239 166.466C187.455 167.023 187.562 167.708 187.562 168.523V169.091H180.835V167.932H186.199C186.199 167.439 186.1 167 185.903 166.614C185.71 166.227 185.434 165.922 185.074 165.699C184.718 165.475 184.297 165.364 183.812 165.364C183.278 165.364 182.816 165.496 182.426 165.761C182.04 166.023 181.742 166.364 181.534 166.784C181.326 167.205 181.222 167.655 181.222 168.136V168.909C181.222 169.568 181.335 170.127 181.562 170.585C181.794 171.04 182.114 171.386 182.523 171.625C182.932 171.86 183.407 171.977 183.949 171.977C184.301 171.977 184.619 171.928 184.903 171.83C185.191 171.727 185.439 171.576 185.648 171.375C185.856 171.17 186.017 170.917 186.131 170.614L187.426 170.977C187.29 171.417 187.061 171.803 186.739 172.136C186.417 172.466 186.019 172.723 185.545 172.909C185.072 173.091 184.54 173.182 183.949 173.182ZM203.648 165H202.239C202.155 164.595 202.009 164.239 201.801 163.932C201.597 163.625 201.347 163.367 201.051 163.159C200.759 162.947 200.436 162.788 200.08 162.682C199.723 162.576 199.352 162.523 198.966 162.523C198.261 162.523 197.623 162.701 197.051 163.057C196.483 163.413 196.03 163.938 195.693 164.631C195.36 165.324 195.193 166.174 195.193 167.182C195.193 168.189 195.36 169.04 195.693 169.733C196.03 170.426 196.483 170.951 197.051 171.307C197.623 171.663 198.261 171.841 198.966 171.841C199.352 171.841 199.723 171.788 200.08 171.682C200.436 171.576 200.759 171.419 201.051 171.21C201.347 170.998 201.597 170.739 201.801 170.432C202.009 170.121 202.155 169.765 202.239 169.364H203.648C203.542 169.958 203.348 170.491 203.068 170.96C202.788 171.43 202.439 171.83 202.023 172.159C201.606 172.485 201.138 172.733 200.619 172.903C200.104 173.074 199.553 173.159 198.966 173.159C197.973 173.159 197.091 172.917 196.318 172.432C195.545 171.947 194.938 171.258 194.494 170.364C194.051 169.47 193.83 168.409 193.83 167.182C193.83 165.955 194.051 164.894 194.494 164C194.938 163.106 195.545 162.417 196.318 161.932C197.091 161.447 197.973 161.205 198.966 161.205C199.553 161.205 200.104 161.29 200.619 161.46C201.138 161.631 201.606 161.881 202.023 162.21C202.439 162.536 202.788 162.934 203.068 163.403C203.348 163.869 203.542 164.402 203.648 165ZM209.288 173.182C208.5 173.182 207.809 172.994 207.214 172.619C206.624 172.244 206.161 171.72 205.828 171.045C205.499 170.371 205.334 169.583 205.334 168.682C205.334 167.773 205.499 166.979 205.828 166.301C206.161 165.623 206.624 165.097 207.214 164.722C207.809 164.347 208.5 164.159 209.288 164.159C210.076 164.159 210.766 164.347 211.357 164.722C211.951 165.097 212.413 165.623 212.743 166.301C213.076 166.979 213.243 167.773 213.243 168.682C213.243 169.583 213.076 170.371 212.743 171.045C212.413 171.72 211.951 172.244 211.357 172.619C210.766 172.994 210.076 173.182 209.288 173.182ZM209.288 171.977C209.887 171.977 210.379 171.824 210.766 171.517C211.152 171.21 211.438 170.807 211.624 170.307C211.809 169.807 211.902 169.265 211.902 168.682C211.902 168.098 211.809 167.555 211.624 167.051C211.438 166.547 211.152 166.14 210.766 165.83C210.379 165.519 209.887 165.364 209.288 165.364C208.69 165.364 208.197 165.519 207.811 165.83C207.425 166.14 207.139 166.547 206.953 167.051C206.768 167.555 206.675 168.098 206.675 168.682C206.675 169.265 206.768 169.807 206.953 170.307C207.139 170.807 207.425 171.21 207.811 171.517C208.197 171.824 208.69 171.977 209.288 171.977ZM215.29 173V164.273H216.585V165.636H216.699C216.881 165.17 217.174 164.809 217.58 164.551C217.985 164.29 218.472 164.159 219.04 164.159C219.616 164.159 220.095 164.29 220.477 164.551C220.864 164.809 221.165 165.17 221.381 165.636H221.472C221.695 165.186 222.03 164.828 222.477 164.562C222.924 164.294 223.46 164.159 224.085 164.159C224.866 164.159 225.504 164.403 226 164.892C226.496 165.377 226.744 166.133 226.744 167.159V173H225.403V167.159C225.403 166.515 225.227 166.055 224.875 165.778C224.523 165.502 224.108 165.364 223.631 165.364C223.017 165.364 222.542 165.549 222.205 165.92C221.867 166.288 221.699 166.754 221.699 167.318V173H220.335V167.023C220.335 166.527 220.174 166.127 219.852 165.824C219.53 165.517 219.116 165.364 218.608 165.364C218.259 165.364 217.934 165.456 217.631 165.642C217.331 165.828 217.089 166.085 216.903 166.415C216.722 166.741 216.631 167.117 216.631 167.545V173H215.29ZM229.378 173V161.364H230.719V165.659H230.832C230.931 165.508 231.067 165.314 231.241 165.08C231.42 164.841 231.673 164.629 232.003 164.443C232.336 164.254 232.787 164.159 233.355 164.159C234.09 164.159 234.738 164.343 235.298 164.71C235.859 165.078 236.296 165.598 236.611 166.273C236.925 166.947 237.082 167.742 237.082 168.659C237.082 169.583 236.925 170.384 236.611 171.062C236.296 171.737 235.861 172.259 235.304 172.631C234.747 172.998 234.105 173.182 233.378 173.182C232.817 173.182 232.368 173.089 232.031 172.903C231.694 172.714 231.435 172.5 231.253 172.261C231.071 172.019 230.931 171.818 230.832 171.659H230.673V173H229.378ZM230.696 168.636C230.696 169.295 230.793 169.877 230.986 170.381C231.179 170.881 231.461 171.273 231.832 171.557C232.204 171.837 232.658 171.977 233.196 171.977C233.757 171.977 234.224 171.83 234.599 171.534C234.978 171.235 235.262 170.833 235.452 170.33C235.645 169.822 235.741 169.258 235.741 168.636C235.741 168.023 235.647 167.47 235.457 166.977C235.272 166.481 234.99 166.089 234.611 165.801C234.236 165.509 233.764 165.364 233.196 165.364C232.651 165.364 232.192 165.502 231.821 165.778C231.45 166.051 231.17 166.434 230.98 166.926C230.791 167.415 230.696 167.985 230.696 168.636ZM242.679 173.182C241.891 173.182 241.2 172.994 240.605 172.619C240.014 172.244 239.552 171.72 239.219 171.045C238.889 170.371 238.724 169.583 238.724 168.682C238.724 167.773 238.889 166.979 239.219 166.301C239.552 165.623 240.014 165.097 240.605 164.722C241.2 164.347 241.891 164.159 242.679 164.159C243.467 164.159 244.156 164.347 244.747 164.722C245.342 165.097 245.804 165.623 246.134 166.301C246.467 166.979 246.634 167.773 246.634 168.682C246.634 169.583 246.467 170.371 246.134 171.045C245.804 171.72 245.342 172.244 244.747 172.619C244.156 172.994 243.467 173.182 242.679 173.182ZM242.679 171.977C243.277 171.977 243.77 171.824 244.156 171.517C244.543 171.21 244.829 170.807 245.014 170.307C245.2 169.807 245.293 169.265 245.293 168.682C245.293 168.098 245.2 167.555 245.014 167.051C244.829 166.547 244.543 166.14 244.156 165.83C243.77 165.519 243.277 165.364 242.679 165.364C242.08 165.364 241.588 165.519 241.202 165.83C240.815 166.14 240.529 166.547 240.344 167.051C240.158 167.555 240.065 168.098 240.065 168.682C240.065 169.265 240.158 169.807 240.344 170.307C240.529 170.807 240.815 171.21 241.202 171.517C241.588 171.824 242.08 171.977 242.679 171.977Z" fill="black"/>
<path fill-rule="evenodd" clip-rule="evenodd" d="M283.036 12H281.964V18.6204L277.576 13.9391L276.818 14.7472L281.207 19.4286H275V20.5714H281.207L276.818 25.2528L277.576 26.0609L281.964 21.3795V28H283.036V21.3795L287.425 26.0609L288.182 25.2528L283.793 20.5714H290V19.4286H283.793L288.182 14.7472L287.425 13.9391L283.036 18.6204V12Z" fill="#C1554E"/>
</g>
<defs>
<linearGradient id="paint0_linear_1_648" x1="135.548" y1="72" x2="140.961" y2="151.148" gradientUnits="userSpaceOnUse">
<stop offset="0.630979" stop-color="#C1554E"/>
<stop offset="1" stop-color="#F4C5C1"/>
</linearGradient>
<clipPath id="clip0_1_648">
<rect width="315" height="216" fill="white"/>
</clipPath>
</defs>
</svg>
