<svg width="315" height="216" viewBox="0 0 315 216" fill="none" xmlns="http://www.w3.org/2000/svg">
<g clip-path="url(#clip0_1_657)">
<rect width="315" height="216" fill="white"/>
<path d="M0 33L315 33" stroke="#CACACA" stroke-width="0.783582"/>
<path d="M16 33L16 216" stroke="#CACACA" stroke-width="0.5"/>
<path d="M289.926 33L289.926 216.358" stroke="#CACACA" stroke-width="0.783582"/>
<path d="M28.6477 16.2898H26.5568C26.5568 15.9413 26.5 15.6326 26.3864 15.3636C26.2727 15.0909 26.1136 14.8598 25.9091 14.6705C25.7045 14.4811 25.4621 14.339 25.1818 14.2443C24.9015 14.1458 24.5909 14.0966 24.25 14.0966C23.5985 14.0966 22.9924 14.2614 22.4318 14.5909C21.8712 14.9205 21.3958 15.3996 21.0057 16.0284C20.6155 16.6534 20.3447 17.4129 20.1932 18.3068C20.053 19.178 20.0663 19.9072 20.233 20.4943C20.4034 21.0814 20.6989 21.5246 21.1193 21.8239C21.5398 22.1193 22.0511 22.267 22.6534 22.267C23.0208 22.267 23.3731 22.2216 23.7102 22.1307C24.0473 22.036 24.358 21.8977 24.642 21.7159C24.9299 21.5303 25.1818 21.3049 25.3977 21.0398C25.6174 20.7746 25.7879 20.4735 25.9091 20.1364H28.0284C27.8542 20.6894 27.5985 21.2102 27.2614 21.6989C26.9242 22.1837 26.5189 22.6117 26.0455 22.983C25.572 23.3504 25.0417 23.6383 24.4545 23.8466C23.8674 24.0549 23.2348 24.1591 22.5568 24.1591C21.5152 24.1591 20.6231 23.9167 19.8807 23.4318C19.142 22.9432 18.6117 22.2443 18.2898 21.3352C17.9678 20.4223 17.911 19.3295 18.1193 18.0568C18.3277 16.8182 18.7292 15.7633 19.3239 14.892C19.9223 14.0208 20.6515 13.3561 21.5114 12.8977C22.375 12.4356 23.3049 12.2045 24.3011 12.2045C24.9602 12.2045 25.5587 12.2955 26.0966 12.4773C26.6383 12.6591 27.1023 12.9261 27.4886 13.2784C27.875 13.6269 28.1686 14.0549 28.3693 14.5625C28.5739 15.0663 28.6667 15.642 28.6477 16.2898ZM33.0497 24.1705C32.1899 24.1705 31.474 23.9811 30.902 23.6023C30.3338 23.2235 29.9342 22.6913 29.7031 22.0057C29.4721 21.3201 29.4304 20.5246 29.5781 19.6193C29.7259 18.7254 30.0213 17.9432 30.4645 17.2727C30.9115 16.6023 31.474 16.0833 32.152 15.7159C32.8338 15.3447 33.5971 15.1591 34.4418 15.1591C35.3016 15.1591 36.0156 15.3504 36.5838 15.733C37.152 16.1117 37.5516 16.6439 37.7827 17.3295C38.0175 18.0152 38.0611 18.8144 37.9134 19.7273C37.7694 20.6174 37.4721 21.3958 37.0213 22.0625C36.5743 22.7292 36.0118 23.2481 35.3338 23.6193C34.6558 23.9867 33.8944 24.1705 33.0497 24.1705ZM33.2202 22.5227C33.6974 22.5227 34.116 22.3939 34.4759 22.1364C34.8395 21.875 35.1368 21.5246 35.3679 21.0852C35.6027 20.642 35.7656 20.1496 35.8565 19.608C35.9399 19.0852 35.9418 18.6117 35.8622 18.1875C35.7827 17.7595 35.6122 17.4205 35.3509 17.1705C35.0933 16.9167 34.7353 16.7898 34.277 16.7898C33.7997 16.7898 33.3774 16.9223 33.0099 17.1875C32.6463 17.4489 32.349 17.8011 32.1179 18.2443C31.8868 18.6837 31.7277 19.1742 31.6406 19.7159C31.5535 20.2386 31.5497 20.7121 31.6293 21.1364C31.7088 21.5606 31.8793 21.8977 32.1406 22.1477C32.402 22.3977 32.7618 22.5227 33.2202 22.5227ZM45.125 20.3295L45.9716 15.2727H48.0284L46.5739 24H44.5795L44.8409 22.4489H44.75C44.4773 22.9375 44.0871 23.3371 43.5795 23.6477C43.0758 23.9583 42.4962 24.1136 41.8409 24.1136C41.2689 24.1136 40.786 23.9867 40.392 23.733C39.9981 23.4754 39.7178 23.1023 39.5511 22.6136C39.3883 22.1212 39.3636 21.5265 39.4773 20.8295L40.4091 15.2727H42.4659L41.5909 20.5114C41.5038 21.0644 41.5833 21.5038 41.8295 21.8295C42.0795 22.1553 42.4508 22.3182 42.9432 22.3182C43.2462 22.3182 43.5511 22.2443 43.858 22.0966C44.1686 21.9489 44.4394 21.7292 44.6705 21.4375C44.9015 21.142 45.053 20.7727 45.125 20.3295ZM48.1491 27.2727L50.1605 15.2727H52.1832L51.9503 16.7159H52.0696C52.206 16.5038 52.3897 16.2784 52.6207 16.0398C52.8556 15.7973 53.1529 15.5909 53.5128 15.4205C53.8726 15.2462 54.3101 15.1591 54.8253 15.1591C55.4957 15.1591 56.0734 15.3314 56.5582 15.6761C57.0431 16.017 57.3897 16.5227 57.598 17.1932C57.8101 17.8598 57.8366 18.678 57.6776 19.6477C57.5185 20.6061 57.2249 21.4205 56.7969 22.0909C56.3688 22.7614 55.8556 23.2727 55.2571 23.625C54.6586 23.9773 54.0166 24.1534 53.331 24.1534C52.831 24.1534 52.4276 24.0701 52.1207 23.9034C51.8177 23.7367 51.5885 23.536 51.4332 23.3011C51.2779 23.0625 51.1624 22.8371 51.0866 22.625H50.9957L50.223 27.2727H48.1491ZM51.4503 19.6364C51.3594 20.2008 51.3575 20.6951 51.4446 21.1193C51.5355 21.5436 51.7154 21.875 51.9844 22.1136C52.2533 22.3485 52.6056 22.4659 53.0412 22.4659C53.4957 22.4659 53.8935 22.3447 54.2344 22.1023C54.5791 21.8561 54.8651 21.5208 55.0923 21.0966C55.3234 20.6686 55.4863 20.1818 55.581 19.6364C55.6681 19.0947 55.6681 18.6136 55.581 18.1932C55.4938 17.7727 55.3177 17.4432 55.0526 17.2045C54.7874 16.9659 54.4276 16.8466 53.973 16.8466C53.5298 16.8466 53.134 16.9621 52.7855 17.1932C52.4408 17.4242 52.1548 17.7481 51.9276 18.1648C51.7003 18.5814 51.5412 19.072 51.4503 19.6364ZM62.5341 24.1705C61.6742 24.1705 60.9583 23.9811 60.3864 23.6023C59.8182 23.2235 59.4186 22.6913 59.1875 22.0057C58.9564 21.3201 58.9148 20.5246 59.0625 19.6193C59.2102 18.7254 59.5057 17.9432 59.9489 17.2727C60.3958 16.6023 60.9583 16.0833 61.6364 15.7159C62.3182 15.3447 63.0814 15.1591 63.9261 15.1591C64.786 15.1591 65.5 15.3504 66.0682 15.733C66.6364 16.1117 67.036 16.6439 67.267 17.3295C67.5019 18.0152 67.5455 18.8144 67.3977 19.7273C67.2538 20.6174 66.9564 21.3958 66.5057 22.0625C66.0587 22.7292 65.4962 23.2481 64.8182 23.6193C64.1402 23.9867 63.3788 24.1705 62.5341 24.1705ZM62.7045 22.5227C63.1818 22.5227 63.6004 22.3939 63.9602 22.1364C64.3239 21.875 64.6212 21.5246 64.8523 21.0852C65.0871 20.642 65.25 20.1496 65.3409 19.608C65.4242 19.0852 65.4261 18.6117 65.3466 18.1875C65.267 17.7595 65.0966 17.4205 64.8352 17.1705C64.5777 16.9167 64.2197 16.7898 63.7614 16.7898C63.2841 16.7898 62.8617 16.9223 62.4943 17.1875C62.1307 17.4489 61.8333 17.8011 61.6023 18.2443C61.3712 18.6837 61.2121 19.1742 61.125 19.7159C61.0379 20.2386 61.0341 20.7121 61.1136 21.1364C61.1932 21.5606 61.3636 21.8977 61.625 22.1477C61.8864 22.3977 62.2462 22.5227 62.7045 22.5227ZM71.348 18.8864L70.5071 24H68.4446L69.8991 15.2727H71.8707L71.6207 16.7557H71.7287C72.0014 16.267 72.384 15.8788 72.8764 15.5909C73.3688 15.303 73.9427 15.1591 74.598 15.1591C75.1927 15.1591 75.6927 15.2879 76.098 15.5455C76.5033 15.7992 76.7912 16.1723 76.9616 16.6648C77.1321 17.1534 77.1586 17.7462 77.0412 18.4432L76.1094 24H74.0526L74.9219 18.7614C75.0204 18.1818 74.9465 17.7273 74.7003 17.3977C74.4579 17.0644 74.0677 16.8977 73.5298 16.8977C73.17 16.8977 72.8385 16.9773 72.5355 17.1364C72.2325 17.2917 71.9768 17.517 71.7685 17.8125C71.5639 18.108 71.4238 18.4659 71.348 18.8864Z" fill="black"/>
<path d="M47.01 142L75.9532 84.7273V84.25H42.2373V72.1818H91.2259V84.4205L62.2486 142H47.01ZM119.185 142.955C114.367 142.955 110.071 142.068 106.299 140.295C102.549 138.523 99.5712 136.08 97.3667 132.966C95.1621 129.852 94.0144 126.284 93.9235 122.261H108.242C108.401 124.966 109.537 127.159 111.651 128.841C113.764 130.523 116.276 131.364 119.185 131.364C121.503 131.364 123.549 130.852 125.321 129.83C127.117 128.784 128.514 127.341 129.514 125.5C130.537 123.636 131.049 121.5 131.049 119.091C131.049 116.636 130.526 114.477 129.48 112.614C128.458 110.75 127.037 109.295 125.219 108.25C123.401 107.205 121.321 106.67 118.98 106.648C116.935 106.648 114.946 107.068 113.014 107.909C111.105 108.75 109.617 109.898 108.549 111.352L95.4235 109L98.7303 72.1818H141.412V84.25H110.901L109.094 101.739H109.503C110.73 100.011 112.583 98.5795 115.06 97.4432C117.537 96.3068 120.31 95.7386 123.378 95.7386C127.583 95.7386 131.333 96.7273 134.628 98.7045C137.924 100.682 140.526 103.398 142.435 106.852C144.344 110.284 145.287 114.239 145.264 118.716C145.287 123.42 144.196 127.602 141.992 131.261C139.81 134.898 136.753 137.761 132.821 139.852C128.912 141.92 124.367 142.955 119.185 142.955ZM187.056 128.909V125.227C187.056 122.432 187.647 119.864 188.829 117.523C190.033 115.159 191.772 113.273 194.044 111.864C196.34 110.432 199.135 109.716 202.431 109.716C205.772 109.716 208.579 110.42 210.851 111.83C213.147 113.239 214.874 115.125 216.033 117.489C217.215 119.83 217.806 122.409 217.806 125.227V128.909C217.806 131.705 217.215 134.284 216.033 136.648C214.851 138.989 213.113 140.864 210.817 142.273C208.522 143.705 205.726 144.42 202.431 144.42C199.09 144.42 196.283 143.705 194.01 142.273C191.738 140.864 190.01 138.989 188.829 136.648C187.647 134.284 187.056 131.705 187.056 128.909ZM196.976 125.227V128.909C196.976 130.523 197.363 132.045 198.135 133.477C198.931 134.909 200.363 135.625 202.431 135.625C204.499 135.625 205.908 134.92 206.658 133.511C207.431 132.102 207.817 130.568 207.817 128.909V125.227C207.817 123.568 207.454 122.023 206.726 120.591C205.999 119.159 204.567 118.443 202.431 118.443C200.385 118.443 198.965 119.159 198.169 120.591C197.374 122.023 196.976 123.568 196.976 125.227ZM151.226 88.9545V85.2727C151.226 82.4545 151.829 79.875 153.033 77.5341C154.238 75.1705 155.976 73.2841 158.249 71.875C160.544 70.4659 163.317 69.7614 166.567 69.7614C169.931 69.7614 172.749 70.4659 175.022 71.875C177.294 73.2841 179.022 75.1705 180.204 77.5341C181.385 79.875 181.976 82.4545 181.976 85.2727V88.9545C181.976 91.7727 181.374 94.3523 180.169 96.6932C178.988 99.0341 177.249 100.909 174.954 102.318C172.681 103.705 169.885 104.398 166.567 104.398C163.249 104.398 160.442 103.693 158.147 102.284C155.874 100.852 154.147 98.9773 152.965 96.6591C151.806 94.3182 151.226 91.75 151.226 88.9545ZM161.215 85.2727V88.9545C161.215 90.6136 161.601 92.1477 162.374 93.5568C163.169 94.9659 164.567 95.6705 166.567 95.6705C168.658 95.6705 170.079 94.9659 170.829 93.5568C171.601 92.1477 171.988 90.6136 171.988 88.9545V85.2727C171.988 83.6136 171.624 82.0682 170.897 80.6364C170.169 79.2045 168.726 78.4886 166.567 78.4886C164.544 78.4886 163.147 79.2159 162.374 80.6705C161.601 82.125 161.215 83.6591 161.215 85.2727ZM155.726 142L203.726 72.1818H212.658L164.658 142H155.726ZM242.734 134.727C242.734 136.261 242.457 137.587 241.903 138.705C241.349 139.822 240.589 140.684 239.623 141.29C238.657 141.896 237.554 142.199 236.313 142.199C235.073 142.199 233.969 141.896 233.004 141.29C232.038 140.684 231.278 139.822 230.724 138.705C230.17 137.587 229.893 136.261 229.893 134.727C229.893 133.193 230.17 131.867 230.724 130.75C231.278 129.633 232.038 128.771 233.004 128.165C233.969 127.559 235.073 127.256 236.313 127.256C237.554 127.256 238.657 127.559 239.623 128.165C240.589 128.771 241.349 129.633 241.903 130.75C242.457 131.867 242.734 133.193 242.734 134.727ZM241.029 134.727C241.029 133.468 240.818 132.405 240.397 131.538C239.98 130.672 239.414 130.016 238.7 129.571C237.989 129.126 237.194 128.903 236.313 128.903C235.432 128.903 234.635 129.126 233.92 129.571C233.209 130.016 232.644 130.672 232.222 131.538C231.806 132.405 231.597 133.468 231.597 134.727C231.597 135.987 231.806 137.05 232.222 137.916C232.644 138.783 233.209 139.438 233.92 139.884C234.635 140.329 235.432 140.551 236.313 140.551C237.194 140.551 237.989 140.329 238.7 139.884C239.414 139.438 239.98 138.783 240.397 137.916C240.818 137.05 241.029 135.987 241.029 134.727ZM245.695 142V127.455H254.417V129.017H247.457V133.932H253.763V135.494H247.457V142H245.695ZM257.434 142V127.455H266.155V129.017H259.195V133.932H265.502V135.494H259.195V142H257.434Z" fill="url(#paint0_linear_1_657)"/>
<path d="M53.8153 173V161.364H60.7926V162.614H55.2244V166.545H60.2699V167.795H55.2244V173H53.8153ZM62.9304 173V164.273H64.2259V165.591H64.3168C64.4759 165.159 64.7637 164.809 65.1804 164.54C65.5971 164.271 66.0668 164.136 66.5895 164.136C66.688 164.136 66.8111 164.138 66.9588 164.142C67.1065 164.146 67.2183 164.152 67.294 164.159V165.523C67.2486 165.511 67.1444 165.494 66.9815 165.472C66.8224 165.445 66.6539 165.432 66.4759 165.432C66.0516 165.432 65.6728 165.521 65.3395 165.699C65.0099 165.873 64.7486 166.116 64.5554 166.426C64.366 166.733 64.2713 167.083 64.2713 167.477V173H62.9304ZM68.8835 173V164.273H70.2244V173H68.8835ZM69.5653 162.818C69.304 162.818 69.0786 162.729 68.8892 162.551C68.7036 162.373 68.6108 162.159 68.6108 161.909C68.6108 161.659 68.7036 161.445 68.8892 161.267C69.0786 161.089 69.304 161 69.5653 161C69.8267 161 70.0502 161.089 70.2358 161.267C70.4252 161.445 70.5199 161.659 70.5199 161.909C70.5199 162.159 70.4252 162.373 70.2358 162.551C70.0502 162.729 69.8267 162.818 69.5653 162.818ZM78.8622 166.227L77.6577 166.568C77.5819 166.367 77.4702 166.172 77.3224 165.983C77.1785 165.79 76.9815 165.631 76.7315 165.506C76.4815 165.381 76.1615 165.318 75.7713 165.318C75.2372 165.318 74.7921 165.441 74.4361 165.688C74.0838 165.93 73.9077 166.239 73.9077 166.614C73.9077 166.947 74.0289 167.21 74.2713 167.403C74.5137 167.597 74.8925 167.758 75.4077 167.886L76.7031 168.205C77.4834 168.394 78.0649 168.684 78.4474 169.074C78.83 169.46 79.0213 169.958 79.0213 170.568C79.0213 171.068 78.8774 171.515 78.5895 171.909C78.3054 172.303 77.9077 172.614 77.3963 172.841C76.8849 173.068 76.2902 173.182 75.6122 173.182C74.7221 173.182 73.9853 172.989 73.402 172.602C72.8187 172.216 72.4493 171.652 72.294 170.909L73.5668 170.591C73.688 171.061 73.9171 171.413 74.2543 171.648C74.5952 171.883 75.0402 172 75.5895 172C76.2145 172 76.7107 171.867 77.0781 171.602C77.4493 171.333 77.6349 171.011 77.6349 170.636C77.6349 170.333 77.5289 170.08 77.3168 169.875C77.1046 169.667 76.7789 169.511 76.3395 169.409L74.8849 169.068C74.0857 168.879 73.4986 168.585 73.1236 168.188C72.7524 167.786 72.5668 167.284 72.5668 166.682C72.5668 166.189 72.705 165.754 72.9815 165.375C73.2618 164.996 73.6425 164.699 74.1236 164.483C74.6084 164.267 75.1577 164.159 75.7713 164.159C76.6349 164.159 77.313 164.348 77.8054 164.727C78.3016 165.106 78.6539 165.606 78.8622 166.227ZM84.8352 164.273V165.409H80.3125V164.273H84.8352ZM81.6307 162.182H82.9716V170.5C82.9716 170.879 83.0265 171.163 83.1364 171.352C83.25 171.538 83.3939 171.663 83.5682 171.727C83.7462 171.788 83.9337 171.818 84.1307 171.818C84.2784 171.818 84.3996 171.811 84.4943 171.795C84.589 171.777 84.6648 171.761 84.7216 171.75L84.9943 172.955C84.9034 172.989 84.7765 173.023 84.6136 173.057C84.4508 173.095 84.2443 173.114 83.9943 173.114C83.6155 173.114 83.2443 173.032 82.8807 172.869C82.5208 172.706 82.2216 172.458 81.983 172.125C81.7481 171.792 81.6307 171.371 81.6307 170.864V162.182ZM91.5398 167.386V168.636H86.4489V167.386H91.5398ZM92.2571 162.614V161.364H100.984V162.614H97.3253V173H95.9162V162.614H92.2571ZM102.977 173V164.273H104.318V173H102.977ZM103.659 162.818C103.398 162.818 103.172 162.729 102.983 162.551C102.797 162.373 102.705 162.159 102.705 161.909C102.705 161.659 102.797 161.445 102.983 161.267C103.172 161.089 103.398 161 103.659 161C103.92 161 104.144 161.089 104.33 161.267C104.519 161.445 104.614 161.659 104.614 161.909C104.614 162.159 104.519 162.373 104.33 162.551C104.144 162.729 103.92 162.818 103.659 162.818ZM106.774 173V164.273H108.07V165.636H108.183C108.365 165.17 108.659 164.809 109.064 164.551C109.469 164.29 109.956 164.159 110.524 164.159C111.1 164.159 111.579 164.29 111.962 164.551C112.348 164.809 112.649 165.17 112.865 165.636H112.956C113.179 165.186 113.515 164.828 113.962 164.562C114.409 164.294 114.945 164.159 115.57 164.159C116.35 164.159 116.988 164.403 117.484 164.892C117.981 165.377 118.229 166.133 118.229 167.159V173H116.888V167.159C116.888 166.515 116.712 166.055 116.359 165.778C116.007 165.502 115.592 165.364 115.115 165.364C114.501 165.364 114.026 165.549 113.689 165.92C113.352 166.288 113.183 166.754 113.183 167.318V173H111.82V167.023C111.82 166.527 111.659 166.127 111.337 165.824C111.015 165.517 110.6 165.364 110.092 165.364C109.744 165.364 109.418 165.456 109.115 165.642C108.816 165.828 108.573 166.085 108.388 166.415C108.206 166.741 108.115 167.117 108.115 167.545V173H106.774ZM124.339 173.182C123.499 173.182 122.773 172.996 122.163 172.625C121.557 172.25 121.089 171.727 120.76 171.057C120.434 170.383 120.271 169.598 120.271 168.705C120.271 167.811 120.434 167.023 120.76 166.341C121.089 165.655 121.548 165.121 122.135 164.739C122.726 164.352 123.415 164.159 124.203 164.159C124.658 164.159 125.107 164.235 125.55 164.386C125.993 164.538 126.396 164.784 126.76 165.125C127.124 165.462 127.413 165.909 127.629 166.466C127.845 167.023 127.953 167.708 127.953 168.523V169.091H121.226V167.932H126.589C126.589 167.439 126.491 167 126.294 166.614C126.101 166.227 125.824 165.922 125.464 165.699C125.108 165.475 124.688 165.364 124.203 165.364C123.669 165.364 123.207 165.496 122.817 165.761C122.43 166.023 122.133 166.364 121.925 166.784C121.716 167.205 121.612 167.655 121.612 168.136V168.909C121.612 169.568 121.726 170.127 121.953 170.585C122.184 171.04 122.504 171.386 122.913 171.625C123.322 171.86 123.798 171.977 124.339 171.977C124.692 171.977 125.01 171.928 125.294 171.83C125.582 171.727 125.83 171.576 126.038 171.375C126.247 171.17 126.408 170.917 126.521 170.614L127.817 170.977C127.68 171.417 127.451 171.803 127.129 172.136C126.807 172.466 126.41 172.723 125.936 172.909C125.463 173.091 124.93 173.182 124.339 173.182ZM138.038 173.182C137.22 173.182 136.516 172.989 135.925 172.602C135.334 172.216 134.879 171.684 134.561 171.006C134.243 170.328 134.084 169.553 134.084 168.682C134.084 167.795 134.247 167.013 134.572 166.335C134.902 165.653 135.36 165.121 135.947 164.739C136.538 164.352 137.228 164.159 138.016 164.159C138.629 164.159 139.182 164.273 139.675 164.5C140.167 164.727 140.571 165.045 140.885 165.455C141.199 165.864 141.394 166.341 141.47 166.886H140.129C140.027 166.489 139.8 166.136 139.447 165.83C139.099 165.519 138.629 165.364 138.038 165.364C137.516 165.364 137.057 165.5 136.663 165.773C136.273 166.042 135.968 166.422 135.749 166.915C135.533 167.403 135.425 167.977 135.425 168.636C135.425 169.311 135.531 169.898 135.743 170.398C135.959 170.898 136.262 171.286 136.652 171.562C137.046 171.839 137.508 171.977 138.038 171.977C138.387 171.977 138.703 171.917 138.987 171.795C139.271 171.674 139.512 171.5 139.709 171.273C139.906 171.045 140.046 170.773 140.129 170.455H141.47C141.394 170.97 141.207 171.434 140.908 171.847C140.612 172.256 140.22 172.581 139.732 172.824C139.247 173.062 138.682 173.182 138.038 173.182ZM144.771 161.364V173H143.43V161.364H144.771ZM147.227 173V164.273H148.568V173H147.227ZM147.909 162.818C147.648 162.818 147.422 162.729 147.233 162.551C147.047 162.373 146.955 162.159 146.955 161.909C146.955 161.659 147.047 161.445 147.233 161.267C147.422 161.089 147.648 161 147.909 161C148.17 161 148.394 161.089 148.58 161.267C148.769 161.445 148.864 161.659 148.864 161.909C148.864 162.159 148.769 162.373 148.58 162.551C148.394 162.729 148.17 162.818 147.909 162.818ZM154.683 173.182C153.842 173.182 153.117 172.996 152.507 172.625C151.901 172.25 151.433 171.727 151.104 171.057C150.778 170.383 150.615 169.598 150.615 168.705C150.615 167.811 150.778 167.023 151.104 166.341C151.433 165.655 151.892 165.121 152.479 164.739C153.07 164.352 153.759 164.159 154.547 164.159C155.001 164.159 155.45 164.235 155.893 164.386C156.337 164.538 156.74 164.784 157.104 165.125C157.467 165.462 157.757 165.909 157.973 166.466C158.189 167.023 158.297 167.708 158.297 168.523V169.091H151.57V167.932H156.933C156.933 167.439 156.835 167 156.638 166.614C156.445 166.227 156.168 165.922 155.808 165.699C155.452 165.475 155.032 165.364 154.547 165.364C154.013 165.364 153.551 165.496 153.161 165.761C152.774 166.023 152.477 166.364 152.268 166.784C152.06 167.205 151.956 167.655 151.956 168.136V168.909C151.956 169.568 152.07 170.127 152.297 170.585C152.528 171.04 152.848 171.386 153.257 171.625C153.666 171.86 154.142 171.977 154.683 171.977C155.036 171.977 155.354 171.928 155.638 171.83C155.926 171.727 156.174 171.576 156.382 171.375C156.59 171.17 156.751 170.917 156.865 170.614L158.161 170.977C158.024 171.417 157.795 171.803 157.473 172.136C157.151 172.466 156.753 172.723 156.28 172.909C155.806 173.091 155.274 173.182 154.683 173.182ZM161.678 167.75V173H160.337V164.273H161.632V165.636H161.746C161.95 165.193 162.261 164.837 162.678 164.568C163.094 164.295 163.632 164.159 164.291 164.159C164.882 164.159 165.399 164.28 165.842 164.523C166.286 164.761 166.63 165.125 166.876 165.614C167.123 166.098 167.246 166.712 167.246 167.455V173H165.905V167.545C165.905 166.86 165.727 166.326 165.371 165.943C165.015 165.557 164.526 165.364 163.905 165.364C163.477 165.364 163.094 165.456 162.757 165.642C162.424 165.828 162.161 166.098 161.967 166.455C161.774 166.811 161.678 167.242 161.678 167.75ZM173.491 164.273V165.409H168.969V164.273H173.491ZM170.287 162.182H171.628V170.5C171.628 170.879 171.683 171.163 171.793 171.352C171.906 171.538 172.05 171.663 172.224 171.727C172.402 171.788 172.59 171.818 172.787 171.818C172.935 171.818 173.056 171.811 173.151 171.795C173.245 171.777 173.321 171.761 173.378 171.75L173.651 172.955C173.56 172.989 173.433 173.023 173.27 173.057C173.107 173.095 172.901 173.114 172.651 173.114C172.272 173.114 171.901 173.032 171.537 172.869C171.177 172.706 170.878 172.458 170.639 172.125C170.404 171.792 170.287 171.371 170.287 170.864V162.182ZM181.534 166.227L180.33 166.568C180.254 166.367 180.142 166.172 179.994 165.983C179.85 165.79 179.653 165.631 179.403 165.506C179.153 165.381 178.833 165.318 178.443 165.318C177.909 165.318 177.464 165.441 177.108 165.688C176.756 165.93 176.58 166.239 176.58 166.614C176.58 166.947 176.701 167.21 176.943 167.403C177.186 167.597 177.564 167.758 178.08 167.886L179.375 168.205C180.155 168.394 180.737 168.684 181.119 169.074C181.502 169.46 181.693 169.958 181.693 170.568C181.693 171.068 181.549 171.515 181.261 171.909C180.977 172.303 180.58 172.614 180.068 172.841C179.557 173.068 178.962 173.182 178.284 173.182C177.394 173.182 176.657 172.989 176.074 172.602C175.491 172.216 175.121 171.652 174.966 170.909L176.239 170.591C176.36 171.061 176.589 171.413 176.926 171.648C177.267 171.883 177.712 172 178.261 172C178.886 172 179.383 171.867 179.75 171.602C180.121 171.333 180.307 171.011 180.307 170.636C180.307 170.333 180.201 170.08 179.989 169.875C179.777 169.667 179.451 169.511 179.011 169.409L177.557 169.068C176.758 168.879 176.17 168.585 175.795 168.188C175.424 167.786 175.239 167.284 175.239 166.682C175.239 166.189 175.377 165.754 175.653 165.375C175.934 164.996 176.314 164.699 176.795 164.483C177.28 164.267 177.83 164.159 178.443 164.159C179.307 164.159 179.985 164.348 180.477 164.727C180.973 165.106 181.326 165.606 181.534 166.227ZM191.984 173H188.393V161.364H192.143C193.272 161.364 194.238 161.597 195.041 162.062C195.844 162.525 196.46 163.189 196.888 164.057C197.316 164.92 197.53 165.955 197.53 167.159C197.53 168.371 197.314 169.415 196.882 170.29C196.45 171.161 195.821 171.831 194.996 172.301C194.17 172.767 193.166 173 191.984 173ZM189.803 171.75H191.893C192.856 171.75 193.653 171.564 194.286 171.193C194.918 170.822 195.39 170.294 195.7 169.608C196.011 168.922 196.166 168.106 196.166 167.159C196.166 166.22 196.013 165.411 195.706 164.733C195.399 164.051 194.941 163.528 194.331 163.165C193.721 162.797 192.962 162.614 192.053 162.614H189.803V171.75ZM199.712 173V164.273H201.053V173H199.712ZM200.393 162.818C200.132 162.818 199.907 162.729 199.717 162.551C199.532 162.373 199.439 162.159 199.439 161.909C199.439 161.659 199.532 161.445 199.717 161.267C199.907 161.089 200.132 161 200.393 161C200.655 161 200.878 161.089 201.064 161.267C201.253 161.445 201.348 161.659 201.348 161.909C201.348 162.159 201.253 162.373 201.064 162.551C200.878 162.729 200.655 162.818 200.393 162.818ZM209.69 166.227L208.486 166.568C208.41 166.367 208.298 166.172 208.151 165.983C208.007 165.79 207.81 165.631 207.56 165.506C207.31 165.381 206.99 165.318 206.599 165.318C206.065 165.318 205.62 165.441 205.264 165.688C204.912 165.93 204.736 166.239 204.736 166.614C204.736 166.947 204.857 167.21 205.099 167.403C205.342 167.597 205.721 167.758 206.236 167.886L207.531 168.205C208.312 168.394 208.893 168.684 209.276 169.074C209.658 169.46 209.849 169.958 209.849 170.568C209.849 171.068 209.705 171.515 209.418 171.909C209.134 172.303 208.736 172.614 208.224 172.841C207.713 173.068 207.118 173.182 206.44 173.182C205.55 173.182 204.813 172.989 204.23 172.602C203.647 172.216 203.277 171.652 203.122 170.909L204.395 170.591C204.516 171.061 204.745 171.413 205.082 171.648C205.423 171.883 205.868 172 206.418 172C207.043 172 207.539 171.867 207.906 171.602C208.277 171.333 208.463 171.011 208.463 170.636C208.463 170.333 208.357 170.08 208.145 169.875C207.933 169.667 207.607 169.511 207.168 169.409L205.713 169.068C204.914 168.879 204.327 168.585 203.952 168.188C203.58 167.786 203.395 167.284 203.395 166.682C203.395 166.189 203.533 165.754 203.81 165.375C204.09 164.996 204.471 164.699 204.952 164.483C205.437 164.267 205.986 164.159 206.599 164.159C207.463 164.159 208.141 164.348 208.634 164.727C209.13 165.106 209.482 165.606 209.69 166.227ZM215.413 173.182C214.595 173.182 213.891 172.989 213.3 172.602C212.709 172.216 212.254 171.684 211.936 171.006C211.618 170.328 211.459 169.553 211.459 168.682C211.459 167.795 211.622 167.013 211.947 166.335C212.277 165.653 212.735 165.121 213.322 164.739C213.913 164.352 214.603 164.159 215.391 164.159C216.004 164.159 216.557 164.273 217.05 164.5C217.542 164.727 217.946 165.045 218.26 165.455C218.574 165.864 218.769 166.341 218.845 166.886H217.504C217.402 166.489 217.175 166.136 216.822 165.83C216.474 165.519 216.004 165.364 215.413 165.364C214.891 165.364 214.432 165.5 214.038 165.773C213.648 166.042 213.343 166.422 213.124 166.915C212.908 167.403 212.8 167.977 212.8 168.636C212.8 169.311 212.906 169.898 213.118 170.398C213.334 170.898 213.637 171.286 214.027 171.562C214.421 171.839 214.883 171.977 215.413 171.977C215.762 171.977 216.078 171.917 216.362 171.795C216.646 171.674 216.887 171.5 217.084 171.273C217.281 171.045 217.421 170.773 217.504 170.455H218.845C218.769 170.97 218.582 171.434 218.283 171.847C217.987 172.256 217.595 172.581 217.107 172.824C216.622 173.062 216.057 173.182 215.413 173.182ZM224.351 173.182C223.563 173.182 222.872 172.994 222.277 172.619C221.686 172.244 221.224 171.72 220.891 171.045C220.561 170.371 220.396 169.583 220.396 168.682C220.396 167.773 220.561 166.979 220.891 166.301C221.224 165.623 221.686 165.097 222.277 164.722C222.872 164.347 223.563 164.159 224.351 164.159C225.139 164.159 225.828 164.347 226.419 164.722C227.014 165.097 227.476 165.623 227.805 166.301C228.139 166.979 228.305 167.773 228.305 168.682C228.305 169.583 228.139 170.371 227.805 171.045C227.476 171.72 227.014 172.244 226.419 172.619C225.828 172.994 225.139 173.182 224.351 173.182ZM224.351 171.977C224.949 171.977 225.442 171.824 225.828 171.517C226.214 171.21 226.5 170.807 226.686 170.307C226.872 169.807 226.964 169.265 226.964 168.682C226.964 168.098 226.872 167.555 226.686 167.051C226.5 166.547 226.214 166.14 225.828 165.83C225.442 165.519 224.949 165.364 224.351 165.364C223.752 165.364 223.26 165.519 222.874 165.83C222.487 166.14 222.201 166.547 222.016 167.051C221.83 167.555 221.737 168.098 221.737 168.682C221.737 169.265 221.83 169.807 222.016 170.307C222.201 170.807 222.487 171.21 222.874 171.517C223.26 171.824 223.752 171.977 224.351 171.977ZM235.852 169.432V164.273H237.193V173H235.852V171.523H235.761C235.557 171.966 235.239 172.343 234.807 172.653C234.375 172.96 233.83 173.114 233.17 173.114C232.625 173.114 232.14 172.994 231.716 172.756C231.292 172.513 230.958 172.15 230.716 171.665C230.473 171.176 230.352 170.561 230.352 169.818V164.273H231.693V169.727C231.693 170.364 231.871 170.871 232.227 171.25C232.587 171.629 233.045 171.818 233.602 171.818C233.936 171.818 234.275 171.733 234.619 171.562C234.968 171.392 235.259 171.131 235.494 170.778C235.733 170.426 235.852 169.977 235.852 169.432ZM240.99 167.75V173H239.649V164.273H240.945V165.636H241.058C241.263 165.193 241.573 164.837 241.99 164.568C242.407 164.295 242.945 164.159 243.604 164.159C244.195 164.159 244.712 164.28 245.155 164.523C245.598 164.761 245.943 165.125 246.189 165.614C246.435 166.098 246.558 166.712 246.558 167.455V173H245.217V167.545C245.217 166.86 245.039 166.326 244.683 165.943C244.327 165.557 243.839 165.364 243.217 165.364C242.789 165.364 242.407 165.456 242.07 165.642C241.736 165.828 241.473 166.098 241.28 166.455C241.087 166.811 240.99 167.242 240.99 167.75ZM252.804 164.273V165.409H248.281V164.273H252.804ZM249.599 162.182H250.94V170.5C250.94 170.879 250.995 171.163 251.105 171.352C251.219 171.538 251.363 171.663 251.537 171.727C251.715 171.788 251.902 171.818 252.099 171.818C252.247 171.818 252.368 171.811 252.463 171.795C252.558 171.777 252.634 171.761 252.69 171.75L252.963 172.955C252.872 172.989 252.745 173.023 252.582 173.057C252.42 173.095 252.213 173.114 251.963 173.114C251.584 173.114 251.213 173.032 250.849 172.869C250.49 172.706 250.19 172.458 249.952 172.125C249.717 171.792 249.599 171.371 249.599 170.864V162.182Z" fill="black"/>
<path fill-rule="evenodd" clip-rule="evenodd" d="M283.036 12H281.964V18.6204L277.576 13.9391L276.818 14.7472L281.207 19.4286H275V20.5714H281.207L276.818 25.2528L277.576 26.0609L281.964 21.3795V28H283.036V21.3795L287.425 26.0609L288.182 25.2528L283.793 20.5714H290V19.4286H283.793L288.182 14.7472L287.425 13.9391L283.036 18.6204V12Z" fill="#C1554E"/>
</g>
<defs>
<linearGradient id="paint0_linear_1_657" x1="135.548" y1="72" x2="140.961" y2="151.148" gradientUnits="userSpaceOnUse">
<stop offset="0.630979" stop-color="#C1554E"/>
<stop offset="1" stop-color="#F4C5C1"/>
</linearGradient>
<clipPath id="clip0_1_657">
<rect width="315" height="216" fill="white"/>
</clipPath>
</defs>
</svg>
