<svg width="35" height="34" viewBox="0 0 35 34" fill="none" xmlns="http://www.w3.org/2000/svg">
<g clip-path="url(#clip0_1_424)">
<path fill-rule="evenodd" clip-rule="evenodd" d="M10.3625 30.0972H25.4378V33.15H10.3625V30.0972Z" fill="#E63946"/>
<path fill-rule="evenodd" clip-rule="evenodd" d="M10.3625 25.2451H25.4378V28.298H10.3625V25.2451Z" fill="#E63946"/>
<path fill-rule="evenodd" clip-rule="evenodd" d="M10.3625 20.3931H25.4378V23.4459H10.3625V20.3931Z" fill="#E63946"/>
<path fill-rule="evenodd" clip-rule="evenodd" d="M34.0496 13.8012V32.0723C34.0496 32.6673 33.5668 33.1501 32.9718 33.1501H27.5897V21.3082C27.5897 19.5233 26.1448 18.0783 24.3598 18.0783H11.4402C9.65522 18.0783 8.21026 19.5233 8.21026 21.3082V33.1501H2.82819C2.23321 33.1501 1.75043 32.6673 1.75043 32.0723V13.8012C1.75043 12.7574 2.25361 11.7783 3.10358 11.1731C6.3539 8.85093 17.2744 1.05154 17.2744 1.05154C17.6484 0.782951 18.1516 0.782951 18.5256 1.05154C18.5256 1.05154 29.4461 8.85093 32.6964 11.1731C33.5464 11.7783 34.0496 12.7574 34.0496 13.8012Z" fill="#E63946"/>
</g>
<defs>
<clipPath id="clip0_1_424">
<rect width="34" height="34" fill="white" transform="translate(0.900024)"/>
</clipPath>
</defs>
</svg>
