<svg width="35" height="34" viewBox="0 0 35 34" fill="none" xmlns="http://www.w3.org/2000/svg">
<g clip-path="url(#clip0_1_414)">
<mask id="mask0_1_414" style="mask-type:luminance" maskUnits="userSpaceOnUse" x="0" y="0" width="35" height="34">
<path d="M0.900024 0H34.9V34H0.900024V0Z" fill="white"/>
</mask>
<g mask="url(#mask0_1_414)">
<path fill-rule="evenodd" clip-rule="evenodd" d="M0.900024 7.004C0.900024 3.1358 4.03582 0 7.90402 0H27.896C31.7642 0 34.9 3.1358 34.9 7.004V11.9843C33.0736 10.6079 30.8011 9.792 28.338 9.792C22.3104 9.792 17.424 14.6783 17.424 20.706C17.424 23.1404 18.2223 25.3872 19.5663 27.2H7.90402C4.03582 27.2 0.900024 24.0642 0.900024 20.196L0.900024 7.004ZM5.49002 7.82C5.49002 6.61823 6.46425 5.644 7.66602 5.644H15.758C16.9598 5.644 17.934 6.61823 17.934 7.82C17.934 9.02176 16.9598 9.996 15.758 9.996H7.66602C6.46425 9.996 5.49002 9.02176 5.49002 7.82ZM7.70002 13.804C6.49825 13.804 5.52402 14.7782 5.52402 15.98C5.52402 17.1818 6.49825 18.156 7.70002 18.156H11.236C12.4378 18.156 13.412 17.1818 13.412 15.98C13.412 14.7782 12.4378 13.804 11.236 13.804H7.70002Z" fill="#E63946"/>
<path d="M34.8953 20.4552C34.7635 16.9473 31.8781 14.144 28.338 14.144C24.7139 14.144 21.776 17.082 21.776 20.706C21.776 23.0425 22.9971 25.0938 24.836 26.2565V34L28.372 30.804L31.908 34V26.2129C33.7089 25.0429 34.9 23.0136 34.9 20.706C34.9 20.6221 34.8984 20.5384 34.8953 20.4552Z" fill="#E63946"/>
</g>
</g>
<defs>
<clipPath id="clip0_1_414">
<rect width="34" height="34" fill="white" transform="translate(0.900024)"/>
</clipPath>
</defs>
</svg>
