<svg width="35" height="34" viewBox="0 0 35 34" fill="none" xmlns="http://www.w3.org/2000/svg">
<path d="M27.7938 6.375H26.2V9.37125C26.2 12.155 24.6594 14.7369 22.2794 15.9481L19.1238 17.5525C18.6881 17.7756 18.1994 17.8925 17.7 17.8925C17.2006 17.8925 16.7119 17.7756 16.2763 17.5525L13.1206 15.9481C10.7406 14.7475 9.20001 12.1656 9.20001 9.37125V6.375H7.60626C6.14001 6.375 4.95001 7.565 4.95001 9.03125V30.2812C4.95001 31.7475 6.14001 32.9375 7.60626 32.9375H27.7938C29.26 32.9375 30.45 31.7475 30.45 30.2812V9.03125C30.45 7.565 29.26 6.375 27.7938 6.375ZM9.73126 30.8125H8.66876C8.08439 30.8125 7.60626 30.3344 7.60626 29.75C7.60626 29.1656 8.08439 28.6875 8.66876 28.6875H9.73126C10.3156 28.6875 10.7938 29.1656 10.7938 29.75C10.7938 30.3344 10.3156 30.8125 9.73126 30.8125ZM9.73126 26.5625H8.66876C8.08439 26.5625 7.60626 26.0844 7.60626 25.5C7.60626 24.9156 8.08439 24.4375 8.66876 24.4375H9.73126C10.3156 24.4375 10.7938 24.9156 10.7938 25.5C10.7938 26.0844 10.3156 26.5625 9.73126 26.5625ZM9.73126 22.3125H8.66876C8.08439 22.3125 7.60626 21.8344 7.60626 21.25C7.60626 20.6656 8.08439 20.1875 8.66876 20.1875H9.73126C10.3156 20.1875 10.7938 20.6656 10.7938 21.25C10.7938 21.8344 10.3156 22.3125 9.73126 22.3125ZM26.7313 30.8125H12.9188C12.3344 30.8125 11.8563 30.3344 11.8563 29.75C11.8563 29.1656 12.3344 28.6875 12.9188 28.6875H26.7313C27.3156 28.6875 27.7938 29.1656 27.7938 29.75C27.7938 30.3344 27.3156 30.8125 26.7313 30.8125ZM26.7313 26.5625H12.9188C12.3344 26.5625 11.8563 26.0844 11.8563 25.5C11.8563 24.9156 12.3344 24.4375 12.9188 24.4375H26.7313C27.3156 24.4375 27.7938 24.9156 27.7938 25.5C27.7938 26.0844 27.3156 26.5625 26.7313 26.5625ZM26.7313 22.3125H12.9188C12.3344 22.3125 11.8563 21.8344 11.8563 21.25C11.8563 20.6656 12.3344 20.1875 12.9188 20.1875H26.7313C27.3156 20.1875 27.7938 20.6656 27.7938 21.25C27.7938 21.8344 27.3156 22.3125 26.7313 22.3125Z" fill="#E63946"/>
<path d="M14.0769 14.046L17.2325 15.6504C17.3813 15.7248 17.5406 15.7567 17.6894 15.7567C17.8381 15.7567 18.0081 15.7248 18.1463 15.6504L21.3019 14.046C22.9806 13.196 24.0538 11.3579 24.0538 9.37103V3.44229C24.0538 2.87916 23.5969 2.42229 23.0338 2.42229C20.6644 2.42229 18.1569 1.18979 18.1356 1.16854C17.8488 1.03041 17.5088 1.03041 17.2219 1.16854C17.2006 1.17916 14.6825 2.42229 12.3238 2.42229C11.7606 2.42229 11.3038 2.87916 11.3038 3.44229V9.37103C11.3038 11.3685 12.3875 13.196 14.0556 14.046H14.0769ZM14.2894 6.96979C14.7038 6.55541 15.3731 6.55541 15.7875 6.96979L17.2006 8.38291L19.6444 6.19416C20.08 5.80103 20.7494 5.84353 21.1425 6.27916C21.5356 6.71479 21.5038 7.38416 21.0575 7.77729L17.87 10.646C17.6681 10.8267 17.4131 10.9223 17.1581 10.9223C16.8819 10.9223 16.6163 10.816 16.4038 10.6142L14.2788 8.48916C13.8644 8.07478 13.8644 7.40541 14.2788 6.99103L14.2894 6.96979Z" fill="#E63946"/>
</svg>
