<svg width="35" height="34" viewBox="0 0 35 34" fill="none" xmlns="http://www.w3.org/2000/svg">
<g clip-path="url(#clip0_1_433)">
<path fill-rule="evenodd" clip-rule="evenodd" d="M17.7 19.2833L12.2648 22.6279C11.6765 22.99 10.9301 22.9679 10.364 22.5741C9.79785 22.1804 9.51953 21.4877 9.65553 20.8109L10.9285 14.4411L6.74258 10.2552C6.26339 9.776 6.10686 9.05967 6.34407 8.42234C6.58128 7.78663 7.16793 7.34701 7.84638 7.29957L13.6042 6.88841L16.1059 1.05158C16.3795 0.412708 17.0058 0 17.7 0C18.3942 0 19.0204 0.41277 19.294 1.05158L21.7957 6.88841L27.5535 7.29957C28.2319 7.34701 28.8186 7.78663 29.0558 8.42234C29.293 9.05967 29.1365 9.776 28.6573 10.2552L24.4714 14.4411L25.7444 20.8108C25.8804 21.4877 25.6021 22.1803 25.0359 22.574C24.4698 22.9678 23.7234 22.99 23.1351 22.6278L17.7 19.2833Z" fill="#E63946"/>
<path fill-rule="evenodd" clip-rule="evenodd" d="M15.5556 22.4602L15.8497 22.4808C16.4617 22.5235 16.9915 22.9204 17.2066 23.4945C17.4201 24.0701 17.2793 24.7153 16.846 25.1486L14.0865 27.9097L14.9294 32.1272C15.0527 32.7376 14.7997 33.3622 14.289 33.718C13.7782 34.0754 13.1045 34.0944 12.5748 33.7671L9.00246 31.569L5.43016 33.7671C4.90037 34.0945 4.22676 34.0754 3.71595 33.718C3.2052 33.3622 2.95211 32.7376 3.07552 32.1272L3.91837 27.9097L1.15883 25.1501C0.725538 24.7153 0.584764 24.07 0.798281 23.4944C1.01335 22.9203 1.54308 22.5234 2.1551 22.4808L5.91877 22.2119L7.5634 18.3755C7.77215 17.8901 8.20705 17.5485 8.71309 17.4536L8.10423 20.5009C7.84489 21.7945 8.37778 23.118 9.46105 23.8724C10.5443 24.6251 11.9707 24.6662 13.0935 23.9752L15.5556 22.4602Z" fill="#E63946"/>
<path fill-rule="evenodd" clip-rule="evenodd" d="M26.687 17.4536C27.193 17.5485 27.6278 17.8901 27.8366 18.3756L29.4812 22.212L33.2449 22.4808C33.8569 22.5236 34.3866 22.9205 34.6017 23.4945C34.8152 24.0701 34.6744 24.7154 34.2412 25.1486L31.4816 27.9097L32.3245 32.1272C32.4479 32.7376 32.1949 33.3623 31.684 33.7181C31.1732 34.0755 30.4996 34.0945 29.9698 33.7671L26.3975 31.569L22.8252 33.7671C22.2954 34.0945 21.6218 34.0755 21.111 33.7181C20.6002 33.3623 20.3472 32.7376 20.4705 32.1272L21.3134 27.9097L18.5539 25.1502C18.1206 24.7154 17.9798 24.0701 18.1934 23.4945C18.4084 22.9204 18.9382 22.5235 19.5502 22.4808L19.8443 22.4603L22.3065 23.9753C23.4293 24.6664 24.8557 24.6252 25.9389 23.8724C27.0221 23.1181 27.5551 21.7945 27.2958 20.501L26.687 17.4536Z" fill="#E63946"/>
</g>
<defs>
<clipPath id="clip0_1_433">
<rect width="34" height="34" fill="white" transform="translate(0.700012)"/>
</clipPath>
</defs>
</svg>
