<svg width="35" height="34" viewBox="0 0 35 34" fill="none" xmlns="http://www.w3.org/2000/svg">
<path fill-rule="evenodd" clip-rule="evenodd" d="M3.3333 11.3476C3.3333 10.8736 3.45225 10.4071 3.67926 9.9909L6.77789 4.31008C7.27439 3.39984 8.22843 2.8335 9.26526 2.8335H17.2347C18.2715 2.8335 19.2256 3.39984 19.722 4.31008L22.8207 9.9909C23.0477 10.4071 23.1666 10.8736 23.1666 11.3476V28.3335C23.1666 29.8983 21.8981 31.1668 20.3333 31.1668H6.16664C4.60182 31.1668 3.3333 29.8983 3.3333 28.3335V11.3476ZM13.25 7.08349C14.0324 7.08349 14.6666 7.71776 14.6666 8.50017C14.6666 9.28258 14.0324 9.91681 13.25 9.91681C12.4676 9.91681 11.8333 9.28258 11.8333 8.50017C11.8333 7.71776 12.4676 7.08349 13.25 7.08349ZM14.3125 14.1668V14.6676C15.9477 15.1301 17.1458 16.6335 17.1458 18.4168V18.5585C17.1458 19.1453 16.6701 19.621 16.0833 19.621C15.4965 19.621 15.0208 19.1453 15.0208 18.5585V18.4168C15.0208 17.4388 14.228 16.646 13.25 16.646H13.1437C12.2244 16.646 11.4791 17.3913 11.4791 18.3106C11.4791 19.2299 12.2244 19.9752 13.1437 19.9752H13.8521C15.6711 19.9752 17.1458 21.4498 17.1458 23.2689C17.1458 24.9318 15.9136 26.3068 14.3125 26.5307V26.9168C14.3125 27.5036 13.8368 27.9793 13.25 27.9793C12.6632 27.9793 12.1875 27.5036 12.1875 26.9168V26.5554C10.6045 26.4463 9.35414 25.1276 9.35414 23.5168C9.35414 22.93 9.82983 22.4543 10.4166 22.4543C11.0034 22.4543 11.4791 22.93 11.4791 23.5168C11.4791 24.0254 11.8914 24.4377 12.4 24.4377H13.8521C14.4975 24.4377 15.0208 23.9144 15.0208 23.2689C15.0208 22.6234 14.4975 22.1002 13.8521 22.1002H13.1437C11.0508 22.1002 9.35414 20.4035 9.35414 18.3106C9.35414 16.548 10.5575 15.0664 12.1875 14.6427V14.1668C12.1875 13.58 12.6632 13.1043 13.25 13.1043C13.8368 13.1043 14.3125 13.58 14.3125 14.1668Z" fill="#E63946"/>
<path d="M30.2042 23.4789L25.2916 26.2153V9.91699C25.2916 9.91699 28.8379 15.5539 31.2744 19.6255C32.0818 20.9747 31.6027 22.6999 30.2042 23.4789Z" fill="#E63946"/>
</svg>
