<svg width="35" height="34" viewBox="0 0 35 34" fill="none" xmlns="http://www.w3.org/2000/svg">
<g clip-path="url(#clip0_1_449)">
<path d="M21.143 17.2316V14.978L19.8422 17.2316H21.143Z" fill="#E63946"/>
<path d="M17.5 8.06055C12.5707 8.06055 8.56032 12.0709 8.56032 17.0002C8.56032 21.9296 12.5707 25.9399 17.5 25.9399C22.4293 25.9399 26.4397 21.9296 26.4397 17.0002C26.4397 12.0709 22.4293 8.06055 17.5 8.06055ZM17.6472 21.2254H11.585L11.5887 19.4101L15.0271 15.5014C15.2343 15.2659 15.3484 14.9633 15.3484 14.6496C15.3484 14.162 14.9517 13.7652 14.464 13.7652C13.9764 13.7652 13.5796 14.162 13.5796 14.6496V14.8451H11.5874V14.6496C11.5874 13.0635 12.8779 11.7731 14.464 11.7731C16.0502 11.7731 17.3406 13.0635 17.3406 14.6496C17.3406 15.448 17.0502 16.2178 16.5229 16.8173L14.3976 19.2286H17.6472V21.2254ZM23.1352 21.2313H21.143V19.2285H17.6472V17.0319L20.4178 12.2493H23.1352V21.2313Z" fill="#E63946"/>
<path d="M32.0414 13.8103C31.6593 12.0672 30.972 10.437 30.0367 8.98012L31.4177 6.8761L27.6238 3.08225L25.5225 4.46502C24.0659 3.52943 22.4358 2.84172 20.6929 2.45929L20.1827 0H14.8173L14.3103 2.45862C12.5683 2.84046 10.9391 3.5271 9.48297 4.46137L7.3761 3.08218L3.58218 6.87604L4.96316 8.98005C4.02909 10.4351 3.34225 12.063 2.95995 13.8037L0.5 14.3173V19.6827L2.95929 20.1929C3.34126 21.9337 4.02763 23.5617 4.96137 25.017L3.58218 27.1239L7.3761 30.9178L9.48012 29.5368C10.9352 30.4708 12.5631 31.1576 14.3037 31.54L14.8173 34H20.1827L20.6929 31.5406C22.4348 31.1585 24.0639 30.4714 25.5199 29.5367L27.6239 30.9177L31.4178 27.1238L30.035 25.0225C30.9706 23.5659 31.6583 21.9358 32.0407 20.1929L34.5 19.6827V14.3173L32.0414 13.8103ZM17.5 27.9944C11.4377 27.9944 6.50565 23.0623 6.50565 17C6.50565 10.9377 11.4377 6.00565 17.5 6.00565C23.5623 6.00565 28.4944 10.9377 28.4944 17C28.4944 23.0623 23.5623 27.9944 17.5 27.9944Z" fill="#E63946"/>
</g>
<defs>
<clipPath id="clip0_1_449">
<rect width="34" height="34" fill="white" transform="translate(0.5)"/>
</clipPath>
</defs>
</svg>
