<svg width="32" height="33" viewBox="0 0 32 33" fill="none" xmlns="http://www.w3.org/2000/svg">
<path fill-rule="evenodd" clip-rule="evenodd" d="M21.3333 4.65723H10.6667C6.98477 4.65723 4 7.642 4 11.3239V21.9906C4 25.6724 6.98477 28.6572 10.6667 28.6572H21.3333C25.0152 28.6572 28 25.6724 28 21.9906V11.3239C28 7.642 25.0152 4.65723 21.3333 4.65723ZM25.6667 21.9906C25.6593 24.3807 23.7235 26.3166 21.3333 26.3239H10.6667C8.27647 26.3166 6.34065 24.3807 6.33333 21.9906V11.3239C6.34065 8.93369 8.27647 6.99788 10.6667 6.99056H21.3333C23.7235 6.99788 25.6593 8.93369 25.6667 11.3239V21.9906ZM22.3333 11.6572C23.0697 11.6572 23.6667 11.0603 23.6667 10.3239C23.6667 9.58752 23.0697 8.99056 22.3333 8.99056C21.5969 8.99056 21 9.58752 21 10.3239C21 11.0603 21.5969 11.6572 22.3333 11.6572ZM16 10.6572C12.6863 10.6572 10 13.3435 10 16.6572C10 19.971 12.6863 22.6572 16 22.6572C19.3137 22.6572 22 19.971 22 16.6572C22.0036 15.0648 21.3725 13.5367 20.2465 12.4107C19.1205 11.2847 17.5924 10.6537 16 10.6572ZM12.3333 16.6572C12.3333 18.6823 13.9749 20.3239 16 20.3239C18.0251 20.3239 19.6667 18.6823 19.6667 16.6572C19.6667 14.6322 18.0251 12.9906 16 12.9906C13.9749 12.9906 12.3333 14.6322 12.3333 16.6572Z" fill="#9A433E"/>
</svg>
