<svg width="32" height="33" viewBox="0 0 32 33" fill="none" xmlns="http://www.w3.org/2000/svg">
<path fill-rule="evenodd" clip-rule="evenodd" d="M6 4.65723C4.89543 4.65723 4 5.55265 4 6.65723V26.6572C4 27.7618 4.89543 28.6572 6 28.6572H26C27.1045 28.6572 28 27.7618 28 26.6572V6.65723C28 5.55265 27.1045 4.65723 26 4.65723H6ZM11.361 9.99419C11.3685 11.2692 10.4141 12.0548 9.28164 12.0492C8.21476 12.0436 7.28476 11.1942 7.29039 9.99607C7.29601 8.86919 8.18664 7.96356 9.34352 7.98981C10.5173 8.01607 11.3685 8.87669 11.361 9.99419ZM16.3729 13.6729H13.0129H13.0111V25.086H16.5623V24.8198C16.5623 24.3132 16.5619 23.8066 16.5615 23.2998C16.5604 21.948 16.5592 20.5948 16.5661 19.2435C16.568 18.9154 16.5829 18.5742 16.6673 18.261C16.9841 17.091 18.0361 16.3354 19.2099 16.5211C19.9636 16.6391 20.4623 17.076 20.6723 17.7867C20.8017 18.231 20.8599 18.7091 20.8655 19.1723C20.8807 20.5691 20.8785 21.9659 20.8764 23.3628C20.8756 23.8559 20.8748 24.3492 20.8748 24.8423V25.0842H24.4373V24.8104C24.4373 24.2078 24.4371 23.6052 24.4367 23.0027C24.436 21.4967 24.4352 19.9907 24.4392 18.4842C24.4411 17.8035 24.368 17.1323 24.2011 16.4742C23.9517 15.4954 23.4361 14.6854 22.598 14.1004C22.0036 13.6841 21.3511 13.416 20.6217 13.386C20.5387 13.3826 20.4549 13.3781 20.3708 13.3735C19.9979 13.3533 19.6188 13.3329 19.2623 13.4048C18.2423 13.6091 17.3461 14.076 16.6692 14.8991C16.5905 14.9935 16.5136 15.0894 16.3988 15.2324L16.3729 15.2648V13.6729ZM7.57552 25.0898H11.1099V13.6803H7.57552V25.0898Z" fill="#9A433E"/>
</svg>
