<svg width="53" height="64" viewBox="0 0 53 64" fill="none" xmlns="http://www.w3.org/2000/svg">
<g clip-path="url(#clip0_1_104)">
<path d="M52.7446 31.9776C52.7446 37.6825 52.7446 43.3874 52.7472 49.0923C52.7472 49.3169 52.7268 49.4742 52.4903 49.6063C43.9517 54.365 35.4175 59.1327 26.8869 63.9076C26.6424 64.0442 26.4752 64.0316 26.2388 63.8995C17.7828 59.1668 9.3251 54.4369 0.855827 49.7276C0.400623 49.4742 0.246814 49.2199 0.247704 48.6933C0.266374 37.4713 0.264597 26.2493 0.253928 15.0264C0.253928 14.6544 0.373063 14.4684 0.690461 14.2923C9.22464 9.56593 17.7544 4.83057 26.2796 0.0889202C26.5046 -0.0359784 26.6619 -0.0323839 26.8869 0.0934132C34.2617 4.20518 41.641 8.30707 49.0194 12.4125C50.1547 13.0442 51.2821 13.6885 52.421 14.313C52.6539 14.4406 52.7517 14.5781 52.7508 14.8638C52.7401 20.5687 52.7428 26.2736 52.7428 31.9785L52.7446 31.9776Z" fill="white"/>
<path d="M39.1585 8.92522C39.4706 8.99621 39.6528 9.28284 39.9364 9.40055C40.7339 9.84893 41.2905 10.5498 41.8186 11.2713C42.929 12.7917 43.5256 14.5052 43.5398 16.394C43.5567 18.5945 42.8037 20.5327 41.4301 22.2301C41.1047 22.6326 41.0976 22.6281 41.4203 23.0082C42.737 24.5627 44.0733 26.1001 45.4282 27.6205C46.0141 28.2782 46.3644 29.0447 46.3297 29.954C46.3191 30.2299 46.3875 30.4806 46.5138 30.7241C46.7529 31.1868 46.9619 31.6603 47.1023 32.168C47.3637 33.1106 47.0357 33.8555 46.3626 34.4719C45.6763 35.1009 44.9481 35.6859 44.3098 36.3643C42.3369 38.4597 40.6646 40.7734 39.3248 43.3361C38.3486 45.2033 37.5751 47.1469 37.0247 49.1794C36.5375 50.9774 36.2148 52.8059 36.1526 54.6749C36.1499 54.7414 36.1446 54.8088 36.1428 54.8753C36.1357 55.0946 35.9561 55.3749 36.1552 55.5142C36.3215 55.631 36.5349 55.3974 36.7225 55.3129C37.9209 54.7747 39.0865 54.1664 40.2681 53.594C42.8837 52.3279 45.486 51.0358 48.1141 49.7958C48.2448 49.7338 48.3719 49.6538 48.5284 49.6844C48.5906 49.7086 48.6369 49.7446 48.6209 49.8228C46.1484 51.2101 43.6776 52.6011 41.2025 53.9848C36.4824 56.623 31.7579 59.2539 27.0423 61.9011C26.716 62.0844 26.4813 62.0979 26.147 61.9083C22.1097 59.6241 18.0618 57.358 14.0156 55.0883C13.7596 54.9445 13.5311 54.7657 13.3204 54.5626C13.1737 54.5401 13.0999 54.4242 13.019 54.3191C11.7325 52.6469 11.1911 50.7788 11.5814 48.6717C11.6267 48.4273 11.5911 48.2341 11.4347 48.0391C10.0877 46.3624 9.07952 44.4836 8.23312 42.5095C7.85794 41.6343 7.32538 40.8462 6.85684 40.0232C6.51277 39.4184 6.19715 38.8056 6.09491 38.0967C5.99356 37.4003 6.12692 36.7695 6.49144 36.1774C6.87907 35.5466 7.41162 35.038 7.89083 34.4845C8.14511 34.1907 8.19489 33.8959 8.11488 33.5239C7.96284 32.8096 7.66323 32.1537 7.38406 31.4887C7.32183 31.3405 7.25693 31.194 7.20536 31.0422C6.93242 30.2326 7.08445 29.6898 7.74591 29.1579C8.08998 28.8811 8.47762 28.6772 8.86792 28.4768C9.43425 28.1866 10.013 27.9215 10.5554 27.58C10.9919 27.3051 11.119 26.9376 11.0319 26.4533C10.9394 25.9384 10.8043 25.4343 10.679 24.9284C10.6203 24.6939 10.5972 24.4567 10.5758 24.215C10.5189 23.5608 10.839 23.1592 11.3804 22.8707C12.0117 22.5338 12.7007 22.3945 13.3853 22.239C13.748 22.1564 14.1036 22.0557 14.4548 21.9317C14.8638 21.7871 15.0621 21.4932 15.1127 21.0646C15.1812 20.4806 15.1856 19.8902 15.3199 19.3134C15.6862 17.7328 16.6375 16.7282 18.2147 16.4236C19.0904 16.2538 19.984 16.3185 20.8455 16.6069C20.9459 16.6411 21.0464 16.6761 21.1477 16.7076C21.5025 16.8172 21.5372 16.8019 21.4794 16.4506C21.378 15.8378 21.3878 15.2232 21.3976 14.6077C21.4314 12.4691 22.1488 10.5669 23.4309 8.89018C24.808 7.08858 26.6626 6.07771 28.8729 5.72099C29.5272 5.61496 30.1905 5.61945 30.8502 5.68774C31.3436 5.73896 31.4334 5.91777 31.2173 6.38592C30.3896 8.18212 29.5966 9.9936 28.7724 11.7916C28.5652 12.2436 28.6061 12.5769 28.9164 12.9579C30.0215 14.3192 31.4343 15.1917 33.0799 15.7048C33.4338 15.8153 33.801 15.8818 34.1602 15.9753C34.4962 16.0633 34.698 15.9654 34.8803 15.6644C35.7018 14.3048 36.5117 12.9372 37.3546 11.5912C37.872 10.7655 38.4019 9.94777 38.9309 9.13009C38.9887 9.04114 39.0403 8.94409 39.1603 8.92522H39.1585Z" fill="#082436"/>
<path d="M39.1585 8.92522C38.3041 10.2937 37.4444 11.6586 36.5962 13.0307C36.0138 13.9724 35.4457 14.923 34.8776 15.8737C34.7665 16.0597 34.6571 16.1882 34.41 16.1406C32.3002 15.7344 30.4376 14.8817 28.9795 13.2185C28.511 12.6839 28.4114 12.24 28.7404 11.5652C29.5885 9.82647 30.3478 8.04374 31.1426 6.27899C31.3338 5.85397 31.3311 5.83241 30.8501 5.79197C28.0664 5.55925 25.6909 6.4596 23.8425 8.5676C21.8323 10.8589 21.1637 13.586 21.6145 16.5961C21.6714 16.9744 21.5727 16.9699 21.2882 16.8666C20.304 16.509 19.2913 16.305 18.2493 16.5117C16.6508 16.8289 15.6764 17.8694 15.3839 19.5452C15.2994 20.0313 15.2532 20.5264 15.2265 21.0197C15.1963 21.575 14.9411 21.9255 14.4139 22.0665C13.7622 22.2417 13.1087 22.4089 12.4562 22.5787C12.0837 22.6757 11.7191 22.797 11.3795 22.9813C10.7074 23.3461 10.5278 23.7846 10.7163 24.6346C10.8461 25.2213 10.9919 25.8045 11.1261 26.3904C11.2533 26.9475 11.103 27.3797 10.5998 27.6906C9.98812 28.0697 9.32754 28.3474 8.69363 28.679C8.30422 28.882 7.93081 29.1067 7.60541 29.4086C7.16354 29.8192 7.04974 30.3116 7.25512 30.8669C7.4596 31.4177 7.73077 31.9443 7.91303 32.5014C8.50159 34.3012 8.46069 33.9903 7.40893 35.1809C6.88793 35.7712 6.36071 36.3472 6.21402 37.1757C6.08154 37.9268 6.24247 38.6196 6.58031 39.2684C6.99373 40.0609 7.45871 40.8247 7.89258 41.6064C8.5416 42.7736 8.97013 44.0496 9.64849 45.2024C10.2317 46.1926 10.8585 47.1514 11.5707 48.0526C11.6782 48.1883 11.7716 48.306 11.7262 48.5154C11.2497 50.7087 11.8196 52.6406 13.1817 54.3694C13.2306 54.4314 13.2732 54.4988 13.3186 54.5644C13.1399 54.7019 13.0163 54.5303 12.8963 54.4638C9.43245 52.5355 5.97664 50.5919 2.50927 48.6708C2.09496 48.4408 1.92693 48.1973 1.92781 47.6905C1.94648 37.1532 1.94471 26.6159 1.93315 16.0795C1.93315 15.6644 2.05584 15.4532 2.42303 15.2501C6.79991 12.8339 11.1635 10.3935 15.5324 7.96377C18.5801 6.26911 21.6323 4.58073 24.6827 2.88966C25.2161 2.59403 25.754 2.3047 26.2794 1.9956C26.4848 1.87429 26.6502 1.868 26.8626 1.98751C30.1442 3.83583 33.4293 5.67696 36.7153 7.51629C37.5359 7.97545 38.3743 8.40227 39.1576 8.92702L39.1585 8.92522Z" fill="#B31312"/>
<path d="M48.5214 49.723C46.3716 50.7581 44.2192 51.7897 42.0721 52.8302C40.1632 53.7548 38.2588 54.6902 36.3518 55.6202C36.2478 55.6705 36.1393 55.7137 35.9606 55.7909C36.0246 54.8825 36.0513 54.0316 36.1491 53.1887C36.5216 49.9845 37.416 46.9312 38.8447 44.046C40.6798 40.3403 43.0989 37.0885 46.2596 34.4225C47.0171 33.7836 47.2784 32.9812 46.9539 32.0144C46.9201 31.9128 46.897 31.8077 46.8561 31.7098C46.5378 30.9568 46.1698 30.2388 46.1804 29.3646C46.1876 28.7463 45.8061 28.2099 45.3936 27.7373C43.9738 26.1118 42.5593 24.4827 41.1376 22.8581C41.0096 22.7117 40.9394 22.6263 41.1092 22.434C44.5161 18.5694 44.1391 13.0837 40.2468 9.70965C40.1374 9.61441 40.0405 9.50479 39.9374 9.40145C40.1952 9.38079 40.389 9.54163 40.5935 9.65484C42.6571 10.7987 44.717 11.9497 46.7788 13.0981C48.1106 13.8403 49.4424 14.5834 50.7787 15.3175C50.9396 15.4065 51.0196 15.5098 51.0081 15.694C50.9992 15.827 51.0072 15.9618 51.0072 16.0957C51.0072 26.6977 51.0045 37.2988 51.0196 47.9008C51.0196 48.3644 50.9156 48.6573 50.4693 48.8083C50.271 48.8757 50.0915 48.9979 49.903 49.0958C49.5438 49.2225 49.2308 49.4427 48.8885 49.6044C48.7694 49.661 48.6574 49.7221 48.5231 49.7239L48.5214 49.723Z" fill="#B31312"/>
<path d="M48.5213 49.723C48.964 49.475 49.397 49.2063 49.9011 49.0949C49.4939 49.3735 49.0707 49.6251 48.6191 49.8245C48.5862 49.7904 48.5542 49.7572 48.5213 49.723Z" fill="#644629"/>
<path d="M39.4494 39.3214C38.1736 41.008 36.6835 42.4915 35.1445 43.9274C34.7649 44.2814 34.3701 44.6183 33.9718 44.9499C33.8127 45.082 33.754 45.2222 33.7611 45.4315C33.8091 46.8494 33.8465 48.2683 33.8811 49.6871C33.9371 51.9352 33.9852 54.1843 34.0456 56.4325C34.0518 56.6508 33.9887 56.7676 33.7896 56.8647C31.606 57.9259 29.4251 58.9916 27.2505 60.0698C26.9437 60.2217 26.8833 60.1669 26.8779 59.8353C26.8353 56.9572 26.7953 54.0783 26.7135 51.2011C26.6983 50.6575 26.8273 50.2388 27.1375 49.8039C28.0906 48.4695 29.0286 47.1235 29.8679 45.7101C30.6014 44.4746 30.9543 43.1348 30.9499 41.6963C30.9472 40.7465 30.9268 39.7994 31.1366 38.8595C31.5535 36.9887 32.5538 35.5169 34.0243 34.3308C35.5793 33.0765 37.2445 31.9811 38.8661 30.8229C39.0795 30.6701 39.2858 30.5084 39.4671 30.2721C38.8564 30.3997 38.2447 30.5246 37.6339 30.6549C37.0258 30.7843 36.4168 30.91 35.8122 31.0547C35.6015 31.105 35.5063 31.0547 35.3659 30.8714C34.9507 30.3296 34.94 29.8075 35.2459 29.2136C35.4397 28.8371 35.5526 28.4175 35.7046 28.0104C35.5321 27.9179 35.4174 28.0455 35.2974 28.1003C33.4028 28.9629 31.534 29.8893 29.6118 30.6827C27.4425 31.5786 24.9611 30.654 23.9111 28.6187C23.3883 27.6061 23.2905 26.5314 23.8035 25.4594C23.9538 25.4316 24.0142 25.5448 24.0729 25.6463C24.4979 26.3796 24.9807 27.0741 25.4456 27.7813C25.5283 27.908 25.659 28.0311 25.5683 28.2117C25.3514 28.2548 25.2678 28.0787 25.1647 27.9502C24.7913 27.4839 24.4045 27.0292 24.0391 26.5269C23.8622 27.5243 24.7602 29.006 26.0475 29.5164C27.6274 30.1436 29.1886 29.6665 30.0839 28.2872C30.1604 28.1632 30.2893 28.1245 30.4129 28.0778C32.4435 27.3051 34.451 26.473 36.4594 25.6445C36.6061 25.5843 36.7546 25.5268 36.904 25.4729C37.2311 25.3543 37.4934 25.437 37.7201 25.7012C38.9533 27.1406 39.9508 28.7194 40.526 30.547C41.1395 32.4951 41.0781 34.4432 40.5029 36.3876C40.302 37.0669 40.0166 37.7157 39.7926 38.386C39.7445 38.723 39.5072 38.9898 39.4511 39.325L39.4494 39.3214Z" fill="#F1B57E"/>
<path d="M25.562 28.2324C25.2366 27.5459 24.769 26.951 24.3573 26.3203C24.1706 26.0345 24.0604 25.6958 23.8025 25.4576C24.0444 24.8296 24.4382 24.3776 25.1104 24.1835C29.0729 23.0388 33.0329 21.8886 36.9901 20.7259C37.76 20.4994 38.3291 20.6441 38.8758 21.2983C40.8496 23.6587 42.8793 25.9716 44.8806 28.3087C45.7368 29.3079 45.7875 30.2092 45.0602 31.2964C44.0831 32.7584 43.1807 34.2733 42.0622 35.6364C41.9796 35.7371 41.8853 35.8296 41.7964 35.9258C41.6639 35.782 41.6542 35.7757 41.7786 35.578C42.0142 35.206 42.233 34.8232 42.4641 34.4485C43.074 33.461 43.6777 32.469 44.2494 31.4582C44.5845 30.866 44.5783 30.3152 44.1525 29.7446C42.6277 27.7049 41.1109 25.6598 39.5666 23.6354C39.4617 23.4979 39.3506 23.2328 39.1497 23.3658C38.9149 23.5213 39.1363 23.7234 39.2323 23.8798C40.3801 25.7434 41.5181 27.6124 42.5868 29.5236C43.002 30.2667 43.0909 31.0233 42.7682 31.8338C42.3227 32.9516 41.8302 34.0487 41.343 35.1476C40.91 36.1243 40.4904 37.1074 40.021 38.067C39.9543 38.2036 39.9392 38.4219 39.6991 38.3986C39.8271 37.7948 40.1116 37.2475 40.3046 36.6662C41.3048 33.6524 40.9189 30.8085 39.3221 28.1021C38.8403 27.2862 38.2659 26.5395 37.6791 25.8C37.4089 25.4594 37.1235 25.4837 36.7714 25.6293C35.1337 26.3059 33.4925 26.9717 31.8513 27.6384C31.2654 27.8765 30.675 28.1057 30.0874 28.3393C30.0545 28.4166 29.994 28.475 29.9211 28.5019C29.1663 28.7769 28.4355 29.13 27.654 29.3178C26.7863 29.5263 25.8083 28.9961 25.562 28.2333V28.2324Z" fill="#F1B57E"/>
<path d="M36.695 19.2037C36.19 19.4275 35.6379 19.3754 35.1116 19.4751C33.794 19.7231 32.5466 20.2092 31.2726 20.6064C30.4902 20.8499 29.7087 21.0997 28.9361 21.371C28.5716 21.4995 28.2871 21.4618 27.9492 21.2416C26.5063 20.3009 25.2696 19.1516 24.3005 17.7175C21.2786 13.2445 23.5475 8.95936 27.1882 7.1326C28.0239 6.71388 28.9112 6.48475 29.8945 6.40927C29.3958 7.52258 28.9183 8.58826 28.4418 9.65484C28.0986 10.4222 27.7679 11.195 27.4105 11.9551C27.2842 12.2229 27.294 12.4547 27.4087 12.7171C27.9083 13.8601 28.6045 14.8556 29.5433 15.6733C29.7923 15.8899 30.0457 16.1001 30.2973 16.314C30.6307 16.4919 30.9187 16.7426 31.2539 16.9178C32.872 17.8047 34.5257 18.6008 36.3465 18.9755C36.4861 19.0043 36.6337 19.0429 36.6959 19.2037H36.695Z" fill="#8EA1A4"/>
<path d="M31.8886 31.7978C31.4698 32.8141 31.0911 33.7504 30.6999 34.6813C28.3581 40.255 26.0127 45.826 23.6709 51.3997C22.6609 53.8033 20.6036 55.1179 18.0315 54.869C15.4248 54.6165 13.2101 52.5247 13.2368 49.6574C13.2421 49.0779 13.3746 48.5181 13.5951 47.9825C14.0263 46.9339 14.4664 45.8889 14.8922 44.8376C14.9731 44.639 15.0496 44.5321 15.2932 44.5959C16.0222 44.7873 16.7531 44.9706 17.4901 45.1269C17.7862 45.1898 17.7622 45.2967 17.6777 45.5349C17.5025 46.0255 17.2358 46.375 16.7726 46.6661C15.656 47.3679 15.1839 48.6978 15.4648 50.0294C15.7209 51.2434 16.8544 52.3396 18.0733 52.5516C20.1858 52.9201 22.0804 51.353 22.0484 49.263C22.0484 49.209 22.0608 49.1497 22.0421 49.103C21.7052 48.2692 22.0733 47.544 22.3835 46.8099C22.4404 46.6751 22.5045 46.5412 22.5445 46.4002C22.6485 46.0345 22.853 45.7945 23.2148 45.631C23.7927 45.3695 24.1626 44.869 24.4364 44.3056C25.8678 41.3521 27.4112 38.457 28.9138 35.5403C29.0187 35.3363 29.1467 35.1647 29.3272 35.0137C30.1353 34.3398 30.5568 33.4574 30.6314 32.4079C30.6457 32.2076 30.683 32.0916 30.9062 32.053C31.2031 32.0009 31.4921 31.903 31.8877 31.7978H31.8886Z" fill="#8DA1A3"/>
<path d="M27.9411 32.6335C28.1385 32.6155 28.3367 32.6038 28.5332 32.5796C29.0604 32.5131 29.064 32.5158 28.8995 33.0145C28.3385 34.7199 26.5061 35.5565 24.848 34.8412C23.7776 34.3794 22.7783 33.771 21.7532 33.2175C20.0515 32.2992 18.3472 31.3854 16.6553 30.4482C15.6613 29.8974 14.7793 29.1965 14.0761 28.2854C13.7471 27.8586 13.4893 27.3913 13.3959 26.854C13.1728 25.5619 14.0058 24.542 15.3545 24.4261C16.2561 24.3488 17.0873 24.5429 17.8537 25.0326C19.2389 25.9186 20.6267 26.8019 22.0172 27.6798C22.1595 27.7696 22.2626 27.8541 22.2902 28.0383C22.5427 29.6997 23.4673 30.8912 24.8543 31.7565C24.9645 31.8248 25.0676 31.9057 25.1734 31.9811C25.2881 32.1806 25.1717 32.3441 25.0827 32.5023C24.9325 32.7692 24.7787 33.0342 24.6551 33.3146C24.4853 33.701 24.5466 33.8708 24.912 34.0586C25.8838 34.5591 27.3543 34.0101 27.7713 32.9902C27.8211 32.868 27.8371 32.7296 27.942 32.6344L27.9411 32.6335Z" fill="#F3B67F"/>
<path d="M26.6797 36.951C26.6566 39.1039 24.7406 40.5686 22.6789 40.0492C21.8538 39.8416 21.0741 39.5128 20.3104 39.1426C18.2131 38.1263 16.1122 37.1163 14.0193 36.0893C13.1827 35.6787 12.3994 35.1764 11.7735 34.4638C11.3406 33.9714 11.0223 33.4125 11.0392 32.735C11.0676 31.6442 12.1683 30.8588 13.2378 31.1374C13.4841 31.2012 13.725 31.2901 13.9206 31.4492C15.2311 32.5185 16.7888 33.0774 18.3349 33.6722C20.6313 34.5573 22.9225 35.4567 25.1674 36.4721C25.2154 36.4936 25.2643 36.5152 25.3132 36.535C26.0956 36.854 26.1711 36.8036 26.1667 35.9644C26.1667 35.8629 26.1062 35.7407 26.2885 35.7434C26.4147 35.7452 26.5268 35.7586 26.5508 35.9186C26.6023 36.2753 26.7046 36.6257 26.6806 36.951H26.6797Z" fill="#F3B67F"/>
<path d="M22.3713 25.738C22.3802 25.8746 22.357 26.0031 22.2708 26.1576C21.58 25.694 20.9416 25.1665 20.29 24.6597C19.2195 23.8277 18.2869 22.8725 17.6503 21.6523C17.3889 21.1518 17.196 20.6324 17.1853 20.0538C17.1747 19.4616 17.3827 18.9557 17.8512 18.6233C18.9323 17.8559 20.1468 17.563 21.4573 17.7544C21.941 17.8254 22.3339 18.1165 22.7082 18.4175C24.3654 19.7492 26.0191 21.0853 27.6737 22.4196C27.735 22.4691 27.7901 22.5239 27.8835 22.6083C27.479 22.8015 27.0664 22.8581 26.6744 22.9759C26.1054 23.1475 25.5364 23.3236 24.9567 23.453C24.0961 23.6462 23.3919 24.0703 22.8487 24.7712C22.622 24.8718 22.4708 24.7172 22.3135 24.6022C21.4982 24.0092 20.6847 23.4134 19.8828 22.8015C19.7983 22.7368 19.7165 22.6685 19.6223 22.6182C19.5503 22.5796 19.4702 22.549 19.4018 22.6137C19.3129 22.6991 19.3653 22.7854 19.4231 22.8626C19.4871 22.948 19.5654 23.0208 19.6409 23.0954C20.4144 23.8627 21.2279 24.5843 22.0441 25.304C22.181 25.4244 22.349 25.5259 22.3704 25.7371L22.3713 25.738Z" fill="#F2B67F"/>
<path d="M23.3303 42.0485C23.5677 41.6801 23.9838 41.3818 23.7526 40.8022C24.2612 41.3593 24.399 42.788 23.8887 43.5518C23.3517 44.356 22.5026 44.7217 21.5949 44.4575C18.9677 43.6919 16.3591 42.8653 13.7515 42.0359C13.4474 41.9389 13.1558 41.8185 12.8856 41.6459C12.0089 41.0852 11.6586 40.0267 12.0534 39.1372C12.4508 38.2431 13.4634 37.7965 14.4628 38.1533C15.4078 38.4902 16.3262 38.9054 17.2527 39.2962C18.508 39.8255 19.7598 40.3628 21.0116 40.9001C21.1548 40.9621 21.2864 41.052 21.4233 41.1284C21.3548 41.5723 21.073 41.9281 20.9307 42.3414C20.8525 42.567 20.7449 42.7826 20.664 43.0081C20.5244 43.3972 20.5982 43.5778 20.985 43.7234C21.5842 43.948 22.1257 43.7818 22.6235 43.426C23.0903 43.0926 23.2512 42.5903 23.3303 42.0494V42.0485Z" fill="#F3B67E"/>
<path d="M36.695 19.2037C35.8548 18.936 34.9871 18.768 34.1656 18.431C33.1405 18.0114 32.1421 17.5423 31.197 16.9619C31.1188 16.8696 31.1211 16.8088 31.2041 16.7795C33.5726 17.864 35.9277 18.1039 38.2118 16.58C39.2004 15.9195 39.6592 14.9132 39.7934 13.7397C39.8761 13.0172 39.7952 12.2975 39.8014 11.5769C40.0237 11.6317 39.9801 11.8428 40.0299 11.992C40.1259 12.2822 40.1366 12.5958 40.2513 12.8824C40.2868 12.9714 40.3455 13.0532 40.4513 13.0505C40.5482 13.0478 40.5954 12.966 40.5802 12.8833C40.4415 12.1438 40.3029 11.4034 39.677 10.8886C39.6334 10.7232 39.6449 10.5588 39.6734 10.3207C40.2806 10.9335 40.7803 11.5445 41.1021 12.2822C42.1637 14.7173 42.0659 17.023 40.3393 19.148C40.1713 19.3556 39.9952 19.4338 39.7338 19.4374C38.7132 19.4509 37.705 19.3278 36.6959 19.2046L36.695 19.2037Z" fill="#8EA1A4"/>
<path d="M39.6983 38.3977C40.0254 38.0041 40.1704 37.5153 40.3731 37.0579C41.1074 35.3974 41.824 33.7279 42.57 32.0728C42.9745 31.1751 42.9514 30.3296 42.457 29.4715C41.4044 27.6447 40.3197 25.8368 39.2137 24.0433C39.1577 23.9526 39.0892 23.869 39.0395 23.7747C38.9488 23.603 38.7887 23.4206 39.019 23.2454C39.2626 23.0603 39.4084 23.2481 39.5391 23.4215C40.494 24.6867 41.4471 25.9536 42.3975 27.2215C42.9967 28.0212 43.5906 28.8245 44.1863 29.626C44.7233 30.3485 44.7544 30.8022 44.293 31.575C43.4804 32.9381 42.6589 34.2967 41.8445 35.6598C41.7991 35.7362 41.6791 35.8125 41.7947 35.9249C41.3173 36.5107 40.9785 37.1864 40.5909 37.8289C40.2646 38.3689 40.0174 38.97 39.4484 39.3205C39.3569 38.9647 39.6431 38.7131 39.6974 38.3968L39.6983 38.3977Z" fill="#FDFDFC"/>
<path d="M35.4565 16.8882C36.7269 14.7532 37.9485 12.6991 39.1977 10.601C39.3799 10.9685 39.3141 11.3333 39.347 11.673C39.4386 12.6308 39.4662 13.5914 39.0901 14.5115C38.7104 15.4397 38.0445 16.0669 37.1288 16.4353C36.6149 16.642 36.0815 16.775 35.4565 16.8882Z" fill="#64828A"/>
<path d="M23.3304 42.0485C23.5118 42.4708 23.1188 43.2229 22.6138 43.5751C21.9941 44.0073 21.1486 44.037 20.6419 43.6488C20.4783 43.523 20.4169 43.3783 20.4872 43.1995C20.7637 42.4924 21.0046 41.7681 21.4242 41.1275C22.1115 41.3234 22.7258 41.6756 23.3304 42.0485Z" fill="#FDFDFD"/>
<path d="M27.9412 32.6335C27.8772 33.4566 27.0495 34.2374 26.1382 34.3084C25.6786 34.3443 25.2118 34.365 24.7868 34.1188C24.3965 33.8924 24.3343 33.7037 24.5343 33.3002C24.6579 33.0495 24.8002 32.8087 24.9291 32.5607C25.026 32.3738 25.1665 32.2049 25.1745 31.9793C26.0626 32.3486 26.9784 32.5939 27.9421 32.6335H27.9412Z" fill="white"/>
<path d="M18.7368 50.538C18.0833 50.5479 17.5321 50.0124 17.5294 49.3654C17.5268 48.6681 18.0913 48.0652 18.7599 48.0526C19.3903 48.0409 19.9442 48.5828 19.9664 49.2333C19.9904 49.9234 19.4214 50.5272 18.7377 50.538H18.7368Z" fill="#8CA0A3"/>
<path d="M22.3713 25.738C21.46 24.9023 20.5487 24.0667 19.6383 23.2301C19.56 23.1583 19.4836 23.0828 19.4116 23.0046C19.2907 22.8725 19.0942 22.7548 19.2667 22.5365C19.4614 22.2894 19.6276 22.4915 19.7743 22.5994C20.4376 23.0864 21.0839 23.5977 21.7552 24.073C22.1072 24.3219 22.4077 24.6624 22.8496 24.7712C22.6896 25.0937 22.5304 25.4163 22.3713 25.7389V25.738Z" fill="#FDFDFC"/>
<path d="M39.6767 10.8886C39.7114 10.823 39.7043 10.6639 39.8359 10.8194C40.3506 11.4304 40.5925 12.1573 40.7027 12.9363C40.7196 13.0577 40.6627 13.1763 40.5169 13.205C40.3435 13.2392 40.2297 13.1592 40.1844 12.9975C40.0981 12.6901 40.0288 12.3775 39.9452 12.0692C39.8999 11.9039 39.9034 11.7242 39.8012 11.5768C39.7594 11.3477 39.7185 11.1186 39.6767 10.8886Z" fill="#FBFAF8"/>
<path d="M31.204 16.7794C31.1258 16.837 31.1978 16.9008 31.1969 16.9619C30.8501 16.8118 30.5665 16.5737 30.2971 16.314C30.6483 16.3715 30.9115 16.606 31.2049 16.7794H31.204Z" fill="#A47840"/>
<path d="M25.5621 28.2324C25.756 28.4858 25.9756 28.7149 26.2263 28.909C26.6993 29.2747 27.2265 29.3708 27.7893 29.1723C28.5583 28.9018 29.322 28.6161 30.0875 28.3375C30.1293 28.5756 29.9257 28.6817 29.8074 28.8164C28.913 29.8336 27.4114 30.1652 26.1027 29.6512C24.7611 29.1246 23.8667 27.8613 23.8711 26.4964C23.8711 26.4353 23.8818 26.3733 23.8951 26.2304C24.5006 26.9241 24.9736 27.6286 25.5612 28.2324H25.5621Z" fill="#0A2335"/>
<path d="M28.7501 23.745C29.9201 23.6588 31.62 26.4452 31.0493 27.3536C30.522 26.0076 29.8286 24.7954 28.7501 23.745Z" fill="#122737"/>
<path d="M23.4868 39.4634C23.1596 39.4822 22.8538 39.4229 22.5622 39.2756C22.283 39.1345 22.2048 38.9215 22.3532 38.652C22.7187 37.9879 23.101 37.3329 23.4681 36.6689C23.5917 36.4451 23.7464 36.3661 23.9874 36.4676C24.4372 36.6563 24.8995 36.818 25.3387 37.0265C25.8464 37.2682 25.9664 37.6492 25.6873 38.147C25.2063 39.0069 24.455 39.431 23.4859 39.4634H23.4868Z" fill="#FDFDFD"/>
</g>
<defs>
<clipPath id="clip0_1_104">
<rect width="53" height="64" fill="white"/>
</clipPath>
</defs>
</svg>
