<svg width="89" height="77" viewBox="0 0 89 77" fill="none" xmlns="http://www.w3.org/2000/svg">
<mask id="path-1-outside-1_1_577" maskUnits="userSpaceOnUse" x="0" y="0" width="89" height="77" fill="black">
<rect fill="white" width="89" height="77"/>
<path d="M24.146 75C19.8127 75 15.9627 74.0667 12.596 72.2C9.26266 70.3333 6.64599 67.85 4.74599 64.75C2.87933 61.6167 1.94599 58.1833 1.94599 54.45L2.04599 22C2.04599 18.2 2.99599 14.7833 4.89599 11.75C6.76266 8.68333 9.36266 6.23333 12.696 4.4C16.0293 2.53333 19.846 1.6 24.146 1.6C28.546 1.6 32.3793 2.51667 35.646 4.35C38.9127 6.18333 41.4793 8.65 43.346 11.75C45.246 14.8167 46.196 18.2333 46.196 22L46.296 54.45C46.296 58.15 45.3627 61.5667 43.496 64.7C41.596 67.8333 38.9793 70.3333 35.646 72.2C32.346 74.0667 28.5127 75 24.146 75ZM33.896 54.45L33.796 22C33.796 19.6 32.896 17.65 31.096 16.15C29.3293 14.65 27.0127 13.9 24.146 13.9C21.2127 13.9 18.8627 14.65 17.096 16.15C15.3293 17.65 14.446 19.6 14.446 22V54.45C14.446 56.9833 15.3293 58.9833 17.096 60.45C18.8627 61.9167 21.2127 62.65 24.146 62.65C27.0127 62.65 29.346 61.9167 31.146 60.45C32.9793 58.9833 33.896 56.9833 33.896 54.45ZM67.55 75.15C63.9833 75.15 60.6667 74.2 57.6 72.3C54.5667 70.4333 52.1333 67.9333 50.3 64.8C48.5 61.6333 47.6 58.1833 47.6 54.45V49.85C47.6 49.4833 47.7333 49.3 48 49.3H59.5C59.8333 49.3 60 49.4833 60 49.85V54.45C60 56.6833 60.7167 58.6167 62.15 60.25C63.5833 61.85 65.3833 62.65 67.55 62.65C69.95 62.65 71.8333 61.8167 73.2 60.15C74.5667 58.45 75.25 56.55 75.25 54.45V51.7C75.25 49.5667 74.5833 47.65 73.25 45.95C71.9167 44.25 70.2333 43.4 68.2 43.4H64.2C63.8667 43.4 63.7 43.2167 63.7 42.85L63.8 31.4C63.8 31.1333 63.9333 31 64.2 31H68.2C70.0333 31 71.6667 30.2833 73.1 28.85C74.5333 27.4167 75.25 25.5333 75.25 23.2V21.8C75.25 19.6 74.5167 17.7333 73.05 16.2C71.5833 14.6667 69.75 13.9 67.55 13.9C65.45 13.9 63.6667 14.6667 62.2 16.2C60.7333 17.7333 60 19.6 60 21.8V26.7C60 27.0333 59.8667 27.2 59.6 27.2H48.1C47.8333 27.2 47.7 27.0333 47.7 26.7V21.25C47.7 17.5167 48.65 14.1833 50.55 11.25C52.4167 8.31667 54.8667 5.98333 57.9 4.25C60.9333 2.48333 64.15 1.6 67.55 1.6C71.25 1.6 74.6167 2.5 77.65 4.3C80.6833 6.13333 83.0833 8.55 84.85 11.55C86.65 14.55 87.55 17.85 87.55 21.45V23.1C87.55 26.1 87.05 28.7 86.05 30.9C85.05 33.0667 83.6667 35.15 81.9 37.15C83.6667 39.1833 85.0667 41.4167 86.1 43.85C87.1333 46.2833 87.65 48.7833 87.65 51.35V54.45C87.65 58.25 86.75 61.7333 84.95 64.9C83.1167 68.0333 80.6833 70.5333 77.65 72.4C74.6167 74.2333 71.25 75.15 67.55 75.15Z"/>
</mask>
<path d="M12.596 72.2L12.1074 73.0725L12.1111 73.0746L12.596 72.2ZM4.74599 64.75L3.88682 65.2618L3.89339 65.2726L4.74599 64.75ZM1.94599 54.45L0.945993 54.4469V54.45H1.94599ZM2.04599 22L3.04599 22.0031V22H2.04599ZM4.89599 11.75L5.74354 12.2809L5.75019 12.2699L4.89599 11.75ZM12.696 4.4L13.1779 5.27624L13.1846 5.2725L12.696 4.4ZM43.346 11.75L42.4892 12.2659L42.4959 12.2767L43.346 11.75ZM46.196 22H45.196L45.196 22.0031L46.196 22ZM46.296 54.45H47.296L47.296 54.4469L46.296 54.45ZM43.496 64.7L44.3511 65.2185L44.3551 65.2118L43.496 64.7ZM35.646 72.2L35.1574 71.3275L35.1536 71.3296L35.646 72.2ZM33.896 54.45H34.896L34.896 54.4469L33.896 54.45ZM33.796 22H32.796L32.796 22.0031L33.796 22ZM31.096 16.15L30.4487 16.9123L30.4558 16.9182L31.096 16.15ZM31.146 60.45L30.5213 59.6691L30.5143 59.6748L31.146 60.45ZM24.146 75V74C19.9606 74 16.2813 73.0999 13.0809 71.3254L12.596 72.2L12.1111 73.0746C15.644 75.0334 19.6647 76 24.146 76V75ZM12.596 72.2L13.0846 71.3275C9.89268 69.54 7.4046 67.1741 5.59859 64.2274L4.74599 64.75L3.89339 65.2726C5.88738 68.5259 8.63264 71.1266 12.1074 73.0725L12.596 72.2ZM4.74599 64.75L5.60509 64.2382C3.8329 61.2635 2.94599 58.0076 2.94599 54.45H1.94599H0.945993C0.945993 58.359 1.92575 61.9699 3.88689 65.2618L4.74599 64.75ZM1.94599 54.45L2.94599 54.4531L3.04599 22.0031L2.04599 22L1.046 21.9969L0.945997 54.4469L1.94599 54.45ZM2.04599 22H3.04599C3.04599 18.3757 3.94937 15.1451 5.74347 12.2808L4.89599 11.75L4.04852 11.2192C2.04262 14.4216 1.04599 18.0243 1.04599 22H2.04599ZM4.89599 11.75L5.75019 12.2699C7.52056 9.36149 9.98819 7.03056 13.1779 5.27621L12.696 4.4L12.2141 3.52378C8.73713 5.4361 6.00476 8.00518 4.04179 11.2301L4.89599 11.75ZM12.696 4.4L13.1846 5.2725C16.3507 3.4995 19.9952 2.6 24.146 2.6V1.6V0.599999C19.6968 0.599999 15.708 1.56716 12.2074 3.52749L12.696 4.4ZM24.146 1.6V2.6C28.4047 2.6 32.0636 3.48619 35.1566 5.22205L35.646 4.35L36.1354 3.47795C32.6951 1.54714 28.6873 0.599999 24.146 0.599999V1.6ZM35.646 4.35L35.1566 5.22205C38.2776 6.97362 40.7153 9.31978 42.4893 12.2658L43.346 11.75L44.2027 11.2341C42.2433 7.98022 39.5478 5.39304 36.1354 3.47795L35.646 4.35ZM43.346 11.75L42.4959 12.2767C44.2935 15.178 45.196 18.4108 45.196 22H46.196H47.196C47.196 18.0559 46.1985 14.4553 44.1961 11.2233L43.346 11.75ZM46.196 22L45.196 22.0031L45.296 54.4531L46.296 54.45L47.296 54.4469L47.196 21.9969L46.196 22ZM46.296 54.45H45.296C45.296 57.9726 44.41 61.212 42.6369 64.1882L43.496 64.7L44.3551 65.2118C46.3154 61.9213 47.296 58.3274 47.296 54.45H46.296ZM43.496 64.7L42.6409 64.1815C40.8343 67.1608 38.3467 69.5415 35.1574 71.3275L35.646 72.2L36.1346 73.0725C39.6119 71.1252 42.3576 68.5059 44.3511 65.2185L43.496 64.7ZM35.646 72.2L35.1536 71.3296C32.0253 73.0992 28.3666 74 24.146 74V75V76C28.6587 76 32.6667 75.0342 36.1383 73.0704L35.646 72.2ZM33.896 54.45L34.896 54.4469L34.796 21.9969L33.796 22L32.796 22.0031L32.896 54.4531L33.896 54.45ZM33.796 22H34.796C34.796 19.3115 33.7705 17.077 31.7362 15.3818L31.096 16.15L30.4558 16.9182C32.0215 18.223 32.796 19.8885 32.796 22H33.796ZM31.096 16.15L31.7432 15.3877C29.756 13.7004 27.1916 12.9 24.146 12.9V13.9V14.9C26.8337 14.9 28.9027 15.5996 30.4488 16.9123L31.096 16.15ZM24.146 13.9V12.9C21.0403 12.9 18.44 13.697 16.4488 15.3877L17.096 16.15L17.7432 16.9123C19.2853 15.603 21.3851 14.9 24.146 14.9V13.9ZM17.096 16.15L16.4488 15.3877C14.4493 17.0853 13.446 19.3184 13.446 22H14.446H15.446C15.446 19.8816 16.2093 18.2147 17.7432 16.9123L17.096 16.15ZM14.446 22H13.446V54.45H14.446H15.446V22H14.446ZM14.446 54.45H13.446C13.446 57.246 14.4362 59.5416 16.4572 61.2194L17.096 60.45L17.7347 59.6806C16.2224 58.4251 15.446 56.7207 15.446 54.45H14.446ZM17.096 60.45L16.4572 61.2194C18.4484 62.8725 21.0454 63.65 24.146 63.65V62.65V61.65C21.3799 61.65 19.2769 60.9609 17.7347 59.6806L17.096 60.45ZM24.146 62.65V63.65C27.1872 63.65 29.7604 62.8689 31.7777 61.2252L31.146 60.45L30.5143 59.6748C28.9316 60.9644 26.8381 61.65 24.146 61.65V62.65ZM31.146 60.45L31.7707 61.2309C33.8619 59.5579 34.896 57.2596 34.896 54.45H33.896H32.896C32.896 56.7071 32.0967 58.4088 30.5213 59.6691L31.146 60.45ZM57.6 72.3L58.1267 71.4499L58.1241 71.4483L57.6 72.3ZM50.3 64.8L49.4306 65.2942L49.4369 65.305L50.3 64.8ZM62.15 60.25L61.3983 60.9096L61.4052 60.9173L62.15 60.25ZM73.2 60.15L73.9733 60.7841L73.9794 60.7766L73.2 60.15ZM63.7 42.85L62.7 42.8413V42.85H63.7ZM63.8 31.4L64.8 31.4087V31.4H63.8ZM50.55 11.25L51.3893 11.7937L51.3937 11.7869L50.55 11.25ZM57.9 4.25L58.3961 5.11827L58.4033 5.11412L57.9 4.25ZM77.65 4.3L78.1673 3.44414L78.1603 3.44001L77.65 4.3ZM84.85 11.55L83.9883 12.0575L83.9925 12.0645L84.85 11.55ZM86.05 30.9L86.958 31.3191L86.9604 31.3138L86.05 30.9ZM81.9 37.15L81.1505 36.488L80.5705 37.1446L81.1451 37.8059L81.9 37.15ZM84.95 64.9L85.8132 65.4051L85.8194 65.3942L84.95 64.9ZM77.65 72.4L78.1673 73.2559L78.1741 73.2517L77.65 72.4ZM67.55 75.15V74.15C64.1717 74.15 61.0371 73.2531 58.1267 71.4499L57.6 72.3L57.0733 73.1501C60.2963 75.1469 63.795 76.15 67.55 76.15V75.15ZM57.6 72.3L58.1241 71.4483C55.2333 69.6694 52.9152 67.2896 51.1631 64.295L50.3 64.8L49.4369 65.305C51.3514 68.5771 53.9001 71.1973 57.0759 73.1517L57.6 72.3ZM50.3 64.8L51.1694 64.3058C49.4572 61.2937 48.6 58.0146 48.6 54.45H47.6H46.6C46.6 58.3521 47.5428 61.973 49.4306 65.2942L50.3 64.8ZM47.6 54.45H48.6V49.85H47.6H46.6V54.45H47.6ZM47.6 49.85H48.6C48.6 49.7581 48.622 49.8699 48.5087 50.0257C48.4443 50.1143 48.3526 50.1926 48.2416 50.2434C48.1362 50.2918 48.0472 50.3 48 50.3V49.3V48.3C47.6109 48.3 47.1809 48.451 46.8913 48.8493C46.6446 49.1884 46.6 49.5752 46.6 49.85H47.6ZM48 49.3V50.3H59.5V49.3V48.3H48V49.3ZM59.5 49.3V50.3C59.4867 50.3 59.3003 50.2919 59.1351 50.1102C58.9862 49.9465 59 49.7985 59 49.85H60H61C61 49.5349 60.9304 49.1119 60.6149 48.7648C60.283 48.3997 59.8467 48.3 59.5 48.3V49.3ZM60 49.85H59V54.45H60H61V49.85H60ZM60 54.45H59C59 56.9187 59.8001 59.0883 61.3984 60.9096L62.15 60.25L62.9016 59.5904C61.6332 58.145 61 56.448 61 54.45H60ZM62.15 60.25L61.4052 60.9173C63.0301 62.7311 65.1018 63.65 67.55 63.65V62.65V61.65C65.6648 61.65 64.1366 60.9689 62.8948 59.5827L62.15 60.25ZM67.55 62.65V63.65C70.2111 63.65 72.3935 62.7106 73.9733 60.7841L73.2 60.15L72.4267 59.5159C71.2731 60.9228 69.6889 61.65 67.55 61.65V62.65ZM73.2 60.15L73.9794 60.7766C75.4828 58.9064 76.25 56.7872 76.25 54.45H75.25H74.25C74.25 56.3128 73.6505 57.9936 72.4206 59.5234L73.2 60.15ZM75.25 54.45H76.25V51.7H75.25H74.25V54.45H75.25ZM75.25 51.7H76.25C76.25 49.3398 75.5064 47.2065 74.0368 45.3329L73.25 45.95L72.4631 46.5671C73.6603 48.0935 74.25 49.7935 74.25 51.7H75.25ZM73.25 45.95L74.0368 45.3329C72.5277 43.4086 70.562 42.4 68.2 42.4V43.4V44.4C69.9046 44.4 71.3057 45.0914 72.4631 46.5671L73.25 45.95ZM68.2 43.4V42.4H64.2V43.4V44.4H68.2V43.4ZM64.2 43.4V42.4C64.2133 42.4 64.3997 42.4081 64.5649 42.5898C64.7137 42.7535 64.7 42.9015 64.7 42.85H63.7H62.7C62.7 43.1651 62.7696 43.5881 63.0851 43.9352C63.417 44.3003 63.8533 44.4 64.2 44.4V43.4ZM63.7 42.85L64.7 42.8587L64.8 31.4087L63.8 31.4L62.8 31.3913L62.7 42.8413L63.7 42.85ZM63.8 31.4H64.8C64.8 31.4208 64.7941 31.6201 64.6071 31.8071C64.4201 31.9941 64.2208 32 64.2 32V31V30C63.9125 30 63.5132 30.0725 63.1929 30.3929C62.8725 30.7132 62.8 31.1125 62.8 31.4H63.8ZM64.2 31V32H68.2V31V30H64.2V31ZM68.2 31V32C70.3278 32 72.208 31.1562 73.8071 29.5571L73.1 28.85L72.3929 28.1429C71.1254 29.4104 69.7389 30 68.2 30V31ZM73.1 28.85L73.8071 29.5571C75.4566 27.9076 76.25 25.7551 76.25 23.2H75.25H74.25C74.25 25.3116 73.61 26.9257 72.3929 28.1429L73.1 28.85ZM75.25 23.2H76.25V21.8H75.25H74.25V23.2H75.25ZM75.25 21.8H76.25C76.25 19.353 75.4245 17.2357 73.7726 15.5088L73.05 16.2L72.3274 16.8912C73.6089 18.231 74.25 19.847 74.25 21.8H75.25ZM73.05 16.2L73.7726 15.5088C72.1096 13.7702 70.0116 12.9 67.55 12.9V13.9V14.9C69.4884 14.9 71.057 15.5631 72.3274 16.8912L73.05 16.2ZM67.55 13.9V12.9C65.1739 12.9 63.1304 13.7805 61.4774 15.5088L62.2 16.2L62.9226 16.8912C64.2029 15.5528 65.7261 14.9 67.55 14.9V13.9ZM62.2 16.2L61.4774 15.5088C59.8255 17.2357 59 19.353 59 21.8H60H61C61 19.847 61.6411 18.231 62.9226 16.8912L62.2 16.2ZM60 21.8H59V26.7H60H61V21.8H60ZM60 26.7H59C59 26.7598 58.9837 26.6196 59.1191 26.4503C59.1924 26.3588 59.2878 26.2884 59.3904 26.2457C59.4869 26.2055 59.5642 26.2 59.6 26.2V27.2V28.2C59.954 28.2 60.378 28.0783 60.6809 27.6997C60.9497 27.3637 61 26.9735 61 26.7H60ZM59.6 27.2V26.2H48.1V27.2V28.2H59.6V27.2ZM48.1 27.2V26.2C48.1358 26.2 48.2131 26.2055 48.3096 26.2457C48.4122 26.2884 48.5076 26.3588 48.5809 26.4503C48.7163 26.6196 48.7 26.7598 48.7 26.7H47.7H46.7C46.7 26.9735 46.7503 27.3637 47.0191 27.6997C47.322 28.0783 47.746 28.2 48.1 28.2V27.2ZM47.7 26.7H48.7V21.25H47.7H46.7V26.7H47.7ZM47.7 21.25H48.7C48.7 17.6958 49.6014 14.5539 51.3893 11.7936L50.55 11.25L49.7107 10.7064C47.6986 13.8128 46.7 17.3375 46.7 21.25H47.7ZM50.55 11.25L51.3937 11.7869C53.1727 8.99127 55.5031 6.77139 58.3961 5.11824L57.9 4.25L57.4039 3.38176C54.2302 5.19528 51.6606 7.64206 49.7063 10.7131L50.55 11.25ZM57.9 4.25L58.4033 5.11412C61.289 3.43343 64.3327 2.6 67.55 2.6V1.6V0.599999C63.9673 0.599999 60.5777 1.53324 57.3967 3.38588L57.9 4.25ZM67.55 1.6V2.6C71.0796 2.6 74.2685 3.45621 77.1397 5.15998L77.65 4.3L78.1603 3.44001C74.9648 1.54379 71.4204 0.599999 67.55 0.599999V1.6ZM77.65 4.3L77.1327 5.15583C80.0268 6.905 82.3074 9.20299 83.9883 12.0574L84.85 11.55L85.7117 11.0426C83.8593 7.89701 81.3398 5.36167 78.1673 3.44417L77.65 4.3ZM84.85 11.55L83.9925 12.0645C85.6965 14.9044 86.55 18.0257 86.55 21.45H87.55H88.55C88.55 17.6743 87.6035 14.1956 85.7075 11.0355L84.85 11.55ZM87.55 21.45H86.55V23.1H87.55H88.55V21.45H87.55ZM87.55 23.1H86.55C86.55 25.9908 86.0681 28.4436 85.1396 30.4862L86.05 30.9L86.9604 31.3138C88.0319 28.9564 88.55 26.2092 88.55 23.1H87.55ZM86.05 30.9L85.142 30.4809C84.1873 32.5496 82.8603 34.5523 81.1505 36.488L81.9 37.15L82.6495 37.812C84.473 35.7477 85.9127 33.5837 86.958 31.3191L86.05 30.9ZM81.9 37.15L81.1451 37.8059C82.8444 39.7616 84.188 41.9058 85.1796 44.2409L86.1 43.85L87.0204 43.4591C85.9454 40.9275 84.489 38.6051 82.6549 36.4941L81.9 37.15ZM86.1 43.85L85.1796 44.2409C86.162 46.5544 86.65 48.9217 86.65 51.35H87.65H88.65C88.65 48.645 88.1047 46.0123 87.0204 43.4591L86.1 43.85ZM87.65 51.35H86.65V54.45H87.65H88.65V51.35H87.65ZM87.65 54.45H86.65C86.65 58.0845 85.7912 61.3964 84.0806 64.4058L84.95 64.9L85.8194 65.3942C87.7088 62.0702 88.65 58.4155 88.65 54.45H87.65ZM84.95 64.9L84.0869 64.395C82.3347 67.3895 80.0167 69.7694 77.1259 71.5483L77.65 72.4L78.1741 73.2517C81.3499 71.2973 83.8986 68.6771 85.8131 65.405L84.95 64.9ZM77.65 72.4L77.1327 71.5442C74.2625 73.2789 71.076 74.15 67.55 74.15V75.15V76.15C71.424 76.15 74.9708 75.1877 78.1673 73.2558L77.65 72.4Z" fill="url(#paint0_linear_1_577)" mask="url(#path-1-outside-1_1_577)"/>
<defs>
<linearGradient id="paint0_linear_1_577" x1="22.3194" y1="-7" x2="33.8218" y2="92.0039" gradientUnits="userSpaceOnUse">
<stop stop-color="#DADADA"/>
<stop offset="1" stop-color="white"/>
</linearGradient>
</defs>
</svg>
