<svg width="90" height="76" viewBox="0 0 90 76" fill="none" xmlns="http://www.w3.org/2000/svg">
<mask id="path-1-outside-1_1_604" maskUnits="userSpaceOnUse" x="0" y="0" width="90" height="76" fill="black">
<rect fill="white" width="90" height="76"/>
<path d="M23.946 75C19.6127 75 15.7627 74.0667 12.396 72.2C9.06266 70.3333 6.446 67.85 4.546 64.75C2.67933 61.6167 1.746 58.1833 1.746 54.45L1.846 22C1.846 18.2 2.796 14.7833 4.696 11.75C6.56266 8.68333 9.16266 6.23333 12.496 4.4C15.8293 2.53333 19.646 1.6 23.946 1.6C28.346 1.6 32.1793 2.51667 35.446 4.35C38.7127 6.18333 41.2793 8.65 43.146 11.75C45.046 14.8167 45.996 18.2333 45.996 22L46.096 54.45C46.096 58.15 45.1627 61.5667 43.296 64.7C41.396 67.8333 38.7793 70.3333 35.446 72.2C32.146 74.0667 28.3127 75 23.946 75ZM33.696 54.45L33.596 22C33.596 19.6 32.696 17.65 30.896 16.15C29.1293 14.65 26.8127 13.9 23.946 13.9C21.0127 13.9 18.6627 14.65 16.896 16.15C15.1293 17.65 14.246 19.6 14.246 22V54.45C14.246 56.9833 15.1293 58.9833 16.896 60.45C18.6627 61.9167 21.0127 62.65 23.946 62.65C26.8127 62.65 29.146 61.9167 30.946 60.45C32.7793 58.9833 33.696 56.9833 33.696 54.45ZM68.1 75C64.4667 75 61.1333 74.0833 58.1 72.25C55.0333 70.4167 52.5667 67.9833 50.7 64.95C48.8667 61.9167 47.95 58.6167 47.95 55.05V52C47.95 51.7 48.1167 51.55 48.45 51.55H60.05C60.3167 51.55 60.45 51.7 60.45 52V54.35C60.45 56.65 61.2 58.6 62.7 60.2C64.2 61.7667 66 62.55 68.1 62.55C70.2333 62.55 72.0333 61.75 73.5 60.15C74.9667 58.5167 75.7 56.5833 75.7 54.35V47.4C75.7 45.2667 74.9333 43.4833 73.4 42.05C71.8667 40.6167 69.9667 39.9 67.7 39.9C64.7667 39.9 62.35 41.0667 60.45 43.4L60.25 43.7L49.3 42.85C48.9333 42.85 48.75 42.6833 48.75 42.35L50 14.3L50.6 3.15C50.6 2.88333 50.7333 2.75 51 2.75H85.45C85.7167 2.75 85.85 2.88333 85.85 3.15V14.3C85.85 14.6333 85.7167 14.8 85.45 14.8H61.45L60.95 28.95C61.7833 28.55 62.8667 28.2167 64.2 27.95C65.5333 27.65 66.7333 27.5 67.8 27.5C71.5 27.5 74.9 28.4 78 30.2C81.1 32.0333 83.5667 34.45 85.4 37.45C87.2667 40.45 88.2 43.7667 88.2 47.4V54.35C88.2 58.05 87.3 61.4833 85.5 64.65C83.6667 67.7833 81.2333 70.3 78.2 72.2C75.1667 74.0667 71.8 75 68.1 75Z"/>
</mask>
<path d="M12.396 72.2L11.9074 73.0725L11.9111 73.0746L12.396 72.2ZM4.546 64.75L3.68683 65.2618L3.6934 65.2726L4.546 64.75ZM1.746 54.45L0.745996 54.4469V54.45H1.746ZM1.846 22L2.846 22.0031V22H1.846ZM4.696 11.75L5.54354 12.2809L5.55019 12.2699L4.696 11.75ZM12.496 4.4L12.9779 5.27624L12.9846 5.2725L12.496 4.4ZM43.146 11.75L42.2892 12.2659L42.2959 12.2767L43.146 11.75ZM45.996 22H44.996L44.996 22.0031L45.996 22ZM46.096 54.45H47.096L47.096 54.4469L46.096 54.45ZM43.296 64.7L44.1511 65.2185L44.1551 65.2118L43.296 64.7ZM35.446 72.2L34.9574 71.3275L34.9537 71.3296L35.446 72.2ZM33.696 54.45H34.696L34.696 54.4469L33.696 54.45ZM33.596 22H32.596L32.596 22.0031L33.596 22ZM30.896 16.15L30.2487 16.9123L30.2558 16.9182L30.896 16.15ZM30.946 60.45L30.3213 59.6691L30.3143 59.6748L30.946 60.45ZM23.946 75V74C19.7606 74 16.0813 73.0999 12.8809 71.3254L12.396 72.2L11.9111 73.0746C15.444 75.0334 19.4647 76 23.946 76V75ZM12.396 72.2L12.8846 71.3275C9.69268 69.54 7.20461 67.1741 5.3986 64.2274L4.546 64.75L3.6934 65.2726C5.68739 68.5259 8.43265 71.1266 11.9074 73.0725L12.396 72.2ZM4.546 64.75L5.4051 64.2382C3.63291 61.2635 2.746 58.0076 2.746 54.45H1.746H0.745996C0.745996 58.359 1.72575 61.9699 3.68689 65.2618L4.546 64.75ZM1.746 54.45L2.74599 54.4531L2.84599 22.0031L1.846 22L0.846001 21.9969L0.746001 54.4469L1.746 54.45ZM1.846 22H2.846C2.846 18.3757 3.74937 15.1451 5.54347 12.2808L4.696 11.75L3.84852 11.2192C1.84262 14.4216 0.845996 18.0243 0.845996 22H1.846ZM4.696 11.75L5.55019 12.2699C7.32056 9.36149 9.7882 7.03056 12.9779 5.27621L12.496 4.4L12.0141 3.52378C8.53713 5.4361 5.80476 8.00518 3.8418 11.2301L4.696 11.75ZM12.496 4.4L12.9846 5.2725C16.1507 3.4995 19.7952 2.6 23.946 2.6V1.6V0.599999C19.4968 0.599999 15.508 1.56716 12.0074 3.52749L12.496 4.4ZM23.946 1.6V2.6C28.2047 2.6 31.8636 3.48619 34.9566 5.22205L35.446 4.35L35.9354 3.47795C32.4951 1.54714 28.4873 0.599999 23.946 0.599999V1.6ZM35.446 4.35L34.9566 5.22205C38.0776 6.97362 40.5153 9.31978 42.2893 12.2658L43.146 11.75L44.0027 11.2341C42.0433 7.98022 39.3478 5.39304 35.9354 3.47795L35.446 4.35ZM43.146 11.75L42.2959 12.2767C44.0935 15.178 44.996 18.4108 44.996 22H45.996H46.996C46.996 18.0559 45.9985 14.4553 43.9961 11.2233L43.146 11.75ZM45.996 22L44.996 22.0031L45.096 54.4531L46.096 54.45L47.096 54.4469L46.996 21.9969L45.996 22ZM46.096 54.45H45.096C45.096 57.9726 44.2099 61.212 42.4369 64.1882L43.296 64.7L44.1551 65.2118C46.1154 61.9213 47.096 58.3274 47.096 54.45H46.096ZM43.296 64.7L42.4409 64.1815C40.6343 67.1608 38.1467 69.5415 34.9574 71.3275L35.446 72.2L35.9346 73.0725C39.4119 71.1252 42.1576 68.5059 44.1511 65.2185L43.296 64.7ZM35.446 72.2L34.9537 71.3296C31.8253 73.0992 28.1666 74 23.946 74V75V76C28.4587 76 32.4667 75.0342 35.9383 73.0704L35.446 72.2ZM33.696 54.45L34.696 54.4469L34.596 21.9969L33.596 22L32.596 22.0031L32.696 54.4531L33.696 54.45ZM33.596 22H34.596C34.596 19.3115 33.5705 17.077 31.5362 15.3818L30.896 16.15L30.2558 16.9182C31.8215 18.223 32.596 19.8885 32.596 22H33.596ZM30.896 16.15L31.5432 15.3877C29.556 13.7004 26.9916 12.9 23.946 12.9V13.9V14.9C26.6337 14.9 28.7027 15.5996 30.2488 16.9123L30.896 16.15ZM23.946 13.9V12.9C20.8403 12.9 18.24 13.697 16.2488 15.3877L16.896 16.15L17.5432 16.9123C19.0853 15.603 21.1851 14.9 23.946 14.9V13.9ZM16.896 16.15L16.2488 15.3877C14.2493 17.0853 13.246 19.3184 13.246 22H14.246H15.246C15.246 19.8816 16.0093 18.2147 17.5432 16.9123L16.896 16.15ZM14.246 22H13.246V54.45H14.246H15.246V22H14.246ZM14.246 54.45H13.246C13.246 57.246 14.2362 59.5416 16.2572 61.2194L16.896 60.45L17.5348 59.6806C16.0224 58.4251 15.246 56.7207 15.246 54.45H14.246ZM16.896 60.45L16.2572 61.2194C18.2484 62.8725 20.8455 63.65 23.946 63.65V62.65V61.65C21.1799 61.65 19.0769 60.9609 17.5348 59.6806L16.896 60.45ZM23.946 62.65V63.65C26.9872 63.65 29.5604 62.8689 31.5777 61.2252L30.946 60.45L30.3143 59.6748C28.7316 60.9644 26.6381 61.65 23.946 61.65V62.65ZM30.946 60.45L31.5707 61.2309C33.6619 59.5579 34.696 57.2596 34.696 54.45H33.696H32.696C32.696 56.7071 31.8967 58.4088 30.3213 59.6691L30.946 60.45ZM58.1 72.25L58.6173 71.3942L58.6131 71.3917L58.1 72.25ZM50.7 64.95L49.8441 65.4673L49.8483 65.4741L50.7 64.95ZM62.7 60.2L61.9704 60.884L61.9777 60.8916L62.7 60.2ZM73.5 60.15L74.2372 60.8258L74.244 60.8181L73.5 60.15ZM60.45 43.4L59.6746 42.7686L59.6444 42.8056L59.6179 42.8453L60.45 43.4ZM60.25 43.7L60.1726 44.697L60.7569 44.7424L61.082 44.2547L60.25 43.7ZM49.3 42.85L49.3774 41.853L49.3388 41.85H49.3V42.85ZM48.75 42.35L47.751 42.3055L47.75 42.3277V42.35H48.75ZM50 14.3L49.0014 14.2463L49.001 14.2555L50 14.3ZM50.6 3.15L51.5986 3.20373L51.6 3.17689V3.15H50.6ZM61.45 14.8V13.8H60.4847L60.4506 14.7647L61.45 14.8ZM60.95 28.95L59.9506 28.9147L59.8922 30.567L61.3827 29.8515L60.95 28.95ZM64.2 27.95L64.3961 28.9306L64.4078 28.9282L64.4195 28.9256L64.2 27.95ZM78 30.2L78.5091 29.3392L78.5021 29.3352L78 30.2ZM85.4 37.45L84.5467 37.9715L84.5509 37.9783L85.4 37.45ZM85.5 64.65L86.3632 65.1551L86.3694 65.1442L85.5 64.65ZM78.2 72.2L78.7241 73.0517L78.7308 73.0475L78.2 72.2ZM68.1 75V74C64.6442 74 61.4905 73.1307 58.6173 71.3942L58.1 72.25L57.5827 73.1058C60.7762 75.0359 64.2891 76 68.1 76V75ZM58.1 72.25L58.6131 71.3917C55.6841 69.6406 53.3337 67.3218 51.5517 64.4259L50.7 64.95L49.8483 65.4741C51.7996 68.6449 54.3826 71.1927 57.5869 73.1083L58.1 72.25ZM50.7 64.95L51.5558 64.4327C49.8174 61.5565 48.95 58.4355 48.95 55.05H47.95H46.95C46.95 58.7978 47.9159 62.2768 49.8442 65.4673L50.7 64.95ZM47.95 55.05H48.95V52H47.95H46.95V55.05H47.95ZM47.95 52H48.95C48.95 52.033 48.936 52.233 48.744 52.4058C48.5719 52.5606 48.413 52.55 48.45 52.55V51.55V50.55C48.1537 50.55 47.7447 50.6144 47.406 50.9192C47.0473 51.242 46.95 51.667 46.95 52H47.95ZM48.45 51.55V52.55H60.05V51.55V50.55H48.45V51.55ZM60.05 51.55V52.55C59.9967 52.55 59.7828 52.5296 59.6026 52.3269C59.4423 52.1466 59.45 51.977 59.45 52H60.45H61.45C61.45 51.723 61.391 51.3284 61.0974 50.9981C60.7839 50.6454 60.37 50.55 60.05 50.55V51.55ZM60.45 52H59.45V54.35H60.45H61.45V52H60.45ZM60.45 54.35H59.45C59.45 56.8904 60.2876 59.0889 61.9705 60.8839L62.7 60.2L63.4295 59.5161C62.1124 58.1111 61.45 56.4096 61.45 54.35H60.45ZM62.7 60.2L61.9777 60.8916C63.6593 62.648 65.7173 63.55 68.1 63.55V62.55V61.55C66.2827 61.55 64.7406 60.8854 63.4223 59.5084L62.7 60.2ZM68.1 62.55V63.55C70.5191 63.55 72.5848 62.6283 74.2372 60.8257L73.5 60.15L72.7628 59.4743C71.4818 60.8717 69.9475 61.55 68.1 61.55V62.55ZM73.5 60.15L74.244 60.8181C75.8786 58.9978 76.7 56.8253 76.7 54.35H75.7H74.7C74.7 56.3414 74.0547 58.0356 72.756 59.4819L73.5 60.15ZM75.7 54.35H76.7V47.4H75.7H74.7V54.35H75.7ZM75.7 47.4H76.7C76.7 44.9949 75.8222 42.9454 74.0829 41.3195L73.4 42.05L72.7171 42.7805C74.0444 44.0213 74.7 45.5384 74.7 47.4H75.7ZM73.4 42.05L74.0829 41.3195C72.3487 39.6984 70.1981 38.9 67.7 38.9V39.9V40.9C69.7353 40.9 71.3846 41.5349 72.7171 42.7805L73.4 42.05ZM67.7 39.9V38.9C64.457 38.9 61.7588 40.209 59.6746 42.7686L60.45 43.4L61.2254 44.0314C62.9412 41.9243 65.0763 40.9 67.7 40.9V39.9ZM60.45 43.4L59.6179 42.8453L59.4179 43.1453L60.25 43.7L61.082 44.2547L61.2821 43.9547L60.45 43.4ZM60.25 43.7L60.3274 42.703L49.3774 41.853L49.3 42.85L49.2226 43.847L60.1726 44.697L60.25 43.7ZM49.3 42.85V41.85C49.2485 41.85 49.3965 41.8362 49.5602 41.9851C49.7419 42.1503 49.75 42.3367 49.75 42.35H48.75H47.75C47.75 42.6967 47.8497 43.133 48.2148 43.4649C48.5619 43.7804 48.9848 43.85 49.3 43.85V42.85ZM48.75 42.35L49.749 42.3945L50.999 14.3445L50 14.3L49.001 14.2555L47.751 42.3055L48.75 42.35ZM50 14.3L50.9986 14.3537L51.5986 3.20373L50.6 3.15L49.6014 3.09626L49.0014 14.2463L50 14.3ZM50.6 3.15H51.6C51.6 3.17081 51.5941 3.37009 51.4071 3.55711C51.2201 3.74412 51.0208 3.75 51 3.75V2.75V1.75C50.7125 1.75 50.3132 1.82255 49.9929 2.14289C49.6725 2.46324 49.6 2.86252 49.6 3.15H50.6ZM51 2.75V3.75H85.45V2.75V1.75H51V2.75ZM85.45 2.75V3.75C85.4292 3.75 85.2299 3.74412 85.0429 3.55711C84.8559 3.37009 84.85 3.17081 84.85 3.15H85.85H86.85C86.85 2.86252 86.7775 2.46324 86.4571 2.14289C86.1368 1.82255 85.7375 1.75 85.45 1.75V2.75ZM85.85 3.15H84.85V14.3H85.85H86.85V3.15H85.85ZM85.85 14.3H84.85C84.85 14.3598 84.8337 14.2196 84.9691 14.0503C85.0424 13.9588 85.1378 13.8884 85.2404 13.8457C85.3369 13.8055 85.4142 13.8 85.45 13.8V14.8V15.8C85.804 15.8 86.228 15.6783 86.5309 15.2997C86.7997 14.9637 86.85 14.5735 86.85 14.3H85.85ZM85.45 14.8V13.8H61.45V14.8V15.8H85.45V14.8ZM61.45 14.8L60.4506 14.7647L59.9506 28.9147L60.95 28.95L61.9494 28.9853L62.4494 14.8353L61.45 14.8ZM60.95 28.95L61.3827 29.8515C62.1145 29.5003 63.1101 29.1878 64.3961 28.9306L64.2 27.95L64.0039 26.9694C62.6233 27.2455 61.4521 27.5997 60.5173 28.0485L60.95 28.95ZM64.2 27.95L64.4195 28.9256C65.6998 28.6375 66.8244 28.5 67.8 28.5V27.5V26.5C66.6422 26.5 65.3668 26.6625 63.9805 26.9744L64.2 27.95ZM67.8 27.5V28.5C71.3296 28.5 74.5554 29.3563 77.4979 31.0648L78 30.2L78.5021 29.3352C75.2446 27.4437 71.6704 26.5 67.8 26.5V27.5ZM78 30.2L77.491 31.0607C80.4538 32.8129 82.8008 35.1145 84.5467 37.9715L85.4 37.45L86.2533 36.9286C84.3325 33.7855 81.7462 31.2537 78.509 29.3393L78 30.2ZM85.4 37.45L84.5509 37.9783C86.3161 40.8151 87.2 43.9478 87.2 47.4H88.2H89.2C89.2 43.5855 88.2173 40.0849 86.2491 36.9217L85.4 37.45ZM88.2 47.4H87.2V54.35H88.2H89.2V47.4H88.2ZM88.2 54.35H87.2C87.2 57.8796 86.3436 61.1423 84.6306 64.1558L85.5 64.65L86.3694 65.1442C88.2564 61.8244 89.2 58.2204 89.2 54.35H88.2ZM85.5 64.65L84.6369 64.145C82.8838 67.1411 80.5637 69.5395 77.6692 71.3525L78.2 72.2L78.7308 73.0475C81.903 71.0605 84.4495 68.4256 86.3631 65.155L85.5 64.65ZM78.2 72.2L77.6759 71.3483C74.8065 73.1141 71.6225 74 68.1 74V75V76C71.9775 76 75.5269 75.0192 78.7241 73.0517L78.2 72.2Z" fill="url(#paint0_linear_1_604)" mask="url(#path-1-outside-1_1_604)"/>
<defs>
<linearGradient id="paint0_linear_1_604" x1="33.8611" y1="-7" x2="47.8407" y2="91.3532" gradientUnits="userSpaceOnUse">
<stop stop-color="#DADADA"/>
<stop offset="1" stop-color="white"/>
</linearGradient>
</defs>
</svg>
