<svg width="91" height="76" viewBox="0 0 91 76" fill="none" xmlns="http://www.w3.org/2000/svg">
<mask id="path-1-outside-1_1_593" maskUnits="userSpaceOnUse" x="0" y="0" width="91" height="76" fill="black">
<rect fill="white" width="91" height="76"/>
<path d="M23.548 75C19.2147 75 15.3647 74.0667 11.998 72.2C8.66466 70.3333 6.048 67.85 4.148 64.75C2.28133 61.6167 1.348 58.1833 1.348 54.45L1.448 22C1.448 18.2 2.398 14.7833 4.298 11.75C6.16466 8.68333 8.76466 6.23333 12.098 4.4C15.4313 2.53333 19.248 1.6 23.548 1.6C27.948 1.6 31.7813 2.51667 35.048 4.35C38.3147 6.18333 40.8813 8.65 42.748 11.75C44.648 14.8167 45.598 18.2333 45.598 22L45.698 54.45C45.698 58.15 44.7647 61.5667 42.898 64.7C40.998 67.8333 38.3813 70.3333 35.048 72.2C31.748 74.0667 27.9147 75 23.548 75ZM33.298 54.45L33.198 22C33.198 19.6 32.298 17.65 30.498 16.15C28.7313 14.65 26.4147 13.9 23.548 13.9C20.6147 13.9 18.2647 14.65 16.498 16.15C14.7313 17.65 13.848 19.6 13.848 22V54.45C13.848 56.9833 14.7313 58.9833 16.498 60.45C18.2647 61.9167 20.6147 62.65 23.548 62.65C26.4147 62.65 28.748 61.9167 30.548 60.45C32.3813 58.9833 33.298 56.9833 33.298 54.45ZM81.202 74H69.652C69.3853 74 69.252 73.8333 69.252 73.5V61.5H47.102C46.8353 61.5 46.702 61.3333 46.702 61V49.75L69.002 3.15C69.1687 2.88333 69.3853 2.75 69.652 2.75H81.202C81.402 2.75 81.502 2.88333 81.502 3.15L81.602 49.3H88.802C89.1353 49.3 89.302 49.4833 89.302 49.85V61C89.302 61.3333 89.1687 61.5 88.902 61.5H81.602V73.5C81.602 73.8333 81.4687 74 81.202 74ZM69.252 49.3V27L58.802 49.3H69.252Z"/>
</mask>
<path d="M11.998 72.2L11.5094 73.0725L11.5131 73.0746L11.998 72.2ZM4.148 64.75L3.28883 65.2618L3.2954 65.2726L4.148 64.75ZM1.348 54.45L0.347997 54.4469V54.45H1.348ZM1.448 22L2.448 22.0031V22H1.448ZM4.298 11.75L5.14554 12.2809L5.1522 12.2699L4.298 11.75ZM12.098 4.4L12.5799 5.27624L12.5866 5.2725L12.098 4.4ZM42.748 11.75L41.8913 12.2659L41.8979 12.2767L42.748 11.75ZM45.598 22H44.598L44.598 22.0031L45.598 22ZM45.698 54.45H46.698L46.698 54.4469L45.698 54.45ZM42.898 64.7L43.7531 65.2185L43.7571 65.2118L42.898 64.7ZM35.048 72.2L34.5594 71.3275L34.5557 71.3296L35.048 72.2ZM33.298 54.45H34.298L34.298 54.4469L33.298 54.45ZM33.198 22H32.198L32.198 22.0031L33.198 22ZM30.498 16.15L29.8507 16.9123L29.8578 16.9182L30.498 16.15ZM30.548 60.45L29.9233 59.6691L29.9163 59.6748L30.548 60.45ZM23.548 75V74C19.3626 74 15.6833 73.0999 12.4829 71.3254L11.998 72.2L11.5131 73.0746C15.046 75.0334 19.0667 76 23.548 76V75ZM11.998 72.2L12.4866 71.3275C9.29468 69.54 6.80661 67.1741 5.0006 64.2274L4.148 64.75L3.2954 65.2726C5.28939 68.5259 8.03465 71.1266 11.5094 73.0725L11.998 72.2ZM4.148 64.75L5.0071 64.2382C3.23491 61.2635 2.348 58.0076 2.348 54.45H1.348H0.347997C0.347997 58.359 1.32775 61.9699 3.2889 65.2618L4.148 64.75ZM1.348 54.45L2.34799 54.4531L2.44799 22.0031L1.448 22L0.448002 21.9969L0.348002 54.4469L1.348 54.45ZM1.448 22H2.448C2.448 18.3757 3.35137 15.1451 5.14547 12.2808L4.298 11.75L3.45052 11.2192C1.44462 14.4216 0.447997 18.0243 0.447997 22H1.448ZM4.298 11.75L5.1522 12.2699C6.92256 9.36149 9.3902 7.03056 12.5799 5.27621L12.098 4.4L11.6161 3.52378C8.13913 5.4361 5.40677 8.00518 3.4438 11.2301L4.298 11.75ZM12.098 4.4L12.5866 5.2725C15.7527 3.4995 19.3972 2.6 23.548 2.6V1.6V0.599999C19.0988 0.599999 15.11 1.56716 11.6094 3.52749L12.098 4.4ZM23.548 1.6V2.6C27.8067 2.6 31.4656 3.48619 34.5586 5.22205L35.048 4.35L35.5374 3.47795C32.0971 1.54714 28.0893 0.599999 23.548 0.599999V1.6ZM35.048 4.35L34.5586 5.22205C37.6796 6.97362 40.1173 9.31978 41.8913 12.2658L42.748 11.75L43.6047 11.2341C41.6453 7.98022 38.9498 5.39304 35.5374 3.47795L35.048 4.35ZM42.748 11.75L41.8979 12.2767C43.6955 15.178 44.598 18.4108 44.598 22H45.598H46.598C46.598 18.0559 45.6005 14.4553 43.5981 11.2233L42.748 11.75ZM45.598 22L44.598 22.0031L44.698 54.4531L45.698 54.45L46.698 54.4469L46.598 21.9969L45.598 22ZM45.698 54.45H44.698C44.698 57.9726 43.812 61.212 42.0389 64.1882L42.898 64.7L43.7571 65.2118C45.7174 61.9213 46.698 58.3274 46.698 54.45H45.698ZM42.898 64.7L42.0429 64.1815C40.2363 67.1608 37.7487 69.5415 34.5594 71.3275L35.048 72.2L35.5366 73.0725C39.0139 71.1252 41.7596 68.5059 43.7531 65.2185L42.898 64.7ZM35.048 72.2L34.5557 71.3296C31.4273 73.0992 27.7686 74 23.548 74V75V76C28.0607 76 32.0687 75.0342 35.5403 73.0704L35.048 72.2ZM33.298 54.45L34.298 54.4469L34.198 21.9969L33.198 22L32.198 22.0031L32.298 54.4531L33.298 54.45ZM33.198 22H34.198C34.198 19.3115 33.1725 17.077 31.1382 15.3818L30.498 16.15L29.8578 16.9182C31.4235 18.223 32.198 19.8885 32.198 22H33.198ZM30.498 16.15L31.1452 15.3877C29.158 13.7004 26.5936 12.9 23.548 12.9V13.9V14.9C26.2357 14.9 28.3047 15.5996 29.8508 16.9123L30.498 16.15ZM23.548 13.9V12.9C20.4423 12.9 17.842 13.697 15.8508 15.3877L16.498 16.15L17.1452 16.9123C18.6873 15.603 20.7871 14.9 23.548 14.9V13.9ZM16.498 16.15L15.8508 15.3877C13.8513 17.0853 12.848 19.3184 12.848 22H13.848H14.848C14.848 19.8816 15.6113 18.2147 17.1452 16.9123L16.498 16.15ZM13.848 22H12.848V54.45H13.848H14.848V22H13.848ZM13.848 54.45H12.848C12.848 57.246 13.8382 59.5416 15.8592 61.2194L16.498 60.45L17.1368 59.6806C15.6244 58.4251 14.848 56.7207 14.848 54.45H13.848ZM16.498 60.45L15.8592 61.2194C17.8504 62.8725 20.4475 63.65 23.548 63.65V62.65V61.65C20.7819 61.65 18.6789 60.9609 17.1368 59.6806L16.498 60.45ZM23.548 62.65V63.65C26.5892 63.65 29.1624 62.8689 31.1797 61.2252L30.548 60.45L29.9163 59.6748C28.3336 60.9644 26.2401 61.65 23.548 61.65V62.65ZM30.548 60.45L31.1727 61.2309C33.2639 59.5579 34.298 57.2596 34.298 54.45H33.298H32.298C32.298 56.7071 31.4987 58.4088 29.9233 59.6691L30.548 60.45ZM69.252 61.5H70.252V60.5H69.252V61.5ZM46.702 49.75L45.8 49.3183L45.702 49.5231V49.75H46.702ZM69.002 3.15L68.154 2.62L68.1242 2.66765L68.1 2.71834L69.002 3.15ZM81.502 3.15H80.502V3.15217L81.502 3.15ZM81.602 49.3L80.602 49.3022L80.6042 50.3H81.602V49.3ZM81.602 61.5V60.5H80.602V61.5H81.602ZM69.252 49.3V50.3H70.252V49.3H69.252ZM69.252 27H70.252L68.3465 26.5757L69.252 27ZM58.802 49.3L57.8965 48.8757L57.229 50.3H58.802V49.3ZM81.202 74V73H69.652V74V75H81.202V74ZM69.652 74V73C69.6878 73 69.7651 73.0055 69.8616 73.0457C69.9642 73.0884 70.0596 73.1588 70.1329 73.2503C70.2683 73.4196 70.252 73.5598 70.252 73.5H69.252H68.252C68.252 73.7735 68.3023 74.1637 68.5711 74.4997C68.874 74.8783 69.298 75 69.652 75V74ZM69.252 73.5H70.252V61.5H69.252H68.252V73.5H69.252ZM69.252 61.5V60.5H47.102V61.5V62.5H69.252V61.5ZM47.102 61.5V60.5C47.1378 60.5 47.2151 60.5055 47.3116 60.5457C47.4142 60.5884 47.5096 60.6588 47.5829 60.7503C47.7183 60.9196 47.702 61.0598 47.702 61H46.702H45.702C45.702 61.2735 45.7523 61.6637 46.0211 61.9997C46.324 62.3783 46.748 62.5 47.102 62.5V61.5ZM46.702 61H47.702V49.75H46.702H45.702V61H46.702ZM46.702 49.75L47.604 50.1817L69.904 3.58166L69.002 3.15L68.1 2.71834L45.8 49.3183L46.702 49.75ZM69.002 3.15L69.85 3.68C69.8705 3.64717 69.8639 3.67069 69.8136 3.70166C69.7886 3.71702 69.7592 3.7302 69.7273 3.73899C69.6958 3.74769 69.6695 3.75 69.652 3.75V2.75V1.75C68.974 1.75 68.4651 2.12224 68.154 2.62L69.002 3.15ZM69.652 2.75V3.75H81.202V2.75V1.75H69.652V2.75ZM81.202 2.75V3.75C81.142 3.75 81.0422 3.73996 80.9271 3.68881C80.8062 3.63508 80.7027 3.55096 80.627 3.45C80.49 3.26727 80.502 3.11282 80.502 3.15H81.502H82.502C82.502 2.92051 82.464 2.56606 82.227 2.25C81.9494 1.87984 81.546 1.75 81.202 1.75V2.75ZM81.502 3.15L80.502 3.15217L80.602 49.3022L81.602 49.3L82.602 49.2978L82.502 3.14783L81.502 3.15ZM81.602 49.3V50.3H88.802V49.3V48.3H81.602V49.3ZM88.802 49.3V50.3C88.7887 50.3 88.6023 50.2919 88.4371 50.1102C88.2882 49.9465 88.302 49.7985 88.302 49.85H89.302H90.302C90.302 49.5349 90.2324 49.1119 89.9169 48.7648C89.585 48.3997 89.1487 48.3 88.802 48.3V49.3ZM89.302 49.85H88.302V61H89.302H90.302V49.85H89.302ZM89.302 61H88.302C88.302 61.0598 88.2857 60.9196 88.4211 60.7503C88.4944 60.6588 88.5898 60.5884 88.6924 60.5457C88.7889 60.5055 88.8662 60.5 88.902 60.5V61.5V62.5C89.256 62.5 89.68 62.3783 89.9829 61.9997C90.2517 61.6637 90.302 61.2735 90.302 61H89.302ZM88.902 61.5V60.5H81.602V61.5V62.5H88.902V61.5ZM81.602 61.5H80.602V73.5H81.602H82.602V61.5H81.602ZM81.602 73.5H80.602C80.602 73.5598 80.5857 73.4196 80.7211 73.2503C80.7944 73.1588 80.8898 73.0884 80.9924 73.0457C81.0889 73.0055 81.1662 73 81.202 73V74V75C81.556 75 81.98 74.8783 82.2829 74.4997C82.5517 74.1637 82.602 73.7735 82.602 73.5H81.602ZM69.252 49.3H70.252V27H69.252H68.252V49.3H69.252ZM69.252 27L68.3465 26.5757L57.8965 48.8757L58.802 49.3L59.7075 49.7243L70.1575 27.4243L69.252 27ZM58.802 49.3V50.3H69.252V49.3V48.3H58.802V49.3Z" fill="url(#paint0_linear_1_593)" mask="url(#path-1-outside-1_1_593)"/>
<defs>
<linearGradient id="paint0_linear_1_593" x1="35.8611" y1="-7" x2="49.8407" y2="91.3532" gradientUnits="userSpaceOnUse">
<stop stop-color="#DADADA"/>
<stop offset="1" stop-color="white"/>
</linearGradient>
</defs>
</svg>
