<svg width="64" height="76" viewBox="0 0 64 76" fill="none" xmlns="http://www.w3.org/2000/svg">
<mask id="path-1-outside-1_1_556" maskUnits="userSpaceOnUse" x="0" y="0" width="64" height="76" fill="black">
<rect fill="white" width="64" height="76"/>
<path d="M23.898 75C19.5647 75 15.7147 74.0667 12.348 72.2C9.01467 70.3333 6.398 67.85 4.498 64.75C2.63133 61.6167 1.698 58.1833 1.698 54.45L1.798 22C1.798 18.2 2.748 14.7833 4.648 11.75C6.51467 8.68333 9.11467 6.23333 12.448 4.4C15.7813 2.53333 19.598 1.6 23.898 1.6C28.298 1.6 32.1313 2.51667 35.398 4.35C38.6647 6.18333 41.2313 8.65 43.098 11.75C44.998 14.8167 45.948 18.2333 45.948 22L46.048 54.45C46.048 58.15 45.1147 61.5667 43.248 64.7C41.348 67.8333 38.7313 70.3333 35.398 72.2C32.098 74.0667 28.2647 75 23.898 75ZM33.648 54.45L33.548 22C33.548 19.6 32.648 17.65 30.848 16.15C29.0813 14.65 26.7647 13.9 23.898 13.9C20.9647 13.9 18.6147 14.65 16.848 16.15C15.0813 17.65 14.198 19.6 14.198 22V54.45C14.198 56.9833 15.0813 58.9833 16.848 60.45C18.6147 61.9167 20.9647 62.65 23.898 62.65C26.7647 62.65 29.098 61.9167 30.898 60.45C32.7313 58.9833 33.648 56.9833 33.648 54.45ZM61.802 74H50.202C49.8687 74 49.702 73.8333 49.702 73.5L49.802 3.15C49.802 2.88333 49.9353 2.75 50.202 2.75H61.702C61.9687 2.75 62.102 2.88333 62.102 3.15L62.202 73.5C62.202 73.8333 62.0687 74 61.802 74Z"/>
</mask>
<path d="M12.348 72.2L11.8594 73.0725L11.8631 73.0746L12.348 72.2ZM4.498 64.75L3.63883 65.2618L3.6454 65.2726L4.498 64.75ZM1.698 54.45L0.698 54.4469V54.45H1.698ZM1.798 22L2.798 22.0031V22H1.798ZM4.648 11.75L5.49554 12.2809L5.5022 12.2699L4.648 11.75ZM12.448 4.4L12.9299 5.27624L12.9366 5.2725L12.448 4.4ZM43.098 11.75L42.2413 12.2659L42.2479 12.2767L43.098 11.75ZM45.948 22H44.948L44.948 22.0031L45.948 22ZM46.048 54.45H47.048L47.048 54.4469L46.048 54.45ZM43.248 64.7L44.1031 65.2185L44.1071 65.2118L43.248 64.7ZM35.398 72.2L34.9094 71.3275L34.9057 71.3296L35.398 72.2ZM33.648 54.45H34.648L34.648 54.4469L33.648 54.45ZM33.548 22H32.548L32.548 22.0031L33.548 22ZM30.848 16.15L30.2007 16.9123L30.2078 16.9182L30.848 16.15ZM30.898 60.45L30.2733 59.6691L30.2663 59.6748L30.898 60.45ZM23.898 75V74C19.7126 74 16.0333 73.0999 12.8329 71.3254L12.348 72.2L11.8631 73.0746C15.396 75.0334 19.4167 76 23.898 76V75ZM12.348 72.2L12.8366 71.3275C9.64468 69.54 7.15661 67.1741 5.3506 64.2274L4.498 64.75L3.6454 65.2726C5.63939 68.5259 8.38465 71.1266 11.8594 73.0725L12.348 72.2ZM4.498 64.75L5.3571 64.2382C3.58491 61.2635 2.698 58.0076 2.698 54.45H1.698H0.698C0.698 58.359 1.67775 61.9699 3.6389 65.2618L4.498 64.75ZM1.698 54.45L2.69799 54.4531L2.798 22.0031L1.798 22L0.798004 21.9969L0.698004 54.4469L1.698 54.45ZM1.798 22H2.798C2.798 18.3757 3.70138 15.1451 5.49547 12.2808L4.648 11.75L3.80053 11.2192C1.79462 14.4216 0.798 18.0243 0.798 22H1.798ZM4.648 11.75L5.5022 12.2699C7.27256 9.36149 9.7402 7.03056 12.9299 5.27621L12.448 4.4L11.9661 3.52378C8.48913 5.4361 5.75677 8.00518 3.7938 11.2301L4.648 11.75ZM12.448 4.4L12.9366 5.2725C16.1027 3.4995 19.7472 2.6 23.898 2.6V1.6V0.599999C19.4488 0.599999 15.46 1.56716 11.9594 3.52749L12.448 4.4ZM23.898 1.6V2.6C28.1567 2.6 31.8156 3.48619 34.9086 5.22205L35.398 4.35L35.8874 3.47795C32.4471 1.54714 28.4393 0.599999 23.898 0.599999V1.6ZM35.398 4.35L34.9086 5.22205C38.0296 6.97362 40.4673 9.31978 42.2413 12.2658L43.098 11.75L43.9547 11.2341C41.9953 7.98022 39.2998 5.39304 35.8874 3.47795L35.398 4.35ZM43.098 11.75L42.2479 12.2767C44.0455 15.178 44.948 18.4108 44.948 22H45.948H46.948C46.948 18.0559 45.9505 14.4553 43.9481 11.2233L43.098 11.75ZM45.948 22L44.948 22.0031L45.048 54.4531L46.048 54.45L47.048 54.4469L46.948 21.9969L45.948 22ZM46.048 54.45H45.048C45.048 57.9726 44.162 61.212 42.3889 64.1882L43.248 64.7L44.1071 65.2118C46.0674 61.9213 47.048 58.3274 47.048 54.45H46.048ZM43.248 64.7L42.3929 64.1815C40.5863 67.1608 38.0987 69.5415 34.9094 71.3275L35.398 72.2L35.8866 73.0725C39.3639 71.1252 42.1096 68.5059 44.1031 65.2185L43.248 64.7ZM35.398 72.2L34.9057 71.3296C31.7773 73.0992 28.1186 74 23.898 74V75V76C28.4107 76 32.4187 75.0342 35.8903 73.0704L35.398 72.2ZM33.648 54.45L34.648 54.4469L34.548 21.9969L33.548 22L32.548 22.0031L32.648 54.4531L33.648 54.45ZM33.548 22H34.548C34.548 19.3115 33.5225 17.077 31.4882 15.3818L30.848 16.15L30.2078 16.9182C31.7735 18.223 32.548 19.8885 32.548 22H33.548ZM30.848 16.15L31.4952 15.3877C29.508 13.7004 26.9436 12.9 23.898 12.9V13.9V14.9C26.5857 14.9 28.6547 15.5996 30.2008 16.9123L30.848 16.15ZM23.898 13.9V12.9C20.7923 12.9 18.192 13.697 16.2008 15.3877L16.848 16.15L17.4952 16.9123C19.0373 15.603 21.1371 14.9 23.898 14.9V13.9ZM16.848 16.15L16.2008 15.3877C14.2013 17.0853 13.198 19.3184 13.198 22H14.198H15.198C15.198 19.8816 15.9613 18.2147 17.4952 16.9123L16.848 16.15ZM14.198 22H13.198V54.45H14.198H15.198V22H14.198ZM14.198 54.45H13.198C13.198 57.246 14.1882 59.5416 16.2092 61.2194L16.848 60.45L17.4868 59.6806C15.9744 58.4251 15.198 56.7207 15.198 54.45H14.198ZM16.848 60.45L16.2092 61.2194C18.2004 62.8725 20.7975 63.65 23.898 63.65V62.65V61.65C21.1319 61.65 19.0289 60.9609 17.4868 59.6806L16.848 60.45ZM23.898 62.65V63.65C26.9392 63.65 29.5124 62.8689 31.5297 61.2252L30.898 60.45L30.2663 59.6748C28.6836 60.9644 26.5901 61.65 23.898 61.65V62.65ZM30.898 60.45L31.5227 61.2309C33.6139 59.5579 34.648 57.2596 34.648 54.45H33.648H32.648C32.648 56.7071 31.8487 58.4088 30.2733 59.6691L30.898 60.45ZM49.702 73.5L48.702 73.4986V73.5H49.702ZM49.802 3.15L50.802 3.15142V3.15H49.802ZM62.102 3.15H61.102L61.102 3.15142L62.102 3.15ZM62.202 73.5H63.202L63.202 73.4986L62.202 73.5ZM61.802 74V73H50.202V74V75H61.802V74ZM50.202 74V73C50.1895 73 50.3638 72.9975 50.5341 73.1679C50.7045 73.3382 50.702 73.5125 50.702 73.5H49.702H48.702C48.702 73.8208 48.7829 74.2451 49.1199 74.5821C49.4569 74.9191 49.8812 75 50.202 75V74ZM49.702 73.5L50.702 73.5014L50.802 3.15142L49.802 3.15L48.802 3.14858L48.702 73.4986L49.702 73.5ZM49.802 3.15H50.802C50.802 3.17081 50.7961 3.37009 50.6091 3.55711C50.4221 3.74412 50.2228 3.75 50.202 3.75V2.75V1.75C49.9145 1.75 49.5152 1.82255 49.1949 2.14289C48.8745 2.46324 48.802 2.86252 48.802 3.15H49.802ZM50.202 2.75V3.75H61.702V2.75V1.75H50.202V2.75ZM61.702 2.75V3.75C61.6812 3.75 61.4819 3.74412 61.2949 3.55711C61.1079 3.37009 61.102 3.17081 61.102 3.15H62.102H63.102C63.102 2.86252 63.0295 2.46324 62.7091 2.14289C62.3888 1.82255 61.9895 1.75 61.702 1.75V2.75ZM62.102 3.15L61.102 3.15142L61.202 73.5014L62.202 73.5L63.202 73.4986L63.102 3.14858L62.102 3.15ZM62.202 73.5H61.202C61.202 73.5598 61.1857 73.4196 61.3211 73.2503C61.3944 73.1588 61.4898 73.0884 61.5924 73.0457C61.6889 73.0055 61.7662 73 61.802 73V74V75C62.156 75 62.58 74.8783 62.8829 74.4997C63.1517 74.1637 63.202 73.7735 63.202 73.5H62.202Z" fill="url(#paint0_linear_1_556)" mask="url(#path-1-outside-1_1_556)"/>
<defs>
<linearGradient id="paint0_linear_1_556" x1="26" y1="-7" x2="44" y2="90" gradientUnits="userSpaceOnUse">
<stop stop-color="#DADADA"/>
<stop offset="1" stop-color="white"/>
</linearGradient>
</defs>
</svg>
