<svg width="88" height="76" viewBox="0 0 88 76" fill="none" xmlns="http://www.w3.org/2000/svg">
<mask id="path-1-outside-1_1_568" maskUnits="userSpaceOnUse" x="0" y="0" width="88" height="76" fill="black">
<rect fill="white" width="88" height="76"/>
<path d="M23.246 75C18.9127 75 15.0627 74.0667 11.696 72.2C8.36267 70.3333 5.746 67.85 3.846 64.75C1.97933 61.6167 1.046 58.1833 1.046 54.45L1.146 22C1.146 18.2 2.096 14.7833 3.996 11.75C5.86267 8.68333 8.46267 6.23333 11.796 4.4C15.1293 2.53333 18.946 1.6 23.246 1.6C27.646 1.6 31.4793 2.51667 34.746 4.35C38.0127 6.18333 40.5793 8.65 42.446 11.75C44.346 14.8167 45.296 18.2333 45.296 22L45.396 54.45C45.396 58.15 44.4627 61.5667 42.596 64.7C40.696 67.8333 38.0793 70.3333 34.746 72.2C31.446 74.0667 27.6127 75 23.246 75ZM32.996 54.45L32.896 22C32.896 19.6 31.996 17.65 30.196 16.15C28.4293 14.65 26.1127 13.9 23.246 13.9C20.3127 13.9 17.9627 14.65 16.196 16.15C14.4293 17.65 13.546 19.6 13.546 22V54.45C13.546 56.9833 14.4293 58.9833 16.196 60.45C17.9627 61.9167 20.3127 62.65 23.246 62.65C26.1127 62.65 28.446 61.9167 30.246 60.45C32.0793 58.9833 32.996 56.9833 32.996 54.45ZM85.8 74H47.6C47.2667 74 47.1 73.8333 47.1 73.5V61.9C47.1 61.7667 47.1667 61.6333 47.3 61.5L72.6 26.8C73.0667 26.1667 73.45 25.3667 73.75 24.4C74.0833 23.4 74.25 22.5333 74.25 21.8C74.25 19.8 73.5333 17.9667 72.1 16.3C70.6667 14.6333 68.85 13.8 66.65 13.8C64.55 13.8 62.7667 14.6 61.3 16.2C59.8333 17.8 59.1 19.8333 59.1 22.3V27.3C59.1 27.6333 58.9333 27.8 58.6 27.8H47.1C46.8333 27.8 46.7 27.6333 46.7 27.3V22.3C46.7 18.4667 47.65 14.9833 49.55 11.85C51.4167 8.71667 53.8667 6.23333 56.9 4.4C59.9333 2.53333 63.1833 1.6 66.65 1.6C70.3167 1.6 73.6667 2.53333 76.7 4.4C79.7 6.3 82.1 8.78333 83.9 11.85C85.7333 14.9167 86.65 18.2333 86.65 21.8C86.65 24.0333 86.25 26.3167 85.45 28.65C84.6833 30.95 83.6167 33 82.25 34.8L62.8 61.5H85.8C86.1 61.5 86.25 61.6333 86.25 61.9V73.5C86.25 73.8333 86.1 74 85.8 74Z"/>
</mask>
<path d="M11.696 72.2L11.2074 73.0725L11.2111 73.0746L11.696 72.2ZM3.846 64.75L2.98683 65.2618L2.9934 65.2726L3.846 64.75ZM1.046 54.45L0.0459991 54.4469V54.45H1.046ZM1.146 22L2.146 22.0031V22H1.146ZM3.996 11.75L4.84354 12.2809L4.8502 12.2699L3.996 11.75ZM11.796 4.4L12.2779 5.27624L12.2846 5.2725L11.796 4.4ZM42.446 11.75L41.5893 12.2659L41.5959 12.2767L42.446 11.75ZM45.296 22H44.296L44.296 22.0031L45.296 22ZM45.396 54.45H46.396L46.396 54.4469L45.396 54.45ZM42.596 64.7L43.4511 65.2185L43.4551 65.2118L42.596 64.7ZM34.746 72.2L34.2574 71.3275L34.2537 71.3296L34.746 72.2ZM32.996 54.45H33.996L33.996 54.4469L32.996 54.45ZM32.896 22H31.896L31.896 22.0031L32.896 22ZM30.196 16.15L29.5487 16.9123L29.5558 16.9182L30.196 16.15ZM30.246 60.45L29.6213 59.6691L29.6143 59.6748L30.246 60.45ZM23.246 75V74C19.0606 74 15.3813 73.0999 12.1809 71.3254L11.696 72.2L11.2111 73.0746C14.744 75.0334 18.7647 76 23.246 76V75ZM11.696 72.2L12.1846 71.3275C8.99268 69.54 6.50461 67.1741 4.6986 64.2274L3.846 64.75L2.9934 65.2726C4.98739 68.5259 7.73265 71.1266 11.2074 73.0725L11.696 72.2ZM3.846 64.75L4.7051 64.2382C2.93291 61.2635 2.046 58.0076 2.046 54.45H1.046H0.0459991C0.0459991 58.359 1.02575 61.9699 2.9869 65.2618L3.846 64.75ZM1.046 54.45L2.04599 54.4531L2.14599 22.0031L1.146 22L0.146004 21.9969L0.0460038 54.4469L1.046 54.45ZM1.146 22H2.146C2.146 18.3757 3.04938 15.1451 4.84347 12.2808L3.996 11.75L3.14852 11.2192C1.14262 14.4216 0.145999 18.0243 0.145999 22H1.146ZM3.996 11.75L4.8502 12.2699C6.62056 9.36149 9.0882 7.03056 12.2779 5.27621L11.796 4.4L11.3141 3.52378C7.83713 5.4361 5.10477 8.00518 3.1418 11.2301L3.996 11.75ZM11.796 4.4L12.2846 5.2725C15.4507 3.4995 19.0952 2.6 23.246 2.6V1.6V0.599999C18.7968 0.599999 14.808 1.56716 11.3074 3.52749L11.796 4.4ZM23.246 1.6V2.6C27.5047 2.6 31.1636 3.48619 34.2566 5.22205L34.746 4.35L35.2354 3.47795C31.7951 1.54714 27.7873 0.599999 23.246 0.599999V1.6ZM34.746 4.35L34.2566 5.22205C37.3776 6.97362 39.8153 9.31978 41.5893 12.2658L42.446 11.75L43.3027 11.2341C41.3433 7.98022 38.6478 5.39304 35.2354 3.47795L34.746 4.35ZM42.446 11.75L41.5959 12.2767C43.3935 15.178 44.296 18.4108 44.296 22H45.296H46.296C46.296 18.0559 45.2985 14.4553 43.2961 11.2233L42.446 11.75ZM45.296 22L44.296 22.0031L44.396 54.4531L45.396 54.45L46.396 54.4469L46.296 21.9969L45.296 22ZM45.396 54.45H44.396C44.396 57.9726 43.51 61.212 41.7369 64.1882L42.596 64.7L43.4551 65.2118C45.4154 61.9213 46.396 58.3274 46.396 54.45H45.396ZM42.596 64.7L41.7409 64.1815C39.9343 67.1608 37.4467 69.5415 34.2574 71.3275L34.746 72.2L35.2346 73.0725C38.7119 71.1252 41.4576 68.5059 43.4511 65.2185L42.596 64.7ZM34.746 72.2L34.2537 71.3296C31.1253 73.0992 27.4666 74 23.246 74V75V76C27.7587 76 31.7667 75.0342 35.2383 73.0704L34.746 72.2ZM32.996 54.45L33.996 54.4469L33.896 21.9969L32.896 22L31.896 22.0031L31.996 54.4531L32.996 54.45ZM32.896 22H33.896C33.896 19.3115 32.8705 17.077 30.8362 15.3818L30.196 16.15L29.5558 16.9182C31.1215 18.223 31.896 19.8885 31.896 22H32.896ZM30.196 16.15L30.8432 15.3877C28.856 13.7004 26.2916 12.9 23.246 12.9V13.9V14.9C25.9337 14.9 28.0027 15.5996 29.5488 16.9123L30.196 16.15ZM23.246 13.9V12.9C20.1403 12.9 17.54 13.697 15.5488 15.3877L16.196 16.15L16.8432 16.9123C18.3853 15.603 20.4851 14.9 23.246 14.9V13.9ZM16.196 16.15L15.5488 15.3877C13.5493 17.0853 12.546 19.3184 12.546 22H13.546H14.546C14.546 19.8816 15.3093 18.2147 16.8432 16.9123L16.196 16.15ZM13.546 22H12.546V54.45H13.546H14.546V22H13.546ZM13.546 54.45H12.546C12.546 57.246 13.5362 59.5416 15.5572 61.2194L16.196 60.45L16.8348 59.6806C15.3224 58.4251 14.546 56.7207 14.546 54.45H13.546ZM16.196 60.45L15.5572 61.2194C17.5484 62.8725 20.1455 63.65 23.246 63.65V62.65V61.65C20.4799 61.65 18.3769 60.9609 16.8348 59.6806L16.196 60.45ZM23.246 62.65V63.65C26.2872 63.65 28.8604 62.8689 30.8777 61.2252L30.246 60.45L29.6143 59.6748C28.0316 60.9644 25.9381 61.65 23.246 61.65V62.65ZM30.246 60.45L30.8707 61.2309C32.9619 59.5579 33.996 57.2596 33.996 54.45H32.996H31.996C31.996 56.7071 31.1967 58.4088 29.6213 59.6691L30.246 60.45ZM47.3 61.5L48.0071 62.2071L48.0622 62.1521L48.108 62.0891L47.3 61.5ZM72.6 26.8L71.7949 26.2068L71.792 26.2109L72.6 26.8ZM73.75 24.4L72.8013 24.0838L72.798 24.0937L72.7949 24.1036L73.75 24.4ZM49.55 11.85L50.4051 12.3685L50.4091 12.3618L49.55 11.85ZM56.9 4.4L57.4173 5.25586L57.4241 5.25166L56.9 4.4ZM76.7 4.4L77.2351 3.55511L77.2241 3.54834L76.7 4.4ZM83.9 11.85L83.0376 12.3562L83.0417 12.3631L83.9 11.85ZM85.45 28.65L84.504 28.3257L84.5013 28.3338L85.45 28.65ZM82.25 34.8L81.4536 34.1953L81.4476 34.2032L81.4417 34.2112L82.25 34.8ZM62.8 61.5L61.9917 60.9112L60.8343 62.5H62.8V61.5ZM85.8 74V73H47.6V74V75H85.8V74ZM47.6 74V73C47.5875 73 47.7618 72.9975 47.9321 73.1679C48.1025 73.3382 48.1 73.5125 48.1 73.5H47.1H46.1C46.1 73.8208 46.1809 74.2451 46.5179 74.5821C46.8549 74.9191 47.2792 75 47.6 75V74ZM47.1 73.5H48.1V61.9H47.1H46.1V73.5H47.1ZM47.1 61.9H48.1C48.1 62.1254 47.9828 62.2314 48.0071 62.2071L47.3 61.5L46.5929 60.7929C46.3506 61.0352 46.1 61.4079 46.1 61.9H47.1ZM47.3 61.5L48.108 62.0891L73.408 27.3891L72.6 26.8L71.792 26.2109L46.492 60.9109L47.3 61.5ZM72.6 26.8L73.4051 27.3932C73.9538 26.6484 74.381 25.7407 74.7051 24.6964L73.75 24.4L72.7949 24.1036C72.519 24.9927 72.1795 25.6849 71.7949 26.2068L72.6 26.8ZM73.75 24.4L74.6987 24.7162C75.0525 23.6549 75.25 22.6766 75.25 21.8H74.25H73.25C73.25 22.3901 73.1142 23.1451 72.8013 24.0838L73.75 24.4ZM74.25 21.8H75.25C75.25 19.5364 74.4309 17.4767 72.8582 15.648L72.1 16.3L71.3418 16.952C72.6357 18.4566 73.25 20.0636 73.25 21.8H74.25ZM72.1 16.3L72.8582 15.648C71.2347 13.7602 69.1411 12.8 66.65 12.8V13.8V14.8C68.5589 14.8 70.0986 15.5065 71.3418 16.952L72.1 16.3ZM66.65 13.8V12.8C64.2592 12.8 62.2117 13.7255 60.5628 15.5243L61.3 16.2L62.0372 16.8757C63.3216 15.4745 64.8408 14.8 66.65 14.8V13.8ZM61.3 16.2L60.5628 15.5243C58.9039 17.3341 58.1 19.6198 58.1 22.3H59.1H60.1C60.1 20.0469 60.7628 18.2659 62.0372 16.8757L61.3 16.2ZM59.1 22.3H58.1V27.3H59.1H60.1V22.3H59.1ZM59.1 27.3H58.1C58.1 27.3125 58.0975 27.1382 58.2679 26.9679C58.4382 26.7975 58.6125 26.8 58.6 26.8V27.8V28.8C58.9208 28.8 59.3451 28.7191 59.6821 28.3821C60.0191 28.0451 60.1 27.6208 60.1 27.3H59.1ZM58.6 27.8V26.8H47.1V27.8V28.8H58.6V27.8ZM47.1 27.8V26.8C47.1358 26.8 47.2131 26.8055 47.3096 26.8457C47.4122 26.8884 47.5076 26.9588 47.5809 27.0503C47.7163 27.2196 47.7 27.3598 47.7 27.3H46.7H45.7C45.7 27.5735 45.7503 27.9637 46.0191 28.2997C46.322 28.6783 46.746 28.8 47.1 28.8V27.8ZM46.7 27.3H47.7V22.3H46.7H45.7V27.3H46.7ZM46.7 22.3H47.7C47.7 18.6407 48.6043 15.3381 50.4051 12.3685L49.55 11.85L48.6949 11.3315C46.6957 14.6285 45.7 18.2927 45.7 22.3H46.7ZM49.55 11.85L50.4091 12.3618C52.1943 9.36521 54.5286 7.00175 57.4173 5.25583L56.9 4.4L56.3827 3.54417C53.2048 5.46492 50.639 8.06813 48.6909 11.3382L49.55 11.85ZM56.9 4.4L57.4241 5.25166C60.3044 3.47918 63.3737 2.6 66.65 2.6V1.6V0.599999C62.993 0.599999 59.5623 1.58748 56.3759 3.54834L56.9 4.4ZM66.65 1.6V2.6C70.1373 2.6 73.305 3.48494 76.1759 5.25166L76.7 4.4L77.2241 3.54834C74.0283 1.58172 70.496 0.599999 66.65 0.599999V1.6ZM76.7 4.4L76.1649 5.24482C79.0302 7.0595 81.3181 9.42666 83.0376 12.3562L83.9 11.85L84.7624 11.3438C82.8819 8.14 80.3698 5.5405 77.2351 3.55518L76.7 4.4ZM83.9 11.85L83.0417 12.3631C84.7825 15.275 85.65 18.4144 85.65 21.8H86.65H87.65C87.65 18.0523 86.6842 14.5584 84.7583 11.3369L83.9 11.85ZM86.65 21.8H85.65C85.65 23.9121 85.272 26.0859 84.5041 28.3257L85.45 28.65L86.396 28.9743C87.228 26.5474 87.65 24.1546 87.65 21.8H86.65ZM85.45 28.65L84.5013 28.3338C83.7667 30.5375 82.7494 32.4886 81.4536 34.1953L82.25 34.8L83.0464 35.4047C84.484 33.5114 85.5999 31.3625 86.3987 28.9662L85.45 28.65ZM82.25 34.8L81.4417 34.2112L61.9917 60.9112L62.8 61.5L63.6083 62.0888L83.0583 35.3888L82.25 34.8ZM62.8 61.5V62.5H85.8V61.5V60.5H62.8V61.5ZM85.8 61.5V62.5C85.823 62.5 85.6534 62.5077 85.4731 62.3474C85.2704 62.1672 85.25 61.9533 85.25 61.9H86.25H87.25C87.25 61.58 87.1546 61.1661 86.8019 60.8526C86.4716 60.559 86.077 60.5 85.8 60.5V61.5ZM86.25 61.9H85.25V73.5H86.25H87.25V61.9H86.25ZM86.25 73.5H85.25C85.25 73.537 85.2394 73.378 85.3942 73.206C85.567 73.014 85.7671 73 85.8 73V74V75C86.1329 75 86.558 74.9027 86.8808 74.544C87.1856 74.2053 87.25 73.7963 87.25 73.5H86.25Z" fill="url(#paint0_linear_1_568)" mask="url(#path-1-outside-1_1_568)"/>
<defs>
<linearGradient id="paint0_linear_1_568" x1="32.0694" y1="-7" x2="45.633" y2="91.472" gradientUnits="userSpaceOnUse">
<stop stop-color="#DADADA"/>
<stop offset="1" stop-color="white"/>
</linearGradient>
</defs>
</svg>
