<svg width="41" height="40" viewBox="0 0 41 40" fill="none" xmlns="http://www.w3.org/2000/svg">
<path d="M36.4375 15.1022C36.4 15.0585 34.3562 13.2085 34.3562 13.2085C34.3561 14.1032 34.3563 15.9337 34.3562 16.8335C34.8732 16.402 35.9234 15.53 36.4375 15.1022Z" fill="#E63946"/>
<path d="M6.80625 16.9583V13.1646C6.80625 13.1646 4.6125 15.0771 4.5625 15.1333C4.81785 15.3168 6.80625 16.9583 6.80625 16.9583Z" fill="#E63946"/>
<path d="M21.3438 24.6084C21.1067 24.4115 20.8082 24.3037 20.5 24.3037C20.1918 24.3037 19.8933 24.4115 19.6563 24.6084C17.6185 26.3091 4.79376 36.9397 4.79376 36.9397C5.24993 37.3038 5.81631 37.5022 6.40001 37.5022H34.6C35.1739 37.5016 35.7309 37.3079 36.1813 36.9522C35.9495 36.7505 21.3438 24.6084 21.3438 24.6084Z" fill="#E63946"/>
<path d="M37.0627 16.2085C33.8027 18.9143 28.4469 23.3829 25.1377 26.1335L36.944 35.9647C37.0772 35.657 37.1453 35.3251 37.144 34.9897V16.8397C37.1463 16.6266 37.119 16.4141 37.0627 16.2085Z" fill="#E63946"/>
<path d="M15.8688 26.1333C12.5965 23.4236 7.51041 19.1624 4.29376 16.4959L3.93751 16.2271C3.88248 16.4329 3.85516 16.6452 3.85626 16.8583V34.9896C3.85502 35.3155 3.91876 35.6385 4.04376 35.9396L15.8688 26.1333Z" fill="#E63946"/>
<path d="M26.3813 6.00216L23.7813 3.65841C22.9627 2.92121 21.9029 2.50861 20.8013 2.49825C19.6997 2.48789 18.6323 2.88049 17.8 3.60216L15.0438 6.00216H26.3813Z" fill="#E63946"/>
<path d="M16.85 25.3208L18.8562 23.6521C19.3176 23.268 19.8986 23.0571 20.4989 23.056C21.0991 23.0549 21.681 23.2635 22.1437 23.6458L24.1562 25.3208C24.1562 25.3208 32.5142 18.3655 33.1062 17.8708V9.75827C33.0996 9.08805 32.8274 8.44784 32.3493 7.97802C31.8713 7.50819 31.2265 7.24711 30.5562 7.25202H10.6062C9.93601 7.24712 9.29119 7.5082 8.81318 7.97803C8.33516 8.44785 8.06296 9.08806 8.05627 9.75827C8.05627 9.75827 8.05666 16.8508 8.05627 18.002C8.6607 18.4924 16.85 25.3208 16.85 25.3208ZM17.05 17.1583C17.0495 17.5145 16.9078 17.856 16.6559 18.1079C16.404 18.3598 16.0625 18.5016 15.7062 18.5021H14.3062C14.1405 18.5021 13.9815 18.4362 13.8643 18.319C13.7471 18.2018 13.6812 18.0428 13.6812 17.8771C13.6812 17.7113 13.7471 17.5523 13.8643 17.4351C13.9815 17.3179 14.1405 17.2521 14.3062 17.2521H15.7062C15.7309 17.2515 15.7544 17.2414 15.7719 17.2239C15.7893 17.2065 15.7994 17.183 15.8 17.1583V14.4146C15.7994 14.3899 15.7893 14.3664 15.7719 14.3489C15.7544 14.3315 15.7309 14.3214 15.7062 14.3208H14.3062C14.1405 14.3208 13.9815 14.255 13.8643 14.1378C13.7471 14.0205 13.6812 13.8616 13.6812 13.6958C13.6812 13.53 13.7471 13.3711 13.8643 13.2539C13.9815 13.1367 14.1405 13.0708 14.3062 13.0708H15.7062C15.8828 13.0705 16.0576 13.1051 16.2208 13.1725C16.384 13.24 16.5322 13.3389 16.657 13.4638C16.7819 13.5886 16.8808 13.7369 16.9483 13.9C17.0157 14.0632 17.0503 14.238 17.05 14.4146V17.1583ZM20.2625 18.5021C17.4188 18.4545 17.4137 13.1199 20.2626 13.0708C23.1196 13.123 23.1131 18.4525 20.2625 18.5021ZM27.3062 17.5896C27.1651 17.8696 26.9476 18.1039 26.6788 18.2654C26.41 18.4269 26.101 18.5089 25.7875 18.5021H23.95C23.7844 18.5016 23.6257 18.4356 23.5086 18.3185C23.3915 18.2014 23.3255 18.0427 23.325 17.8771V13.6958C23.3255 13.5302 23.3915 13.3715 23.5086 13.2544C23.6257 13.1373 23.7844 13.0713 23.95 13.0708H25.6125C25.9104 13.0836 26.2001 13.1729 26.4535 13.3301C26.7069 13.4873 26.9155 13.7071 27.0593 13.9683C27.2031 14.2296 27.2772 14.5234 27.2745 14.8216C27.2717 15.1198 27.1922 15.4123 27.0437 15.6709C27.2659 15.9323 27.4088 16.2519 27.4553 16.5918C27.5019 16.9318 27.4501 17.278 27.3062 17.5896Z" fill="#E63946"/>
<path d="M26.0188 16.4082H24.575V17.252H25.7875C26.3073 17.2785 26.3356 16.6227 26.0188 16.4082Z" fill="#E63946"/>
<path d="M26.0125 14.7396C26.0141 14.6857 26.0049 14.6321 25.9856 14.5818C25.9663 14.5316 25.9371 14.4856 25.8999 14.4467C25.8627 14.4077 25.8182 14.3765 25.7688 14.3549C25.7195 14.3333 25.6664 14.3217 25.6125 14.3208H24.575V15.1583H25.9C25.9729 15.0307 26.0116 14.8865 26.0125 14.7396Z" fill="#E63946"/>
<path d="M20.2625 14.3208C19.0695 14.4072 19.0761 17.1691 20.2625 17.252C21.4577 17.1649 21.4624 14.4098 20.2625 14.3208Z" fill="#E63946"/>
</svg>
