<svg width="40" height="40" viewBox="0 0 40 40" fill="none" xmlns="http://www.w3.org/2000/svg">
<path d="M16.9875 32.8625L16.8875 32.5H1.25V35C1.25 37.0625 2.9375 38.75 5 38.75H20C21.1125 38.75 22.1 38.25 22.7875 37.4875C21.775 37.45 20.7875 37.175 19.9125 36.6625C18.4625 35.825 17.425 34.475 17 32.8625H16.9875Z" fill="#E63946"/>
<path d="M12.875 17.4875C12.3 15.325 12.925 13.0125 14.5125 11.4375L17.85 8.125L13.75 5.5625V5C13.75 4.3125 14.3125 3.75 15 3.75H19.375C19.8875 3.75 20.3625 4.075 20.55 4.5625L23.45 12.3125C23.6375 12.8125 24.1125 13.125 24.625 13.125C24.775 13.125 24.9125 13.1 25.0625 13.05C25.7125 12.8125 26.0375 12.0875 25.8 11.4375L22.9 3.6875C22.35 2.225 20.9375 1.25 19.3875 1.25H15.0125C12.95 1.25 11.2625 2.9375 11.2625 5V5.5625L3.02501 10.7125C1.92501 11.4 1.26251 12.5875 1.26251 13.8875V30H16.2375L12.8875 17.4875H12.875ZM5.62501 20H9.37501C10.0625 20 10.625 20.5625 10.625 21.25C10.625 21.9375 10.0625 22.5 9.37501 22.5H5.62501C4.93751 22.5 4.37501 21.9375 4.37501 21.25C4.37501 20.5625 4.93751 20 5.62501 20ZM11.875 27.5H5.62501C4.93751 27.5 4.37501 26.9375 4.37501 26.25C4.37501 25.5625 4.93751 25 5.62501 25H11.875C12.5625 25 13.125 25.5625 13.125 26.25C13.125 26.9375 12.5625 27.5 11.875 27.5Z" fill="#E63946"/>
<path d="M38.625 27.0749L34.5 11.6874C34.15 10.3874 33.125 9.3749 31.8375 9.0249L27.1 7.7749L28.1375 10.5499C28.4875 11.4874 28.45 12.4999 28.0375 13.4124C27.625 14.3249 26.875 15.0249 25.9375 15.3749C25.5125 15.5374 25.075 15.6124 24.625 15.6124C23.075 15.6124 21.6625 14.6374 21.1125 13.1749L19.8125 9.6874L16.275 13.1874C15.325 14.1374 14.95 15.5249 15.2875 16.8249L19.4125 32.2124C19.675 33.1749 20.2875 33.9874 21.1625 34.4874C21.7375 34.8249 22.3875 34.9874 23.025 34.9874C23.35 34.9874 23.675 34.9499 24 34.8624L35.975 31.6499C37.975 31.1124 39.1625 29.0499 38.625 27.0624V27.0749ZM23.0125 22.8749C22.4625 22.8749 21.95 22.5124 21.8 21.9499L21.6375 21.3499C21.4625 20.6874 21.85 19.9999 22.525 19.8124C23.1875 19.6374 23.875 20.0249 24.0625 20.6999L24.225 21.2999C24.4 21.9624 24.0125 22.6499 23.3375 22.8374C23.225 22.8624 23.125 22.8749 23.0125 22.8749ZM24.775 29.4749C24.5625 29.4749 24.35 29.4249 24.15 29.3124C23.55 28.9624 23.35 28.1999 23.6875 27.5999L28.9625 18.4749C29.3125 17.8749 30.075 17.6749 30.675 18.0124C31.275 18.3624 31.475 19.1249 31.1375 19.7249L25.8625 28.8499C25.625 29.2499 25.2125 29.4749 24.775 29.4749ZM32.3 27.4999C32.1875 27.5249 32.0875 27.5374 31.975 27.5374C31.425 27.5374 30.9125 27.1624 30.7625 26.6124L30.6 26.0124C30.425 25.3499 30.8125 24.6624 31.4875 24.4874C32.15 24.3124 32.8375 24.6999 33.0125 25.3749L33.175 25.9749C33.35 26.6374 32.9625 27.3249 32.2875 27.4999H32.3Z" fill="#E63946"/>
</svg>
