<svg width="40" height="40" viewBox="0 0 40 40" fill="none" xmlns="http://www.w3.org/2000/svg">
<g clip-path="url(#clip0_1_558)">
<path d="M35.545 7.38574C35.545 10.0786 33.3621 12.2615 30.6696 12.2615C27.9767 12.2615 25.7938 10.0786 25.7938 7.38574C25.7938 4.69318 27.9767 2.51025 30.6696 2.51025C33.3621 2.51025 35.545 4.69318 35.545 7.38574Z" fill="#E63946"/>
<path d="M22.2305 13.7015L19.9164 10.2313V4.3103C19.9164 1.94763 18.0109 0 15.607 0H4.3103C1.91864 0 0 1.93604 0 4.3103V11.2134C0 13.5822 1.91162 15.5234 4.3103 15.5234H21.2555C22.189 15.5234 22.7493 14.4797 22.2305 13.7015ZM9.92554 11.1304H6.22559C5.59448 11.1304 5.05157 10.6448 5.02228 10.0143C4.99145 9.34113 5.52673 8.78662 6.19293 8.78662H9.9588C10.6238 8.78662 11.1603 9.34113 11.1291 10.014C11.1002 10.6448 10.5569 11.1304 9.92554 11.1304ZM13.7244 6.73676H6.2262C5.5954 6.73676 5.05279 6.25244 5.02258 5.62256C4.99023 4.94934 5.52612 4.39301 6.19293 4.39301H13.6911C14.3225 4.39301 14.8657 4.87854 14.8947 5.50934C14.9258 6.18225 14.3893 6.73676 13.7244 6.73676Z" fill="#E63946"/>
<path d="M9.10034 29.0743C4.05304 29.0917 0 33.2585 0 38.3058V38.5628C0 39.3566 0.643311 39.9999 1.43707 39.9999H16.828C17.6218 39.9999 18.2651 39.3566 18.2651 38.5628V38.2067C18.2651 33.152 14.1589 29.0566 9.10034 29.0743Z" fill="#E63946"/>
<path d="M14.8834 23.3235C14.8834 26.4995 12.309 29.0742 9.13269 29.0742C5.95673 29.0742 3.38196 26.4995 3.38196 23.3235C3.38196 20.1475 5.95673 17.5728 9.13269 17.5728C12.309 17.5728 14.8834 20.1475 14.8834 23.3235Z" fill="#E63946"/>
<path d="M38.0649 18.8282H23.2733C23.7094 15.1307 26.8539 12.2617 30.6696 12.2617C34.4843 12.2617 37.6288 15.1307 38.0649 18.8282Z" fill="#E63946"/>
<path d="M38.8281 21.25C39.4754 21.25 40 21.7746 40 22.4219V36.3181C40 36.9836 39.4446 37.5204 38.7711 37.4884C38.1415 37.4585 37.6562 36.9156 37.6562 36.2845V34.9789H20.1462C19.3585 32.2977 17.6172 30.0195 15.3149 28.5422C16.507 27.132 17.2275 25.3101 17.2275 23.3234C17.2275 22.6071 17.1335 21.9125 16.9577 21.25H38.8281Z" fill="#E63946"/>
</g>
<defs>
<clipPath id="clip0_1_558">
<rect width="40" height="40" fill="white"/>
</clipPath>
</defs>
</svg>
