<svg width="40" height="40" viewBox="0 0 40 40" fill="none" xmlns="http://www.w3.org/2000/svg">
<g clip-path="url(#clip0_1_546)">
<path d="M31.5999 19.0305C32.536 19.0305 33.2948 18.2716 33.2948 17.3355V9.83047C33.2949 9.38078 33.117 8.94938 32.7999 8.63047L24.6643 0.494922C24.3454 0.177891 23.914 -7.80993e-05 23.4643 2.57107e-08H7.19313C3.26313 0.00375003 0.0782053 3.18867 0.0744553 7.11867V32.8814C0.0782053 36.8113 3.26313 39.9963 7.19313 40H20.244C21.1801 39.9995 21.9385 39.2403 21.9381 38.3043C21.938 37.9746 21.8416 37.6521 21.6609 37.3763C18.0814 31.888 19.6288 24.5369 25.1172 20.9573C27.0454 19.6997 29.2978 19.0302 31.5999 19.0305ZM14.6507 31.4102H7.87102C6.93492 31.4102 6.1761 30.6513 6.1761 29.7152C6.1761 28.7791 6.93492 28.0203 7.87102 28.0203H14.6507C15.5868 28.0203 16.3456 28.7791 16.3456 29.7152C16.3456 30.6513 15.5868 31.4102 14.6507 31.4102ZM17.444 22.8271H7.8711C6.935 22.8271 6.17617 22.0683 6.17617 21.1322C6.17617 20.1961 6.935 19.4373 7.8711 19.4373H17.444C18.3801 19.4373 19.1389 20.1961 19.1389 21.1322C19.1389 22.0683 18.38 22.8271 17.444 22.8271ZM22.4473 3.38984H22.7592L29.905 10.5356V10.8475H22.4473V3.38984Z" fill="#E63946"/>
<path d="M39.4304 24.8272L36.6372 22.0408C35.9795 21.38 34.9107 21.3773 34.2498 22.035C34.2479 22.0369 34.2459 22.0389 34.244 22.0408L25.783 30.5086C25.5702 30.7226 25.418 30.9893 25.3423 31.2815L24.3863 35.0306C24.1504 35.9326 24.6904 36.8551 25.5924 37.0909C25.7343 37.128 25.8804 37.1465 26.027 37.1458C26.1688 37.1444 26.3099 37.1262 26.4473 37.0916L30.1897 36.1357C30.4844 36.0576 30.7533 35.9033 30.9694 35.6883L39.4304 27.2272C40.0905 26.5635 40.0905 25.4911 39.4304 24.8272Z" fill="#E63946"/>
</g>
<defs>
<clipPath id="clip0_1_546">
<rect width="40" height="40" fill="white"/>
</clipPath>
</defs>
</svg>
