<svg width="41" height="40" viewBox="0 0 41 40" fill="none" xmlns="http://www.w3.org/2000/svg">
<g clip-path="url(#clip0_1_595)">
<path d="M32.7477 22.1507C34.4141 22.1507 35.9883 22.5562 37.375 23.2749V17.1733L24.825 20.453C24.7469 20.8327 24.6273 21.1968 24.4711 21.5405C23.6516 23.3483 21.8289 24.6093 19.7188 24.6093C17.2063 24.6093 15.1031 22.8226 14.6125 20.453L2.0625 17.1733V29.6569C2.0625 31.914 3.89844 33.7499 6.15547 33.7499H22.7625C22.6891 33.2601 22.6508 32.7577 22.6508 32.2476C22.6508 26.6804 27.1805 22.1507 32.7477 22.1507Z" fill="#E63946"/>
<path d="M14.5039 15.5664C14.5039 13.7469 15.9852 12.2656 17.8047 12.2656H21.6328C23.4523 12.2656 24.9336 13.7469 24.9336 15.5664V18.0023L38.0617 14.5711C38.5773 14.4367 38.9375 13.9703 38.9375 13.4375V5.85938C38.9375 5.2125 38.4125 4.6875 37.7656 4.6875H27.6094V3.82969C27.6094 1.71797 25.8914 0 23.7797 0H15.6578C13.5461 0 11.8281 1.71797 11.8281 3.82969V4.6875H1.67188C1.025 4.6875 0.5 5.2125 0.5 5.85938V13.4375C0.5 13.9703 0.860156 14.4367 1.37578 14.5711L14.5039 18.0023V15.5664ZM14.1719 3.82969C14.1719 3.01016 14.8383 2.34375 15.6578 2.34375H23.7797C24.5992 2.34375 25.2656 3.01016 25.2656 3.82969V4.6875H14.1719V3.82969Z" fill="#E63946"/>
<path d="M17.8049 14.6099C17.2766 14.6099 16.8479 15.0386 16.8479 15.5668V19.3946C16.8479 20.9774 18.1359 22.2655 19.7188 22.2655C21.3016 22.2655 22.5896 20.9774 22.5896 19.3946V15.5668C22.5896 15.0386 22.1609 14.6099 21.6327 14.6099H17.8049Z" fill="#E63946"/>
<path d="M32.7476 24.4946C28.4726 24.4946 24.9945 27.9728 24.9945 32.2478C24.9945 36.5228 28.4726 40.0001 32.7476 40.0001C37.0226 40.0001 40.5 36.5228 40.5 32.2478C40.5 27.9728 37.0226 24.4946 32.7476 24.4946ZM36.15 31.554L33.107 34.597C32.6613 35.0497 31.9026 35.0577 31.4492 34.597L29.3461 32.4931C28.8883 32.036 28.8883 31.2938 29.3461 30.836C29.8031 30.3782 30.5453 30.3782 31.0031 30.836L32.2781 32.111L34.4922 29.897C34.95 29.4392 35.6922 29.4392 36.15 29.897C36.607 30.3548 36.607 31.097 36.15 31.554Z" fill="#E63946"/>
</g>
<defs>
<clipPath id="clip0_1_595">
<rect width="40" height="40" fill="white" transform="translate(0.5)"/>
</clipPath>
</defs>
</svg>
