<svg width="24" height="25" viewBox="0 0 24 25" fill="none" xmlns="http://www.w3.org/2000/svg">
<g clip-path="url(#clip0_1_837)">
<path d="M18.9604 11.7523C19.5221 11.7523 19.9774 11.297 19.9774 10.7353V6.23227C19.9774 5.96245 19.8707 5.70361 19.6804 5.51227L14.7991 0.630938C14.6077 0.440719 14.3489 0.333938 14.0791 0.333984H4.31637C1.95837 0.336234 0.047416 2.24719 0.045166 4.60519V20.0628C0.047416 22.4208 1.95837 24.3317 4.31637 24.334H12.1469C12.7085 24.3337 13.1636 23.8782 13.1634 23.3166C13.1633 23.1188 13.1055 22.9252 12.9971 22.7598C10.8493 19.4668 11.7778 15.0561 15.0708 12.9084C16.2277 12.1538 17.5792 11.7521 18.9604 11.7523ZM8.79092 19.1801H4.7231C4.16145 19.1801 3.70615 18.7248 3.70615 18.1631C3.70615 17.6015 4.16145 17.1462 4.7231 17.1462H8.79092C9.35257 17.1462 9.80787 17.6015 9.80787 18.1631C9.80787 18.7248 9.35257 19.1801 8.79092 19.1801ZM10.4669 14.0303H4.72315C4.16149 14.0303 3.7062 13.575 3.7062 13.0133C3.7062 12.4516 4.16149 11.9963 4.72315 11.9963H10.4669C11.0285 11.9963 11.4838 12.4516 11.4838 13.0133C11.4838 13.575 11.0285 14.0303 10.4669 14.0303ZM13.4689 2.36789H13.656L17.9435 6.65536V6.84248H13.4689V2.36789Z" fill="white"/>
<path d="M23.6586 15.23L21.9827 13.5582C21.5881 13.1617 20.9468 13.1601 20.5503 13.5547C20.5491 13.5558 20.5479 13.557 20.5467 13.5582L15.4701 18.6388C15.3424 18.7672 15.2512 18.9273 15.2057 19.1026L14.6322 21.3521C14.4906 21.8933 14.8146 22.4467 15.3558 22.5882C15.4409 22.6105 15.5286 22.6216 15.6166 22.6212C15.7017 22.6203 15.7863 22.6094 15.8688 22.5887L18.1142 22.0151C18.291 21.9682 18.4523 21.8756 18.582 21.7466L23.6586 16.67C24.0547 16.2718 24.0547 15.6283 23.6586 15.23Z" fill="white"/>
</g>
<defs>
<clipPath id="clip0_1_837">
<rect width="24" height="24" fill="white" transform="translate(0 0.333984)"/>
</clipPath>
</defs>
</svg>
