<svg width="21" height="24" viewBox="0 0 21 24" fill="none" xmlns="http://www.w3.org/2000/svg">
<g clip-path="url(#clip0_1_259)">
<path d="M20.3396 11.9916C20.3396 14.108 20.3396 16.2243 20.3406 18.3406C20.3406 18.424 20.3329 18.4823 20.2442 18.5313C17.0429 20.2966 13.8432 22.0653 10.6449 23.8366C10.5532 23.8873 10.4906 23.8826 10.4019 23.8336C7.23156 22.078 4.06056 20.3233 0.885228 18.5763C0.714561 18.4823 0.656895 18.388 0.657228 18.1926C0.664228 14.0296 0.663562 9.86665 0.659562 5.70331C0.659562 5.56531 0.704228 5.49631 0.823228 5.43098C4.02289 3.67765 7.22089 1.92098 10.4172 0.16198C10.5016 0.115647 10.5606 0.11698 10.6449 0.163647C13.4099 1.68898 16.1766 3.21065 18.9429 4.73365C19.3686 4.96798 19.7912 5.20698 20.2182 5.43865C20.3056 5.48598 20.3422 5.53698 20.3419 5.64298C20.3379 7.75931 20.3389 9.87565 20.3389 11.992L20.3396 11.9916Z" fill="white"/>
<path d="M15.2461 3.43995C15.3631 3.46629 15.4314 3.57262 15.5377 3.61629C15.8367 3.78262 16.0454 4.04262 16.2434 4.31029C16.6597 4.87429 16.8834 5.50995 16.8887 6.21062C16.8951 7.02695 16.6127 7.74595 16.0977 8.37562C15.9757 8.52495 15.9731 8.52329 16.0941 8.66429C16.5877 9.24095 17.0887 9.81129 17.5967 10.3753C17.8164 10.6193 17.9477 10.9036 17.9347 11.241C17.9307 11.3433 17.9564 11.4363 18.0037 11.5266C18.0934 11.6983 18.1717 11.874 18.2244 12.0623C18.3224 12.412 18.1994 12.6883 17.9471 12.917C17.6897 13.1503 17.4167 13.3673 17.1774 13.619C16.4377 14.3963 15.8107 15.2546 15.3084 16.2053C14.9424 16.898 14.6524 17.619 14.4461 18.373C14.2634 19.04 14.1424 19.7183 14.1191 20.4116C14.1181 20.4363 14.1161 20.4613 14.1154 20.486C14.1127 20.5673 14.0454 20.6713 14.1201 20.723C14.1824 20.7663 14.2624 20.6796 14.3327 20.6483C14.7821 20.4486 15.2191 20.223 15.6621 20.0106C16.6427 19.541 17.6184 19.0616 18.6037 18.6016C18.6527 18.5786 18.7004 18.549 18.7591 18.5603C18.7824 18.5693 18.7997 18.5826 18.7937 18.6116C17.8667 19.1263 16.9404 19.6423 16.0124 20.1556C14.2427 21.1343 12.4714 22.1103 10.7034 23.0923C10.5811 23.1603 10.4931 23.1653 10.3677 23.095C8.85406 22.2476 7.33639 21.407 5.81939 20.565C5.72339 20.5116 5.63772 20.4453 5.55872 20.37C5.50372 20.3616 5.47606 20.3186 5.44572 20.2796C4.96339 19.6593 4.76039 18.9663 4.90672 18.1846C4.92372 18.094 4.91039 18.0223 4.85172 17.95C4.34672 17.328 3.96872 16.631 3.65139 15.8986C3.51072 15.574 3.31106 15.2816 3.13539 14.9763C3.00639 14.752 2.88806 14.5246 2.84972 14.2616C2.81172 14.0033 2.86172 13.7693 2.99839 13.5496C3.14372 13.3156 3.34339 13.127 3.52306 12.9216C3.61839 12.8126 3.63706 12.7033 3.60706 12.5653C3.55006 12.3003 3.43772 12.057 3.33306 11.8103C3.30972 11.7553 3.28539 11.701 3.26606 11.6446C3.16372 11.3443 3.22072 11.143 3.46872 10.9456C3.59772 10.843 3.74306 10.7673 3.88939 10.693C4.10172 10.5853 4.31872 10.487 4.52206 10.3603C4.68572 10.2583 4.73339 10.122 4.70072 9.94229C4.66606 9.75129 4.61539 9.56429 4.56839 9.37662C4.54639 9.28962 4.53772 9.20162 4.52972 9.11195C4.50839 8.86929 4.62839 8.72029 4.83139 8.61329C5.06806 8.48829 5.32639 8.43662 5.58306 8.37895C5.71906 8.34829 5.85239 8.31095 5.98406 8.26495C6.13739 8.21129 6.21172 8.10229 6.23072 7.94329C6.25639 7.72662 6.25806 7.50762 6.30839 7.29362C6.44572 6.70729 6.80239 6.33462 7.39372 6.22162C7.72206 6.15862 8.05706 6.18262 8.38006 6.28962C8.41772 6.30229 8.45539 6.31529 8.49339 6.32695C8.62639 6.36762 8.63939 6.36195 8.61772 6.23162C8.57972 6.00429 8.58339 5.77629 8.58706 5.54795C8.59972 4.75462 8.86872 4.04895 9.34939 3.42695C9.86572 2.75862 10.5611 2.38362 11.3897 2.25129C11.6351 2.21195 11.8837 2.21362 12.1311 2.23895C12.3161 2.25795 12.3497 2.32429 12.2687 2.49795C11.9584 3.16429 11.6611 3.83629 11.3521 4.50329C11.2744 4.67095 11.2897 4.79462 11.4061 4.93595C11.8204 5.44095 12.3501 5.76462 12.9671 5.95495C13.0997 5.99595 13.2374 6.02062 13.3721 6.05529C13.4981 6.08795 13.5737 6.05162 13.6421 5.93995C13.9501 5.43562 14.2537 4.92829 14.5697 4.42895C14.7637 4.12262 14.9624 3.81929 15.1607 3.51595C15.1824 3.48295 15.2017 3.44695 15.2467 3.43995H15.2461Z" fill="black"/>
<path d="M15.2459 3.43993C14.9256 3.94759 14.6032 4.45393 14.2852 4.96293C14.0669 5.31226 13.8539 5.66493 13.6409 6.01759C13.5992 6.08659 13.5582 6.13426 13.4656 6.11659C12.6746 5.96593 11.9762 5.64959 11.4296 5.03259C11.2539 4.83426 11.2166 4.66959 11.3399 4.41926C11.6579 3.77426 11.9426 3.11293 12.2406 2.45826C12.3122 2.30059 12.3112 2.29259 12.1309 2.27759C11.0872 2.19126 10.1966 2.52526 9.50357 3.30726C8.7499 4.15726 8.49923 5.16893 8.66823 6.28559C8.68957 6.42593 8.65257 6.42426 8.5459 6.38593C8.1769 6.25326 7.79723 6.17759 7.40657 6.25426C6.80723 6.37193 6.4419 6.75793 6.33223 7.37959C6.30057 7.55993 6.28323 7.74359 6.27323 7.92659C6.2619 8.13259 6.16623 8.26259 5.96857 8.31493C5.72423 8.37993 5.47923 8.44193 5.23457 8.50493C5.0949 8.54093 4.95823 8.58593 4.8309 8.65426C4.5789 8.78959 4.51157 8.95226 4.58223 9.26759C4.6309 9.48526 4.68557 9.70159 4.7359 9.91893C4.78357 10.1256 4.72723 10.2859 4.53857 10.4013C4.30923 10.5419 4.06157 10.6449 3.8239 10.7679C3.6779 10.8433 3.5379 10.9266 3.4159 11.0386C3.25023 11.1909 3.20757 11.3736 3.28457 11.5796C3.36123 11.7839 3.4629 11.9793 3.53123 12.1859C3.7519 12.8536 3.73657 12.7383 3.34223 13.1799C3.1469 13.3989 2.94923 13.6126 2.89423 13.9199C2.84457 14.1986 2.9049 14.4556 3.03157 14.6963C3.18657 14.9903 3.3609 15.2736 3.52357 15.5636C3.7669 15.9966 3.92757 16.4699 4.1819 16.8976C4.40057 17.2649 4.63557 17.6206 4.90257 17.9549C4.9429 18.0053 4.9779 18.0489 4.9609 18.1266C4.78223 18.9403 4.9959 19.6569 5.50657 20.2983C5.5249 20.3213 5.5409 20.3463 5.5579 20.3706C5.4909 20.4216 5.44457 20.3579 5.39957 20.3333C4.1009 19.6179 2.80523 18.8969 1.50523 18.1843C1.3499 18.0989 1.2869 18.0086 1.28723 17.8206C1.29423 13.9116 1.29357 10.0026 1.28923 6.09393C1.28923 5.93993 1.33523 5.86159 1.4729 5.78626C3.1139 4.88993 4.7499 3.98459 6.3879 3.08326C7.53057 2.45459 8.6749 1.82826 9.81857 1.20093C10.0186 1.09126 10.2202 0.983925 10.4172 0.869258C10.4942 0.824258 10.5562 0.821925 10.6359 0.866258C11.8662 1.55193 13.0979 2.23493 14.3299 2.91726C14.6376 3.08759 14.9519 3.24593 15.2456 3.44059L15.2459 3.43993Z" fill="white"/>
<path d="M18.7564 18.5746C17.9504 18.9586 17.1434 19.3413 16.3384 19.7273C15.6227 20.0703 14.9087 20.4173 14.1937 20.7623C14.1547 20.781 14.1141 20.797 14.0471 20.8256C14.0711 20.4886 14.0811 20.173 14.1177 19.8603C14.2574 18.6716 14.5927 17.539 15.1284 16.4686C15.8164 15.094 16.7234 13.8876 17.9084 12.8986C18.1924 12.6616 18.2904 12.364 18.1687 12.0053C18.1561 11.9676 18.1474 11.9286 18.1321 11.8923C18.0127 11.613 17.8747 11.3466 17.8787 11.0223C17.8814 10.793 17.7384 10.594 17.5837 10.4186C17.0514 9.81564 16.5211 9.2113 15.9881 8.60864C15.9401 8.55431 15.9137 8.52264 15.9774 8.4513C17.2547 7.01764 17.1134 4.98264 15.6541 3.73097C15.6131 3.69564 15.5767 3.65497 15.5381 3.61664C15.6347 3.60897 15.7074 3.66864 15.7841 3.71064C16.5577 4.13497 17.3301 4.56197 18.1031 4.98797C18.6024 5.26331 19.1017 5.53897 19.6027 5.8113C19.6631 5.8443 19.6931 5.88264 19.6887 5.95097C19.6854 6.0003 19.6884 6.0503 19.6884 6.09997C19.6884 10.033 19.6874 13.9656 19.6931 17.8986C19.6931 18.0706 19.6541 18.1793 19.4867 18.2353C19.4124 18.2603 19.3451 18.3056 19.2744 18.342C19.1397 18.389 19.0224 18.4706 18.8941 18.5306C18.8494 18.5516 18.8074 18.5743 18.7571 18.575L18.7564 18.5746Z" fill="white"/>
<path d="M18.7562 18.5746C18.9222 18.4826 19.0845 18.3829 19.2735 18.3416C19.1208 18.4449 18.9622 18.5382 18.7928 18.6122C18.7805 18.5996 18.7685 18.5872 18.7562 18.5746Z" fill="#644629"/>
<path d="M15.3548 14.7161C14.8765 15.3417 14.3178 15.8921 13.7408 16.4247C13.5985 16.5561 13.4505 16.6811 13.3012 16.8041C13.2415 16.8531 13.2195 16.9051 13.2222 16.9827C13.2402 17.5087 13.2542 18.0351 13.2672 18.5614C13.2882 19.3954 13.3062 20.2297 13.3288 21.0637C13.3312 21.1447 13.3075 21.1881 13.2328 21.2241C12.4142 21.6177 11.5965 22.0131 10.7812 22.4131C10.6662 22.4694 10.6435 22.4491 10.6415 22.3261C10.6255 21.2584 10.6105 20.1904 10.5798 19.1231C10.5742 18.9214 10.6225 18.7661 10.7388 18.6047C11.0962 18.1097 11.4478 17.6104 11.7625 17.0861C12.0375 16.6277 12.1698 16.1307 12.1682 15.5971C12.1672 15.2447 12.1595 14.8934 12.2382 14.5447C12.3945 13.8507 12.7695 13.3047 13.3208 12.8647C13.9038 12.3994 14.5282 11.9931 15.1362 11.5634C15.2162 11.5067 15.2935 11.4467 15.3615 11.3591C15.1325 11.4064 14.9032 11.4527 14.6742 11.5011C14.4462 11.5491 14.2178 11.5957 13.9912 11.6494C13.9122 11.6681 13.8765 11.6494 13.8238 11.5814C13.6682 11.3804 13.6642 11.1867 13.7788 10.9664C13.8515 10.8267 13.8938 10.6711 13.9508 10.5201C13.8862 10.4857 13.8432 10.5331 13.7982 10.5534C13.0878 10.8734 12.3872 11.2171 11.6665 11.5114C10.8532 11.8437 9.92282 11.5007 9.52915 10.7457C9.33315 10.3701 9.29649 9.97139 9.48882 9.57372C9.54515 9.56339 9.56782 9.60539 9.58982 9.64305C9.74915 9.91505 9.93015 10.1727 10.1045 10.4351C10.1355 10.4821 10.1845 10.5277 10.1505 10.5947C10.0692 10.6107 10.0378 10.5454 9.99915 10.4977C9.85915 10.3247 9.71415 10.1561 9.57715 9.96972C9.51082 10.3397 9.84749 10.8894 10.3302 11.0787C10.9225 11.3114 11.5078 11.1344 11.8435 10.6227C11.8722 10.5767 11.9205 10.5624 11.9668 10.5451C12.7282 10.2584 13.4808 9.94972 14.2338 9.64239C14.2888 9.62005 14.3445 9.59872 14.4005 9.57872C14.5232 9.53472 14.6215 9.56539 14.7065 9.66339C15.1688 10.1974 15.5428 10.7831 15.7585 11.4611C15.9885 12.1837 15.9655 12.9064 15.7498 13.6277C15.6745 13.8797 15.5675 14.1204 15.4835 14.3691C15.4655 14.4941 15.3765 14.5931 15.3555 14.7174L15.3548 14.7161Z" fill="white"/>
<path d="M10.1481 10.6023C10.0261 10.3476 9.8508 10.1269 9.69647 9.89295C9.62647 9.78695 9.58513 9.66128 9.48846 9.57295C9.57913 9.33995 9.7268 9.17228 9.9788 9.10028C11.4645 8.67561 12.9491 8.24895 14.4328 7.81761C14.7215 7.73361 14.9348 7.78728 15.1398 8.02995C15.8798 8.90561 16.6408 9.76361 17.3911 10.6306C17.7121 11.0013 17.7311 11.3356 17.4585 11.7389C17.0921 12.2813 16.7538 12.8433 16.3345 13.3489C16.3035 13.3863 16.2681 13.4206 16.2348 13.4563C16.1851 13.4029 16.1815 13.4006 16.2281 13.3273C16.3165 13.1893 16.3985 13.0473 16.4851 12.9083C16.7138 12.5419 16.9401 12.1739 17.1545 11.7989C17.2801 11.5793 17.2778 11.3749 17.1181 11.1633C16.5465 10.4066 15.9778 9.64795 15.3988 8.89695C15.3595 8.84595 15.3178 8.74761 15.2425 8.79695C15.1545 8.85461 15.2375 8.92961 15.2735 8.98761C15.7038 9.67895 16.1305 10.3723 16.5311 11.0813C16.6868 11.3569 16.7201 11.6376 16.5991 11.9383C16.4321 12.3529 16.2475 12.7599 16.0648 13.1676C15.9025 13.5299 15.7451 13.8946 15.5691 14.2506C15.5441 14.3013 15.5385 14.3823 15.4485 14.3736C15.4965 14.1496 15.6031 13.9466 15.6755 13.7309C16.0505 12.6129 15.9058 11.5579 15.3071 10.5539C15.1265 10.2513 14.9111 9.97428 14.6911 9.69995C14.5898 9.57361 14.4828 9.58261 14.3508 9.63661C13.7368 9.88761 13.1215 10.1346 12.5061 10.3819C12.2865 10.4703 12.0651 10.5553 11.8448 10.6419C11.8325 10.6706 11.8098 10.6923 11.7825 10.7023C11.4995 10.8043 11.2255 10.9353 10.9325 11.0049C10.6071 11.0823 10.2405 10.8856 10.1481 10.6026V10.6023Z" fill="white"/>
<path d="M14.3222 7.25292C14.1328 7.33592 13.9258 7.31659 13.7285 7.35359C13.2345 7.44559 12.7668 7.62592 12.2892 7.77326C11.9958 7.86359 11.7028 7.95626 11.4132 8.05692C11.2765 8.10459 11.1698 8.09059 11.0432 8.00892C10.5022 7.65992 10.0385 7.23359 9.67516 6.70159C8.54216 5.04226 9.39283 3.45259 10.7578 2.77492C11.0712 2.61959 11.4038 2.53459 11.7725 2.50659C11.5855 2.91959 11.4065 3.31492 11.2278 3.71059C11.0992 3.99526 10.9752 4.28193 10.8412 4.56393C10.7938 4.66326 10.7975 4.74926 10.8405 4.84659C11.0278 5.27059 11.2888 5.63992 11.6408 5.94326C11.7342 6.02359 11.8292 6.10159 11.9235 6.18092C12.0485 6.24692 12.1565 6.33992 12.2822 6.40492C12.8888 6.73392 13.5088 7.02926 14.1915 7.16826C14.2438 7.17892 14.2992 7.19326 14.3225 7.25292H14.3222Z" fill="#8EA1A4"/>
<path d="M12.5206 11.925C12.3636 12.302 12.2216 12.6494 12.075 12.9947C11.1969 15.0624 10.3176 17.129 9.43962 19.1967C9.06095 20.0884 8.28962 20.576 7.32528 20.4837C6.34795 20.39 5.51762 19.614 5.52762 18.5504C5.52962 18.3354 5.57928 18.1277 5.66195 17.929C5.82362 17.54 5.98862 17.1524 6.14828 16.7624C6.17862 16.6887 6.20728 16.649 6.29862 16.6727C6.57195 16.7437 6.84595 16.8117 7.12228 16.8697C7.23328 16.8931 7.22428 16.9327 7.19262 17.021C7.12695 17.203 7.02695 17.3327 6.85328 17.4407C6.43462 17.701 6.25762 18.1944 6.36295 18.6884C6.45895 19.1387 6.88395 19.5454 7.34095 19.624C8.13295 19.7607 8.84328 19.1794 8.83128 18.404C8.83128 18.384 8.83595 18.3621 8.82895 18.3447C8.70262 18.0354 8.84062 17.7664 8.95695 17.494C8.97828 17.444 9.00228 17.3944 9.01728 17.342C9.05628 17.2064 9.13295 17.1174 9.26862 17.0567C9.48528 16.9597 9.62395 16.774 9.72662 16.565C10.2633 15.4694 10.842 14.3954 11.4053 13.3134C11.4446 13.2377 11.4926 13.174 11.5603 13.118C11.8633 12.868 12.0213 12.5407 12.0493 12.1514C12.0546 12.077 12.0686 12.034 12.1523 12.0197C12.2636 12.0004 12.3719 11.964 12.5203 11.925H12.5206Z" fill="#8DA1A3"/>
<path d="M11.0403 12.2351C11.1143 12.2284 11.1887 12.2241 11.2623 12.2151C11.46 12.1904 11.4613 12.1914 11.3997 12.3764C11.1893 13.0091 10.5023 13.3194 9.88066 13.0541C9.47933 12.8828 9.10466 12.6571 8.72033 12.4518C8.08233 12.1111 7.44333 11.7721 6.80899 11.4244C6.43633 11.2201 6.10566 10.9601 5.84199 10.6221C5.71866 10.4638 5.62199 10.2904 5.58699 10.0911C5.50333 9.61175 5.81566 9.23342 6.32133 9.19042C6.65933 9.16176 6.97099 9.23376 7.25833 9.41542C7.77766 9.74409 8.29799 10.0718 8.81933 10.3974C8.87266 10.4308 8.91133 10.4621 8.92166 10.5304C9.01633 11.1468 9.36299 11.5888 9.88299 11.9098C9.92433 11.9351 9.963 11.9651 10.0027 11.9931C10.0457 12.0671 10.002 12.1278 9.96866 12.1864C9.91233 12.2854 9.85466 12.3838 9.80833 12.4878C9.74466 12.6311 9.76766 12.6941 9.90466 12.7638C10.269 12.9494 10.8203 12.7458 10.9767 12.3674C10.9953 12.3221 11.0013 12.2708 11.0407 12.2354L11.0403 12.2351Z" fill="white"/>
<path d="M10.5672 13.8366C10.5586 14.6352 9.84024 15.1786 9.06724 14.9859C8.75791 14.9089 8.46558 14.7869 8.17924 14.6496C7.39291 14.2726 6.60524 13.8979 5.82058 13.5169C5.50691 13.3646 5.21324 13.1782 4.97858 12.9139C4.81624 12.7312 4.69691 12.5239 4.70324 12.2726C4.71391 11.8679 5.12658 11.5766 5.52758 11.6799C5.61991 11.7036 5.71024 11.7366 5.78358 11.7956C6.27491 12.1922 6.85891 12.3996 7.43858 12.6202C8.29958 12.9486 9.15858 13.2822 10.0002 13.6589C10.0182 13.6669 10.0366 13.6749 10.0549 13.6822C10.3482 13.8006 10.3766 13.7819 10.3749 13.4706C10.3749 13.4329 10.3522 13.3876 10.4206 13.3886C10.4679 13.3892 10.5099 13.3942 10.5189 13.4536C10.5382 13.5859 10.5766 13.7159 10.5676 13.8366H10.5672Z" fill="white"/>
<path d="M8.95186 9.67707C8.9552 9.72774 8.94653 9.77541 8.9142 9.83274C8.6552 9.66074 8.41587 9.46507 8.17153 9.27707C7.7702 8.96841 7.42053 8.61407 7.18186 8.16141C7.08386 7.97574 7.01153 7.78307 7.00753 7.56841C7.00353 7.34874 7.08153 7.16107 7.2572 7.03774C7.66253 6.75307 8.11787 6.64441 8.6092 6.71541C8.79053 6.74174 8.93786 6.84974 9.0782 6.96141C9.69953 7.45541 10.3195 7.95107 10.9399 8.44607C10.9629 8.46441 10.9835 8.48474 11.0185 8.51607C10.8669 8.58774 10.7122 8.60874 10.5652 8.65241C10.3519 8.71607 10.1385 8.78141 9.9212 8.82941C9.59853 8.90107 9.33453 9.05841 9.13086 9.31841C9.04586 9.35574 8.9892 9.29841 8.9302 9.25574C8.62453 9.03574 8.31953 8.81474 8.01886 8.58774C7.9872 8.56374 7.95653 8.53841 7.9212 8.51974C7.8942 8.50541 7.8642 8.49407 7.83853 8.51807C7.8052 8.54974 7.82487 8.58174 7.84653 8.61041C7.87053 8.64207 7.89986 8.66907 7.9282 8.69674C8.2182 8.98141 8.5232 9.24907 8.8292 9.51607C8.88053 9.56074 8.94353 9.59841 8.95153 9.67674L8.95186 9.67707Z" fill="white"/>
<path d="M9.31163 15.7277C9.40062 15.591 9.55662 15.4804 9.46996 15.2654C9.66062 15.472 9.71229 16.002 9.52096 16.2854C9.31963 16.5837 9.00129 16.7194 8.66096 16.6214C7.67596 16.3374 6.69796 16.0307 5.72029 15.723C5.60629 15.687 5.49696 15.6424 5.39563 15.5784C5.06696 15.3704 4.93563 14.9777 5.08363 14.6477C5.23263 14.316 5.61229 14.1504 5.98696 14.2827C6.34129 14.4077 6.68563 14.5617 7.03296 14.7067C7.50363 14.903 7.97296 15.1024 8.44229 15.3017C8.49596 15.3247 8.54529 15.358 8.59663 15.3864C8.57096 15.551 8.46529 15.683 8.41196 15.8364C8.38263 15.92 8.34229 16 8.31196 16.0837C8.25963 16.228 8.28729 16.295 8.43229 16.349C8.65696 16.4324 8.85996 16.3707 9.04663 16.2387C9.22163 16.115 9.28196 15.9287 9.31163 15.728V15.7277Z" fill="white"/>
<path d="M14.3227 7.2531C14.0077 7.15376 13.6824 7.09143 13.3744 6.96643C12.9901 6.81076 12.6157 6.63676 12.2614 6.42143C12.2321 6.38721 12.233 6.36465 12.2641 6.35376C13.1521 6.7561 14.0351 6.8451 14.8914 6.27976C15.2621 6.03476 15.4341 5.66143 15.4844 5.2261C15.5154 4.9581 15.4851 4.6911 15.4874 4.42376C15.5707 4.4441 15.5544 4.52243 15.5731 4.57776C15.6091 4.68543 15.6131 4.80176 15.6561 4.9081C15.6694 4.9411 15.6914 4.97143 15.7311 4.97043C15.7674 4.96943 15.7851 4.9391 15.7794 4.90843C15.7274 4.6341 15.6754 4.35943 15.4407 4.16843C15.4244 4.1071 15.4287 4.0461 15.4394 3.95776C15.6671 4.1851 15.8544 4.41176 15.9751 4.68543C16.3731 5.58876 16.3364 6.4441 15.6891 7.23243C15.6261 7.30943 15.5601 7.33843 15.4621 7.33976C15.0794 7.34476 14.7014 7.2991 14.3231 7.25343L14.3227 7.2531Z" fill="#8EA1A4"/>
<path d="M15.4483 14.3732C15.5709 14.2272 15.6253 14.0459 15.7013 13.8762C15.9766 13.2602 16.2453 12.6409 16.5249 12.0269C16.6766 11.6939 16.6679 11.3802 16.4826 11.0619C16.0879 10.3842 15.6813 9.71355 15.2666 9.04822C15.2456 9.01455 15.2199 8.98355 15.2013 8.94855C15.1673 8.88489 15.1073 8.81722 15.1936 8.75222C15.2849 8.68355 15.3396 8.75322 15.3886 8.81755C15.7466 9.28689 16.1039 9.75689 16.4603 10.2272C16.6849 10.5239 16.9076 10.8219 17.1309 11.1192C17.3323 11.3872 17.3439 11.5556 17.1709 11.8422C16.8663 12.3479 16.5583 12.8519 16.2529 13.3576C16.2359 13.3859 16.1909 13.4142 16.2343 13.4559C16.0553 13.6732 15.9283 13.9239 15.7829 14.1622C15.6606 14.3626 15.5679 14.5856 15.3546 14.7156C15.3203 14.5836 15.4276 14.4902 15.4479 14.3729L15.4483 14.3732Z" fill="black"/>
<path d="M13.8577 6.3941C14.3341 5.6021 14.7921 4.8401 15.2604 4.06177C15.3287 4.1981 15.3041 4.33343 15.3164 4.45943C15.3507 4.81477 15.3611 5.1711 15.2201 5.51243C15.0777 5.85677 14.8281 6.08943 14.4847 6.2261C14.2921 6.30277 14.0921 6.3521 13.8577 6.3941Z" fill="#64828A"/>
<path d="M9.31132 15.7277C9.37932 15.8843 9.23199 16.1633 9.04265 16.294C8.81032 16.4543 8.49332 16.4653 8.30332 16.3213C8.24199 16.2747 8.21899 16.221 8.24532 16.1547C8.34899 15.8923 8.43932 15.6237 8.59665 15.386C8.85432 15.4587 9.08465 15.5893 9.31132 15.7277Z" fill="black"/>
<path d="M11.0404 12.2351C11.0164 12.5404 10.7061 12.8301 10.3644 12.8564C10.1921 12.8698 10.0171 12.8774 9.85773 12.7861C9.71139 12.7021 9.68806 12.6321 9.76306 12.4824C9.80939 12.3894 9.86273 12.3001 9.91106 12.2081C9.94739 12.1388 10.0001 12.0761 10.0031 11.9924C10.3361 12.1294 10.6794 12.2204 11.0407 12.2351H11.0404Z" fill="#191919"/>
<path d="M7.58945 18.8769C7.34445 18.8806 7.13778 18.6819 7.13678 18.4419C7.13578 18.1832 7.34745 17.9596 7.59812 17.9549C7.83445 17.9506 8.04212 18.1516 8.05045 18.3929C8.05945 18.6489 7.84612 18.8729 7.58978 18.8769H7.58945Z" fill="#8CA0A3"/>
<path d="M8.95202 9.67711C8.61035 9.36711 8.26868 9.05711 7.92735 8.74678C7.89802 8.72011 7.86935 8.69212 7.84235 8.66312C7.79702 8.61412 7.72335 8.57045 7.78802 8.48945C7.86102 8.39778 7.92335 8.47278 7.97835 8.51278C8.22702 8.69345 8.46935 8.88311 8.72102 9.05945C8.85302 9.15178 8.96568 9.27811 9.13135 9.31845C9.07135 9.43811 9.01168 9.55778 8.95202 9.67745V9.67711Z" fill="black"/>
<path d="M15.4402 4.16833C15.4532 4.144 15.4505 4.085 15.4999 4.14267C15.6929 4.36933 15.7835 4.639 15.8249 4.928C15.8312 4.973 15.8099 5.017 15.7552 5.02767C15.6902 5.04033 15.6475 5.01067 15.6305 4.95067C15.5982 4.83667 15.5722 4.72067 15.5409 4.60633C15.5239 4.545 15.5252 4.47833 15.4869 4.42367C15.4712 4.33867 15.4559 4.25367 15.4402 4.16833Z" fill="#FBFAF8"/>
<path d="M12.2636 6.35357C12.2343 6.37491 12.2613 6.39858 12.261 6.42124C12.131 6.36558 12.0246 6.27724 11.9236 6.18091C12.0553 6.20224 12.154 6.28924 12.264 6.35357H12.2636Z" fill="#A47840"/>
<path d="M10.1483 10.6023C10.221 10.6963 10.3033 10.7813 10.3973 10.8533C10.5746 10.989 10.7723 11.0246 10.9833 10.951C11.2716 10.8506 11.558 10.7446 11.845 10.6413C11.8606 10.7296 11.7843 10.769 11.74 10.819C11.4046 11.1963 10.8416 11.3193 10.351 11.1286C9.84796 10.9333 9.51262 10.4646 9.51429 9.95829C9.51429 9.93562 9.51829 9.91262 9.52329 9.85962C9.75029 10.117 9.92762 10.3783 10.148 10.6023H10.1483Z" fill="#0A2335"/>
<path d="M11.3438 8.93774C11.7825 8.90574 12.4198 9.9394 12.2058 10.2764C12.0081 9.77707 11.7481 9.32741 11.3438 8.93774Z" fill="#122737"/>
<path d="M9.37023 14.7686C9.24757 14.7756 9.1329 14.7536 9.02357 14.699C8.9189 14.6466 8.88957 14.5676 8.94523 14.4676C9.08223 14.2213 9.22557 13.9783 9.36323 13.732C9.40957 13.649 9.46757 13.6196 9.5579 13.6573C9.72657 13.7273 9.8999 13.7873 10.0646 13.8646C10.2549 13.9543 10.2999 14.0956 10.1952 14.2803C10.0149 14.5993 9.73323 14.7566 9.3699 14.7686H9.37023Z" fill="black"/>
</g>
<defs>
<clipPath id="clip0_1_259">
<rect width="19.871" height="24" fill="white" transform="translate(0.564514)"/>
</clipPath>
</defs>
</svg>
