<svg width="32" height="33" viewBox="0 0 32 33" fill="none" xmlns="http://www.w3.org/2000/svg">
<path d="M28.7906 9.93832C28.6388 9.37486 28.342 8.86099 27.9298 8.44788C27.5176 8.03476 27.0044 7.7368 26.4413 7.58365C24.3533 7.01032 16 7.00099 16 7.00099C16 7.00099 7.64795 6.99165 5.55862 7.53965C4.99585 7.69985 4.48371 8.00202 4.07137 8.41717C3.65903 8.83231 3.36033 9.34648 3.20395 9.91032C2.65328 11.9983 2.64795 16.329 2.64795 16.329C2.64795 16.329 2.64262 20.681 3.18928 22.7477C3.49595 23.8903 4.39595 24.793 5.53995 25.101C7.64929 25.6743 15.98 25.6837 15.98 25.6837C15.98 25.6837 24.3333 25.693 26.4213 25.1463C26.9846 24.9934 27.4983 24.6962 27.9115 24.2839C28.3247 23.8716 28.6231 23.3586 28.7773 22.7957C29.3293 20.709 29.3333 16.3797 29.3333 16.3797C29.3333 16.3797 29.36 12.0263 28.7906 9.93832ZM13.328 20.341L13.3346 12.341L20.2773 16.3477L13.328 20.341Z" fill="#9A433E"/>
</svg>
